<svg width="1500" height="1500" viewBox="0 0 1500 1500" fill="none" xmlns="http://www.w3.org/2000/svg">
<g clip-path="url(#clip0_2718_834)">
<rect width="1500" height="1500" fill="#65636D"/>
<path d="M581.4 587H522.6V431.6H381.6V587H322.2V224.6L374.4 172.4H581.4V587ZM559.8 224.6H381.6V424.4L426.6 379.4H522.6V261.8L559.8 224.6ZM717.628 587H658.228V172.4H717.628V587ZM1053.55 587H994.153L995.353 545L876.553 425.6L916.753 379.4H994.153V224.6H853.753V587H794.353V275.6L846.553 224.6H787.153V172.4H1001.35L1053.55 224.6V372.2L1001.35 424.4H952.753V432.2L1053.55 531.8V587ZM1173.86 587H1114.46V172.4H1173.86V587Z" fill="#C3BEC6"/>
<path d="M712.161 1185.04L505.412 1050.61L656.131 808.279L1023.68 1018.77L988.945 1216.88L712.161 1185.04Z" fill="#FFEBEB"/>
<path d="M1002.39 871.957V735.168H1081.39L1141.91 925.611L1002.39 871.957Z" fill="#FFEBEB"/>
<g clip-path="url(#clip1_2718_834)">
<path fill-rule="evenodd" clip-rule="evenodd" d="M1453.63 1972.8C1434.47 2002.51 1378.76 2040.44 1347.75 2059.54C1333.13 2068.56 1317.25 2065.91 1295.57 2069.63C1202.04 2085.54 1109.02 2064.58 1032.89 2040.71C1014.49 2034.87 968.865 1998.27 949.202 2005.96C920.968 2019.22 925.002 2055.04 910.633 2082.62C901.053 2103.85 875.845 2181.04 868.03 2198.28C848.115 2242.32 823.159 2287.68 799.21 2328.53C780.808 2360.1 733.668 2418.99 680.982 2387.96C656.277 2373.37 657.538 2353.2 653.757 2332.25C653.505 2331.45 653.504 2320.05 652.748 2320.05C649.975 2320.05 649.975 2320.05 646.698 2320.05C640.312 2328.18 633.842 2336.32 627.288 2344.45C590.735 2379.73 535.78 2371.24 522.924 2318.45C514.353 2283.7 530.234 2248.69 539.309 2225.87C556.283 2170.87 573.257 2115.87 590.231 2060.87C599.306 2015.24 578.635 1978.11 566.787 1948.13C544.603 1890.83 538.301 1822.65 515.865 1764.29C506.538 1739.62 488.64 1726.89 481.581 1709.38C473.263 1688.42 454.86 1602.48 440.239 1595.05C393.351 1572.76 380.747 1647.04 353.774 1657.12C298.819 1677.81 274.871 1596.37 271.341 1554.46C225.714 1538.54 191.43 1466.39 213.362 1399.81C232.772 1341.71 273.61 1299.8 351.001 1301.39C357.807 1292.37 368.395 1287.86 375.705 1279.64L390.83 1215.97C398.729 1200.58 406.544 1185.11 414.274 1169.55C425.114 1152.83 444.777 1131.61 460.91 1120.47C470.154 1115.7 479.313 1110.83 488.388 1105.88C483.346 1104.64 478.809 1103.14 474.775 1101.37C449.062 1089.43 444.777 1066.35 426.627 1043.81C424.862 1048.58 404.695 1084.13 393.603 1094.47C389.906 1092 386.209 1089.52 382.511 1087.05C375.957 1076.17 375.705 1000.3 370.159 977.221C326.044 790.998 341.421 628.384 469.229 535.803C479.313 528.641 486.371 506.888 489.9 501.052C514.101 483.19 538.385 465.329 562.753 447.467C588.97 433.938 625.019 431.815 663.084 425.979C677.705 425.449 692.41 424.918 707.199 424.388C818.873 423.327 947.185 489.115 1010.96 542.966C1025.58 562.773 1040.29 582.58 1055.08 602.387C1085.08 644.566 1118.6 682.501 1145.83 728.393C1171.54 771.898 1226.25 842.196 1225.49 900.557C1197.93 869.078 1170.45 837.687 1143.06 806.384C1150.62 840.074 1167.76 846.971 1180.11 870.846C1183.89 878.274 1188.94 887.028 1193.98 891.803C1200.53 896.224 1207.17 900.734 1213.89 905.332C1229.69 915.766 1245.49 926.2 1261.29 936.634C1312.21 976.16 1363.13 1031.6 1398.67 1087.05C1460.69 1183.87 1505.3 1292.37 1533.54 1425.8C1574.88 1621.31 1531.27 1853.69 1453.63 1972.8ZM1020.54 822.301C1041.47 829.198 1071.72 864.214 1096.17 857.052C1096.17 857.052 1069.7 829.994 1057.85 816.465C1049.03 803.997 1048.27 793.916 1037.43 775.347L1030.88 766.858C1027.1 783.305 1013.99 808.772 1020.54 822.301ZM983.486 1069.8C982.73 1068.48 974.159 1083.07 973.654 1082.27C967.1 1072.99 963.319 1073.52 952.983 1065.82C944.664 1055.21 940.883 1032.66 932.564 1022.05C913.91 1024.71 886.937 1093.94 872.064 1110.39C871.223 1109.86 870.299 1109.33 869.291 1108.8C857.695 1064.76 772.741 918.861 742.743 900.557C719.887 896.136 697.031 891.803 674.176 887.558C652.244 912.76 642.161 949.898 619.221 974.303C595.777 998.974 564.518 1015.16 542.082 1040.89V1052.29C549.897 1064.5 562.501 1067.15 575.106 1074.05C592.584 1082.71 609.978 1091.38 627.288 1100.04C632.581 1101.37 638.127 1101.64 643.421 1101.11C653 1100.31 662.327 1097.66 668.63 1095.8C696.611 1087.58 729.635 1095.27 755.347 1101.64C773.246 1106.15 783.329 1119.14 796.438 1127.63C821.142 1143.81 846.855 1149.12 869.291 1166.63C872.148 1170.52 874.921 1174.41 877.609 1178.3C902.314 1188.38 982.225 1096.06 983.486 1069.8Z" fill="#F1D0DB"/>
<path d="M396.881 610.34C391.083 628.379 381.756 649.601 375.958 667.639C375.622 668.17 375.454 668.789 375.454 669.496C365.622 718.307 363.101 835.559 372.933 885.696C384.361 936.275 395.789 986.854 407.217 1037.43C413.771 1075.9 367.639 1158.93 347.976 1163.44C348.48 1162.64 351.001 1150.71 353.27 1140.89C354.447 1135.41 355.203 1129.93 355.539 1124.44C357.724 1089.6 359.824 1054.76 361.841 1019.92C362.849 1006.66 361.589 993.397 358.564 980.399C351.337 949.804 344.195 919.209 337.137 888.614C324.784 821.499 343.439 711.675 361.841 664.191C369.152 645.356 396.125 610.34 396.881 610.34Z" fill="#EC92AD"/>
<path d="M568.803 545.614L657.79 306.336C657.79 306.336 725.349 343.209 803.748 524.392L568.803 545.614Z" fill="#EC92AD"/>
<path d="M272.097 606.103C272.097 606.103 331.337 583.555 393.099 598.676C455.112 613.796 344.194 747.23 344.194 747.23C344.194 747.23 260.753 628.917 272.097 606.103Z" fill="#EC92AD"/>
<path d="M565.526 508.741C565.526 508.741 563.509 550.124 574.097 551.185L658.041 306.601C658.041 306.336 657.789 306.336 657.789 306.601C550.148 512.72 569.559 483.805 565.526 508.741Z" fill="#F1D0DB"/>
<path d="M793.16 510.602C780.051 502.113 764.17 454.098 763.162 450.384C755.095 419.612 735.684 395.207 695.602 349.58C675.183 326.235 657.033 307.401 657.789 306.34C658.546 305.544 674.931 319.338 684.259 327.562C706.19 346.661 726.357 367.618 751.313 400.512C797.193 460.465 807.781 504.5 816.604 518.825C816.856 519.356 818.116 521.478 817.36 522.274C816.352 523.6 810.554 520.417 803.748 516.703C798.958 514.05 794.42 511.397 793.16 510.602Z" fill="#F1D0DB"/>
<path d="M597.037 542.169C594.768 540.578 605.86 516.437 623.002 488.849C637.119 466.035 638.631 467.892 651.74 445.344C659.05 433.141 665.604 420.938 667.117 421.734C668.125 421.999 666.865 425.979 665.857 431.549C660.563 458.607 667.369 472.137 664.848 491.502C664.848 492.563 664.344 495.746 665.352 496.011C666.361 496.542 669.134 491.502 671.907 487.257C674.679 483.278 679.217 479.034 688.04 470.81C705.434 454.363 707.199 454.894 707.955 455.424C709.468 456.485 707.703 459.934 707.955 472.667C707.955 473.728 707.955 483.543 711.988 491.502C712.493 492.297 713.249 493.624 714.509 494.42C716.274 495.481 718.795 495.746 724.845 492.828C733.92 488.318 735.18 483.809 738.205 484.604C740.726 485.4 740.222 488.849 744.76 497.603C748.037 504.235 759.128 506.092 758.12 508.214C756.86 510.867 741.987 511.662 740.474 511.928C688.04 520.947 627.791 536.864 611.154 538.455C609.893 538.721 606.616 538.986 602.583 540.312C598.549 541.639 597.541 542.7 597.037 542.169Z" fill="#F1D0DB"/>
<path d="M341.794 743.464C341.553 746.869 341.553 746.869 340.758 749.789C338.994 750.319 338.144 749.884 327.556 731.314C316.464 711.949 311.675 705.583 301.339 685.156C292.012 666.057 286.718 653.058 283.441 648.283C283.441 648.283 274.618 632.897 269.828 616.45C269.072 613.797 268.82 610.879 268.82 610.879C268.82 608.757 268.568 606.37 269.072 605.574C270.837 603.186 303.608 620.164 333.858 642.447C342.177 648.814 361.084 663.404 366.882 664.465C367.134 664.73 367.89 664.73 368.394 665.526C370.411 668.179 362.344 674.015 359.571 682.769C353.017 701.869 353.017 718.846 350.748 723.621C347.723 729.723 345.706 733.702 344.95 733.702C344.194 733.702 343.942 720.173 343.942 720.173C343.942 720.173 334.615 722.295 333.354 720.438C330.329 715.398 349.488 700.012 346.715 694.971C344.698 691.258 332.094 696.298 331.085 693.645C329.573 690.462 345.959 684.626 345.959 676.137C345.959 664.465 314.196 659.159 298.062 641.121C297.558 640.325 296.55 639.264 295.793 639.529C292.768 641.121 313.439 689.666 323.019 709.827C333.354 731.049 334.031 727.057 338.317 734.22C338.821 735.015 339.396 736.166 340.166 738.598C340.707 740.305 341.553 742.004 341.794 743.464Z" fill="#F1D0DB"/>
<path d="M1453.63 1972.8C1434.47 2002.51 1378.76 2040.44 1347.75 2059.54C1333.13 2068.56 1317.25 2065.91 1295.57 2069.62C1202.04 2085.54 1109.02 2064.58 1032.89 2040.71C1014.49 2034.87 968.865 1998.26 949.202 2005.96C920.968 2019.22 925.002 2055.03 910.633 2082.62C901.053 2103.84 875.845 2181.04 868.03 2198.28C848.115 2242.32 823.159 2287.68 799.21 2328.53C780.808 2360.1 733.668 2418.99 680.982 2387.95C656.277 2373.36 657.538 2353.2 653.757 2332.24C653.505 2331.45 653.504 2320.04 652.748 2320.04C649.975 2320.04 649.975 2320.04 646.698 2320.04C640.312 2328.18 633.842 2336.31 627.288 2344.45C590.735 2379.73 535.78 2371.24 522.924 2318.45C514.353 2283.7 530.234 2248.68 539.309 2225.87C556.283 2170.87 573.257 2115.87 590.231 2060.87C599.306 2015.24 578.635 1978.1 566.787 1948.13C544.603 1890.83 538.301 1822.65 515.865 1764.29C506.538 1739.62 488.64 1726.89 481.581 1709.38C473.263 1688.42 454.86 1602.47 440.239 1595.04C393.351 1572.76 380.747 1647.04 353.774 1657.12C298.819 1677.81 274.871 1596.37 271.341 1554.46C225.714 1538.54 191.43 1466.39 213.362 1399.8C232.772 1341.71 273.61 1299.79 351.001 1301.38C357.807 1292.36 368.395 1287.86 375.705 1279.63L390.83 1215.97C398.729 1200.58 406.544 1185.11 414.274 1169.54C425.114 1152.83 444.777 1131.61 460.91 1120.47C470.154 1115.69 479.313 1110.83 488.388 1105.88C483.346 1104.64 478.809 1103.14 474.775 1101.37C484.355 1098.45 492.925 1097.65 499.984 1097.65C535.528 1097.39 549.897 1118.61 588.97 1117.28C606.616 1116.49 606.616 1111.98 643.421 1101.1C698.88 1084.65 726.61 1076.43 754.843 1083.59C787.615 1091.82 782.321 1109.59 839.04 1136.65C868.786 1150.71 889.962 1160.52 912.649 1152.3C934.833 1144.08 950.714 1121.79 956.765 1113.3C965.84 1100.31 970.629 1088.9 972.142 1085.45C972.142 1085.45 974.915 1079.08 981.469 1066.62C991.805 1047.25 1011.22 1014.09 1043.99 968.198C1078.77 920.184 1158.18 907.716 1213.89 905.328C1229.69 915.762 1245.49 926.197 1261.29 936.631C1312.21 976.157 1363.13 1031.6 1398.67 1087.04C1460.69 1183.87 1505.3 1292.36 1533.54 1425.8C1574.88 1621.31 1531.27 1853.69 1453.63 1972.8Z" fill="url(#paint0_linear_2718_834)"/>
<path d="M452.591 564.451C454.104 592.305 432.172 667.643 427.887 684.356C426.879 684.621 425.618 684.886 424.106 685.151C420.828 685.417 417.551 684.621 414.778 682.499L414.274 682.233C408.476 638.198 431.164 593.897 452.591 564.451Z" fill="#EC92AD"/>
<path d="M605.104 648.279C649.219 668.175 668.882 730.78 695.855 769.775C728.374 816.729 764.675 864.479 792.152 915.942C795.933 927.614 826.94 991.28 839.04 1011.44C868.282 1063.97 896.768 1166.89 896.768 1245.94C895.759 1245.41 816.604 1054.95 815.596 1054.95C820.134 1149.91 802.235 1183.87 802.235 1182.81C788.623 1118.35 786.354 1060.25 767.447 1011.44C718.795 885.966 670.646 757.307 605.104 648.279Z" fill="#EC92AD"/>
<path d="M419.568 717.775C432.173 731.304 435.702 790.196 441.5 813.275C450.743 845.638 459.902 877.913 468.977 910.1C486.875 953.34 517.63 978.806 515.865 1034.51C514.521 1034.51 513.092 1034.51 511.58 1034.51C438.475 1004.8 407.216 832.64 419.568 717.775Z" fill="#EC92AD"/>
<path d="M1016.01 906.918C1015.5 950.158 971.638 1037.7 953.488 1069.53C950.463 1070.06 920.464 1058.39 917.691 1047.78C915.17 1037.43 966.848 901.347 973.655 895.246C986.259 899.756 1000.88 905.857 1016.01 906.918Z" fill="#EC92AD"/>
<path d="M1260.28 1499.28C1193.22 1499.81 1107.51 1451.79 1060.12 1422.88C1058.36 1421.82 1057.35 1419.43 1058.1 1417.31C1058.61 1415.18 1059.36 1413.06 1059.87 1411.21C1060.62 1409.08 1062.39 1408.02 1064.41 1408.02C1095.16 1409.35 1106.25 1428.45 1127.18 1438.26C1161.71 1454.71 1211.62 1471.42 1257.25 1473.01C1259.77 1473.01 1262.04 1470.89 1262.04 1467.97C1262.55 1397.94 1255.24 1335.34 1236.83 1287.85C1236.66 1287.68 1236.58 1287.5 1236.58 1287.32C1235.32 1281.49 1232.04 1275.92 1230.53 1270.08C1230.53 1269.55 1230.03 1268.75 1229.52 1268.22C1225.99 1264.24 1219.94 1264.51 1216.67 1258.94C1213.39 1253.37 1237.08 1228.43 1240.36 1211.98C1252.46 1150.71 1194.99 1055.74 1161.71 1024.7C1157.68 1026.03 1156.67 1026.56 1152.64 1027.88C1150.11 1044.06 1141.54 1049.37 1134.23 1060.78C1105.75 1103.75 1091.13 1151.5 1022.06 1151.77C1020.29 1151.77 1019.03 1153.62 1017.77 1155.21C997.855 1183.33 973.655 1207.74 955.252 1227.1C908.364 1276.71 836.519 1402.72 771.229 1419.43C725.349 1431.37 668.378 1416.25 612.919 1425.27C583.677 1430.04 468.725 1445.16 443.517 1439.86C441.248 1439.32 439.735 1436.94 439.987 1434.55C440.239 1430.04 438.475 1426.86 443.517 1424.2C464.44 1418.9 483.094 1427.92 501.497 1423.94C528.554 1417.57 555.611 1411.29 582.668 1405.1C582.668 1405.1 582.752 1405.1 582.92 1405.1C655.269 1392.37 721.316 1398.74 787.867 1385.47C789.379 1385.21 796.438 1377.78 797.446 1376.45C818.621 1354.97 829.209 1342.5 843.83 1326.32C864.753 1303.24 886.937 1280.96 905.843 1256.02C931.304 1222.86 950.211 1203.76 992.813 1154.15C995.586 1150.97 997.099 1149.38 996.846 1147.52C996.846 1145.93 996.846 1143.81 993.821 1142.22C962.815 1125.5 978.696 1076.16 988.275 1047.78C1000.88 1010.64 1082.05 944.852 1138.27 957.85C1214.14 975.889 1247.92 1026.82 1268.85 1104.02C1273.89 1122.32 1283.72 1150.17 1278.68 1176.17C1278.51 1176.35 1278.43 1176.53 1278.43 1176.7C1274.39 1187.84 1272.63 1203.76 1268.6 1214.64C1268.6 1214.81 1268.6 1214.9 1268.6 1214.9C1263.3 1235.33 1261.03 1249.65 1247.17 1262.12C1245.4 1263.71 1244.9 1266.37 1246.16 1268.22C1273.89 1318.89 1285.74 1383.35 1288.01 1457.1C1289.52 1498.22 1286.24 1557.64 1293.05 1592.12C1293.3 1593.72 1294.56 1595.04 1295.82 1595.57C1353.8 1622.1 1501.02 1754.74 1518.16 1816.28C1518.33 1817.17 1518.33 1817.96 1518.16 1818.67C1514.13 1836.71 1508.33 1853.68 1502.53 1870.13C1502.36 1870.66 1502.03 1871.19 1501.52 1871.72C1462.2 1917.09 1382.29 1969.88 1295.82 1929.82C1246.66 1907.01 1213.64 1875.97 1180.37 1834.59C1157.68 1806.47 1135.49 1774.63 1113.56 1745.19C1077.01 1696.38 1047.77 1643.06 1013.23 1591.59C998.107 1569.31 983.99 1543.31 967.857 1521.03C967.857 1520.85 967.773 1520.68 967.604 1520.5C957.017 1509 946.513 1497.51 936.094 1486.01C933.321 1480.71 935.085 1479.38 937.858 1476.73C938.53 1476.2 939.287 1475.84 940.127 1475.67C958.277 1472.48 976.932 1500.34 985.755 1512.54C985.755 1512.72 985.839 1512.81 986.007 1512.81C1002.39 1530.31 1016 1555.25 1031.13 1575.15C1031.3 1575.32 1031.38 1575.41 1031.38 1575.41C1045.5 1598.49 1059.36 1614.94 1073.73 1638.02C1128.44 1719.72 1188.43 1829.01 1268.85 1882.6C1290.28 1896.92 1333.38 1926.64 1370.69 1918.68C1412.28 1909.92 1440.01 1890.56 1469 1871.72C1482.87 1862.44 1487.66 1843.34 1479.59 1827.95C1436.99 1748.11 1350.52 1653.14 1270.86 1628.73C1268.85 1628.2 1267.59 1626.34 1267.34 1624.22C1266.49 1584.25 1265.65 1544.2 1264.81 1504.05C1264.81 1501.4 1262.8 1499.28 1260.28 1499.28Z" fill="#EC92AD"/>
<path d="M592.752 1132.93C683.251 1129.48 618.212 1293.16 555.695 1270.61C513.597 1255.22 539.814 1181.48 556.955 1157.6C565.778 1145.67 579.643 1140.89 592.752 1132.93Z" fill="#EC92AD"/>
<path d="M456.625 1145.93C525.949 1150.44 468.725 1282.28 419.568 1264.78C355.79 1241.96 426.627 1161.05 456.625 1145.93Z" fill="#EC92AD"/>
<path d="M675.436 1183.61C704.93 1204.83 727.87 1290.25 706.947 1331.36C692.578 1334.81 629.052 1353.12 616.196 1335.61C616.196 1333.66 616.196 1331.72 616.196 1329.77C665.605 1310.14 676.948 1253.37 675.436 1183.61Z" fill="#EC92AD"/>
<path d="M530.99 1193.68C528.469 1230.29 519.394 1283.34 515.865 1306.69C512.84 1325.52 521.411 1350.19 514.352 1363.19C505.781 1368.85 497.126 1374.6 488.387 1380.43C456.625 1375.92 448.81 1331.89 448.558 1295.01C472.002 1284.14 524.688 1223.39 530.99 1193.68Z" fill="#EC92AD"/>
<path d="M275.122 1344.36C294.533 1343.83 324.027 1357.62 331.59 1370.36C262.77 1369.83 248.401 1445.16 238.066 1507.77C236.721 1507.24 235.377 1506.8 234.032 1506.44C191.934 1428.45 227.226 1391.05 275.122 1344.36Z" fill="#EC92AD"/>
<path d="M448.559 1373.28C459.146 1376.73 466.457 1377.79 476.288 1385.21C480.069 1388.13 478.809 1390.79 474.776 1395.56C455.869 1412.54 429.148 1423.41 407.216 1421.03C394.36 1419.7 375.958 1418.64 367.639 1424.48C365.622 1425.54 365.874 1427.39 366.126 1428.99C372.68 1467.18 427.131 1564.54 412.51 1595.31C408.225 1595.58 406.964 1595.58 402.931 1595.58C385.285 1568.25 324.784 1462.14 355.034 1410.95C370.412 1384.68 425.367 1391.85 448.559 1373.28Z" fill="#EC92AD"/>
</g>
</g>
<defs>
<linearGradient id="paint0_linear_2718_834" x1="129.964" y1="2396.73" x2="129.964" y2="905.219" gradientUnits="userSpaceOnUse">
<stop stop-color="#F1D0DB"/>
<stop offset="1" stop-color="#F1D0DB"/>
</linearGradient>
<clipPath id="clip0_2718_834">
<rect width="1500" height="1500" fill="white"/>
</clipPath>
<clipPath id="clip1_2718_834">
<rect width="1682" height="1770" fill="white" transform="translate(23 -197)"/>
</clipPath>
</defs>
</svg>
