<svg width="1500" height="1500" viewBox="0 0 1500 1500" fill="none" xmlns="http://www.w3.org/2000/svg">
<g clip-path="url(#clip0_2718_972)">
<path d="M442.5 953.5L669 697L1080 927L985.5 1134.5L669 1104.5L442.5 953.5Z" fill="white"/>
<path d="M985.5 727L1034.5 602.5L1121.5 629L1166.5 844L985.5 727Z" fill="white"/>
<path fill-rule="evenodd" clip-rule="evenodd" d="M1540.03 1958.88C1518.27 1990.95 1454.98 2031.91 1419.76 2052.52C1403.15 2062.26 1385.11 2059.4 1360.48 2063.41C1254.24 2080.59 1148.57 2057.97 1062.08 2032.19C1041.18 2025.89 989.344 1986.37 967.008 1994.68C934.934 2009 939.516 2047.66 923.193 2077.44C912.311 2100.35 883.674 2183.68 874.797 2202.3C852.174 2249.83 823.823 2298.8 796.618 2342.9C775.713 2376.98 722.162 2440.55 662.311 2407.05C634.247 2391.3 635.679 2369.53 631.383 2346.91C631.097 2346.05 631.097 2333.74 630.238 2333.74C627.088 2333.74 627.088 2333.74 623.365 2333.74C616.11 2342.52 608.76 2351.3 601.315 2360.08C559.791 2398.17 497.363 2389.01 482.758 2332.02C473.021 2294.51 491.062 2256.71 501.372 2232.08C520.654 2172.7 539.936 2113.33 559.218 2053.96C569.528 2004.7 546.045 1964.61 532.586 1932.25C507.385 1870.39 500.226 1796.8 474.739 1733.8C464.144 1707.16 443.811 1693.42 435.793 1674.52C426.343 1651.89 405.438 1559.11 388.829 1551.09C335.564 1527.04 321.246 1607.22 290.604 1618.1C228.176 1640.44 200.971 1552.52 196.961 1507.28C145.129 1490.1 106.183 1412.2 131.097 1340.32C153.147 1277.61 199.539 1232.36 287.454 1234.08C295.186 1224.35 307.214 1219.48 315.518 1210.6L332.7 1141.87C341.673 1125.26 350.551 1108.56 359.333 1091.76C371.647 1073.72 393.983 1050.81 412.311 1038.78C422.811 1033.62 433.216 1028.37 443.525 1023.03C437.798 1021.69 432.643 1020.07 428.061 1018.16C398.852 1005.27 393.983 980.359 373.365 956.017C371.36 961.172 348.451 999.545 335.85 1010.71C331.65 1008.04 327.45 1005.37 323.25 1002.7C315.805 990.954 315.518 909.053 309.218 884.139C259.104 683.108 276.572 507.563 421.761 407.621C433.216 399.889 441.234 376.407 445.243 370.106C472.735 350.824 500.322 331.542 528.004 312.26C557.786 297.655 598.737 295.364 641.979 289.064C658.588 288.491 675.293 287.918 692.093 287.346C818.955 286.2 964.717 357.22 1037.17 415.353C1053.78 436.735 1070.48 458.117 1087.28 479.499C1121.36 525.032 1159.45 565.983 1190.38 615.525C1219.59 662.489 1281.73 738.377 1280.87 801.378C1249.56 767.396 1218.34 733.509 1187.23 699.717C1195.82 736.086 1215.29 743.531 1229.32 769.305C1233.62 777.323 1239.34 786.773 1245.07 791.928C1252.52 796.701 1260.06 801.569 1267.7 806.533C1285.64 817.797 1303.59 829.06 1321.53 840.324C1379.38 882.993 1437.23 942.844 1477.6 1002.7C1548.05 1107.22 1598.74 1224.35 1630.81 1368.39C1677.78 1579.44 1628.23 1830.3 1540.03 1958.88ZM1048.05 716.899C1071.82 724.345 1106.18 762.146 1133.96 754.414C1133.96 754.414 1103.89 725.204 1090.43 710.599C1080.41 697.14 1079.55 686.258 1067.24 666.212L1059.79 657.048C1055.5 674.803 1040.6 702.294 1048.05 716.899ZM1005.95 984.081C1005.09 982.65 995.358 998.4 994.786 997.541C987.34 987.518 983.044 988.091 971.303 979.786C961.853 968.331 957.558 943.99 948.107 932.535C926.916 935.399 896.275 1010.14 879.379 1027.9C878.424 1027.32 877.374 1026.75 876.229 1026.18C863.056 978.641 766.549 821.138 732.471 801.378C706.507 796.605 680.543 791.928 654.579 787.346C629.665 814.551 618.21 854.643 592.151 880.989C565.518 907.621 530.009 925.09 504.522 952.867V965.181C513.399 978.354 527.718 981.218 542.036 988.663C561.891 998.018 581.651 1007.37 601.315 1016.73C607.328 1018.16 613.628 1018.45 619.642 1017.87C630.524 1017.01 641.12 1014.15 648.279 1012.15C680.066 1003.27 717.58 1011.57 746.79 1018.45C767.122 1023.31 778.577 1037.35 793.468 1046.51C821.532 1063.98 850.742 1069.71 876.229 1088.61C879.474 1092.81 882.624 1097.01 885.679 1101.21C913.743 1112.09 1004.52 1012.43 1005.95 984.081Z" fill="#F1D0DB"/>
<path d="M534.877 418.215L635.965 159.91C635.965 159.91 712.712 199.715 801.773 395.305L534.877 418.215Z" fill="#F1D0DB"/>
<path d="M197.82 483.511C197.82 483.511 265.117 459.17 335.277 475.493C405.724 491.816 279.722 635.86 279.722 635.86C279.722 635.86 184.934 508.139 197.82 483.511Z" fill="#F1D0DB"/>
<path d="M531.154 378.41C531.154 378.41 528.863 423.084 540.89 424.229L636.251 160.197C636.251 159.911 635.965 159.911 635.965 160.197C513.685 382.706 535.736 351.492 531.154 378.41Z" fill="#EC92AD"/>
<path d="M789.745 380.417C774.854 371.253 756.813 319.42 755.667 315.411C746.503 282.192 724.453 255.846 678.92 206.591C655.724 181.39 635.106 161.058 635.965 159.913C636.824 159.053 655.438 173.945 666.034 182.822C690.948 203.441 713.857 226.064 742.208 261.574C794.327 326.293 806.354 373.83 816.377 389.294C816.664 389.867 818.096 392.158 817.236 393.017C816.091 394.449 809.505 391.012 801.773 387.003C796.332 384.139 791.177 381.276 789.745 380.417Z" fill="#EC92AD"/>
<path d="M566.95 414.495C564.373 412.777 576.973 386.717 596.446 356.935C612.483 332.307 614.201 334.311 629.092 309.97C637.397 296.797 644.843 283.624 646.561 284.483C647.706 284.77 646.274 289.065 645.129 295.079C639.115 324.289 646.847 338.893 643.983 359.798C643.983 360.944 643.411 364.38 644.556 364.667C645.702 365.239 648.852 359.798 652.002 355.216C655.152 350.921 660.306 346.339 670.329 337.461C690.089 319.707 692.093 320.279 692.953 320.852C694.671 321.998 692.666 325.72 692.953 339.466C692.953 340.612 692.953 351.207 697.534 359.798C698.107 360.657 698.966 362.089 700.398 362.948C702.403 364.094 705.266 364.38 712.139 361.23C722.448 356.362 723.88 351.494 727.317 352.353C730.181 353.212 729.608 356.935 734.762 366.385C738.485 373.544 751.085 375.549 749.94 377.84C748.508 380.703 731.612 381.562 729.894 381.849C670.329 391.585 601.887 408.767 582.987 410.486C581.555 410.772 577.832 411.058 573.25 412.49C568.668 413.922 567.523 415.068 566.95 414.495Z" fill="#EC92AD"/>
<path d="M280.581 628.703C283.158 630.994 281.44 639.585 278.576 640.444C276.572 641.017 272.849 638.726 260.821 618.68C248.221 597.775 242.78 590.902 231.039 568.852C220.443 548.233 214.43 534.201 210.707 529.047C210.707 529.047 200.684 512.437 195.243 494.682C194.384 491.819 194.098 488.669 194.098 488.669C194.098 486.378 193.811 483.8 194.384 482.941C196.388 480.364 233.616 498.691 267.981 522.746C277.431 529.619 298.909 545.37 305.495 546.515C305.781 546.801 306.641 546.802 307.213 547.661C309.504 550.524 300.34 556.824 297.19 566.275C289.745 586.893 289.745 605.221 287.167 610.375C283.731 616.962 281.44 621.257 280.581 621.257C279.722 621.257 279.435 606.653 279.435 606.653C279.435 606.653 268.84 608.944 267.408 606.939C263.971 601.498 285.736 584.889 282.586 579.448C280.295 575.438 265.976 580.879 264.831 578.016C263.112 574.579 281.726 568.279 281.726 559.115C281.726 546.515 245.644 540.788 227.316 521.315C226.743 520.456 225.598 519.31 224.739 519.596C221.303 521.315 244.785 573.72 255.667 595.484C267.408 618.394 269.126 614.957 273.994 622.689C274.567 623.548 275.713 625.553 278.004 627.271C279.435 628.13 280.008 628.13 280.581 628.703Z" fill="#EC92AD"/>
<path d="M1540.03 1958.88C1518.27 1990.95 1454.98 2031.9 1419.76 2052.52C1403.15 2062.26 1385.11 2059.39 1360.48 2063.4C1254.24 2080.58 1148.57 2057.96 1062.08 2032.19C1041.18 2025.89 989.344 1986.37 967.008 1994.67C934.934 2008.99 939.516 2047.65 923.193 2077.43C912.311 2100.34 883.674 2183.68 874.797 2202.29C852.174 2249.83 823.823 2298.8 796.618 2342.9C775.713 2376.98 722.162 2440.55 662.311 2407.05C634.247 2391.3 635.679 2369.53 631.383 2346.91C631.097 2346.05 631.097 2333.74 630.238 2333.74C627.088 2333.74 627.088 2333.74 623.365 2333.74C616.11 2342.52 608.76 2351.3 601.315 2360.08C559.791 2398.17 497.363 2389 482.758 2332.02C473.021 2294.5 491.062 2256.7 501.372 2232.07C520.654 2172.7 539.936 2113.33 559.218 2053.95C569.528 2004.7 546.045 1964.61 532.586 1932.25C507.385 1870.39 500.226 1796.79 474.739 1733.79C464.144 1707.16 443.811 1693.41 435.793 1674.51C426.343 1651.89 405.438 1559.11 388.829 1551.09C335.564 1527.03 321.246 1607.22 290.604 1618.1C228.176 1640.44 200.971 1552.52 196.961 1507.27C145.129 1490.09 106.183 1412.2 131.097 1340.32C153.147 1277.61 199.539 1232.36 287.454 1234.08C295.186 1224.34 307.214 1219.47 315.518 1210.6L332.7 1141.87C341.673 1125.26 350.551 1108.55 359.333 1091.75C371.647 1073.71 393.983 1050.8 412.311 1038.77C422.811 1033.62 433.216 1028.37 443.525 1023.02C437.798 1021.69 432.643 1020.07 428.061 1018.16C438.943 1015.01 448.68 1014.15 456.698 1014.15C497.076 1013.86 513.399 1036.77 557.786 1035.34C577.832 1034.48 577.832 1029.61 619.642 1017.87C682.643 1000.11 714.144 991.237 746.217 998.969C783.445 1007.85 777.431 1027.03 841.865 1056.24C875.656 1071.42 899.711 1082.02 925.484 1073.14C950.685 1064.26 968.726 1040.21 975.599 1031.04C985.908 1017.01 991.349 1004.7 993.067 1000.97C993.067 1000.97 996.217 994.101 1003.66 980.642C1015.4 959.737 1037.45 923.941 1074.68 874.399C1114.2 822.566 1204.41 809.107 1267.7 806.529C1285.64 817.793 1303.59 829.057 1321.53 840.321C1379.38 882.99 1437.23 942.841 1477.6 1002.69C1548.05 1107.22 1598.74 1224.34 1630.81 1368.39C1677.78 1579.44 1628.23 1830.3 1540.03 1958.88Z" fill="url(#paint0_linear_2718_972)"/>
<path d="M402.861 438.549C404.579 468.618 379.665 549.946 374.797 567.988C373.651 568.274 372.219 568.56 370.501 568.847C366.778 569.133 363.056 568.274 359.906 565.983L359.333 565.697C352.746 518.159 378.52 470.336 402.861 438.549Z" fill="#EC92AD"/>
<path d="M339.574 488.086C332.987 507.559 322.392 530.469 315.805 549.942C315.423 550.514 315.232 551.183 315.232 551.946C304.064 604.638 301.2 731.213 312.369 785.337C325.351 839.938 338.333 894.539 351.315 949.14C358.761 990.664 306.355 1080.3 284.018 1085.17C284.591 1084.31 287.455 1071.42 290.032 1060.82C291.368 1054.91 292.227 1048.99 292.609 1043.07C295.091 1005.46 297.478 967.849 299.769 930.24C300.914 915.921 299.482 901.603 296.046 887.571C287.836 854.543 279.723 821.515 271.704 788.487C257.672 716.036 278.864 597.479 299.769 546.219C308.073 525.887 338.715 488.086 339.574 488.086Z" fill="#EC92AD"/>
<path d="M576.114 529.043C626.228 550.521 648.565 618.104 679.207 660.2C716.148 710.887 757.385 762.434 788.6 817.989C792.895 830.589 828.119 899.318 841.864 921.082C875.083 977.783 907.443 1088.89 907.443 1174.23C906.297 1173.66 816.377 968.047 815.232 968.047C820.386 1070.57 800.054 1107.22 800.054 1106.08C784.59 1036.49 782.013 973.774 760.535 921.082C705.266 785.63 650.57 646.741 576.114 529.043Z" fill="#EC92AD"/>
<path d="M365.346 604.062C379.665 618.667 383.674 682.241 390.261 707.155C400.761 742.092 411.165 776.934 421.475 811.68C441.807 858.358 476.744 885.85 474.739 945.987C473.212 945.987 471.589 945.987 469.871 945.987C386.824 913.914 351.314 728.06 365.346 604.062Z" fill="#EC92AD"/>
<path d="M1042.9 808.247C1042.32 854.925 992.495 949.427 971.876 983.791C968.44 984.364 934.362 971.763 931.212 960.309C928.348 949.14 987.054 802.233 994.786 795.646C1009.1 800.515 1025.71 807.101 1042.9 808.247Z" fill="#EC92AD"/>
<path d="M1320.39 1447.71C1244.21 1448.28 1146.85 1396.45 1093.01 1365.23C1091.01 1364.09 1089.86 1361.51 1090.72 1359.22C1091.29 1356.93 1092.15 1354.64 1092.72 1352.63C1093.58 1350.34 1095.59 1349.2 1097.88 1349.2C1132.82 1350.63 1145.42 1371.25 1169.18 1381.84C1208.42 1399.6 1265.12 1417.64 1316.95 1419.36C1319.81 1419.36 1322.39 1417.07 1322.39 1413.92C1322.96 1338.32 1314.66 1270.73 1293.75 1219.47C1293.56 1219.28 1293.47 1219.09 1293.47 1218.9C1292.04 1212.6 1288.31 1206.59 1286.6 1200.29C1286.6 1199.71 1286.02 1198.85 1285.45 1198.28C1281.44 1193.99 1274.57 1194.27 1270.85 1188.26C1267.12 1182.24 1294.04 1155.33 1297.76 1137.57C1311.51 1071.42 1246.22 968.899 1208.42 935.394C1203.83 936.826 1202.69 937.399 1198.11 938.831C1195.24 956.299 1185.51 962.027 1177.2 974.341C1144.84 1020.73 1128.23 1072.28 1049.77 1072.57C1047.76 1072.57 1046.33 1074.57 1044.9 1076.29C1022.28 1106.64 994.785 1132.99 973.88 1153.89C920.616 1207.44 839.001 1343.47 764.831 1361.51C712.712 1374.4 647.993 1358.07 584.992 1367.81C551.773 1372.97 421.188 1389.29 392.552 1383.56C389.974 1382.99 388.256 1380.41 388.542 1377.83C388.829 1372.97 386.824 1369.53 392.552 1366.67C416.32 1360.94 437.511 1370.68 458.416 1366.38C489.153 1359.51 519.89 1352.73 550.627 1346.05C550.627 1346.05 550.723 1346.05 550.914 1346.05C633.101 1332.3 708.13 1339.17 783.731 1324.86C785.45 1324.57 793.468 1316.55 794.614 1315.12C818.669 1291.92 830.696 1278.46 847.305 1261C871.074 1236.08 896.275 1212.03 917.752 1185.11C946.676 1149.31 968.153 1128.69 1016.55 1075.14C1019.7 1071.71 1021.42 1069.99 1021.13 1067.98C1021.13 1066.27 1021.13 1063.97 1017.69 1062.26C982.472 1044.21 1000.51 990.95 1011.39 960.308C1025.71 920.217 1117.92 849.197 1181.78 863.229C1267.98 882.703 1306.35 937.685 1330.12 1021.02C1335.85 1040.78 1347.02 1070.85 1341.29 1098.91C1341.1 1099.1 1341.01 1099.29 1341.01 1099.48C1336.42 1111.51 1334.42 1128.69 1329.84 1140.43C1329.84 1140.63 1329.84 1140.72 1329.84 1140.72C1323.82 1162.77 1321.25 1178.24 1305.5 1191.69C1303.49 1193.41 1302.92 1196.28 1304.35 1198.28C1335.85 1252.98 1349.31 1322.57 1351.89 1402.18C1353.61 1446.56 1349.88 1510.71 1357.61 1547.94C1357.9 1549.66 1359.33 1551.09 1360.76 1551.66C1426.63 1580.3 1593.87 1723.48 1613.34 1789.92C1613.53 1790.87 1613.53 1791.73 1613.34 1792.5C1608.76 1811.97 1602.17 1830.3 1595.59 1848.05C1595.4 1848.62 1595.01 1849.2 1594.44 1849.77C1549.77 1898.74 1458.99 1955.73 1360.76 1912.49C1304.92 1887.86 1267.41 1854.35 1229.61 1809.68C1203.83 1779.32 1178.63 1744.96 1153.72 1713.17C1112.2 1660.48 1078.98 1602.92 1039.75 1547.36C1022.56 1523.31 1006.53 1495.25 988.199 1471.19C988.199 1471 988.104 1470.81 987.913 1470.62C975.885 1458.21 963.953 1445.8 952.117 1433.39C948.966 1427.66 950.971 1426.23 954.121 1423.37C954.885 1422.79 955.744 1422.41 956.698 1422.22C977.317 1418.79 998.508 1448.85 1008.53 1462.03C1008.53 1462.22 1008.63 1462.31 1008.82 1462.31C1027.43 1481.21 1042.9 1508.13 1060.08 1529.61C1060.27 1529.8 1060.36 1529.9 1060.36 1529.9C1076.4 1554.81 1092.15 1572.57 1108.47 1597.48C1170.62 1685.68 1238.77 1803.67 1330.12 1861.51C1354.46 1876.98 1403.43 1909.05 1445.82 1900.46C1493.07 1891.01 1524.57 1870.1 1557.5 1849.77C1573.25 1839.75 1578.69 1819.13 1569.53 1802.52C1521.13 1716.32 1422.91 1613.8 1332.41 1587.46C1330.12 1586.88 1328.69 1584.88 1328.41 1582.59C1327.45 1539.44 1326.5 1496.2 1325.54 1452.86C1325.54 1450 1323.25 1447.71 1320.39 1447.71Z" fill="#EC92AD"/>
<path d="M562.082 1052.23C664.889 1048.51 591.005 1225.2 519.986 1200.86C472.162 1184.25 501.945 1104.64 521.418 1078.87C531.441 1065.98 547.191 1060.82 562.082 1052.23Z" fill="#EC92AD"/>
<path d="M407.443 1066.27C486.194 1071.14 421.188 1213.46 365.346 1194.56C292.895 1169.93 373.365 1082.59 407.443 1066.27Z" fill="#EC92AD"/>
<path d="M656.011 1106.94C689.516 1129.85 715.575 1222.06 691.807 1266.44C675.484 1270.17 603.319 1289.93 588.714 1271.02C588.714 1268.92 588.714 1266.82 588.714 1264.72C644.842 1243.53 657.729 1182.25 656.011 1106.94Z" fill="#EC92AD"/>
<path d="M491.921 1117.81C489.058 1157.33 478.748 1214.6 474.739 1239.8C471.303 1260.14 481.039 1286.77 473.021 1300.8C463.284 1306.91 453.452 1313.11 443.525 1319.41C407.442 1314.55 398.565 1267.01 398.279 1227.2C424.911 1215.46 484.762 1149.88 491.921 1117.81Z" fill="#EC92AD"/>
<path d="M201.256 1280.47C223.307 1279.9 256.812 1294.79 265.403 1308.53C187.224 1307.96 170.901 1389.29 159.16 1456.87C157.633 1456.3 156.105 1455.82 154.578 1455.44C106.755 1371.25 146.846 1330.87 201.256 1280.47Z" fill="#EC92AD"/>
<path d="M398.279 1311.69C410.307 1315.41 418.611 1316.55 429.78 1324.57C434.075 1327.72 432.644 1330.59 428.062 1335.74C406.584 1354.07 376.229 1365.81 351.315 1363.23C336.71 1361.8 315.805 1360.65 306.355 1366.95C304.064 1368.1 304.35 1370.1 304.637 1371.82C312.082 1413.06 373.938 1518.16 357.329 1551.38C352.46 1551.66 351.028 1551.66 346.446 1551.66C326.401 1522.17 257.672 1407.62 292.036 1352.35C309.505 1324 371.933 1331.73 398.279 1311.69Z" fill="#EC92AD"/>
<path d="M442.5 953.5L669 697L1080 927L985.5 1134.5L669 1104.5L442.5 953.5Z" fill="#FFEBEB"/>
<path d="M985.5 727L1034.5 602.5L1121.5 629L1166.5 844L985.5 727Z" fill="#FFEBEB"/>
<path fill-rule="evenodd" clip-rule="evenodd" d="M1540.03 1958.88C1518.27 1990.95 1454.98 2031.91 1419.76 2052.52C1403.15 2062.26 1385.11 2059.4 1360.48 2063.41C1254.24 2080.59 1148.57 2057.97 1062.08 2032.19C1041.18 2025.89 989.344 1986.37 967.008 1994.68C934.934 2009 939.516 2047.66 923.193 2077.44C912.311 2100.35 883.674 2183.68 874.797 2202.3C852.174 2249.83 823.823 2298.8 796.618 2342.9C775.713 2376.98 722.162 2440.55 662.311 2407.05C634.247 2391.3 635.679 2369.53 631.383 2346.91C631.097 2346.05 631.097 2333.74 630.238 2333.74C627.088 2333.74 627.088 2333.74 623.365 2333.74C616.11 2342.52 608.76 2351.3 601.315 2360.08C559.791 2398.17 497.363 2389.01 482.758 2332.02C473.021 2294.51 491.062 2256.71 501.372 2232.08C520.654 2172.7 539.936 2113.33 559.218 2053.96C569.528 2004.7 546.045 1964.61 532.586 1932.25C507.385 1870.39 500.226 1796.8 474.739 1733.8C464.144 1707.16 443.811 1693.42 435.793 1674.52C426.343 1651.89 405.438 1559.11 388.829 1551.09C335.564 1527.04 321.246 1607.22 290.604 1618.1C228.176 1640.44 200.971 1552.52 196.961 1507.28C145.129 1490.1 106.183 1412.2 131.097 1340.32C153.147 1277.61 199.539 1232.36 287.454 1234.08C295.186 1224.35 307.214 1219.48 315.518 1210.6L332.7 1141.87C341.673 1125.26 350.551 1108.56 359.333 1091.76C371.647 1073.72 393.983 1050.81 412.311 1038.78C422.811 1033.62 433.216 1028.37 443.525 1023.03C437.798 1021.69 432.643 1020.07 428.061 1018.16C398.852 1005.27 393.983 980.359 373.365 956.017C371.36 961.172 348.451 999.545 335.85 1010.71C331.65 1008.04 327.45 1005.37 323.25 1002.7C315.805 990.954 315.518 909.053 309.218 884.139C259.104 683.108 276.572 507.563 421.761 407.621C433.216 399.889 441.234 376.407 445.243 370.106C472.735 350.824 500.322 331.542 528.004 312.26C557.786 297.655 598.737 295.364 641.979 289.064C658.588 288.491 675.293 287.918 692.093 287.346C818.955 286.2 964.717 357.22 1037.17 415.353C1053.78 436.735 1070.48 458.117 1087.28 479.499C1121.36 525.032 1159.45 565.983 1190.38 615.525C1219.59 662.489 1281.73 738.377 1280.87 801.378C1249.56 767.396 1218.34 733.509 1187.23 699.717C1195.82 736.086 1215.29 743.531 1229.32 769.305C1233.62 777.323 1239.34 786.773 1245.07 791.928C1252.52 796.701 1260.06 801.569 1267.7 806.533C1285.64 817.797 1303.59 829.06 1321.53 840.324C1379.38 882.993 1437.23 942.844 1477.6 1002.7C1548.05 1107.22 1598.74 1224.35 1630.81 1368.39C1677.78 1579.44 1628.23 1830.3 1540.03 1958.88ZM1048.05 716.899C1071.82 724.345 1106.18 762.146 1133.96 754.414C1133.96 754.414 1103.89 725.204 1090.43 710.599C1080.41 697.14 1079.55 686.258 1067.24 666.212L1059.79 657.048C1055.5 674.803 1040.6 702.294 1048.05 716.899ZM1005.95 984.081C1005.09 982.65 995.358 998.4 994.786 997.541C987.34 987.518 983.044 988.091 971.303 979.786C961.853 968.331 957.558 943.99 948.107 932.535C926.916 935.399 896.275 1010.14 879.379 1027.9C878.424 1027.32 877.374 1026.75 876.229 1026.18C863.056 978.641 766.549 821.138 732.471 801.378C706.507 796.605 680.543 791.928 654.579 787.346C629.665 814.551 618.21 854.643 592.151 880.989C565.518 907.621 530.009 925.09 504.522 952.867V965.181C513.399 978.354 527.718 981.218 542.036 988.663C561.891 998.018 581.651 1007.37 601.315 1016.73C607.328 1018.16 613.628 1018.45 619.642 1017.87C630.524 1017.01 641.12 1014.15 648.279 1012.15C680.066 1003.27 717.58 1011.57 746.79 1018.45C767.122 1023.31 778.577 1037.35 793.468 1046.51C821.532 1063.98 850.742 1069.71 876.229 1088.61C879.474 1092.81 882.624 1097.01 885.679 1101.21C913.743 1112.09 1004.52 1012.43 1005.95 984.081Z" fill="#F1D0DB"/>
<path d="M534.877 418.215L635.965 159.91C635.965 159.91 712.712 199.715 801.773 395.305L534.877 418.215Z" fill="#F1D0DB"/>
<path d="M197.82 483.511C197.82 483.511 265.117 459.17 335.277 475.493C405.724 491.816 279.722 635.86 279.722 635.86C279.722 635.86 184.934 508.139 197.82 483.511Z" fill="#F1D0DB"/>
<path d="M531.154 378.41C531.154 378.41 528.863 423.084 540.89 424.229L636.251 160.197C636.251 159.911 635.965 159.911 635.965 160.197C513.685 382.706 535.736 351.492 531.154 378.41Z" fill="#EC92AD"/>
<path d="M789.745 380.417C774.854 371.253 756.813 319.42 755.667 315.411C746.503 282.192 724.453 255.846 678.92 206.591C655.724 181.39 635.106 161.058 635.965 159.913C636.824 159.053 655.438 173.945 666.034 182.822C690.948 203.441 713.857 226.064 742.208 261.574C794.327 326.293 806.354 373.83 816.377 389.294C816.664 389.867 818.096 392.158 817.236 393.017C816.091 394.449 809.505 391.012 801.773 387.003C796.332 384.139 791.177 381.276 789.745 380.417Z" fill="#EC92AD"/>
<path d="M566.95 414.495C564.373 412.777 576.973 386.717 596.446 356.935C612.483 332.307 614.201 334.311 629.092 309.97C637.397 296.797 644.843 283.624 646.561 284.483C647.706 284.77 646.274 289.065 645.129 295.079C639.115 324.289 646.847 338.893 643.983 359.798C643.983 360.944 643.411 364.38 644.556 364.667C645.702 365.239 648.852 359.798 652.002 355.216C655.152 350.921 660.306 346.339 670.329 337.461C690.089 319.707 692.093 320.279 692.953 320.852C694.671 321.998 692.666 325.72 692.953 339.466C692.953 340.612 692.953 351.207 697.534 359.798C698.107 360.657 698.966 362.089 700.398 362.948C702.403 364.094 705.266 364.38 712.139 361.23C722.448 356.362 723.88 351.494 727.317 352.353C730.181 353.212 729.608 356.935 734.762 366.385C738.485 373.544 751.085 375.549 749.94 377.84C748.508 380.703 731.612 381.562 729.894 381.849C670.329 391.585 601.887 408.767 582.987 410.486C581.555 410.772 577.832 411.058 573.25 412.49C568.668 413.922 567.523 415.068 566.95 414.495Z" fill="#EC92AD"/>
<path d="M280.581 628.703C283.158 630.994 281.44 639.585 278.576 640.444C276.572 641.017 272.849 638.726 260.821 618.68C248.221 597.775 242.78 590.902 231.039 568.852C220.443 548.233 214.43 534.201 210.707 529.047C210.707 529.047 200.684 512.437 195.243 494.682C194.384 491.819 194.098 488.669 194.098 488.669C194.098 486.378 193.811 483.8 194.384 482.941C196.388 480.364 233.616 498.691 267.981 522.746C277.431 529.619 298.909 545.37 305.495 546.515C305.781 546.801 306.641 546.802 307.213 547.661C309.504 550.524 300.34 556.824 297.19 566.275C289.745 586.893 289.745 605.221 287.167 610.375C283.731 616.962 281.44 621.257 280.581 621.257C279.722 621.257 279.435 606.653 279.435 606.653C279.435 606.653 268.84 608.944 267.408 606.939C263.971 601.498 285.736 584.889 282.586 579.448C280.295 575.438 265.976 580.879 264.831 578.016C263.112 574.579 281.726 568.279 281.726 559.115C281.726 546.515 245.644 540.788 227.316 521.315C226.743 520.456 225.598 519.31 224.739 519.596C221.303 521.315 244.785 573.72 255.667 595.484C267.408 618.394 269.126 614.957 273.994 622.689C274.567 623.548 275.713 625.553 278.004 627.271C279.435 628.13 280.008 628.13 280.581 628.703Z" fill="#EC92AD"/>
<path d="M1540.03 1958.88C1518.27 1990.95 1454.98 2031.9 1419.76 2052.52C1403.15 2062.26 1385.11 2059.39 1360.48 2063.4C1254.24 2080.58 1148.57 2057.96 1062.08 2032.19C1041.18 2025.89 989.344 1986.37 967.008 1994.67C934.934 2008.99 939.516 2047.65 923.193 2077.43C912.311 2100.34 883.674 2183.68 874.797 2202.29C852.174 2249.83 823.823 2298.8 796.618 2342.9C775.713 2376.98 722.162 2440.55 662.311 2407.05C634.247 2391.3 635.679 2369.53 631.383 2346.91C631.097 2346.05 631.097 2333.74 630.238 2333.74C627.088 2333.74 627.088 2333.74 623.365 2333.74C616.11 2342.52 608.76 2351.3 601.315 2360.08C559.791 2398.17 497.363 2389 482.758 2332.02C473.021 2294.5 491.062 2256.7 501.372 2232.07C520.654 2172.7 539.936 2113.33 559.218 2053.95C569.528 2004.7 546.045 1964.61 532.586 1932.25C507.385 1870.39 500.226 1796.79 474.739 1733.79C464.144 1707.16 443.811 1693.41 435.793 1674.51C426.343 1651.89 405.438 1559.11 388.829 1551.09C335.564 1527.03 321.246 1607.22 290.604 1618.1C228.176 1640.44 200.971 1552.52 196.961 1507.27C145.129 1490.09 106.183 1412.2 131.097 1340.32C153.147 1277.61 199.539 1232.36 287.454 1234.08C295.186 1224.34 307.214 1219.47 315.518 1210.6L332.7 1141.87C341.673 1125.26 350.551 1108.55 359.333 1091.75C371.647 1073.71 393.983 1050.8 412.311 1038.77C422.811 1033.62 433.216 1028.37 443.525 1023.02C437.798 1021.69 432.643 1020.07 428.061 1018.16C438.943 1015.01 448.68 1014.15 456.698 1014.15C497.076 1013.86 513.399 1036.77 557.786 1035.34C577.832 1034.48 577.832 1029.61 619.642 1017.87C682.643 1000.11 714.144 991.237 746.217 998.969C783.445 1007.85 777.431 1027.03 841.865 1056.24C875.656 1071.42 899.711 1082.02 925.484 1073.14C950.685 1064.26 968.726 1040.21 975.599 1031.04C985.908 1017.01 991.349 1004.7 993.067 1000.97C993.067 1000.97 996.217 994.101 1003.66 980.642C1015.4 959.737 1037.45 923.941 1074.68 874.399C1114.2 822.566 1204.41 809.107 1267.7 806.529C1285.64 817.793 1303.59 829.057 1321.53 840.321C1379.38 882.99 1437.23 942.841 1477.6 1002.69C1548.05 1107.22 1598.74 1224.34 1630.81 1368.39C1677.78 1579.44 1628.23 1830.3 1540.03 1958.88Z" fill="url(#paint1_linear_2718_972)"/>
<path d="M402.861 438.549C404.579 468.618 379.665 549.946 374.797 567.988C373.651 568.274 372.219 568.56 370.501 568.847C366.778 569.133 363.056 568.274 359.906 565.983L359.333 565.697C352.746 518.159 378.52 470.336 402.861 438.549Z" fill="#EC92AD"/>
<path d="M339.574 488.086C332.987 507.559 322.392 530.469 315.805 549.942C315.423 550.514 315.232 551.183 315.232 551.946C304.064 604.638 301.2 731.213 312.369 785.337C325.351 839.938 338.333 894.539 351.315 949.14C358.761 990.664 306.355 1080.3 284.018 1085.17C284.591 1084.31 287.455 1071.42 290.032 1060.82C291.368 1054.91 292.227 1048.99 292.609 1043.07C295.091 1005.46 297.478 967.849 299.769 930.24C300.914 915.921 299.482 901.603 296.046 887.571C287.836 854.543 279.723 821.515 271.704 788.487C257.672 716.036 278.864 597.479 299.769 546.219C308.073 525.887 338.715 488.086 339.574 488.086Z" fill="#EC92AD"/>
<path d="M576.114 529.043C626.228 550.521 648.565 618.104 679.207 660.2C716.148 710.887 757.385 762.434 788.6 817.989C792.895 830.589 828.119 899.318 841.864 921.082C875.083 977.783 907.443 1088.89 907.443 1174.23C906.297 1173.66 816.377 968.047 815.232 968.047C820.386 1070.57 800.054 1107.22 800.054 1106.08C784.59 1036.49 782.013 973.774 760.535 921.082C705.266 785.63 650.57 646.741 576.114 529.043Z" fill="#EC92AD"/>
<path d="M365.346 604.062C379.665 618.667 383.674 682.241 390.261 707.155C400.761 742.092 411.165 776.934 421.475 811.68C441.807 858.358 476.744 885.85 474.739 945.987C473.212 945.987 471.589 945.987 469.871 945.987C386.824 913.914 351.314 728.06 365.346 604.062Z" fill="#EC92AD"/>
<path d="M1042.9 808.247C1042.32 854.925 992.495 949.427 971.876 983.791C968.44 984.364 934.362 971.763 931.212 960.309C928.348 949.14 987.054 802.233 994.786 795.646C1009.1 800.515 1025.71 807.101 1042.9 808.247Z" fill="#EC92AD"/>
<path d="M1320.39 1447.71C1244.21 1448.28 1146.85 1396.45 1093.01 1365.23C1091.01 1364.09 1089.86 1361.51 1090.72 1359.22C1091.29 1356.93 1092.15 1354.64 1092.72 1352.63C1093.58 1350.34 1095.59 1349.2 1097.88 1349.2C1132.82 1350.63 1145.42 1371.25 1169.18 1381.84C1208.42 1399.6 1265.12 1417.64 1316.95 1419.36C1319.81 1419.36 1322.39 1417.07 1322.39 1413.92C1322.96 1338.32 1314.66 1270.73 1293.75 1219.47C1293.56 1219.28 1293.47 1219.09 1293.47 1218.9C1292.04 1212.6 1288.31 1206.59 1286.6 1200.29C1286.6 1199.71 1286.02 1198.85 1285.45 1198.28C1281.44 1193.99 1274.57 1194.27 1270.85 1188.26C1267.12 1182.24 1294.04 1155.33 1297.76 1137.57C1311.51 1071.42 1246.22 968.899 1208.42 935.394C1203.83 936.826 1202.69 937.399 1198.11 938.831C1195.24 956.299 1185.51 962.027 1177.2 974.341C1144.84 1020.73 1128.23 1072.28 1049.77 1072.57C1047.76 1072.57 1046.33 1074.57 1044.9 1076.29C1022.28 1106.64 994.785 1132.99 973.88 1153.89C920.616 1207.44 839.001 1343.47 764.831 1361.51C712.712 1374.4 647.993 1358.07 584.992 1367.81C551.773 1372.97 421.188 1389.29 392.552 1383.56C389.974 1382.99 388.256 1380.41 388.542 1377.83C388.829 1372.97 386.824 1369.53 392.552 1366.67C416.32 1360.94 437.511 1370.68 458.416 1366.38C489.153 1359.51 519.89 1352.73 550.627 1346.05C550.627 1346.05 550.723 1346.05 550.914 1346.05C633.101 1332.3 708.13 1339.17 783.731 1324.86C785.45 1324.57 793.468 1316.55 794.614 1315.12C818.669 1291.92 830.696 1278.46 847.305 1261C871.074 1236.08 896.275 1212.03 917.752 1185.11C946.676 1149.31 968.153 1128.69 1016.55 1075.14C1019.7 1071.71 1021.42 1069.99 1021.13 1067.98C1021.13 1066.27 1021.13 1063.97 1017.69 1062.26C982.472 1044.21 1000.51 990.95 1011.39 960.308C1025.71 920.217 1117.92 849.197 1181.78 863.229C1267.98 882.703 1306.35 937.685 1330.12 1021.02C1335.85 1040.78 1347.02 1070.85 1341.29 1098.91C1341.1 1099.1 1341.01 1099.29 1341.01 1099.48C1336.42 1111.51 1334.42 1128.69 1329.84 1140.43C1329.84 1140.63 1329.84 1140.72 1329.84 1140.72C1323.82 1162.77 1321.25 1178.24 1305.5 1191.69C1303.49 1193.41 1302.92 1196.28 1304.35 1198.28C1335.85 1252.98 1349.31 1322.57 1351.89 1402.18C1353.61 1446.56 1349.88 1510.71 1357.61 1547.94C1357.9 1549.66 1359.33 1551.09 1360.76 1551.66C1426.63 1580.3 1593.87 1723.48 1613.34 1789.92C1613.53 1790.87 1613.53 1791.73 1613.34 1792.5C1608.76 1811.97 1602.17 1830.3 1595.59 1848.05C1595.4 1848.62 1595.01 1849.2 1594.44 1849.77C1549.77 1898.74 1458.99 1955.73 1360.76 1912.49C1304.92 1887.86 1267.41 1854.35 1229.61 1809.68C1203.83 1779.32 1178.63 1744.96 1153.72 1713.17C1112.2 1660.48 1078.98 1602.92 1039.75 1547.36C1022.56 1523.31 1006.53 1495.25 988.199 1471.19C988.199 1471 988.104 1470.81 987.913 1470.62C975.885 1458.21 963.953 1445.8 952.117 1433.39C948.966 1427.66 950.971 1426.23 954.121 1423.37C954.885 1422.79 955.744 1422.41 956.698 1422.22C977.317 1418.79 998.508 1448.85 1008.53 1462.03C1008.53 1462.22 1008.63 1462.31 1008.82 1462.31C1027.43 1481.21 1042.9 1508.13 1060.08 1529.61C1060.27 1529.8 1060.36 1529.9 1060.36 1529.9C1076.4 1554.81 1092.15 1572.57 1108.47 1597.48C1170.62 1685.68 1238.77 1803.67 1330.12 1861.51C1354.46 1876.98 1403.43 1909.05 1445.82 1900.46C1493.07 1891.01 1524.57 1870.1 1557.5 1849.77C1573.25 1839.75 1578.69 1819.13 1569.53 1802.52C1521.13 1716.32 1422.91 1613.8 1332.41 1587.46C1330.12 1586.88 1328.69 1584.88 1328.41 1582.59C1327.45 1539.44 1326.5 1496.2 1325.54 1452.86C1325.54 1450 1323.25 1447.71 1320.39 1447.71Z" fill="#EC92AD"/>
<path d="M562.082 1052.23C664.889 1048.51 591.005 1225.2 519.986 1200.86C472.162 1184.25 501.945 1104.64 521.418 1078.87C531.441 1065.98 547.191 1060.82 562.082 1052.23Z" fill="#EC92AD"/>
<path d="M407.443 1066.27C486.194 1071.14 421.188 1213.46 365.346 1194.56C292.895 1169.93 373.365 1082.59 407.443 1066.27Z" fill="#EC92AD"/>
<path d="M656.011 1106.94C689.516 1129.85 715.575 1222.06 691.807 1266.44C675.484 1270.17 603.319 1289.93 588.714 1271.02C588.714 1268.92 588.714 1266.82 588.714 1264.72C644.842 1243.53 657.729 1182.25 656.011 1106.94Z" fill="#EC92AD"/>
<path d="M491.921 1117.81C489.058 1157.33 478.748 1214.6 474.739 1239.8C471.303 1260.14 481.039 1286.77 473.021 1300.8C463.284 1306.91 453.452 1313.11 443.525 1319.41C407.442 1314.55 398.565 1267.01 398.279 1227.2C424.911 1215.46 484.762 1149.88 491.921 1117.81Z" fill="#EC92AD"/>
<path d="M201.256 1280.47C223.307 1279.9 256.812 1294.79 265.403 1308.53C187.224 1307.96 170.901 1389.29 159.16 1456.87C157.633 1456.3 156.105 1455.82 154.578 1455.44C106.755 1371.25 146.846 1330.87 201.256 1280.47Z" fill="#EC92AD"/>
<path d="M398.279 1311.69C410.307 1315.41 418.611 1316.55 429.78 1324.57C434.075 1327.72 432.644 1330.59 428.062 1335.74C406.584 1354.07 376.229 1365.81 351.315 1363.23C336.71 1361.8 315.805 1360.65 306.355 1366.95C304.064 1368.1 304.35 1370.1 304.637 1371.82C312.082 1413.06 373.938 1518.16 357.329 1551.38C352.46 1551.66 351.028 1551.66 346.446 1551.66C326.401 1522.17 257.672 1407.62 292.036 1352.35C309.505 1324 371.933 1331.73 398.279 1311.69Z" fill="#EC92AD"/>
</g>
<defs>
<linearGradient id="paint0_linear_2718_972" x1="36.3572" y1="2416.52" x2="36.3572" y2="806.412" gradientUnits="userSpaceOnUse">
<stop stop-color="#F1D0DB"/>
<stop offset="1" stop-color="#F1D0DB"/>
</linearGradient>
<linearGradient id="paint1_linear_2718_972" x1="36.3572" y1="2416.52" x2="36.3572" y2="806.412" gradientUnits="userSpaceOnUse">
<stop stop-color="#F1D0DB"/>
<stop offset="1" stop-color="#F1D0DB"/>
</linearGradient>
<clipPath id="clip0_2718_972">
<rect width="1500" height="1500" rx="250" fill="white"/>
</clipPath>
</defs>
</svg>
