<svg xmlns="http://www.w3.org/2000/svg" version="1.1" xmlns:xlink="http://www.w3.org/1999/xlink" xmlns:svgjs="http://svgjs.dev/svgjs" width="24" height="24"><svg xmlns="http://www.w3.org/2000/svg" width="24" height="24" viewBox="0 0 24 24">
	<g fill="none">
		<path d="m12.594 23.258l-.012.002l-.071.035l-.02.004l-.014-.004l-.071-.036q-.016-.004-.024.006l-.004.01l-.017.428l.005.02l.01.013l.104.074l.015.004l.012-.004l.104-.074l.012-.016l.004-.017l-.017-.427q-.004-.016-.016-.018m.264-.113l-.014.002l-.184.093l-.01.01l-.003.011l.018.43l.005.012l.008.008l.201.092q.019.005.029-.008l.004-.014l-.034-.614q-.005-.019-.02-.022m-.715.002a.02.02 0 0 0-.027.006l-.006.014l-.034.614q.001.018.017.024l.015-.002l.201-.093l.01-.008l.003-.011l.018-.43l-.003-.012l-.01-.01z"></path>
		<path fill="#fd7f9c" d="M18.296 3.045a1 1 0 0 1 .657.652l.03.119l1.341 7.154q.154.826.148 1.63l-.012.4H21a1 1 0 0 1 .117 1.993L21 15h-.894q-.164.531-.392 1.033l-.16.33l1.07.856a1 1 0 0 1-1.146 1.634l-.103-.072l-.936-.749A8.43 8.43 0 0 1 12 21a8.42 8.42 0 0 1-6.25-2.755l-.19-.213l-.935.749a1 1 0 0 1-1.343-1.477l.093-.085l1.07-.856a9 9 0 0 1-.435-1.012L3.894 15H3a1 1 0 0 1-.117-1.993L3 13h.54a8.5 8.5 0 0 1 .069-1.619l.067-.411l1.341-7.154a1 1 0 0 1 1.598-.604l.092.08l2.414 2.415a1 1 0 0 0 .576.284L9.828 6h4.344a1 1 0 0 0 .608-.206l.099-.087l2.414-2.414a1 1 0 0 1 1.003-.248m-.93 3.003L16.293 7.12a3 3 0 0 1-2.121.88H9.828a3 3 0 0 1-2.12-.879L6.632 6.048l-.992 5.29A6.5 6.5 0 0 0 5.545 13H7a1 1 0 1 1 0 2h-.492a.998.998 0 0 1 .71 1.696l-.095.086A6.44 6.44 0 0 0 12 19a6.43 6.43 0 0 0 4.696-2.02l.18-.2a1 1 0 0 1 .616-1.78H17a1 1 0 1 1 0-2h1.455a6.5 6.5 0 0 0-.096-1.662zm-3.472 9.005a1 1 0 0 1-.447 1.342l-.553.276a2 2 0 0 1-1.788 0l-.553-.276a1 1 0 0 1 .894-1.79l.553.277l.553-.276a1 1 0 0 1 1.341.447M9.5 10a1.5 1.5 0 1 1 0 3a1.5 1.5 0 0 1 0-3m5 0a1.5 1.5 0 1 1 0 3a1.5 1.5 0 0 1 0-3"></path>
	</g>
</svg><style>@media (prefers-color-scheme: light) { :root { filter: none; } }
@media (prefers-color-scheme: dark) { :root { filter: none; } }
</style></svg>