<svg width="11437" height="1500" viewBox="0 0 11437 1500" fill="none" xmlns="http://www.w3.org/2000/svg">
<g clip-path="url(#clip0_721_640)">
<path d="M442.5 953.5L669 697L1080 927L985.5 1134.5L669 1104.5L442.5 953.5Z" fill="#EACACA"/>
<path d="M985.5 727L1034.5 602.5L1121.5 629L1166.5 844L985.5 727Z" fill="#EACACA"/>
<path fill-rule="evenodd" clip-rule="evenodd" d="M1540.03 1958.88C1518.27 1990.95 1454.98 2031.91 1419.76 2052.52C1403.15 2062.26 1385.11 2059.4 1360.48 2063.41C1254.24 2080.59 1148.57 2057.97 1062.08 2032.19C1041.18 2025.89 989.344 1986.37 967.008 1994.68C934.934 2009 939.516 2047.66 923.193 2077.44C912.311 2100.35 883.674 2183.68 874.797 2202.3C852.174 2249.83 823.823 2298.8 796.618 2342.9C775.713 2376.98 722.162 2440.55 662.311 2407.05C634.247 2391.3 635.679 2369.53 631.383 2346.91C631.097 2346.05 631.097 2333.74 630.238 2333.74C627.088 2333.74 627.088 2333.74 623.365 2333.74C616.11 2342.52 608.76 2351.3 601.315 2360.08C559.791 2398.17 497.363 2389.01 482.758 2332.02C473.021 2294.51 491.062 2256.71 501.372 2232.08C520.654 2172.7 539.936 2113.33 559.218 2053.96C569.528 2004.7 546.045 1964.61 532.586 1932.25C507.385 1870.39 500.226 1796.8 474.739 1733.8C464.144 1707.16 443.811 1693.42 435.793 1674.52C426.343 1651.89 405.438 1559.11 388.829 1551.09C335.564 1527.04 321.246 1607.22 290.604 1618.1C228.176 1640.44 200.971 1552.52 196.961 1507.28C145.129 1490.1 106.183 1412.2 131.097 1340.32C153.147 1277.61 199.539 1232.36 287.454 1234.08C295.186 1224.35 307.214 1219.48 315.518 1210.6L332.7 1141.87C341.673 1125.26 350.551 1108.56 359.333 1091.76C371.647 1073.72 393.983 1050.81 412.311 1038.78C422.811 1033.62 433.216 1028.37 443.525 1023.03C437.798 1021.69 432.643 1020.07 428.061 1018.16C398.852 1005.27 393.983 980.359 373.365 956.017C371.36 961.172 348.451 999.545 335.85 1010.71C331.65 1008.04 327.45 1005.37 323.25 1002.7C315.805 990.954 315.518 909.053 309.218 884.139C259.104 683.108 276.572 507.563 421.761 407.621C433.216 399.889 441.234 376.407 445.243 370.106C472.735 350.824 500.322 331.542 528.004 312.26C557.786 297.655 598.737 295.364 641.979 289.064C658.588 288.491 675.293 287.918 692.093 287.346C818.955 286.2 964.717 357.22 1037.17 415.353C1053.78 436.735 1070.48 458.117 1087.28 479.499C1121.36 525.032 1159.45 565.983 1190.38 615.525C1219.59 662.489 1281.73 738.377 1280.87 801.378C1249.56 767.396 1218.34 733.509 1187.23 699.717C1195.82 736.086 1215.29 743.531 1229.32 769.305C1233.62 777.323 1239.34 786.773 1245.07 791.928C1252.52 796.701 1260.06 801.569 1267.7 806.533C1285.64 817.797 1303.59 829.06 1321.53 840.324C1379.38 882.993 1437.23 942.844 1477.6 1002.7C1548.05 1107.22 1598.74 1224.35 1630.81 1368.39C1677.78 1579.44 1628.23 1830.3 1540.03 1958.88ZM1048.05 716.899C1071.82 724.345 1106.18 762.146 1133.96 754.414C1133.96 754.414 1103.89 725.204 1090.43 710.599C1080.41 697.14 1079.55 686.258 1067.24 666.212L1059.79 657.048C1055.5 674.803 1040.6 702.294 1048.05 716.899ZM1005.95 984.081C1005.09 982.65 995.358 998.4 994.786 997.541C987.34 987.518 983.044 988.091 971.303 979.786C961.853 968.331 957.558 943.99 948.107 932.535C926.916 935.399 896.275 1010.14 879.379 1027.9C878.424 1027.32 877.374 1026.75 876.229 1026.18C863.056 978.64 766.549 821.138 732.471 801.378C706.507 796.605 680.543 791.928 654.579 787.346C629.665 814.551 618.21 854.643 592.151 880.989C565.518 907.621 530.009 925.09 504.522 952.867V965.181C513.399 978.354 527.718 981.218 542.036 988.663C561.891 998.018 581.651 1007.37 601.315 1016.73C607.328 1018.16 613.628 1018.45 619.642 1017.87C630.524 1017.01 641.12 1014.15 648.279 1012.15C680.066 1003.27 717.58 1011.57 746.79 1018.45C767.122 1023.31 778.577 1037.35 793.468 1046.51C821.532 1063.98 850.742 1069.71 876.229 1088.61C879.474 1092.81 882.624 1097.01 885.679 1101.21C913.743 1112.09 1004.52 1012.43 1005.95 984.081Z" fill="#F3E2E7"/>
<path d="M534.877 418.215L635.965 159.91C635.965 159.91 712.712 199.715 801.773 395.306L534.877 418.215Z" fill="#F3E2E7"/>
<path d="M197.82 483.515C197.82 483.515 265.117 459.174 335.277 475.497C405.724 491.82 279.722 635.863 279.722 635.863C279.722 635.863 184.934 508.143 197.82 483.515Z" fill="#F3E2E7"/>
<path d="M531.154 378.412C531.154 378.412 528.863 423.086 540.89 424.231L636.251 160.199C636.251 159.913 635.965 159.913 635.965 160.199C513.685 382.708 535.736 351.494 531.154 378.412Z" fill="#EC92AD"/>
<path d="M789.745 380.419C774.854 371.255 756.813 319.422 755.667 315.413C746.503 282.194 724.453 255.848 678.92 206.593C655.724 181.392 635.106 161.06 635.965 159.915C636.824 159.055 655.438 173.947 666.034 182.824C690.948 203.443 713.857 226.066 742.208 261.575C794.327 326.295 806.354 373.832 816.377 389.296C816.664 389.869 818.096 392.16 817.236 393.019C816.091 394.451 809.505 391.014 801.773 387.005C796.332 384.141 791.177 381.278 789.745 380.419Z" fill="#EC92AD"/>
<path d="M566.95 414.497C564.373 412.779 576.973 386.719 596.446 356.937C612.483 332.309 614.201 334.313 629.092 309.972C637.397 296.799 644.843 283.626 646.561 284.485C647.706 284.772 646.274 289.067 645.129 295.081C639.115 324.29 646.847 338.895 643.983 359.8C643.983 360.946 643.411 364.382 644.556 364.668C645.702 365.241 648.852 359.8 652.002 355.218C655.152 350.923 660.306 346.341 670.329 337.463C690.089 319.709 692.093 320.281 692.953 320.854C694.671 322 692.666 325.722 692.953 339.468C692.953 340.614 692.953 351.209 697.534 359.8C698.107 360.659 698.966 362.091 700.398 362.95C702.403 364.096 705.266 364.382 712.139 361.232C722.448 356.364 723.88 351.496 727.317 352.355C730.181 353.214 729.608 356.937 734.762 366.387C738.485 373.546 751.085 375.551 749.94 377.841C748.508 380.705 731.612 381.564 729.894 381.851C670.329 391.587 601.887 408.769 582.987 410.488C581.555 410.774 577.832 411.06 573.25 412.492C568.668 413.924 567.523 415.069 566.95 414.497Z" fill="#EC92AD"/>
<path d="M280.581 628.707C283.158 630.998 281.44 639.589 278.576 640.448C276.572 641.021 272.849 638.73 260.821 618.684C248.221 597.779 242.78 590.906 231.039 568.856C220.443 548.237 214.43 534.205 210.707 529.051C210.707 529.051 200.684 512.441 195.243 494.686C194.384 491.823 194.098 488.672 194.098 488.672C194.098 486.382 193.811 483.804 194.384 482.945C196.388 480.368 233.616 498.695 267.981 522.75C277.431 529.623 298.909 545.374 305.495 546.519C305.781 546.805 306.641 546.805 307.213 547.665C309.504 550.528 300.34 556.828 297.19 566.279C289.745 586.897 289.745 605.225 287.167 610.379C283.731 616.966 281.44 621.261 280.581 621.261C279.722 621.261 279.435 606.656 279.435 606.656C279.435 606.656 268.84 608.947 267.408 606.943C263.971 601.502 285.736 584.892 282.586 579.451C280.295 575.442 265.976 580.883 264.831 578.02C263.112 574.583 281.726 568.283 281.726 559.119C281.726 546.519 245.644 540.792 227.316 521.319C226.744 520.459 225.598 519.314 224.739 519.6C221.303 521.319 244.785 573.724 255.667 595.488C267.408 618.398 269.126 614.961 273.994 622.693C274.567 623.552 275.713 625.557 278.004 627.275C279.435 628.134 280.008 628.134 280.581 628.707Z" fill="#EC92AD"/>
<path d="M1540.03 1958.88C1518.27 1990.95 1454.98 2031.9 1419.76 2052.52C1403.15 2062.26 1385.11 2059.4 1360.48 2063.4C1254.24 2080.59 1148.57 2057.96 1062.08 2032.19C1041.18 2025.89 989.344 1986.37 967.008 1994.68C934.934 2008.99 939.516 2047.65 923.193 2077.44C912.311 2100.35 883.674 2183.68 874.797 2202.29C852.174 2249.83 823.823 2298.8 796.618 2342.9C775.713 2376.98 722.162 2440.55 662.311 2407.05C634.247 2391.3 635.679 2369.53 631.383 2346.91C631.097 2346.05 631.097 2333.74 630.238 2333.74C627.088 2333.74 627.088 2333.74 623.365 2333.74C616.11 2342.52 608.76 2351.3 601.315 2360.08C559.791 2398.17 497.363 2389.01 482.758 2332.02C473.021 2294.5 491.062 2256.7 501.372 2232.08C520.654 2172.7 539.936 2113.33 559.218 2053.95C569.528 2004.7 546.045 1964.61 532.586 1932.25C507.386 1870.39 500.226 1796.8 474.739 1733.79C464.144 1707.16 443.811 1693.42 435.793 1674.52C426.343 1651.89 405.438 1559.11 388.829 1551.09C335.564 1527.04 321.246 1607.22 290.604 1618.1C228.176 1640.44 200.971 1552.52 196.961 1507.28C145.129 1490.09 106.183 1412.2 131.097 1340.32C153.147 1277.61 199.539 1232.36 287.454 1234.08C295.186 1224.34 307.214 1219.48 315.518 1210.6L332.7 1141.87C341.673 1125.26 350.551 1108.56 359.333 1091.75C371.647 1073.71 393.983 1050.8 412.311 1038.78C422.811 1033.62 433.216 1028.37 443.525 1023.03C437.798 1021.69 432.643 1020.07 428.061 1018.16C438.943 1015.01 448.68 1014.15 456.698 1014.15C497.076 1013.86 513.399 1036.77 557.786 1035.34C577.832 1034.48 577.832 1029.61 619.642 1017.87C682.643 1000.12 714.144 991.239 746.217 998.971C783.445 1007.85 777.431 1027.04 841.865 1056.25C875.656 1071.42 899.711 1082.02 925.484 1073.14C950.685 1064.26 968.726 1040.21 975.599 1031.04C985.908 1017.01 991.349 1004.7 993.067 1000.98C993.067 1000.98 996.217 994.103 1003.66 980.644C1015.4 959.739 1037.45 923.943 1074.68 874.401C1114.2 822.568 1204.41 809.109 1267.7 806.531C1285.64 817.795 1303.59 829.059 1321.53 840.323C1379.38 882.992 1437.23 942.843 1477.6 1002.69C1548.05 1107.22 1598.74 1224.34 1630.81 1368.39C1677.78 1579.44 1628.23 1830.3 1540.03 1958.88Z" fill="url(#paint0_linear_721_640)"/>
<path d="M402.861 438.547C404.579 468.616 379.665 549.944 374.797 567.986C373.651 568.272 372.219 568.558 370.501 568.845C366.778 569.131 363.056 568.272 359.906 565.981L359.333 565.695C352.746 518.157 378.52 470.334 402.861 438.547Z" fill="#EC92AD"/>
<path d="M339.574 488.086C332.987 507.559 322.392 530.469 315.805 549.942C315.423 550.514 315.232 551.183 315.232 551.946C304.064 604.638 301.2 731.213 312.369 785.337C325.351 839.938 338.333 894.539 351.315 949.14C358.761 990.664 306.355 1080.3 284.018 1085.17C284.591 1084.31 287.455 1071.42 290.032 1060.82C291.368 1054.91 292.227 1048.99 292.609 1043.07C295.091 1005.46 297.478 967.849 299.769 930.24C300.914 915.921 299.482 901.603 296.046 887.571C287.836 854.543 279.723 821.515 271.704 788.487C257.672 716.036 278.864 597.479 299.769 546.219C308.073 525.887 338.715 488.086 339.574 488.086Z" fill="#EC92AD"/>
<path d="M576.114 529.043C626.228 550.521 648.565 618.104 679.207 660.2C716.148 710.887 757.385 762.434 788.6 817.989C792.895 830.589 828.119 899.318 841.864 921.082C875.083 977.783 907.443 1088.89 907.443 1174.23C906.297 1173.66 816.377 968.047 815.232 968.047C820.386 1070.57 800.054 1107.22 800.054 1106.08C784.59 1036.49 782.013 973.774 760.535 921.082C705.266 785.63 650.57 646.741 576.114 529.043Z" fill="#EC92AD"/>
<path d="M365.346 604.062C379.665 618.667 383.674 682.241 390.261 707.155C400.761 742.092 411.165 776.934 421.475 811.68C441.807 858.358 476.744 885.85 474.739 945.987C473.212 945.987 471.589 945.987 469.871 945.987C386.824 913.914 351.314 728.06 365.346 604.062Z" fill="#EC92AD"/>
<path d="M1042.9 808.249C1042.32 854.927 992.495 949.429 971.876 983.793C968.44 984.366 934.362 971.765 931.212 960.311C928.348 949.142 987.054 802.235 994.786 795.648C1009.1 800.517 1025.71 807.103 1042.9 808.249Z" fill="#EC92AD"/>
<path d="M1320.39 1447.71C1244.21 1448.28 1146.85 1396.45 1093.01 1365.23C1091.01 1364.09 1089.86 1361.51 1090.72 1359.22C1091.29 1356.93 1092.15 1354.64 1092.72 1352.63C1093.58 1350.34 1095.59 1349.2 1097.88 1349.2C1132.82 1350.63 1145.42 1371.25 1169.18 1381.84C1208.42 1399.6 1265.12 1417.64 1316.95 1419.36C1319.81 1419.36 1322.39 1417.07 1322.39 1413.92C1322.96 1338.32 1314.66 1270.73 1293.75 1219.47C1293.56 1219.28 1293.47 1219.09 1293.47 1218.9C1292.04 1212.6 1288.31 1206.59 1286.6 1200.29C1286.6 1199.71 1286.02 1198.85 1285.45 1198.28C1281.44 1193.99 1274.57 1194.27 1270.85 1188.26C1267.12 1182.24 1294.04 1155.33 1297.76 1137.57C1311.51 1071.42 1246.22 968.899 1208.42 935.394C1203.83 936.826 1202.69 937.399 1198.11 938.831C1195.24 956.299 1185.51 962.027 1177.2 974.341C1144.84 1020.73 1128.23 1072.28 1049.77 1072.57C1047.76 1072.57 1046.33 1074.57 1044.9 1076.29C1022.28 1106.64 994.785 1132.99 973.881 1153.89C920.616 1207.44 839.001 1343.47 764.831 1361.51C712.712 1374.4 647.993 1358.07 584.991 1367.81C551.773 1372.97 421.188 1389.29 392.552 1383.56C389.974 1382.99 388.256 1380.41 388.542 1377.83C388.829 1372.97 386.824 1369.53 392.552 1366.67C416.32 1360.94 437.511 1370.68 458.416 1366.38C489.153 1359.51 519.89 1352.73 550.627 1346.05C550.627 1346.05 550.723 1346.05 550.914 1346.05C633.101 1332.3 708.13 1339.17 783.731 1324.86C785.45 1324.57 793.468 1316.55 794.614 1315.12C818.669 1291.92 830.696 1278.46 847.305 1261C871.074 1236.08 896.275 1212.03 917.752 1185.11C946.676 1149.31 968.153 1128.69 1016.55 1075.14C1019.7 1071.71 1021.42 1069.99 1021.13 1067.98C1021.13 1066.27 1021.13 1063.97 1017.69 1062.26C982.472 1044.21 1000.51 990.95 1011.39 960.308C1025.71 920.217 1117.92 849.197 1181.78 863.229C1267.98 882.703 1306.35 937.685 1330.12 1021.02C1335.85 1040.78 1347.02 1070.85 1341.29 1098.91C1341.1 1099.1 1341.01 1099.29 1341.01 1099.48C1336.42 1111.51 1334.42 1128.69 1329.84 1140.43C1329.84 1140.63 1329.84 1140.72 1329.84 1140.72C1323.82 1162.77 1321.25 1178.24 1305.5 1191.69C1303.49 1193.41 1302.92 1196.28 1304.35 1198.28C1335.85 1252.98 1349.31 1322.57 1351.89 1402.18C1353.61 1446.56 1349.88 1510.71 1357.61 1547.94C1357.9 1549.66 1359.33 1551.09 1360.76 1551.66C1426.63 1580.3 1593.87 1723.48 1613.34 1789.92C1613.53 1790.87 1613.53 1791.73 1613.34 1792.5C1608.76 1811.97 1602.17 1830.3 1595.59 1848.05C1595.4 1848.63 1595.01 1849.2 1594.44 1849.77C1549.77 1898.74 1458.99 1955.73 1360.76 1912.49C1304.92 1887.86 1267.41 1854.35 1229.61 1809.68C1203.83 1779.32 1178.63 1744.96 1153.72 1713.17C1112.2 1660.48 1078.98 1602.92 1039.75 1547.36C1022.56 1523.31 1006.53 1495.25 988.199 1471.19C988.199 1471 988.104 1470.81 987.913 1470.62C975.885 1458.21 963.953 1445.8 952.117 1433.39C948.966 1427.66 950.971 1426.23 954.121 1423.37C954.885 1422.79 955.744 1422.41 956.698 1422.22C977.317 1418.79 998.508 1448.85 1008.53 1462.03C1008.53 1462.22 1008.63 1462.31 1008.82 1462.31C1027.43 1481.21 1042.9 1508.13 1060.08 1529.61C1060.27 1529.8 1060.36 1529.9 1060.36 1529.9C1076.4 1554.81 1092.15 1572.57 1108.47 1597.48C1170.62 1685.68 1238.77 1803.67 1330.12 1861.51C1354.46 1876.98 1403.43 1909.05 1445.82 1900.46C1493.07 1891.01 1524.57 1870.1 1557.5 1849.77C1573.25 1839.75 1578.69 1819.13 1569.53 1802.52C1521.13 1716.32 1422.91 1613.8 1332.41 1587.46C1330.12 1586.88 1328.69 1584.88 1328.41 1582.59C1327.45 1539.44 1326.5 1496.2 1325.54 1452.86C1325.54 1450 1323.25 1447.71 1320.39 1447.71Z" fill="#EC92AD"/>
<path d="M562.082 1052.23C664.889 1048.51 591.005 1225.2 519.986 1200.86C472.162 1184.25 501.945 1104.64 521.418 1078.87C531.441 1065.98 547.191 1060.82 562.082 1052.23Z" fill="#EC92AD"/>
<path d="M407.443 1066.27C486.194 1071.13 421.188 1213.46 365.346 1194.56C292.895 1169.93 373.365 1082.59 407.443 1066.27Z" fill="#EC92AD"/>
<path d="M656.011 1106.93C689.516 1129.84 715.576 1222.05 691.807 1266.44C675.484 1270.16 603.319 1289.92 588.714 1271.02C588.714 1268.92 588.714 1266.82 588.714 1264.72C644.842 1243.53 657.729 1182.25 656.011 1106.93Z" fill="#EC92AD"/>
<path d="M491.921 1117.81C489.058 1157.33 478.748 1214.6 474.739 1239.8C471.303 1260.13 481.039 1286.77 473.021 1300.8C463.284 1306.91 453.452 1313.11 443.525 1319.41C407.442 1314.54 398.565 1267.01 398.279 1227.2C424.911 1215.46 484.762 1149.88 491.921 1117.81Z" fill="#EC92AD"/>
<path d="M201.256 1280.47C223.307 1279.9 256.812 1294.79 265.403 1308.53C187.224 1307.96 170.901 1389.29 159.16 1456.87C157.633 1456.3 156.105 1455.82 154.578 1455.44C106.755 1371.25 146.846 1330.87 201.256 1280.47Z" fill="#EC92AD"/>
<path d="M398.279 1311.69C410.307 1315.41 418.611 1316.56 429.78 1324.57C434.075 1327.72 432.644 1330.59 428.062 1335.74C406.584 1354.07 376.229 1365.81 351.315 1363.23C336.71 1361.8 315.805 1360.66 306.355 1366.96C304.064 1368.1 304.35 1370.11 304.637 1371.82C312.082 1413.06 373.938 1518.16 357.329 1551.38C352.46 1551.66 351.028 1551.66 346.446 1551.66C326.401 1522.17 257.672 1407.62 292.036 1352.35C309.505 1324 371.933 1331.73 398.279 1311.69Z" fill="#EC92AD"/>
<path d="M442.5 953.5L669 697L1080 927L985.5 1134.5L669 1104.5L442.5 953.5Z" fill="#FFF4F4"/>
<path d="M985.5 727L1034.5 602.5L1121.5 629L1166.5 844L985.5 727Z" fill="#FFF4F4"/>
<path fill-rule="evenodd" clip-rule="evenodd" d="M1540.03 1958.88C1518.27 1990.95 1454.98 2031.91 1419.76 2052.52C1403.15 2062.26 1385.11 2059.4 1360.48 2063.41C1254.24 2080.59 1148.57 2057.97 1062.08 2032.19C1041.18 2025.89 989.344 1986.37 967.008 1994.68C934.934 2009 939.516 2047.66 923.193 2077.44C912.311 2100.35 883.674 2183.68 874.797 2202.3C852.174 2249.83 823.823 2298.8 796.618 2342.9C775.713 2376.98 722.162 2440.55 662.311 2407.05C634.247 2391.3 635.679 2369.53 631.383 2346.91C631.097 2346.05 631.097 2333.74 630.238 2333.74C627.088 2333.74 627.088 2333.74 623.365 2333.74C616.11 2342.52 608.76 2351.3 601.315 2360.08C559.791 2398.17 497.363 2389.01 482.758 2332.02C473.021 2294.51 491.062 2256.71 501.372 2232.08C520.654 2172.7 539.936 2113.33 559.218 2053.96C569.528 2004.7 546.045 1964.61 532.586 1932.25C507.385 1870.39 500.226 1796.8 474.739 1733.8C464.144 1707.16 443.811 1693.42 435.793 1674.52C426.343 1651.89 405.438 1559.11 388.829 1551.09C335.564 1527.04 321.246 1607.22 290.604 1618.1C228.176 1640.44 200.971 1552.52 196.961 1507.28C145.129 1490.1 106.183 1412.2 131.097 1340.32C153.147 1277.61 199.539 1232.36 287.454 1234.08C295.186 1224.35 307.214 1219.48 315.518 1210.6L332.7 1141.87C341.673 1125.26 350.551 1108.56 359.333 1091.76C371.647 1073.72 393.983 1050.81 412.311 1038.78C422.811 1033.62 433.216 1028.37 443.525 1023.03C437.798 1021.69 432.643 1020.07 428.061 1018.16C398.852 1005.27 393.983 980.359 373.365 956.017C371.36 961.172 348.451 999.545 335.85 1010.71C331.65 1008.04 327.45 1005.37 323.25 1002.7C315.805 990.954 315.518 909.053 309.218 884.139C259.104 683.108 276.572 507.563 421.761 407.621C433.216 399.889 441.234 376.407 445.243 370.106C472.735 350.824 500.322 331.542 528.004 312.26C557.786 297.655 598.737 295.364 641.979 289.064C658.588 288.491 675.293 287.918 692.093 287.346C818.955 286.2 964.717 357.22 1037.17 415.353C1053.78 436.735 1070.48 458.117 1087.28 479.499C1121.36 525.032 1159.45 565.983 1190.38 615.525C1219.59 662.489 1281.73 738.377 1280.87 801.378C1249.56 767.396 1218.34 733.509 1187.23 699.717C1195.82 736.086 1215.29 743.531 1229.32 769.305C1233.62 777.323 1239.34 786.773 1245.07 791.928C1252.52 796.701 1260.06 801.569 1267.7 806.533C1285.64 817.797 1303.59 829.06 1321.53 840.324C1379.38 882.993 1437.23 942.844 1477.6 1002.7C1548.05 1107.22 1598.74 1224.35 1630.81 1368.39C1677.78 1579.44 1628.23 1830.3 1540.03 1958.88ZM1048.05 716.899C1071.82 724.345 1106.18 762.146 1133.96 754.414C1133.96 754.414 1103.89 725.204 1090.43 710.599C1080.41 697.14 1079.55 686.258 1067.24 666.212L1059.79 657.048C1055.5 674.803 1040.6 702.294 1048.05 716.899ZM1005.95 984.081C1005.09 982.65 995.358 998.4 994.786 997.541C987.34 987.518 983.044 988.091 971.303 979.786C961.853 968.331 957.558 943.99 948.107 932.535C926.916 935.399 896.275 1010.14 879.379 1027.9C878.424 1027.32 877.374 1026.75 876.229 1026.18C863.056 978.64 766.549 821.138 732.471 801.378C706.507 796.605 680.543 791.928 654.579 787.346C629.665 814.551 618.21 854.643 592.151 880.989C565.518 907.621 530.009 925.09 504.522 952.867V965.181C513.399 978.354 527.718 981.218 542.036 988.663C561.891 998.018 581.651 1007.37 601.315 1016.73C607.328 1018.16 613.628 1018.45 619.642 1017.87C630.524 1017.01 641.12 1014.15 648.279 1012.15C680.066 1003.27 717.58 1011.57 746.79 1018.45C767.122 1023.31 778.577 1037.35 793.468 1046.51C821.532 1063.98 850.742 1069.71 876.229 1088.61C879.474 1092.81 882.624 1097.01 885.679 1101.21C913.743 1112.09 1004.52 1012.43 1005.95 984.081Z" fill="#F3E2E7"/>
<path d="M534.877 418.215L635.965 159.91C635.965 159.91 712.712 199.715 801.773 395.306L534.877 418.215Z" fill="#F3E2E7"/>
<path d="M197.82 483.515C197.82 483.515 265.117 459.174 335.277 475.497C405.724 491.82 279.722 635.863 279.722 635.863C279.722 635.863 184.934 508.143 197.82 483.515Z" fill="#F3E2E7"/>
<path d="M531.154 378.412C531.154 378.412 528.863 423.086 540.89 424.231L636.251 160.199C636.251 159.913 635.965 159.913 635.965 160.199C513.685 382.708 535.736 351.494 531.154 378.412Z" fill="#EC92AD"/>
<path d="M789.745 380.419C774.854 371.255 756.813 319.422 755.667 315.413C746.503 282.194 724.453 255.848 678.92 206.593C655.724 181.392 635.106 161.06 635.965 159.915C636.824 159.055 655.438 173.947 666.034 182.824C690.948 203.443 713.857 226.066 742.208 261.575C794.327 326.295 806.354 373.832 816.377 389.296C816.664 389.869 818.096 392.16 817.236 393.019C816.091 394.451 809.505 391.014 801.773 387.005C796.332 384.141 791.177 381.278 789.745 380.419Z" fill="#EC92AD"/>
<path d="M566.95 414.497C564.373 412.779 576.973 386.719 596.446 356.937C612.483 332.309 614.201 334.313 629.092 309.972C637.397 296.799 644.843 283.626 646.561 284.485C647.706 284.772 646.274 289.067 645.129 295.081C639.115 324.29 646.847 338.895 643.983 359.8C643.983 360.946 643.411 364.382 644.556 364.668C645.702 365.241 648.852 359.8 652.002 355.218C655.152 350.923 660.306 346.341 670.329 337.463C690.089 319.709 692.093 320.281 692.953 320.854C694.671 322 692.666 325.722 692.953 339.468C692.953 340.614 692.953 351.209 697.534 359.8C698.107 360.659 698.966 362.091 700.398 362.95C702.403 364.096 705.266 364.382 712.139 361.232C722.448 356.364 723.88 351.496 727.317 352.355C730.181 353.214 729.608 356.937 734.762 366.387C738.485 373.546 751.085 375.551 749.94 377.841C748.508 380.705 731.612 381.564 729.894 381.851C670.329 391.587 601.887 408.769 582.987 410.488C581.555 410.774 577.832 411.06 573.25 412.492C568.668 413.924 567.523 415.069 566.95 414.497Z" fill="#EC92AD"/>
<path d="M280.581 628.707C283.158 630.998 281.44 639.589 278.576 640.448C276.572 641.021 272.849 638.73 260.821 618.684C248.221 597.779 242.78 590.906 231.039 568.856C220.443 548.237 214.43 534.205 210.707 529.051C210.707 529.051 200.684 512.441 195.243 494.686C194.384 491.823 194.098 488.672 194.098 488.672C194.098 486.382 193.811 483.804 194.384 482.945C196.388 480.368 233.616 498.695 267.981 522.75C277.431 529.623 298.909 545.374 305.495 546.519C305.781 546.805 306.641 546.805 307.213 547.665C309.504 550.528 300.34 556.828 297.19 566.279C289.745 586.897 289.745 605.225 287.167 610.379C283.731 616.966 281.44 621.261 280.581 621.261C279.722 621.261 279.435 606.656 279.435 606.656C279.435 606.656 268.84 608.947 267.408 606.943C263.971 601.502 285.736 584.892 282.586 579.451C280.295 575.442 265.976 580.883 264.831 578.02C263.112 574.583 281.726 568.283 281.726 559.119C281.726 546.519 245.644 540.792 227.316 521.319C226.744 520.459 225.598 519.314 224.739 519.6C221.303 521.319 244.785 573.724 255.667 595.488C267.408 618.398 269.126 614.961 273.994 622.693C274.567 623.552 275.713 625.557 278.004 627.275C279.435 628.134 280.008 628.134 280.581 628.707Z" fill="#EC92AD"/>
<path d="M1540.03 1958.88C1518.27 1990.95 1454.98 2031.9 1419.76 2052.52C1403.15 2062.26 1385.11 2059.4 1360.48 2063.4C1254.24 2080.59 1148.57 2057.96 1062.08 2032.19C1041.18 2025.89 989.344 1986.37 967.008 1994.68C934.934 2008.99 939.516 2047.65 923.193 2077.44C912.311 2100.35 883.674 2183.68 874.797 2202.29C852.174 2249.83 823.823 2298.8 796.618 2342.9C775.713 2376.98 722.162 2440.55 662.311 2407.05C634.247 2391.3 635.679 2369.53 631.383 2346.91C631.097 2346.05 631.097 2333.74 630.238 2333.74C627.088 2333.74 627.088 2333.74 623.365 2333.74C616.11 2342.52 608.76 2351.3 601.315 2360.08C559.791 2398.17 497.363 2389.01 482.758 2332.02C473.021 2294.5 491.062 2256.7 501.372 2232.08C520.654 2172.7 539.936 2113.33 559.218 2053.95C569.528 2004.7 546.045 1964.61 532.586 1932.25C507.386 1870.39 500.226 1796.8 474.739 1733.79C464.144 1707.16 443.811 1693.42 435.793 1674.52C426.343 1651.89 405.438 1559.11 388.829 1551.09C335.564 1527.04 321.246 1607.22 290.604 1618.1C228.176 1640.44 200.971 1552.52 196.961 1507.28C145.129 1490.09 106.183 1412.2 131.097 1340.32C153.147 1277.61 199.539 1232.36 287.454 1234.08C295.186 1224.34 307.214 1219.48 315.518 1210.6L332.7 1141.87C341.673 1125.26 350.551 1108.56 359.333 1091.75C371.647 1073.71 393.983 1050.8 412.311 1038.78C422.811 1033.62 433.216 1028.37 443.525 1023.03C437.798 1021.69 432.643 1020.07 428.061 1018.16C438.943 1015.01 448.68 1014.15 456.698 1014.15C497.076 1013.86 513.399 1036.77 557.786 1035.34C577.832 1034.48 577.832 1029.61 619.642 1017.87C682.643 1000.12 714.144 991.239 746.217 998.971C783.445 1007.85 777.431 1027.04 841.865 1056.25C875.656 1071.42 899.711 1082.02 925.484 1073.14C950.685 1064.26 968.726 1040.21 975.599 1031.04C985.908 1017.01 991.349 1004.7 993.067 1000.98C993.067 1000.98 996.217 994.103 1003.66 980.644C1015.4 959.739 1037.45 923.943 1074.68 874.401C1114.2 822.568 1204.41 809.109 1267.7 806.531C1285.64 817.795 1303.59 829.059 1321.53 840.323C1379.38 882.992 1437.23 942.843 1477.6 1002.69C1548.05 1107.22 1598.74 1224.34 1630.81 1368.39C1677.78 1579.44 1628.23 1830.3 1540.03 1958.88Z" fill="url(#paint1_linear_721_640)"/>
<path d="M402.861 438.547C404.579 468.616 379.665 549.944 374.797 567.986C373.651 568.272 372.219 568.558 370.501 568.845C366.778 569.131 363.056 568.272 359.906 565.981L359.333 565.695C352.746 518.157 378.52 470.334 402.861 438.547Z" fill="#EC92AD"/>
<path d="M339.574 488.086C332.987 507.559 322.392 530.469 315.805 549.942C315.423 550.514 315.232 551.183 315.232 551.946C304.064 604.638 301.2 731.213 312.369 785.337C325.351 839.938 338.333 894.539 351.315 949.14C358.761 990.664 306.355 1080.3 284.018 1085.17C284.591 1084.31 287.455 1071.42 290.032 1060.82C291.368 1054.91 292.227 1048.99 292.609 1043.07C295.091 1005.46 297.478 967.849 299.769 930.24C300.914 915.921 299.482 901.603 296.046 887.571C287.836 854.543 279.723 821.515 271.704 788.487C257.672 716.036 278.864 597.479 299.769 546.219C308.073 525.887 338.715 488.086 339.574 488.086Z" fill="#EC92AD"/>
<path d="M576.114 529.043C626.228 550.521 648.565 618.104 679.207 660.2C716.148 710.887 757.385 762.434 788.6 817.989C792.895 830.589 828.119 899.318 841.864 921.082C875.083 977.783 907.443 1088.89 907.443 1174.23C906.297 1173.66 816.377 968.047 815.232 968.047C820.386 1070.57 800.054 1107.22 800.054 1106.08C784.59 1036.49 782.013 973.774 760.535 921.082C705.266 785.63 650.57 646.741 576.114 529.043Z" fill="#EC92AD"/>
<path d="M365.346 604.062C379.665 618.667 383.674 682.241 390.261 707.155C400.761 742.092 411.165 776.934 421.475 811.68C441.807 858.358 476.744 885.85 474.739 945.987C473.212 945.987 471.589 945.987 469.871 945.987C386.824 913.914 351.314 728.06 365.346 604.062Z" fill="#EC92AD"/>
<path d="M1042.9 808.249C1042.32 854.927 992.495 949.429 971.876 983.793C968.44 984.366 934.362 971.765 931.212 960.311C928.348 949.142 987.054 802.235 994.786 795.648C1009.1 800.517 1025.71 807.103 1042.9 808.249Z" fill="#EC92AD"/>
<path d="M1320.39 1447.71C1244.21 1448.28 1146.85 1396.45 1093.01 1365.23C1091.01 1364.09 1089.86 1361.51 1090.72 1359.22C1091.29 1356.93 1092.15 1354.64 1092.72 1352.63C1093.58 1350.34 1095.59 1349.2 1097.88 1349.2C1132.82 1350.63 1145.42 1371.25 1169.18 1381.84C1208.42 1399.6 1265.12 1417.64 1316.95 1419.36C1319.81 1419.36 1322.39 1417.07 1322.39 1413.92C1322.96 1338.32 1314.66 1270.73 1293.75 1219.47C1293.56 1219.28 1293.47 1219.09 1293.47 1218.9C1292.04 1212.6 1288.31 1206.59 1286.6 1200.29C1286.6 1199.71 1286.02 1198.85 1285.45 1198.28C1281.44 1193.99 1274.57 1194.27 1270.85 1188.26C1267.12 1182.24 1294.04 1155.33 1297.76 1137.57C1311.51 1071.42 1246.22 968.899 1208.42 935.394C1203.83 936.826 1202.69 937.399 1198.11 938.831C1195.24 956.299 1185.51 962.027 1177.2 974.341C1144.84 1020.73 1128.23 1072.28 1049.77 1072.57C1047.76 1072.57 1046.33 1074.57 1044.9 1076.29C1022.28 1106.64 994.785 1132.99 973.881 1153.89C920.616 1207.44 839.001 1343.47 764.831 1361.51C712.712 1374.4 647.993 1358.07 584.991 1367.81C551.773 1372.97 421.188 1389.29 392.552 1383.56C389.974 1382.99 388.256 1380.41 388.542 1377.83C388.829 1372.97 386.824 1369.53 392.552 1366.67C416.32 1360.94 437.511 1370.68 458.416 1366.38C489.153 1359.51 519.89 1352.73 550.627 1346.05C550.627 1346.05 550.723 1346.05 550.914 1346.05C633.101 1332.3 708.13 1339.17 783.731 1324.86C785.45 1324.57 793.468 1316.55 794.614 1315.12C818.669 1291.92 830.696 1278.46 847.305 1261C871.074 1236.08 896.275 1212.03 917.752 1185.11C946.676 1149.31 968.153 1128.69 1016.55 1075.14C1019.7 1071.71 1021.42 1069.99 1021.13 1067.98C1021.13 1066.27 1021.13 1063.97 1017.69 1062.26C982.472 1044.21 1000.51 990.95 1011.39 960.308C1025.71 920.217 1117.92 849.197 1181.78 863.229C1267.98 882.703 1306.35 937.685 1330.12 1021.02C1335.85 1040.78 1347.02 1070.85 1341.29 1098.91C1341.1 1099.1 1341.01 1099.29 1341.01 1099.48C1336.42 1111.51 1334.42 1128.69 1329.84 1140.43C1329.84 1140.63 1329.84 1140.72 1329.84 1140.72C1323.82 1162.77 1321.25 1178.24 1305.5 1191.69C1303.49 1193.41 1302.92 1196.28 1304.35 1198.28C1335.85 1252.98 1349.31 1322.57 1351.89 1402.18C1353.61 1446.56 1349.88 1510.71 1357.61 1547.94C1357.9 1549.66 1359.33 1551.09 1360.76 1551.66C1426.63 1580.3 1593.87 1723.48 1613.34 1789.92C1613.53 1790.87 1613.53 1791.73 1613.34 1792.5C1608.76 1811.97 1602.17 1830.3 1595.59 1848.05C1595.4 1848.63 1595.01 1849.2 1594.44 1849.77C1549.77 1898.74 1458.99 1955.73 1360.76 1912.49C1304.92 1887.86 1267.41 1854.35 1229.61 1809.68C1203.83 1779.32 1178.63 1744.96 1153.72 1713.17C1112.2 1660.48 1078.98 1602.92 1039.75 1547.36C1022.56 1523.31 1006.53 1495.25 988.199 1471.19C988.199 1471 988.104 1470.81 987.913 1470.62C975.885 1458.21 963.953 1445.8 952.117 1433.39C948.966 1427.66 950.971 1426.23 954.121 1423.37C954.885 1422.79 955.744 1422.41 956.698 1422.22C977.317 1418.79 998.508 1448.85 1008.53 1462.03C1008.53 1462.22 1008.63 1462.31 1008.82 1462.31C1027.43 1481.21 1042.9 1508.13 1060.08 1529.61C1060.27 1529.8 1060.36 1529.9 1060.36 1529.9C1076.4 1554.81 1092.15 1572.57 1108.47 1597.48C1170.62 1685.68 1238.77 1803.67 1330.12 1861.51C1354.46 1876.98 1403.43 1909.05 1445.82 1900.46C1493.07 1891.01 1524.57 1870.1 1557.5 1849.77C1573.25 1839.75 1578.69 1819.13 1569.53 1802.52C1521.13 1716.32 1422.91 1613.8 1332.41 1587.46C1330.12 1586.88 1328.69 1584.88 1328.41 1582.59C1327.45 1539.44 1326.5 1496.2 1325.54 1452.86C1325.54 1450 1323.25 1447.71 1320.39 1447.71Z" fill="#EC92AD"/>
<path d="M562.082 1052.23C664.889 1048.51 591.005 1225.2 519.986 1200.86C472.162 1184.25 501.945 1104.64 521.418 1078.87C531.441 1065.98 547.191 1060.82 562.082 1052.23Z" fill="#EC92AD"/>
<path d="M407.443 1066.27C486.194 1071.13 421.188 1213.46 365.346 1194.56C292.895 1169.93 373.365 1082.59 407.443 1066.27Z" fill="#EC92AD"/>
<path d="M656.011 1106.93C689.516 1129.84 715.576 1222.05 691.807 1266.44C675.484 1270.16 603.319 1289.92 588.714 1271.02C588.714 1268.92 588.714 1266.82 588.714 1264.72C644.842 1243.53 657.729 1182.25 656.011 1106.93Z" fill="#EC92AD"/>
<path d="M491.921 1117.81C489.058 1157.33 478.748 1214.6 474.739 1239.8C471.303 1260.13 481.039 1286.77 473.021 1300.8C463.284 1306.91 453.452 1313.11 443.525 1319.41C407.442 1314.54 398.565 1267.01 398.279 1227.2C424.911 1215.46 484.762 1149.88 491.921 1117.81Z" fill="#EC92AD"/>
<path d="M201.256 1280.47C223.307 1279.9 256.812 1294.79 265.403 1308.53C187.224 1307.96 170.901 1389.29 159.16 1456.87C157.633 1456.3 156.105 1455.82 154.578 1455.44C106.755 1371.25 146.846 1330.87 201.256 1280.47Z" fill="#EC92AD"/>
<path d="M398.279 1311.69C410.307 1315.41 418.611 1316.56 429.78 1324.57C434.075 1327.72 432.644 1330.59 428.062 1335.74C406.584 1354.07 376.229 1365.81 351.315 1363.23C336.71 1361.8 315.805 1360.66 306.355 1366.96C304.064 1368.1 304.35 1370.11 304.637 1371.82C312.082 1413.06 373.938 1518.16 357.329 1551.38C352.46 1551.66 351.028 1551.66 346.446 1551.66C326.401 1522.17 257.672 1407.62 292.036 1352.35C309.505 1324 371.933 1331.73 398.279 1311.69Z" fill="#EC92AD"/>
</g>
<path d="M1753.1 425.275C1748.05 425.275 1743.74 423.485 1740.16 419.904C1736.58 416.324 1734.79 412.01 1734.79 406.965V406.721L1734.3 102.277C1734.3 99.0221 1735.92 95.1973 1739.18 90.8027C1742.43 86.4082 1746.83 84.1296 1752.36 83.9668L1829.27 83.4785C1852.54 83.4785 1873.38 87.222 1891.77 94.709C1910.16 102.196 1924.73 113.589 1935.47 128.889C1946.21 144.025 1951.58 163.231 1951.58 186.506C1951.58 213.361 1945.97 235.008 1934.74 251.447C1923.51 267.723 1907.88 279.686 1887.86 287.336C1868 294.823 1844.97 298.973 1818.77 299.787L1771.16 300.764L1771.41 406.721V406.965C1771.41 412.01 1769.62 416.324 1766.04 419.904C1762.45 423.485 1758.14 425.275 1753.1 425.275ZM1914.96 186.75C1914.96 162.824 1906.9 145.816 1890.79 135.725C1874.68 125.471 1853.6 120.344 1827.56 120.344H1770.92L1771.16 264.143L1818.04 263.166C1837.57 262.678 1854.58 260.155 1869.06 255.598C1883.55 251.04 1894.78 243.309 1902.75 232.404C1910.89 221.337 1914.96 206.118 1914.96 186.75ZM2114.09 194.807C2114.09 199.201 2112.63 203.27 2109.7 207.014C2106.77 210.757 2103.59 212.629 2100.18 212.629C2095.13 212.629 2090.33 211.49 2085.77 209.211C2081.38 206.77 2076.01 205.549 2069.66 205.549C2053.71 205.549 2041.18 208.967 2032.06 215.803C2022.95 222.639 2016.44 231.428 2012.53 242.17C2008.79 252.749 2006.91 263.98 2006.91 275.861V408.918C2006.91 413.964 2005.37 418.277 2002.28 421.857C1999.35 425.601 1994.79 427.473 1988.6 427.473C1982.58 427.473 1978.02 425.601 1974.93 421.857C1971.84 418.277 1970.29 413.964 1970.29 408.918V192.365C1970.29 186.343 1972.25 181.46 1976.15 177.717C1980.22 173.973 1984.53 172.102 1989.09 172.102C1993.81 172.102 1997.64 173.973 2000.57 177.717C2003.66 181.298 2005.21 186.18 2005.21 192.365L2007.4 219.221C2009.68 211.734 2013.91 204.328 2020.1 197.004C2026.45 189.68 2033.85 183.576 2042.31 178.693C2050.94 173.648 2059.65 171.125 2068.44 171.125C2080.97 171.125 2091.71 172.834 2100.66 176.252C2109.62 179.507 2114.09 185.692 2114.09 194.807ZM2215.81 171.125C2232.9 171.125 2248.85 174.543 2263.66 181.379C2278.47 188.215 2291.41 197.655 2302.48 209.699C2313.71 221.581 2322.42 235.171 2328.6 250.471C2334.95 265.77 2338.12 281.965 2338.12 299.055C2338.12 321.678 2332.75 342.674 2322.01 362.043C2311.27 381.411 2296.7 397.118 2278.31 409.162C2260.08 421.044 2239.57 427.066 2216.79 427.229C2193.68 427.229 2172.84 421.288 2154.29 409.406C2135.73 397.525 2121 381.9 2110.1 362.531C2099.36 343 2093.98 321.841 2093.98 299.055C2093.98 282.128 2097.08 266.014 2103.26 250.715C2109.61 235.253 2118.32 221.581 2129.38 209.699C2140.45 197.655 2153.31 188.215 2167.96 181.379C2182.77 174.543 2198.72 171.125 2215.81 171.125ZM2215.81 207.746C2199.86 207.746 2185.46 211.978 2172.6 220.441C2159.74 228.905 2149.49 240.054 2141.84 253.889C2134.35 267.561 2130.61 282.453 2130.61 298.566C2130.61 314.842 2134.35 329.979 2141.84 343.977C2149.32 357.974 2159.58 369.286 2172.6 377.912C2185.62 386.376 2200.27 390.607 2216.54 390.607C2232.66 390.445 2247.06 386.132 2259.76 377.668C2272.61 369.042 2282.79 357.811 2290.27 343.977C2297.76 330.142 2301.5 315.168 2301.5 299.055C2301.5 282.941 2297.68 267.967 2290.03 254.133C2282.54 240.135 2272.29 228.905 2259.27 220.441C2246.41 211.978 2231.92 207.746 2215.81 207.746ZM2384.18 134.26C2377.18 134.26 2371 131.737 2365.62 126.691C2360.42 121.646 2357.81 115.542 2357.81 108.381C2357.81 101.219 2360.42 95.1159 2365.62 90.0703C2371 85.0247 2377.18 82.502 2384.18 82.502C2391.34 82.502 2397.53 85.0247 2402.73 90.0703C2407.94 95.1159 2410.55 101.219 2410.55 108.381C2410.55 115.542 2407.94 121.646 2402.73 126.691C2397.53 131.737 2391.34 134.26 2384.18 134.26ZM2382.47 171.613C2387.19 171.613 2391.59 172.915 2395.65 175.52C2399.72 178.124 2401.76 181.623 2401.76 186.018L2402.73 413.312C2402.9 444.4 2401.03 468.651 2397.12 486.066C2393.21 503.482 2385.64 515.607 2374.41 522.443C2363.35 529.442 2347.07 532.941 2325.59 532.941C2314.84 532.941 2304.26 530.826 2293.85 526.594C2286.69 523.664 2283.11 517.723 2283.11 508.771C2283.11 505.354 2284.81 501.936 2288.23 498.518C2291.65 495.262 2295.07 493.635 2298.49 493.635C2302.07 493.635 2304.92 494.123 2307.03 495.1C2313.54 497.867 2320.05 499.25 2326.56 499.25C2341.21 499.25 2351.38 495.995 2357.08 489.484C2362.94 482.974 2366.36 472.964 2367.33 459.455C2368.31 446.109 2368.72 429.263 2368.55 408.918L2367.58 185.285C2367.58 182.518 2369.37 179.589 2372.95 176.496C2376.53 173.241 2379.7 171.613 2382.47 171.613ZM2550.84 426.496C2527.24 426.496 2505.84 420.637 2486.63 408.918C2467.59 397.199 2452.45 381.574 2441.22 362.043C2429.99 342.349 2424.38 320.783 2424.38 297.346C2424.38 275.048 2429.66 254.458 2440.24 235.578C2450.99 216.535 2465.47 201.236 2483.7 189.68C2501.93 178.124 2522.28 172.346 2544.74 172.346C2565.41 172.346 2584.37 177.473 2601.62 187.727C2619.04 197.98 2632.95 211.815 2643.37 229.23C2653.95 246.483 2659.24 265.689 2659.24 286.848C2659.24 294.335 2657.85 300.764 2655.09 306.135C2652.48 311.506 2647.6 314.191 2640.44 314.191H2462.71C2465.31 327.701 2470.6 340.233 2478.57 351.789C2486.71 363.182 2496.88 372.378 2509.09 379.377C2521.46 386.376 2535.21 389.875 2550.35 389.875C2563.21 389.875 2575.82 387.027 2588.19 381.33C2600.56 375.633 2610.74 367.821 2618.71 357.893C2622.29 353.173 2627.09 350.812 2633.12 350.812C2638.16 350.812 2642.47 352.603 2646.05 356.184C2649.64 359.764 2651.43 364.077 2651.43 369.123C2651.43 373.518 2649.96 377.505 2647.03 381.086C2635.31 395.409 2620.91 406.558 2603.82 414.533C2586.89 422.508 2569.23 426.496 2550.84 426.496ZM2621.88 278.059C2620.42 265.363 2616.11 253.807 2608.95 243.391C2601.78 232.811 2592.67 224.429 2581.6 218.244C2570.53 212.059 2558.33 208.967 2544.98 208.967C2531.15 208.967 2518.53 212.141 2507.14 218.488C2495.75 224.836 2486.22 233.218 2478.57 243.635C2471.09 254.051 2465.96 265.526 2463.19 278.059H2621.88ZM2673.07 298.811C2673.07 276.187 2678.44 255.354 2689.18 236.311C2699.92 217.105 2714.41 201.643 2732.64 189.924C2750.87 178.205 2771.21 172.346 2793.67 172.346C2810.27 172.346 2825.41 175.438 2839.08 181.623C2852.75 187.808 2864.55 195.946 2874.48 206.037C2884.41 216.128 2892.06 227.196 2897.43 239.24C2898.73 241.844 2899.38 244.449 2899.38 247.053C2899.38 252.098 2897.59 256.411 2894.01 259.992C2890.43 263.41 2886.12 265.119 2881.07 265.119C2877.82 265.119 2874.56 264.143 2871.31 262.189C2868.05 260.074 2865.77 257.469 2864.47 254.377C2858.94 242.17 2849.99 231.509 2837.62 222.395C2825.25 213.28 2810.6 208.723 2793.67 208.723C2777.88 208.723 2763.64 212.954 2750.95 221.418C2738.25 229.719 2728.16 240.786 2720.67 254.621C2713.19 268.293 2709.44 283.104 2709.44 299.055C2709.44 315.005 2713.11 329.898 2720.43 343.732C2727.92 357.404 2738.01 368.472 2750.7 376.936C2763.56 385.236 2777.88 389.387 2793.67 389.387C2810.6 389.387 2825.25 384.911 2837.62 375.959C2850.15 366.844 2859.18 356.184 2864.72 343.977C2866.02 340.884 2868.3 338.28 2871.55 336.164C2874.81 334.048 2878.06 332.99 2881.32 332.99C2886.36 332.99 2890.68 334.781 2894.26 338.361C2897.84 341.942 2899.63 346.255 2899.63 351.301C2899.63 354.068 2899.06 356.59 2897.92 358.869C2892.55 370.751 2884.82 381.818 2874.73 392.072C2864.8 402.163 2852.92 410.301 2839.08 416.486C2825.41 422.671 2810.27 425.764 2793.67 425.764C2771.05 425.764 2750.62 419.904 2732.39 408.186C2714.16 396.467 2699.68 381.005 2688.94 361.799C2678.36 342.43 2673.07 321.434 2673.07 298.811ZM2956.18 120.344C2956.18 115.298 2957.97 110.985 2961.55 107.404C2965.13 103.824 2969.45 102.033 2974.49 102.033C2979.54 102.033 2983.85 103.824 2987.43 107.404C2991.01 110.985 2992.8 115.298 2992.8 120.344L2992.56 175.031L3040.17 175.275C3044.89 175.275 3048.87 176.984 3052.13 180.402C3055.55 183.658 3057.26 187.645 3057.26 192.365C3057.26 197.085 3055.55 201.154 3052.13 204.572C3048.87 207.827 3044.89 209.455 3040.17 209.455L2992.56 209.211L2992.31 361.555C2992.31 370.181 2993.62 377.18 2996.22 382.551C2998.82 387.759 3004.11 390.363 3012.09 390.363C3019.25 390.363 3025.11 389.061 3029.67 386.457C3034.39 383.69 3039.76 382.307 3045.78 382.307C3050.83 382.307 3055.14 384.097 3058.72 387.678C3062.3 391.258 3064.09 395.572 3064.09 400.617C3064.09 407.453 3061.16 412.824 3055.3 416.73C3049.44 420.637 3042.53 423.322 3034.55 424.787C3026.74 426.415 3019.74 427.229 3013.55 427.229C2994.35 427.229 2979.86 421.125 2970.1 408.918C2960.49 396.548 2955.69 380.598 2955.69 361.066L2955.94 209.455H2918.34C2913.62 209.455 2909.55 207.827 2906.13 204.572C2902.88 201.154 2901.25 197.085 2901.25 192.365C2901.25 187.645 2902.88 183.658 2906.13 180.402C2909.55 176.984 2913.62 175.275 2918.34 175.275H2955.94L2956.18 120.344Z" fill="#BBBAC2"/>
<path d="M2164 1371.22H2066V1112.22H1831V1371.22H1732V767.219L1819 680.219H2164V1371.22ZM2128 767.219H1831V1100.22L1906 1025.22H2066V829.219L2128 767.219ZM2391.05 1371.22H2292.05V680.219H2391.05V1371.22ZM2950.92 1371.22H2851.92L2853.92 1301.22L2655.92 1102.22L2722.92 1025.22H2851.92V767.219H2617.92V1371.22H2518.92V852.219L2605.92 767.219H2506.92V680.219H2863.92L2950.92 767.219V1013.22L2863.92 1100.22H2782.92V1113.22L2950.92 1279.22V1371.22ZM3151.44 1371.22H3052.44V680.219H3151.44V1371.22Z" fill="#8E8C99" fill-opacity="0.901961"/>
<path d="M4410.22 127.988C4410.22 124.023 4411.66 120.469 4414.53 117.324C4417.53 114.18 4420.88 112.607 4424.58 112.607C4435.38 112.607 4440.84 117.734 4440.98 127.988L4442.42 267.236C4442.55 287.607 4445.36 305.518 4450.83 320.967C4456.29 336.416 4464.91 348.447 4476.67 357.061C4488.56 365.674 4504.08 369.98 4523.22 369.98C4544.41 369.98 4561.36 365.674 4574.08 357.061C4586.79 348.447 4596.02 336.621 4601.76 321.582C4607.51 306.543 4610.38 289.453 4610.38 270.312L4609.97 127.783V127.578C4609.97 123.34 4611.4 119.717 4614.27 116.709C4617.28 113.701 4620.9 112.197 4625.14 112.197C4629.38 112.197 4633 113.701 4636.01 116.709C4639.16 119.717 4640.73 123.34 4640.73 127.578V127.783L4641.14 270.107C4641.14 310.85 4631.43 342.773 4612.02 365.879C4592.74 388.984 4563.41 400.537 4524.04 400.537C4498.88 400.537 4478.03 394.932 4461.49 383.721C4444.95 372.373 4432.57 356.719 4424.37 336.758C4416.17 316.66 4411.93 293.555 4411.66 267.441L4410.22 128.193V127.988ZM5029.95 111.787C5052.37 111.787 5072.33 117.119 5089.83 127.783C5107.33 138.447 5120.05 152.529 5127.98 170.029C5128.93 171.943 5129.41 173.994 5129.41 176.182C5129.41 180.146 5127.98 183.564 5125.11 186.436C5122.23 189.307 5118.82 190.742 5114.85 190.742C5112.25 190.742 5109.59 189.922 5106.85 188.281C5104.26 186.504 5102.41 184.385 5101.32 181.924C5095.71 169.346 5086.48 159.434 5073.63 152.188C5060.92 144.805 5046.36 141.113 5029.95 141.113C5021.2 141.113 5012.11 142.207 5002.67 144.395C4993.38 146.445 4984.7 149.59 4976.63 153.828C4968.7 158.066 4962.27 163.467 4957.35 170.029C4952.43 176.455 4949.97 183.975 4949.97 192.588C4949.97 202.568 4953.25 210.703 4959.81 216.992C4966.38 223.145 4974.72 227.998 4984.83 231.553C4995.09 234.971 5005.75 237.637 5016.82 239.551C5028.04 241.328 5038.22 242.832 5047.38 244.062C5058.32 245.566 5069.19 247.891 5079.99 251.035C5090.93 254.043 5100.84 258.35 5109.73 263.955C5118.61 269.424 5125.72 276.533 5131.05 285.283C5136.52 294.033 5139.26 304.766 5139.26 317.48C5139.26 331.426 5135.91 343.594 5129.21 353.984C5122.51 364.238 5113.69 372.783 5102.75 379.619C5091.95 386.318 5080.13 391.377 5067.27 394.795C5054.56 398.076 5042.12 399.717 5029.95 399.717C5004.66 399.717 4981.89 393.975 4961.66 382.49C4941.42 371.006 4927 355.352 4918.39 335.527C4917.57 333.34 4917.16 331.357 4917.16 329.58C4917.16 325.615 4918.59 322.197 4921.46 319.326C4924.33 316.455 4927.75 315.02 4931.72 315.02C4934.45 315.02 4937.12 315.908 4939.72 317.686C4942.45 319.463 4944.3 321.582 4945.25 324.043C4951.68 338.672 4962.41 350.156 4977.45 358.496C4992.63 366.836 5010.13 371.006 5029.95 371.006C5038.7 371.006 5047.72 369.98 5057.02 367.93C5066.45 365.742 5075.2 362.529 5083.27 358.291C5091.34 353.916 5097.83 348.379 5102.75 341.68C5107.81 334.844 5110.34 326.777 5110.34 317.48C5110.34 306.543 5106.79 298.135 5099.68 292.256C5092.7 286.24 5084.09 281.865 5073.84 279.131C5063.58 276.26 5053.47 274.209 5043.48 272.979C5030.09 271.064 5016.21 268.672 5001.85 265.801C4987.64 262.93 4974.37 258.76 4962.07 253.291C4949.76 247.822 4939.78 240.234 4932.13 230.527C4924.47 220.684 4920.64 207.969 4920.64 192.383C4920.64 179.258 4923.92 167.705 4930.49 157.725C4937.05 147.607 4945.66 139.199 4956.33 132.5C4967.13 125.664 4978.95 120.537 4991.81 117.119C5004.66 113.564 5017.37 111.787 5029.95 111.787ZM5415.48 126.963C5415.48 122.725 5416.98 119.102 5419.99 116.094C5423 113.086 5426.62 111.582 5430.86 111.582L5623.02 111.787H5623.22C5627.46 111.787 5631.09 113.291 5634.09 116.299C5637.1 119.307 5638.61 122.93 5638.61 127.168C5638.61 131.406 5637.1 135.029 5634.09 138.037C5631.09 141.045 5627.46 142.549 5623.22 142.549H5623.02L5446.24 142.344L5446.45 238.73C5446.86 238.73 5447.2 238.73 5447.47 238.73C5447.88 238.594 5448.22 238.525 5448.5 238.525L5606.2 239.551C5610.58 239.551 5614.2 241.055 5617.07 244.062C5620.08 246.934 5621.58 250.898 5621.58 255.957C5621.58 259.785 5620.01 263.135 5616.87 266.006C5613.72 268.877 5610.17 270.312 5606.2 270.312H5606L5448.29 269.287H5446.65L5446.86 364.648L5623.02 364.443H5623.22C5627.46 364.443 5631.09 365.947 5634.09 368.955C5637.1 371.963 5638.61 375.586 5638.61 379.824C5638.61 384.062 5637.1 387.686 5634.09 390.693C5631.09 393.701 5627.46 395.205 5623.22 395.205H5623.02L5431.48 395.41C5427.24 395.41 5423.61 393.906 5420.61 390.898C5417.6 387.891 5416.1 384.268 5416.1 380.029L5415.48 126.963ZM6120.52 385.361C6120.52 389.326 6119.02 392.744 6116.01 395.615C6113.14 398.486 6110.2 399.922 6107.19 399.922C6104.46 399.922 6101.93 399.238 6099.6 397.871C6097.28 396.641 6095.57 395.684 6094.48 395C6082.45 386.387 6071.92 376.338 6062.9 364.854C6054.01 353.369 6046.49 340.996 6040.34 327.734C6034.59 315.156 6028.51 305.244 6022.08 297.998C6015.8 290.615 6008.21 285.352 5999.32 282.207C5990.43 278.926 5979.16 277.217 5965.48 277.08L5941.69 276.875L5941.9 382.08V382.49C5941.9 386.592 5940.33 390.215 5937.18 393.359C5934.17 396.367 5930.62 397.871 5926.52 397.871C5922.28 397.871 5918.66 396.367 5915.65 393.359C5912.64 390.215 5911.14 386.523 5911.14 382.285L5910.52 125.938C5910.52 121.563 5912.03 117.939 5915.03 115.068C5918.04 112.197 5921.6 110.693 5925.7 110.557L5980.25 110.352H5984.97C6008.07 110.352 6028.44 113.359 6046.08 119.375C6063.72 125.391 6077.52 134.688 6087.5 147.266C6097.49 159.707 6102.48 175.703 6102.48 195.254C6102.48 208.926 6099.6 220.957 6093.86 231.348C6088.12 241.602 6080.6 250.215 6071.3 257.188C6062.01 264.16 6051.96 269.355 6041.16 272.773C6047.31 278.926 6053.39 287.812 6059.41 299.434C6067.34 314.609 6075.2 328.281 6082.99 340.449C6090.79 352.617 6101.11 363.35 6113.96 372.646C6118.33 375.791 6120.52 380.029 6120.52 385.361ZM5985.99 141.113H5941.28L5941.69 249.189C5942.38 249.053 5943.27 248.984 5944.36 248.984L5986.4 248.574C6011.56 248.301 6032.13 244.062 6048.13 235.859C6064.13 227.52 6072.12 213.643 6072.12 194.229C6072.12 180.83 6068.23 170.303 6060.43 162.646C6052.64 154.854 6042.18 149.316 6029.06 146.035C6016.07 142.754 6001.71 141.113 5985.99 141.113ZM6733.26 399.307C6729.02 399.307 6725.4 397.803 6722.39 394.795C6719.39 391.787 6717.88 388.164 6717.88 383.926V383.721L6717.68 126.143V125.938C6717.68 121.973 6719.11 118.418 6721.98 115.273C6724.99 112.129 6728.34 110.557 6732.03 110.557C6737.09 110.557 6741.06 112.061 6743.93 115.068C6746.93 117.939 6748.44 121.563 6748.44 125.938V126.143L6748.64 383.721V383.926C6748.64 388.164 6747.14 391.787 6744.13 394.795C6741.12 397.803 6737.5 399.307 6733.26 399.307ZM7024.87 126.143C7024.87 121.768 7026.37 118.145 7029.38 115.273C7032.52 112.266 7036.35 110.762 7040.86 110.762C7045.65 110.762 7049.55 112.812 7052.55 116.914L7216.62 337.578V126.758C7216.62 122.52 7218.12 118.896 7221.13 115.889C7224.14 112.881 7227.76 111.377 7232 111.377C7236.23 111.377 7239.86 112.881 7242.87 115.889C7245.87 118.896 7247.38 122.52 7247.38 126.758V126.963L7247.17 383.721C7247.17 388.096 7245.6 391.787 7242.46 394.795C7239.45 397.666 7235.69 399.102 7231.18 399.102C7226.53 399.102 7222.63 397.051 7219.49 392.949L7055.63 172.49V383.516C7055.63 387.754 7054.13 391.377 7051.12 394.385C7048.11 397.393 7044.49 398.896 7040.25 398.896C7036.01 398.896 7032.39 397.393 7029.38 394.385C7026.37 391.377 7024.87 387.754 7024.87 383.516V126.143ZM7509.25 126.963C7509.25 122.588 7510.75 118.828 7513.76 115.684C7516.9 112.539 7520.59 110.967 7524.83 110.967H7730.11C7734.35 110.967 7737.98 112.402 7740.98 115.273C7743.99 118.008 7745.5 121.494 7745.5 125.732C7745.5 129.971 7743.99 133.73 7740.98 137.012C7737.98 140.156 7734.28 141.729 7729.91 141.729H7642.55V383.105C7642.55 387.344 7640.97 390.967 7637.83 393.975C7634.69 396.982 7630.99 398.486 7626.76 398.486C7622.52 398.486 7618.96 396.982 7616.09 393.975C7613.22 390.967 7611.78 387.344 7611.78 383.105V141.729H7524.63C7520.39 141.729 7516.77 140.361 7513.76 137.627C7510.75 134.756 7509.25 131.201 7509.25 126.963ZM8007.16 126.963C8007.16 122.725 8008.66 119.102 8011.67 116.094C8014.68 113.086 8018.3 111.582 8022.54 111.582L8214.7 111.787H8214.9C8219.14 111.787 8222.76 113.291 8225.77 116.299C8228.78 119.307 8230.28 122.93 8230.28 127.168C8230.28 131.406 8228.78 135.029 8225.77 138.037C8222.76 141.045 8219.14 142.549 8214.9 142.549H8214.7L8037.92 142.344L8038.13 238.73C8038.54 238.73 8038.88 238.73 8039.15 238.73C8039.56 238.594 8039.9 238.525 8040.18 238.525L8197.88 239.551C8202.26 239.551 8205.88 241.055 8208.75 244.062C8211.76 246.934 8213.26 250.898 8213.26 255.957C8213.26 259.785 8211.69 263.135 8208.55 266.006C8205.4 268.877 8201.85 270.312 8197.88 270.312H8197.68L8039.97 269.287H8038.33L8038.54 364.648L8214.7 364.443H8214.9C8219.14 364.443 8222.76 365.947 8225.77 368.955C8228.78 371.963 8230.28 375.586 8230.28 379.824C8230.28 384.062 8228.78 387.686 8225.77 390.693C8222.76 393.701 8219.14 395.205 8214.9 395.205H8214.7L8023.16 395.41C8018.92 395.41 8015.29 393.906 8012.29 390.898C8009.28 387.891 8007.77 384.268 8007.77 380.029L8007.16 126.963ZM8712.2 385.361C8712.2 389.326 8710.7 392.744 8707.69 395.615C8704.82 398.486 8701.88 399.922 8698.87 399.922C8696.14 399.922 8693.61 399.238 8691.28 397.871C8688.96 396.641 8687.25 395.684 8686.16 395C8674.12 386.387 8663.6 376.338 8654.57 364.854C8645.69 353.369 8638.17 340.996 8632.02 327.734C8626.27 315.156 8620.19 305.244 8613.76 297.998C8607.47 290.615 8599.89 285.352 8591 282.207C8582.11 278.926 8570.83 277.217 8557.16 277.08L8533.37 276.875L8533.58 382.08V382.49C8533.58 386.592 8532.01 390.215 8528.86 393.359C8525.85 396.367 8522.3 397.871 8518.2 397.871C8513.96 397.871 8510.34 396.367 8507.33 393.359C8504.32 390.215 8502.82 386.523 8502.82 382.285L8502.2 125.938C8502.2 121.563 8503.71 117.939 8506.71 115.068C8509.72 112.197 8513.28 110.693 8517.38 110.557L8571.93 110.352H8576.64C8599.75 110.352 8620.12 113.359 8637.76 119.375C8655.39 125.391 8669.2 134.688 8679.18 147.266C8689.16 159.707 8694.15 175.703 8694.15 195.254C8694.15 208.926 8691.28 220.957 8685.54 231.348C8679.8 241.602 8672.28 250.215 8662.98 257.188C8653.69 264.16 8643.64 269.355 8632.84 272.773C8638.99 278.926 8645.07 287.812 8651.09 299.434C8659.02 314.609 8666.88 328.281 8674.67 340.449C8682.46 352.617 8692.79 363.35 8705.64 372.646C8710.01 375.791 8712.2 380.029 8712.2 385.361ZM8577.67 141.113H8532.96L8533.37 249.189C8534.06 249.053 8534.95 248.984 8536.04 248.984L8578.08 248.574C8603.24 248.301 8623.81 244.062 8639.81 235.859C8655.8 227.52 8663.8 213.643 8663.8 194.229C8663.8 180.83 8659.91 170.303 8652.11 162.646C8644.32 154.854 8633.86 149.316 8620.74 146.035C8607.75 142.754 8593.39 141.113 8577.67 141.113ZM8980.02 126.553C8980.02 122.314 8981.52 118.691 8984.53 115.684C8987.54 112.676 8991.16 111.172 8995.4 111.172L9162.54 110.967H9162.74C9166.98 110.967 9170.6 112.471 9173.61 115.479C9176.62 118.486 9178.12 122.109 9178.12 126.348C9178.12 130.586 9176.62 134.209 9173.61 137.217C9170.6 140.225 9166.98 141.729 9162.74 141.729H9162.54L9010.78 141.934L9010.98 228.271C9011.67 228.271 9012.21 228.203 9012.62 228.066L9122.96 227.041H9125.21C9128.77 227.041 9131.84 228.682 9134.44 231.963C9137.17 235.244 9138.54 238.32 9138.54 241.191C9138.54 245.84 9137.11 249.805 9134.24 253.086C9131.36 256.23 9127.67 257.803 9123.16 257.803L9013.03 258.828H9011.19L9011.39 381.67V382.08C9011.39 386.318 9009.89 389.941 9006.88 392.949C9003.87 395.957 9000.25 397.461 8996.01 397.461C8991.77 397.461 8988.15 395.957 8985.14 392.949C8982.14 389.941 8980.63 386.318 8980.63 382.08V381.875L8980.02 126.553ZM9439.79 399.717C9436.37 399.717 9433.09 398.213 9429.94 395.205C9426.93 392.197 9425.43 389.053 9425.43 385.771C9425.43 382.49 9425.91 379.893 9426.87 377.979L9539.45 120.605C9540.41 118.555 9542.19 116.504 9544.79 114.453C9547.52 112.402 9550.19 111.377 9552.78 111.377C9560.17 111.377 9565.16 114.453 9567.75 120.605L9680.55 377.568C9681.37 379.346 9681.78 381.328 9681.78 383.516C9681.78 387.344 9680.48 390.967 9677.88 394.385C9675.42 397.666 9672.21 399.307 9668.24 399.307C9660.18 399.307 9654.84 396.162 9652.25 389.873L9611.03 295.742H9497L9454.96 390.283C9452.36 396.572 9447.3 399.717 9439.79 399.717ZM9553.6 165.312L9510.33 264.98H9597.49L9553.6 165.312ZM10187.3 294.717C10190.7 294.717 10193.9 296.221 10196.9 299.229C10200.1 302.236 10201.6 305.381 10201.6 308.662C10201.6 312.08 10201.2 314.746 10200.2 316.66C10193.6 331.426 10184.3 345.098 10172.1 357.676C10160.1 370.254 10145.7 380.371 10129 388.027C10112.4 395.684 10093.7 399.512 10073.1 399.512C10052.7 399.512 10034.2 395.752 10017.7 388.232C10001.3 380.713 9987.19 370.322 9975.43 357.061C9963.81 343.662 9954.86 328.213 9948.57 310.713C9942.42 293.076 9939.34 274.141 9939.34 253.906C9939.34 233.945 9942.48 215.352 9948.77 198.125C9955.06 180.762 9964.09 165.586 9975.84 152.598C9987.6 139.473 10001.6 129.219 10017.9 121.836C10034.3 114.453 10052.5 110.762 10072.4 110.762C10092.7 110.762 10111.1 114.316 10127.6 121.426C10144.3 128.535 10158.7 138.037 10170.9 149.932C10183.2 161.826 10192.7 175.02 10199.6 189.512C10200.7 191.699 10201.2 194.023 10201.2 196.484C10201.2 200.449 10199.8 204.004 10196.9 207.148C10194.2 210.156 10191.3 211.66 10188.3 211.66C10180.1 211.66 10174.6 208.652 10171.9 202.637C10163.8 185.547 10151.2 171.123 10134 159.365C10116.7 147.471 10096.2 141.523 10072.4 141.523C10051.4 141.523 10033.2 146.582 10017.9 156.699C10002.6 166.816 9990.75 180.42 9982.41 197.51C9974.2 214.463 9970.1 233.467 9970.1 254.521C9970.1 275.576 9974.2 294.785 9982.41 312.148C9990.61 329.375 10002.4 343.115 10017.7 353.369C10033.1 363.486 10051.4 368.545 10072.6 368.545C10088.5 368.545 10102.9 365.605 10115.9 359.727C10129 353.711 10140.4 345.781 10150 335.938C10159.7 326.094 10167 315.498 10172.1 304.15C10174.8 297.861 10179.9 294.717 10187.3 294.717ZM10473.8 126.963C10473.8 122.725 10475.3 119.102 10478.3 116.094C10481.3 113.086 10484.9 111.582 10489.1 111.582L10681.3 111.787H10681.5C10685.7 111.787 10689.4 113.291 10692.4 116.299C10695.4 119.307 10696.9 122.93 10696.9 127.168C10696.9 131.406 10695.4 135.029 10692.4 138.037C10689.4 141.045 10685.7 142.549 10681.5 142.549H10681.3L10504.5 142.344L10504.7 238.73C10505.1 238.73 10505.5 238.73 10505.7 238.73C10506.2 238.594 10506.5 238.525 10506.8 238.525L10664.5 239.551C10668.9 239.551 10672.5 241.055 10675.3 244.062C10678.4 246.934 10679.9 250.898 10679.9 255.957C10679.9 259.785 10678.3 263.135 10675.1 266.006C10672 268.877 10668.4 270.312 10664.5 270.312H10664.3L10506.6 269.287H10504.9L10505.1 364.648L10681.3 364.443H10681.5C10685.7 364.443 10689.4 365.947 10692.4 368.955C10695.4 371.963 10696.9 375.586 10696.9 379.824C10696.9 384.062 10695.4 387.686 10692.4 390.693C10689.4 393.701 10685.7 395.205 10681.5 395.205H10681.3L10489.8 395.41C10485.5 395.41 10481.9 393.906 10478.9 390.898C10475.9 387.891 10474.4 384.268 10474.4 380.029L10473.8 126.963Z" fill="#9896A2"/>
<path d="M4230.2 788.7C4228.8 793.367 4227.4 799.2 4226 806.2C4224.6 812.733 4223.67 817.4 4223.2 820.2C4221.33 834.2 4218.77 852.4 4215.5 874.8C4212.23 897.2 4208.5 921.233 4204.3 946.9C4200.57 972.567 4196.6 998.233 4192.4 1023.9C4188.2 1049.1 4184.47 1072.43 4181.2 1093.9C4177.93 1114.9 4175.13 1131.93 4172.8 1145H4069.9C4071.77 1134.27 4074.1 1120.97 4076.9 1105.1C4079.7 1088.77 4082.73 1071.03 4086 1051.9C4089.27 1032.77 4092.3 1013.17 4095.1 993.1C4098.37 973.033 4101.17 953.9 4103.5 935.7C4106.3 917.033 4108.63 900.467 4110.5 886C4112.37 871.533 4113.3 860.1 4113.3 851.7C4102.57 851.7 4088.8 851.7 4072 851.7C4055.2 851.7 4037 851.7 4017.4 851.7C3998.27 851.7 3979.13 851.7 3960 851.7C3940.87 851.7 3923.6 851.7 3908.2 851.7C3892.8 851.7 3880.67 851.7 3871.8 851.7C3857.8 851.7 3844.27 851.933 3831.2 852.4C3818.13 852.867 3805.3 853.567 3792.7 854.5V755.8C3804.37 757.2 3817.43 758.6 3831.9 760C3846.37 760.933 3859.43 761.4 3871.1 761.4C3878.57 761.4 3888.13 761.4 3899.8 761.4C3911.47 761.4 3924.3 761.4 3938.3 761.4C3952.77 761.4 3967.47 761.4 3982.4 761.4C3997.33 761.4 4011.8 761.4 4025.8 761.4C4040.27 761.4 4053.1 761.4 4064.3 761.4C4075.97 761.4 4085.3 761.4 4092.3 761.4C4098.37 761.4 4105.6 760.933 4114 760C4122.87 759.067 4131.27 757.9 4139.2 756.5C4147.13 755.1 4153.2 753.7 4157.4 752.3L4230.2 788.7ZM3715.7 1116.3C3726.9 1117.7 3738.57 1119.1 3750.7 1120.5C3762.83 1121.43 3774.27 1121.9 3785 1121.9H4251.9C4264.5 1121.9 4276.17 1121.2 4286.9 1119.8C4298.1 1118.4 4308.13 1117.23 4317 1116.3V1217.8C4307.2 1216.4 4296 1215.47 4283.4 1215C4270.8 1214.53 4260.3 1214.3 4251.9 1214.3H3785C3774.27 1214.3 3762.83 1214.53 3750.7 1215C3739.03 1215.47 3727.37 1216.4 3715.7 1217.8V1116.3ZM4381.4 918.9C4389.8 919.367 4400.53 920.067 4413.6 921C4426.67 921.467 4440.2 921.933 4454.2 922.4C4468.67 922.867 4481.97 923.1 4494.1 923.1C4505.77 923.1 4520.23 923.1 4537.5 923.1C4554.77 923.1 4573.43 923.1 4593.5 923.1C4614.03 923.1 4635.03 923.1 4656.5 923.1C4678.43 923.1 4700.13 923.1 4721.6 923.1C4743.07 923.1 4763.37 923.1 4782.5 923.1C4801.63 923.1 4818.67 923.1 4833.6 923.1C4849 923.1 4861.13 923.1 4870 923.1C4886.33 923.1 4901.73 922.633 4916.2 921.7C4930.67 920.3 4942.57 919.367 4951.9 918.9V1028.8C4943.97 1028.33 4932.07 1027.63 4916.2 1026.7C4900.33 1025.77 4884.93 1025.3 4870 1025.3C4861.13 1025.3 4849 1025.3 4833.6 1025.3C4818.2 1025.3 4800.93 1025.3 4781.8 1025.3C4762.67 1025.3 4742.37 1025.3 4720.9 1025.3C4699.9 1025.3 4678.43 1025.3 4656.5 1025.3C4634.57 1025.3 4613.33 1025.3 4592.8 1025.3C4572.73 1025.3 4554.07 1025.3 4536.8 1025.3C4520 1025.3 4505.77 1025.3 4494.1 1025.3C4474.03 1025.3 4453.5 1025.77 4432.5 1026.7C4411.5 1027.17 4394.47 1027.87 4381.4 1028.8V918.9ZM5526.23 698.4C5530.89 707.267 5535.33 717.533 5539.53 729.2C5544.19 740.867 5548.63 752.3 5552.83 763.5C5557.03 774.7 5560.53 784.967 5563.33 794.3L5515.03 809.7C5511.76 799.9 5508.03 789.4 5503.83 778.2C5500.09 767 5496.13 755.8 5491.93 744.6C5488.19 733.4 5483.99 723.133 5479.33 713.8L5526.23 698.4ZM5598.33 676C5602.99 685.333 5607.66 695.833 5612.33 707.5C5616.99 718.7 5621.43 729.9 5625.63 741.1C5630.29 752.3 5634.03 762.333 5636.83 771.2L5588.53 786.6C5583.86 771.667 5578.26 755.567 5571.73 738.3C5565.19 721.033 5558.19 705.4 5550.73 691.4L5598.33 676ZM5466.03 944.1C5466.03 987.5 5462.76 1026.93 5456.23 1062.4C5450.16 1097.4 5439.43 1129.37 5424.03 1158.3C5408.63 1186.77 5387.16 1212.67 5359.63 1236C5332.09 1258.87 5297.33 1279.63 5255.33 1298.3L5180.43 1227.6C5214.03 1215.47 5243.19 1202.17 5267.93 1187.7C5292.66 1173.23 5312.73 1155.5 5328.13 1134.5C5343.99 1113.5 5355.66 1088.07 5363.13 1058.2C5371.06 1027.87 5375.03 991 5375.03 947.6V761.4C5375.03 747.4 5374.56 734.8 5373.63 723.6C5372.69 712.4 5371.76 703.3 5370.83 696.3H5470.93C5469.99 703.3 5468.83 712.4 5467.43 723.6C5466.49 734.8 5466.03 747.4 5466.03 761.4V944.1ZM5213.33 702.6C5212.39 709.133 5211.46 718 5210.53 729.2C5209.59 739.933 5209.13 752.3 5209.13 766.3V1016.2C5209.13 1026.47 5209.36 1036.5 5209.83 1046.3C5210.29 1055.63 5210.76 1064.03 5211.23 1071.5C5211.69 1078.97 5211.93 1085.03 5211.93 1089.7H5113.93C5114.86 1085.03 5115.56 1079.2 5116.03 1072.2C5116.49 1064.73 5116.96 1056.1 5117.43 1046.3C5117.89 1036.5 5118.13 1026.47 5118.13 1016.2V765.6C5118.13 755.333 5117.66 745.067 5116.73 734.8C5116.26 724.067 5115.33 713.333 5113.93 702.6H5213.33ZM4983.03 828.6C4987.23 829.533 4993.06 830.467 5000.53 831.4C5007.99 832.333 5016.63 833.267 5026.43 834.2C5036.23 834.667 5046.96 834.9 5058.63 834.9H5517.83C5536.49 834.9 5551.66 834.433 5563.33 833.5C5574.99 832.567 5585.49 831.4 5594.83 830V923.1C5587.36 922.633 5577.33 922.167 5564.73 921.7C5552.13 921.233 5536.73 921 5518.53 921H5058.63C5046.96 921 5036.23 921.233 5026.43 921.7C5017.09 921.7 5008.69 921.933 5001.23 922.4C4994.23 922.867 4988.16 923.333 4983.03 923.8V828.6ZM5669.73 918.9C5678.13 919.367 5688.86 920.067 5701.93 921C5714.99 921.467 5728.53 921.933 5742.53 922.4C5756.99 922.867 5770.29 923.1 5782.43 923.1C5794.09 923.1 5808.56 923.1 5825.83 923.1C5843.09 923.1 5861.76 923.1 5881.83 923.1C5902.36 923.1 5923.36 923.1 5944.83 923.1C5966.76 923.1 5988.46 923.1 6009.93 923.1C6031.39 923.1 6051.69 923.1 6070.83 923.1C6089.96 923.1 6106.99 923.1 6121.93 923.1C6137.33 923.1 6149.46 923.1 6158.33 923.1C6174.66 923.1 6190.06 922.633 6204.53 921.7C6218.99 920.3 6230.89 919.367 6240.23 918.9V1028.8C6232.29 1028.33 6220.39 1027.63 6204.53 1026.7C6188.66 1025.77 6173.26 1025.3 6158.33 1025.3C6149.46 1025.3 6137.33 1025.3 6121.93 1025.3C6106.53 1025.3 6089.26 1025.3 6070.13 1025.3C6050.99 1025.3 6030.69 1025.3 6009.23 1025.3C5988.23 1025.3 5966.76 1025.3 5944.83 1025.3C5922.89 1025.3 5901.66 1025.3 5881.13 1025.3C5861.06 1025.3 5842.39 1025.3 5825.13 1025.3C5808.33 1025.3 5794.09 1025.3 5782.43 1025.3C5762.36 1025.3 5741.83 1025.77 5720.83 1026.7C5699.83 1027.17 5682.79 1027.87 5669.73 1028.8V918.9ZM6299.73 970.7C6362.73 954.367 6419.66 935.467 6470.53 914C6521.86 892.067 6566.89 869.2 6605.63 845.4C6629.89 830.467 6654.16 813.433 6678.43 794.3C6703.16 774.7 6726.26 754.633 6747.73 734.1C6769.66 713.567 6788.09 693.967 6803.03 675.3L6878.63 747.4C6857.16 768.4 6833.59 789.633 6807.93 811.1C6782.73 832.567 6756.36 853.1 6728.83 872.7C6701.29 892.3 6673.99 910.267 6646.93 926.6C6620.33 942 6590.46 957.867 6557.33 974.2C6524.66 990.533 6490.13 1005.93 6453.73 1020.4C6417.33 1034.87 6380.69 1047.7 6343.83 1058.9L6299.73 970.7ZM6590.93 890.2L6690.33 867.1V1182.1C6690.33 1192.37 6690.56 1203.57 6691.03 1215.7C6691.49 1227.83 6692.19 1239.03 6693.13 1249.3C6694.06 1260.03 6695.23 1268.2 6696.63 1273.8H6586.03C6586.96 1268.2 6587.66 1260.03 6588.13 1249.3C6589.06 1239.03 6589.76 1227.83 6590.23 1215.7C6590.69 1203.57 6590.93 1192.37 6590.93 1182.1V890.2ZM7076.03 711C7088.16 719.4 7102.39 729.667 7118.73 741.8C7135.06 753.933 7151.86 767.233 7169.13 781.7C7186.86 795.7 7203.43 809.467 7218.83 823C7234.23 836.533 7246.83 848.667 7256.63 859.4L7185.23 932.2C7176.36 922.4 7164.69 910.733 7150.23 897.2C7135.76 883.667 7120.13 869.667 7103.33 855.2C7086.53 840.733 7069.96 826.967 7053.63 813.9C7037.29 800.833 7022.83 789.867 7010.23 781L7076.03 711ZM6988.53 1177.2C7024.93 1172.07 7059.23 1164.83 7091.43 1155.5C7123.63 1146.17 7153.49 1135.43 7181.03 1123.3C7208.56 1111.17 7233.76 1098.57 7256.63 1085.5C7296.29 1061.7 7332.69 1034.63 7365.83 1004.3C7398.96 973.967 7427.89 942.467 7452.63 909.8C7477.36 876.667 7496.96 844.467 7511.43 813.2L7566.03 911.9C7548.29 943.167 7526.36 974.433 7500.23 1005.7C7474.56 1036.97 7445.39 1066.83 7412.73 1095.3C7380.06 1123.3 7344.83 1148.5 7307.03 1170.9C7283.23 1185.37 7257.56 1199.13 7230.03 1212.2C7202.49 1224.8 7173.33 1236 7142.53 1245.8C7112.19 1256.07 7080.46 1264 7047.33 1269.6L6988.53 1177.2ZM7858.63 915.4C7880.09 927.533 7903.43 942 7928.63 958.8C7954.29 975.133 7980.19 992.167 8006.33 1009.9C8032.46 1027.63 8056.96 1044.9 8079.83 1061.7C8103.16 1078.5 8122.76 1093.43 8138.63 1106.5L8072.13 1185.6C8056.73 1171.6 8037.59 1155.5 8014.73 1137.3C7992.33 1118.63 7968.06 1099.73 7941.93 1080.6C7915.79 1061 7889.89 1042.33 7864.23 1024.6C7839.03 1006.87 7816.39 991.7 7796.33 979.1L7858.63 915.4ZM8187.63 796.4C8183.43 802.933 8179.23 810.633 8175.03 819.5C8170.83 828.367 8167.33 837.233 8164.53 846.1C8157.53 867.567 8147.96 891.6 8135.83 918.2C8124.16 944.333 8110.16 971.167 8093.83 998.7C8077.49 1025.77 8058.83 1052.37 8037.83 1078.5C8004.69 1119.57 7964.79 1158.53 7918.13 1195.4C7871.93 1232.27 7815.23 1263.53 7748.03 1289.2L7666.83 1218.5C7715.83 1203.57 7758.29 1185.83 7794.23 1165.3C7830.16 1144.77 7861.19 1122.83 7887.33 1099.5C7913.93 1076.17 7937.03 1052.83 7956.63 1029.5C7972.49 1011.3 7987.43 991 8001.43 968.6C8015.89 945.733 8028.26 923.1 8038.53 900.7C8049.26 877.833 8056.73 857.533 8060.93 839.8H7824.33L7856.53 760H8055.33C8066.53 760 8077.49 759.3 8088.23 757.9C8099.43 756.5 8108.76 754.633 8116.23 752.3L8187.63 796.4ZM7956.63 688.6C7948.23 700.733 7939.83 713.8 7931.43 727.8C7923.49 741.8 7917.43 752.533 7913.23 760C7897.36 788 7877.29 817.867 7853.03 849.6C7828.76 880.867 7801.46 911.433 7771.13 941.3C7741.26 971.167 7709.53 997.767 7675.93 1021.1L7600.33 963C7641.39 937.333 7676.16 910.5 7704.63 882.5C7733.56 854.033 7757.59 826.733 7776.73 800.6C7795.86 774 7811.26 750.433 7822.93 729.9C7828.53 721.5 7834.36 710.3 7840.43 696.3C7846.96 681.833 7851.86 668.767 7855.13 657.1L7956.63 688.6ZM8273.73 918.9C8282.13 919.367 8292.86 920.067 8305.93 921C8318.99 921.467 8332.53 921.933 8346.53 922.4C8360.99 922.867 8374.29 923.1 8386.43 923.1C8398.09 923.1 8412.56 923.1 8429.83 923.1C8447.09 923.1 8465.76 923.1 8485.83 923.1C8506.36 923.1 8527.36 923.1 8548.83 923.1C8570.76 923.1 8592.46 923.1 8613.93 923.1C8635.39 923.1 8655.69 923.1 8674.83 923.1C8693.96 923.1 8710.99 923.1 8725.93 923.1C8741.33 923.1 8753.46 923.1 8762.33 923.1C8778.66 923.1 8794.06 922.633 8808.53 921.7C8822.99 920.3 8834.89 919.367 8844.23 918.9V1028.8C8836.29 1028.33 8824.39 1027.63 8808.53 1026.7C8792.66 1025.77 8777.26 1025.3 8762.33 1025.3C8753.46 1025.3 8741.33 1025.3 8725.93 1025.3C8710.53 1025.3 8693.26 1025.3 8674.13 1025.3C8654.99 1025.3 8634.69 1025.3 8613.23 1025.3C8592.23 1025.3 8570.76 1025.3 8548.83 1025.3C8526.89 1025.3 8505.66 1025.3 8485.13 1025.3C8465.06 1025.3 8446.39 1025.3 8429.13 1025.3C8412.33 1025.3 8398.09 1025.3 8386.43 1025.3C8366.36 1025.3 8345.83 1025.77 8324.83 1026.7C8303.83 1027.17 8286.79 1027.87 8273.73 1028.8V918.9ZM9440.93 776.8C9437.66 783.333 9434.63 791.267 9431.83 800.6C9429.5 809.467 9427.4 817.867 9425.53 825.8C9421.8 842.6 9416.9 861.733 9410.83 883.2C9404.76 904.667 9397.53 926.833 9389.13 949.7C9380.73 972.567 9370.7 995.2 9359.03 1017.6C9347.83 1040 9335 1061 9320.53 1080.6C9299.53 1108.13 9275.03 1134.27 9247.03 1159C9219.03 1183.27 9187.76 1205.2 9153.23 1224.8C9118.7 1243.93 9080.66 1260.27 9039.13 1273.8L8962.83 1190.5C9009.03 1179.3 9048.93 1165.53 9082.53 1149.2C9116.6 1132.4 9146.23 1113.73 9171.43 1093.2C9196.63 1072.2 9218.56 1049.8 9237.23 1026C9252.63 1006.4 9265.7 985.167 9276.43 962.3C9287.63 939.433 9296.73 916.333 9303.73 893C9311.2 869.667 9316.33 848.2 9319.13 828.6C9312.13 828.6 9300.46 828.6 9284.13 828.6C9268.26 828.6 9249.36 828.6 9227.43 828.6C9205.96 828.6 9183.33 828.6 9159.53 828.6C9136.2 828.6 9113.56 828.6 9091.63 828.6C9069.7 828.6 9049.86 828.6 9032.13 828.6C9014.86 828.6 9001.8 828.6 8992.93 828.6C8977.06 828.6 8961.43 828.833 8946.03 829.3C8931.1 829.767 8918.96 830.467 8909.63 831.4V732.7C8917.1 733.167 8925.73 733.867 8935.53 734.8C8945.33 735.733 8955.6 736.667 8966.33 737.6C8977.06 738.067 8986.16 738.3 8993.63 738.3C9000.63 738.3 9011.13 738.3 9025.13 738.3C9039.13 738.3 9055.23 738.3 9073.43 738.3C9091.63 738.3 9110.53 738.3 9130.13 738.3C9150.2 738.3 9170.03 738.3 9189.63 738.3C9209.23 738.3 9227.66 738.3 9244.93 738.3C9262.2 738.3 9277.13 738.3 9289.73 738.3C9302.8 738.3 9311.9 738.3 9317.03 738.3C9324.03 738.3 9332.66 738.067 9342.93 737.6C9353.2 736.667 9362.76 735.033 9371.63 732.7L9440.93 776.8ZM9607.53 863.6C9615.46 865 9624.8 865.933 9635.53 866.4C9646.26 866.867 9655.36 867.1 9662.83 867.1H9983.43C9991.83 867.1 10000.9 866.867 10010.7 866.4C10020.5 865.933 10029.6 865 10038 863.6V951.8C10029.2 950.867 10019.8 950.167 10010 949.7C10000.2 949.233 9991.36 949 9983.43 949H9662.83C9655.36 949 9646.26 949.233 9635.53 949.7C9624.8 950.167 9615.46 950.867 9607.53 951.8V863.6ZM9772.03 1222V911.9H9863.73V1222H9772.03ZM9571.83 1170.2C9580.7 1171.13 9590.26 1172.07 9600.53 1173C9610.8 1173.93 9620.36 1174.4 9629.23 1174.4H10016.3C10026.1 1174.4 10035.5 1173.93 10044.3 1173C10053.7 1171.6 10062.1 1170.67 10069.5 1170.2V1261.9C10062.1 1260.5 10052.7 1259.57 10041.5 1259.1C10030.8 1258.63 10022.4 1258.4 10016.3 1258.4H9629.23C9620.83 1258.4 9611.5 1258.63 9601.23 1259.1C9590.96 1259.57 9581.16 1260.5 9571.83 1261.9V1170.2ZM10185 918.9C10193.4 919.367 10204.2 920.067 10217.2 921C10230.3 921.467 10243.8 921.933 10257.8 922.4C10272.3 922.867 10285.6 923.1 10297.7 923.1C10309.4 923.1 10323.9 923.1 10341.1 923.1C10358.4 923.1 10377.1 923.1 10397.1 923.1C10417.7 923.1 10438.7 923.1 10460.1 923.1C10482.1 923.1 10503.8 923.1 10525.2 923.1C10546.7 923.1 10567 923.1 10586.1 923.1C10605.3 923.1 10622.3 923.1 10637.2 923.1C10652.6 923.1 10664.8 923.1 10673.6 923.1C10690 923.1 10705.4 922.633 10719.8 921.7C10734.3 920.3 10746.2 919.367 10755.5 918.9V1028.8C10747.6 1028.33 10735.7 1027.63 10719.8 1026.7C10704 1025.77 10688.6 1025.3 10673.6 1025.3C10664.8 1025.3 10652.6 1025.3 10637.2 1025.3C10621.8 1025.3 10604.6 1025.3 10585.4 1025.3C10566.3 1025.3 10546 1025.3 10524.5 1025.3C10503.5 1025.3 10482.1 1025.3 10460.1 1025.3C10438.2 1025.3 10417 1025.3 10396.4 1025.3C10376.4 1025.3 10357.7 1025.3 10340.4 1025.3C10323.6 1025.3 10309.4 1025.3 10297.7 1025.3C10277.7 1025.3 10257.1 1025.77 10236.1 1026.7C10215.1 1027.17 10198.1 1027.87 10185 1028.8V918.9ZM11320.6 768.4C11317.8 772.6 11313.6 779.133 11308 788C11302.8 796.867 11298.9 805.033 11296.1 812.5C11286.3 834.433 11274.1 858.933 11259.7 886C11245.7 913.067 11229.6 940.367 11211.4 967.9C11193.6 994.967 11174.7 1020.4 11154.7 1044.2C11128.5 1073.6 11099.6 1102.77 11067.9 1131.7C11036.6 1160.17 11003.5 1186.53 10968.5 1210.8C10933.9 1234.6 10898.5 1255.13 10862.1 1272.4L10790 1196.8C10827.8 1182.33 10864.4 1164.13 10899.9 1142.2C10935.3 1120.27 10968.2 1096.47 10998.6 1070.8C11028.9 1045.13 11055 1020.17 11077 995.9C11092.4 978.167 11106.8 959.267 11120.4 939.2C11134.4 919.133 11146.7 899.3 11157.5 879.7C11168.2 859.633 11176.1 841.2 11181.3 824.4C11176.6 824.4 11168.2 824.4 11156.1 824.4C11143.9 824.4 11129.7 824.4 11113.4 824.4C11097.5 824.4 11080.7 824.4 11063 824.4C11045.2 824.4 11028.2 824.4 11011.9 824.4C10996 824.4 10982 824.4 10969.9 824.4C10957.7 824.4 10949.1 824.4 10944 824.4C10934.2 824.4 10923.9 824.867 10913.2 825.8C10902.4 826.267 10892.2 826.967 10882.4 827.9C10873 828.367 10865.8 828.833 10860.7 829.3V729.9C10867.7 730.367 10876.3 731.067 10886.6 732C10896.8 732.933 10907.1 733.633 10917.4 734.1C10928.1 734.567 10937 734.8 10944 734.8C10950 734.8 10959.6 734.8 10972.7 734.8C10985.7 734.8 11000.7 734.8 11017.5 734.8C11034.3 734.8 11051.5 734.8 11069.3 734.8C11087.5 734.8 11104.7 734.8 11121.1 734.8C11137.9 734.8 11152.3 734.8 11164.5 734.8C11176.6 734.8 11185.5 734.8 11191.1 734.8C11206.5 734.8 11220.5 733.867 11233.1 732C11246.1 730.133 11256.2 728.033 11263.2 725.7L11320.6 768.4ZM11163.8 986.1C11182 1000.57 11201.3 1017.37 11221.9 1036.5C11242.4 1055.63 11262.7 1075.47 11282.8 1096C11302.8 1116.53 11321.3 1136.37 11338.1 1155.5C11355.3 1174.17 11369.8 1190.5 11381.5 1204.5L11301.7 1273.8C11284.4 1250 11264.6 1225.27 11242.2 1199.6C11220.2 1173.93 11196.9 1148.5 11172.2 1123.3C11147.9 1097.63 11123.2 1073.37 11098 1050.5L11163.8 986.1Z" fill="#9896A2"/>
<defs>
<linearGradient id="paint0_linear_721_640" x1="36.3572" y1="2416.53" x2="36.3572" y2="806.414" gradientUnits="userSpaceOnUse">
<stop stop-color="#F3E2E7"/>
<stop offset="1" stop-color="#F3E2E7"/>
</linearGradient>
<linearGradient id="paint1_linear_721_640" x1="36.3572" y1="2416.53" x2="36.3572" y2="806.414" gradientUnits="userSpaceOnUse">
<stop stop-color="#F3E2E7"/>
<stop offset="1" stop-color="#F3E2E7"/>
</linearGradient>
<clipPath id="clip0_721_640">
<rect width="1500" height="1500" rx="375" fill="white"/>
</clipPath>
</defs>
</svg>
