<svg width="2789" height="1500" viewBox="0 0 2789 1500" fill="none" xmlns="http://www.w3.org/2000/svg">
<path d="M2027.8 1265H1959.2V1083.7H1794.7V1265H1725.4V842.2L1786.3 781.3H2027.8V1265ZM2002.6 842.2H1794.7V1075.3L1847.2 1022.8H1959.2V885.6L2002.6 842.2ZM2186.73 1265H2117.43V781.3H2186.73V1265ZM2578.65 1265H2509.35L2510.75 1216L2372.15 1076.7L2419.05 1022.8H2509.35V842.2H2345.55V1265H2276.25V901.7L2337.15 842.2H2267.85V781.3H2517.75L2578.65 842.2V1014.4L2517.75 1075.3H2461.05V1084.4L2578.65 1200.6V1265ZM2719.01 1265H2649.71V781.3H2719.01V1265Z" fill="#E3DFE6"/>
<g clip-path="url(#clip0_717_668)">
<path d="M442.5 953.5L669 697L1080 927L985.5 1134.5L669 1104.5L442.5 953.5Z" fill="#EACACA"/>
<path d="M985.5 727L1034.5 602.5L1121.5 629L1166.5 844L985.5 727Z" fill="#EACACA"/>
<path fill-rule="evenodd" clip-rule="evenodd" d="M1540.03 1958.88C1518.27 1990.95 1454.98 2031.91 1419.76 2052.52C1403.15 2062.26 1385.11 2059.4 1360.48 2063.41C1254.24 2080.59 1148.57 2057.97 1062.08 2032.19C1041.18 2025.89 989.344 1986.37 967.007 1994.68C934.934 2009 939.516 2047.66 923.193 2077.44C912.311 2100.35 883.674 2183.68 874.797 2202.3C852.174 2249.83 823.823 2298.8 796.618 2342.9C775.713 2376.98 722.162 2440.55 662.311 2407.05C634.247 2391.3 635.679 2369.53 631.383 2346.91C631.097 2346.05 631.097 2333.74 630.237 2333.74C627.087 2333.74 627.087 2333.74 623.365 2333.74C616.11 2342.52 608.76 2351.3 601.314 2360.08C559.791 2398.17 497.362 2389.01 482.757 2332.02C473.021 2294.51 491.062 2256.71 501.371 2232.08C520.654 2172.7 539.936 2113.33 559.218 2053.96C569.527 2004.7 546.045 1964.61 532.586 1932.25C507.385 1870.39 500.226 1796.8 474.739 1733.8C464.144 1707.16 443.811 1693.42 435.793 1674.52C426.343 1651.89 405.438 1559.11 388.828 1551.09C335.564 1527.04 321.245 1607.22 290.604 1618.1C228.175 1640.44 200.97 1552.52 196.961 1507.28C145.128 1490.1 106.182 1412.2 131.096 1340.32C153.147 1277.61 199.538 1232.36 287.454 1234.08C295.186 1224.35 307.213 1219.48 315.518 1210.6L332.7 1141.87C341.673 1125.26 350.55 1108.56 359.332 1091.76C371.646 1073.72 393.983 1050.81 412.311 1038.78C422.811 1033.62 433.216 1028.37 443.525 1023.03C437.798 1021.69 432.643 1020.07 428.061 1018.16C398.851 1005.27 393.983 980.359 373.364 956.017C371.36 961.172 348.45 999.545 335.85 1010.71C331.65 1008.04 327.45 1005.37 323.25 1002.7C315.804 990.954 315.518 909.053 309.218 884.139C259.103 683.108 276.572 507.563 421.761 407.621C433.216 399.889 441.234 376.407 445.243 370.106C472.735 350.824 500.321 331.542 528.004 312.26C557.786 297.655 598.737 295.364 641.979 289.064C658.588 288.491 675.293 287.918 692.093 287.346C818.955 286.2 964.716 357.22 1037.17 415.353C1053.78 436.735 1070.48 458.117 1087.28 479.499C1121.36 525.032 1159.45 565.983 1190.38 615.525C1219.58 662.489 1281.73 738.377 1280.87 801.378C1249.56 767.396 1218.34 733.509 1187.23 699.717C1195.82 736.086 1215.29 743.531 1229.32 769.305C1233.62 777.323 1239.34 786.773 1245.07 791.928C1252.52 796.701 1260.06 801.569 1267.69 806.533C1285.64 817.797 1303.59 829.06 1321.53 840.324C1379.38 882.993 1437.23 942.844 1477.6 1002.7C1548.05 1107.22 1598.74 1224.35 1630.81 1368.39C1677.78 1579.44 1628.23 1830.3 1540.03 1958.88ZM1048.05 716.899C1071.82 724.345 1106.18 762.146 1133.96 754.414C1133.96 754.414 1103.89 725.204 1090.43 710.599C1080.41 697.14 1079.55 686.258 1067.24 666.212L1059.79 657.048C1055.5 674.803 1040.6 702.294 1048.05 716.899ZM1005.95 984.081C1005.09 982.65 995.358 998.4 994.785 997.541C987.34 987.518 983.044 988.091 971.303 979.786C961.853 968.331 957.557 943.99 948.107 932.535C926.916 935.399 896.274 1010.14 879.379 1027.9C878.424 1027.32 877.374 1026.75 876.229 1026.18C863.056 978.64 766.549 821.138 732.471 801.378C706.507 796.605 680.543 791.928 654.579 787.346C629.665 814.551 618.21 854.643 592.15 880.989C565.518 907.621 530.008 925.09 504.521 952.867V965.181C513.399 978.354 527.717 981.218 542.036 988.663C561.891 998.018 581.65 1007.37 601.314 1016.73C607.328 1018.16 613.628 1018.45 619.642 1017.87C630.524 1017.01 641.119 1014.15 648.279 1012.15C680.066 1003.27 717.58 1011.57 746.79 1018.45C767.122 1023.31 778.577 1037.35 793.468 1046.51C821.532 1063.98 850.742 1069.71 876.229 1088.61C879.474 1092.81 882.624 1097.01 885.679 1101.21C913.743 1112.09 1004.52 1012.43 1005.95 984.081Z" fill="#F3E2E7"/>
<path d="M534.877 418.211L635.965 159.906C635.965 159.906 712.712 199.712 801.773 395.302L534.877 418.211Z" fill="#F3E2E7"/>
<path d="M197.82 483.511C197.82 483.511 265.117 459.17 335.278 475.493C405.724 491.816 279.722 635.86 279.722 635.86C279.722 635.86 184.934 508.139 197.82 483.511Z" fill="#F3E2E7"/>
<path d="M531.154 378.408C531.154 378.408 528.863 423.082 540.89 424.227L636.251 160.195C636.251 159.909 635.965 159.909 635.965 160.195C513.685 382.704 535.736 351.49 531.154 378.408Z" fill="#EC92AD"/>
<path d="M789.745 380.415C774.854 371.251 756.813 319.418 755.667 315.409C746.503 282.19 724.453 255.844 678.92 206.589C655.724 181.388 635.106 161.056 635.965 159.911C636.824 159.051 655.438 173.943 666.034 182.82C690.948 203.439 713.857 226.062 742.208 261.572C794.327 326.291 806.354 373.828 816.377 389.292C816.664 389.865 818.096 392.156 817.236 393.015C816.091 394.447 809.505 391.01 801.773 387.001C796.332 384.138 791.177 381.274 789.745 380.415Z" fill="#EC92AD"/>
<path d="M566.95 414.493C564.373 412.775 576.973 386.715 596.446 356.933C612.483 332.305 614.201 334.31 629.092 309.968C637.397 296.795 644.843 283.622 646.561 284.481C647.706 284.768 646.274 289.063 645.129 295.077C639.115 324.287 646.847 338.891 643.983 359.796C643.983 360.942 643.411 364.378 644.556 364.665C645.702 365.237 648.852 359.796 652.002 355.214C655.152 350.919 660.306 346.337 670.329 337.46C690.089 319.705 692.093 320.277 692.953 320.85C694.671 321.996 692.666 325.718 692.953 339.464C692.953 340.61 692.953 351.205 697.534 359.796C698.107 360.655 698.966 362.087 700.398 362.946C702.403 364.092 705.266 364.378 712.139 361.228C722.448 356.36 723.88 351.492 727.317 352.351C730.181 353.21 729.608 356.933 734.762 366.383C738.485 373.542 751.085 375.547 749.94 377.838C748.508 380.701 731.612 381.56 729.894 381.847C670.329 391.583 601.887 408.765 582.987 410.484C581.555 410.77 577.832 411.056 573.25 412.488C568.668 413.92 567.523 415.066 566.95 414.493Z" fill="#EC92AD"/>
<path d="M280.581 628.703C283.158 630.994 281.44 639.585 278.576 640.444C276.572 641.017 272.849 638.726 260.821 618.68C248.221 597.775 242.78 590.902 231.039 568.852C220.443 548.233 214.43 534.201 210.707 529.047C210.707 529.047 200.684 512.437 195.243 494.682C194.384 491.819 194.098 488.669 194.098 488.669C194.098 486.378 193.811 483.8 194.384 482.941C196.388 480.364 233.616 498.691 267.981 522.746C277.431 529.619 298.909 545.37 305.495 546.515C305.781 546.801 306.641 546.802 307.213 547.661C309.504 550.524 300.34 556.824 297.19 566.275C289.745 586.893 289.745 605.221 287.167 610.375C283.731 616.962 281.44 621.257 280.581 621.257C279.722 621.257 279.435 606.653 279.435 606.653C279.435 606.653 268.84 608.944 267.408 606.939C263.971 601.498 285.736 584.889 282.586 579.447C280.295 575.438 265.976 580.879 264.831 578.016C263.112 574.579 281.726 568.279 281.726 559.115C281.726 546.515 245.644 540.788 227.316 521.315C226.744 520.456 225.598 519.31 224.739 519.596C221.303 521.315 244.785 573.72 255.667 595.484C267.408 618.394 269.126 614.957 273.994 622.689C274.567 623.548 275.713 625.553 278.004 627.271C279.435 628.13 280.008 628.13 280.581 628.703Z" fill="#EC92AD"/>
<path d="M1540.03 1958.88C1518.27 1990.95 1454.98 2031.9 1419.76 2052.52C1403.15 2062.26 1385.11 2059.4 1360.48 2063.4C1254.24 2080.59 1148.57 2057.96 1062.08 2032.19C1041.18 2025.89 989.344 1986.37 967.007 1994.68C934.934 2008.99 939.516 2047.65 923.193 2077.44C912.311 2100.35 883.674 2183.68 874.797 2202.29C852.174 2249.83 823.823 2298.8 796.618 2342.9C775.713 2376.98 722.162 2440.55 662.311 2407.05C634.247 2391.3 635.679 2369.53 631.383 2346.91C631.097 2346.05 631.097 2333.74 630.238 2333.74C627.087 2333.74 627.087 2333.74 623.365 2333.74C616.11 2342.52 608.76 2351.3 601.314 2360.08C559.791 2398.17 497.362 2389.01 482.757 2332.02C473.021 2294.5 491.062 2256.7 501.371 2232.08C520.654 2172.7 539.936 2113.33 559.218 2053.95C569.527 2004.7 546.045 1964.61 532.586 1932.25C507.385 1870.39 500.226 1796.8 474.739 1733.79C464.144 1707.16 443.811 1693.42 435.793 1674.52C426.343 1651.89 405.438 1559.11 388.828 1551.09C335.564 1527.04 321.245 1607.22 290.604 1618.1C228.175 1640.44 200.97 1552.52 196.961 1507.28C145.128 1490.09 106.182 1412.2 131.096 1340.32C153.147 1277.61 199.538 1232.36 287.454 1234.08C295.186 1224.34 307.213 1219.48 315.518 1210.6L332.7 1141.87C341.673 1125.26 350.55 1108.56 359.332 1091.75C371.646 1073.71 393.983 1050.8 412.311 1038.78C422.811 1033.62 433.216 1028.37 443.525 1023.03C437.798 1021.69 432.643 1020.07 428.061 1018.16C438.943 1015.01 448.68 1014.15 456.698 1014.15C497.076 1013.86 513.399 1036.77 557.786 1035.34C577.832 1034.48 577.832 1029.61 619.642 1017.87C682.643 1000.12 714.144 991.239 746.217 998.971C783.445 1007.85 777.431 1027.04 841.864 1056.25C875.656 1071.42 899.711 1082.02 925.484 1073.14C950.684 1064.26 968.726 1040.21 975.599 1031.04C985.908 1017.01 991.349 1004.7 993.067 1000.98C993.067 1000.98 996.217 994.103 1003.66 980.644C1015.4 959.739 1037.45 923.943 1074.68 874.401C1114.2 822.568 1204.41 809.109 1267.69 806.531C1285.64 817.795 1303.59 829.059 1321.53 840.323C1379.38 882.992 1437.23 942.843 1477.6 1002.69C1548.05 1107.22 1598.74 1224.34 1630.81 1368.39C1677.78 1579.44 1628.23 1830.3 1540.03 1958.88Z" fill="url(#paint0_linear_717_668)"/>
<path d="M402.861 438.547C404.579 468.616 379.665 549.944 374.797 567.986C373.651 568.272 372.219 568.558 370.501 568.845C366.778 569.131 363.056 568.272 359.906 565.981L359.333 565.695C352.746 518.157 378.52 470.334 402.861 438.547Z" fill="#EC92AD"/>
<path d="M339.574 488.086C332.987 507.559 322.392 530.469 315.805 549.942C315.423 550.514 315.232 551.183 315.232 551.946C304.064 604.638 301.2 731.213 312.369 785.337C325.351 839.938 338.333 894.539 351.315 949.14C358.761 990.664 306.355 1080.3 284.018 1085.17C284.591 1084.31 287.455 1071.42 290.032 1060.82C291.368 1054.91 292.227 1048.99 292.609 1043.07C295.091 1005.46 297.478 967.849 299.769 930.24C300.914 915.921 299.482 901.603 296.046 887.571C287.836 854.543 279.723 821.515 271.704 788.487C257.672 716.036 278.864 597.479 299.769 546.219C308.073 525.887 338.715 488.086 339.574 488.086Z" fill="#EC92AD"/>
<path d="M576.114 529.043C626.228 550.521 648.565 618.104 679.207 660.2C716.148 710.887 757.385 762.434 788.6 817.989C792.895 830.589 828.119 899.318 841.864 921.082C875.083 977.783 907.443 1088.89 907.443 1174.23C906.297 1173.66 816.377 968.047 815.232 968.047C820.386 1070.57 800.054 1107.22 800.054 1106.08C784.59 1036.49 782.013 973.774 760.535 921.082C705.266 785.63 650.57 646.741 576.114 529.043Z" fill="#EC92AD"/>
<path d="M365.346 604.062C379.665 618.667 383.674 682.241 390.261 707.155C400.761 742.092 411.165 776.934 421.475 811.68C441.807 858.358 476.744 885.85 474.739 945.987C473.212 945.987 471.589 945.987 469.871 945.987C386.824 913.914 351.314 728.06 365.346 604.062Z" fill="#EC92AD"/>
<path d="M1042.9 808.249C1042.32 854.927 992.495 949.429 971.876 983.793C968.44 984.366 934.362 971.765 931.212 960.311C928.348 949.142 987.054 802.235 994.786 795.648C1009.1 800.517 1025.71 807.103 1042.9 808.249Z" fill="#EC92AD"/>
<path d="M1320.39 1447.71C1244.21 1448.28 1146.85 1396.45 1093.01 1365.23C1091.01 1364.09 1089.86 1361.51 1090.72 1359.22C1091.29 1356.93 1092.15 1354.64 1092.72 1352.63C1093.58 1350.34 1095.59 1349.2 1097.88 1349.2C1132.82 1350.63 1145.42 1371.25 1169.18 1381.84C1208.42 1399.6 1265.12 1417.64 1316.95 1419.36C1319.81 1419.36 1322.39 1417.07 1322.39 1413.92C1322.96 1338.32 1314.66 1270.73 1293.75 1219.47C1293.56 1219.28 1293.47 1219.09 1293.47 1218.9C1292.04 1212.6 1288.31 1206.59 1286.6 1200.29C1286.6 1199.71 1286.02 1198.85 1285.45 1198.28C1281.44 1193.99 1274.57 1194.27 1270.85 1188.26C1267.12 1182.24 1294.04 1155.33 1297.76 1137.57C1311.51 1071.42 1246.22 968.899 1208.42 935.394C1203.83 936.826 1202.69 937.399 1198.11 938.831C1195.24 956.299 1185.51 962.027 1177.2 974.341C1144.84 1020.73 1128.23 1072.28 1049.77 1072.57C1047.76 1072.57 1046.33 1074.57 1044.9 1076.29C1022.28 1106.64 994.785 1132.99 973.881 1153.89C920.616 1207.44 839.001 1343.47 764.831 1361.51C712.712 1374.4 647.993 1358.07 584.991 1367.81C551.773 1372.97 421.188 1389.29 392.552 1383.56C389.974 1382.99 388.256 1380.41 388.542 1377.83C388.829 1372.97 386.824 1369.53 392.552 1366.67C416.32 1360.94 437.511 1370.68 458.416 1366.38C489.153 1359.51 519.89 1352.73 550.627 1346.05C550.627 1346.05 550.723 1346.05 550.914 1346.05C633.101 1332.3 708.13 1339.17 783.731 1324.86C785.45 1324.57 793.468 1316.55 794.614 1315.12C818.669 1291.92 830.696 1278.46 847.305 1261C871.074 1236.08 896.275 1212.03 917.752 1185.11C946.676 1149.31 968.153 1128.69 1016.55 1075.14C1019.7 1071.71 1021.42 1069.99 1021.13 1067.98C1021.13 1066.27 1021.13 1063.97 1017.69 1062.26C982.472 1044.21 1000.51 990.95 1011.39 960.308C1025.71 920.217 1117.92 849.197 1181.78 863.229C1267.98 882.703 1306.35 937.685 1330.12 1021.02C1335.85 1040.78 1347.02 1070.85 1341.29 1098.91C1341.1 1099.1 1341.01 1099.29 1341.01 1099.48C1336.42 1111.51 1334.42 1128.69 1329.84 1140.43C1329.84 1140.63 1329.84 1140.72 1329.84 1140.72C1323.82 1162.77 1321.25 1178.24 1305.5 1191.69C1303.49 1193.41 1302.92 1196.28 1304.35 1198.28C1335.85 1252.98 1349.31 1322.57 1351.89 1402.18C1353.61 1446.56 1349.88 1510.71 1357.61 1547.94C1357.9 1549.66 1359.33 1551.09 1360.76 1551.66C1426.63 1580.3 1593.87 1723.48 1613.34 1789.92C1613.53 1790.87 1613.53 1791.73 1613.34 1792.5C1608.76 1811.97 1602.17 1830.3 1595.59 1848.05C1595.4 1848.63 1595.01 1849.2 1594.44 1849.77C1549.77 1898.74 1458.99 1955.73 1360.76 1912.49C1304.92 1887.86 1267.41 1854.35 1229.61 1809.68C1203.83 1779.32 1178.63 1744.96 1153.72 1713.17C1112.2 1660.48 1078.98 1602.92 1039.75 1547.36C1022.56 1523.31 1006.53 1495.25 988.199 1471.19C988.199 1471 988.104 1470.81 987.913 1470.62C975.885 1458.21 963.953 1445.8 952.117 1433.39C948.966 1427.66 950.971 1426.23 954.121 1423.37C954.885 1422.79 955.744 1422.41 956.698 1422.22C977.317 1418.79 998.508 1448.85 1008.53 1462.03C1008.53 1462.22 1008.63 1462.31 1008.82 1462.31C1027.43 1481.21 1042.9 1508.13 1060.08 1529.61C1060.27 1529.8 1060.36 1529.9 1060.36 1529.9C1076.4 1554.81 1092.15 1572.57 1108.47 1597.48C1170.62 1685.68 1238.77 1803.67 1330.12 1861.51C1354.46 1876.98 1403.43 1909.05 1445.82 1900.46C1493.07 1891.01 1524.57 1870.1 1557.5 1849.77C1573.25 1839.75 1578.69 1819.13 1569.53 1802.52C1521.13 1716.32 1422.91 1613.8 1332.41 1587.46C1330.12 1586.88 1328.69 1584.88 1328.41 1582.59C1327.45 1539.44 1326.5 1496.2 1325.54 1452.86C1325.54 1450 1323.25 1447.71 1320.39 1447.71Z" fill="#EC92AD"/>
<path d="M562.082 1052.23C664.889 1048.51 591.005 1225.2 519.986 1200.86C472.162 1184.25 501.945 1104.64 521.418 1078.87C531.441 1065.98 547.191 1060.82 562.082 1052.23Z" fill="#EC92AD"/>
<path d="M407.442 1066.27C486.194 1071.13 421.188 1213.46 365.346 1194.56C292.895 1169.93 373.364 1082.59 407.442 1066.27Z" fill="#EC92AD"/>
<path d="M656.011 1106.93C689.516 1129.84 715.575 1222.05 691.807 1266.44C675.484 1270.16 603.319 1289.92 588.714 1271.02C588.714 1268.92 588.714 1266.82 588.714 1264.72C644.842 1243.53 657.729 1182.25 656.011 1106.93Z" fill="#EC92AD"/>
<path d="M491.921 1117.81C489.057 1157.33 478.748 1214.6 474.739 1239.8C471.302 1260.13 481.039 1286.77 473.021 1300.8C463.284 1306.91 453.452 1313.11 443.525 1319.41C407.442 1314.54 398.565 1267.01 398.278 1227.2C424.911 1215.46 484.762 1149.88 491.921 1117.81Z" fill="#EC92AD"/>
<path d="M201.256 1280.47C223.307 1279.9 256.812 1294.79 265.403 1308.53C187.224 1307.96 170.901 1389.29 159.16 1456.87C157.633 1456.3 156.105 1455.82 154.578 1455.44C106.755 1371.25 146.846 1330.87 201.256 1280.47Z" fill="#EC92AD"/>
<path d="M398.279 1311.69C410.307 1315.41 418.612 1316.56 429.78 1324.57C434.076 1327.72 432.644 1330.59 428.062 1335.74C406.584 1354.07 376.229 1365.81 351.315 1363.23C336.71 1361.8 315.805 1360.66 306.355 1366.96C304.064 1368.1 304.35 1370.11 304.637 1371.82C312.082 1413.06 373.938 1518.16 357.329 1551.38C352.461 1551.66 351.029 1551.66 346.447 1551.66C326.401 1522.17 257.672 1407.62 292.037 1352.35C309.505 1324 371.934 1331.73 398.279 1311.69Z" fill="#EC92AD"/>
<path d="M442.5 953.5L669 697L1080 927L985.5 1134.5L669 1104.5L442.5 953.5Z" fill="#FFF4F4"/>
<path d="M985.5 727L1034.5 602.5L1121.5 629L1166.5 844L985.5 727Z" fill="#FFF4F4"/>
<path fill-rule="evenodd" clip-rule="evenodd" d="M1540.03 1958.88C1518.27 1990.95 1454.98 2031.91 1419.76 2052.52C1403.15 2062.26 1385.11 2059.4 1360.48 2063.41C1254.24 2080.59 1148.57 2057.97 1062.08 2032.19C1041.18 2025.89 989.344 1986.37 967.007 1994.68C934.934 2009 939.516 2047.66 923.193 2077.44C912.311 2100.35 883.674 2183.68 874.797 2202.3C852.174 2249.83 823.823 2298.8 796.618 2342.9C775.713 2376.98 722.162 2440.55 662.311 2407.05C634.247 2391.3 635.679 2369.53 631.383 2346.91C631.097 2346.05 631.097 2333.74 630.237 2333.74C627.087 2333.74 627.087 2333.74 623.365 2333.74C616.11 2342.52 608.76 2351.3 601.314 2360.08C559.791 2398.17 497.362 2389.01 482.757 2332.02C473.021 2294.51 491.062 2256.71 501.371 2232.08C520.654 2172.7 539.936 2113.33 559.218 2053.96C569.527 2004.7 546.045 1964.61 532.586 1932.25C507.385 1870.39 500.226 1796.8 474.739 1733.8C464.144 1707.16 443.811 1693.42 435.793 1674.52C426.343 1651.89 405.438 1559.11 388.828 1551.09C335.564 1527.04 321.245 1607.22 290.604 1618.1C228.175 1640.44 200.97 1552.52 196.961 1507.28C145.128 1490.1 106.182 1412.2 131.096 1340.32C153.147 1277.61 199.538 1232.36 287.454 1234.08C295.186 1224.35 307.213 1219.48 315.518 1210.6L332.7 1141.87C341.673 1125.26 350.55 1108.56 359.332 1091.76C371.646 1073.72 393.983 1050.81 412.311 1038.78C422.811 1033.62 433.216 1028.37 443.525 1023.03C437.798 1021.69 432.643 1020.07 428.061 1018.16C398.851 1005.27 393.983 980.359 373.364 956.017C371.36 961.172 348.45 999.545 335.85 1010.71C331.65 1008.04 327.45 1005.37 323.25 1002.7C315.804 990.954 315.518 909.053 309.218 884.139C259.103 683.108 276.572 507.563 421.761 407.621C433.216 399.889 441.234 376.407 445.243 370.106C472.735 350.824 500.321 331.542 528.004 312.26C557.786 297.655 598.737 295.364 641.979 289.064C658.588 288.491 675.293 287.918 692.093 287.346C818.955 286.2 964.716 357.22 1037.17 415.353C1053.78 436.735 1070.48 458.117 1087.28 479.499C1121.36 525.032 1159.45 565.983 1190.38 615.525C1219.58 662.489 1281.73 738.377 1280.87 801.378C1249.56 767.396 1218.34 733.509 1187.23 699.717C1195.82 736.086 1215.29 743.531 1229.32 769.305C1233.62 777.323 1239.34 786.773 1245.07 791.928C1252.52 796.701 1260.06 801.569 1267.69 806.533C1285.64 817.797 1303.59 829.06 1321.53 840.324C1379.38 882.993 1437.23 942.844 1477.6 1002.7C1548.05 1107.22 1598.74 1224.35 1630.81 1368.39C1677.78 1579.44 1628.23 1830.3 1540.03 1958.88ZM1048.05 716.899C1071.82 724.345 1106.18 762.146 1133.96 754.414C1133.96 754.414 1103.89 725.204 1090.43 710.599C1080.41 697.14 1079.55 686.258 1067.24 666.212L1059.79 657.048C1055.5 674.803 1040.6 702.294 1048.05 716.899ZM1005.95 984.081C1005.09 982.65 995.358 998.4 994.785 997.541C987.34 987.518 983.044 988.091 971.303 979.786C961.853 968.331 957.557 943.99 948.107 932.535C926.916 935.399 896.274 1010.14 879.379 1027.9C878.424 1027.32 877.374 1026.75 876.229 1026.18C863.056 978.64 766.549 821.138 732.471 801.378C706.507 796.605 680.543 791.928 654.579 787.346C629.665 814.551 618.21 854.643 592.15 880.989C565.518 907.621 530.008 925.09 504.521 952.867V965.181C513.399 978.354 527.717 981.218 542.036 988.663C561.891 998.018 581.65 1007.37 601.314 1016.73C607.328 1018.16 613.628 1018.45 619.642 1017.87C630.524 1017.01 641.119 1014.15 648.279 1012.15C680.066 1003.27 717.58 1011.57 746.79 1018.45C767.122 1023.31 778.577 1037.35 793.468 1046.51C821.532 1063.98 850.742 1069.71 876.229 1088.61C879.474 1092.81 882.624 1097.01 885.679 1101.21C913.743 1112.09 1004.52 1012.43 1005.95 984.081Z" fill="#F3E2E7"/>
<path d="M534.877 418.215L635.965 159.91C635.965 159.91 712.712 199.715 801.773 395.306L534.877 418.215Z" fill="#F3E2E7"/>
<path d="M197.82 483.515C197.82 483.515 265.117 459.174 335.278 475.497C405.724 491.82 279.722 635.863 279.722 635.863C279.722 635.863 184.934 508.143 197.82 483.515Z" fill="#F3E2E7"/>
<path d="M531.154 378.412C531.154 378.412 528.863 423.086 540.89 424.231L636.251 160.199C636.251 159.913 635.965 159.913 635.965 160.199C513.685 382.708 535.736 351.494 531.154 378.412Z" fill="#EC92AD"/>
<path d="M789.745 380.419C774.854 371.255 756.813 319.422 755.667 315.413C746.503 282.194 724.453 255.848 678.92 206.593C655.724 181.392 635.106 161.06 635.965 159.915C636.824 159.055 655.438 173.947 666.034 182.824C690.948 203.443 713.857 226.066 742.208 261.575C794.327 326.295 806.354 373.832 816.377 389.296C816.664 389.869 818.096 392.16 817.236 393.019C816.091 394.451 809.505 391.014 801.773 387.005C796.332 384.141 791.177 381.278 789.745 380.419Z" fill="#EC92AD"/>
<path d="M566.95 414.497C564.373 412.779 576.973 386.719 596.446 356.937C612.483 332.309 614.201 334.313 629.092 309.972C637.397 296.799 644.843 283.626 646.561 284.485C647.706 284.772 646.274 289.067 645.129 295.081C639.115 324.29 646.847 338.895 643.983 359.8C643.983 360.946 643.411 364.382 644.556 364.668C645.702 365.241 648.852 359.8 652.002 355.218C655.152 350.923 660.306 346.341 670.329 337.463C690.089 319.709 692.093 320.281 692.953 320.854C694.671 322 692.666 325.722 692.953 339.468C692.953 340.614 692.953 351.209 697.534 359.8C698.107 360.659 698.966 362.091 700.398 362.95C702.403 364.096 705.266 364.382 712.139 361.232C722.448 356.364 723.88 351.496 727.317 352.355C730.181 353.214 729.608 356.937 734.762 366.387C738.485 373.546 751.085 375.551 749.94 377.841C748.508 380.705 731.612 381.564 729.894 381.851C670.329 391.587 601.887 408.769 582.987 410.488C581.555 410.774 577.832 411.06 573.25 412.492C568.668 413.924 567.523 415.069 566.95 414.497Z" fill="#EC92AD"/>
<path d="M280.581 628.707C283.158 630.998 281.44 639.589 278.576 640.448C276.572 641.021 272.849 638.73 260.821 618.684C248.221 597.779 242.78 590.906 231.039 568.856C220.443 548.237 214.43 534.205 210.707 529.051C210.707 529.051 200.684 512.441 195.243 494.686C194.384 491.823 194.098 488.672 194.098 488.672C194.098 486.382 193.811 483.804 194.384 482.945C196.388 480.368 233.616 498.695 267.981 522.75C277.431 529.623 298.909 545.374 305.495 546.519C305.781 546.805 306.641 546.805 307.213 547.665C309.504 550.528 300.34 556.828 297.19 566.279C289.745 586.897 289.745 605.225 287.167 610.379C283.731 616.966 281.44 621.261 280.581 621.261C279.722 621.261 279.435 606.656 279.435 606.656C279.435 606.656 268.84 608.947 267.408 606.943C263.971 601.502 285.736 584.892 282.586 579.451C280.295 575.442 265.976 580.883 264.831 578.02C263.112 574.583 281.726 568.283 281.726 559.119C281.726 546.519 245.644 540.792 227.316 521.319C226.744 520.459 225.598 519.314 224.739 519.6C221.303 521.319 244.785 573.724 255.667 595.488C267.408 618.398 269.126 614.961 273.994 622.693C274.567 623.552 275.713 625.557 278.004 627.275C279.435 628.134 280.008 628.134 280.581 628.707Z" fill="#EC92AD"/>
<path d="M1540.03 1958.88C1518.27 1990.95 1454.98 2031.9 1419.76 2052.52C1403.15 2062.26 1385.11 2059.4 1360.48 2063.4C1254.24 2080.59 1148.57 2057.96 1062.08 2032.19C1041.18 2025.89 989.344 1986.37 967.007 1994.68C934.934 2008.99 939.516 2047.65 923.193 2077.44C912.311 2100.35 883.674 2183.68 874.797 2202.29C852.174 2249.83 823.823 2298.8 796.618 2342.9C775.713 2376.98 722.162 2440.55 662.311 2407.05C634.247 2391.3 635.679 2369.53 631.383 2346.91C631.097 2346.05 631.097 2333.74 630.238 2333.74C627.087 2333.74 627.087 2333.74 623.365 2333.74C616.11 2342.52 608.76 2351.3 601.314 2360.08C559.791 2398.17 497.362 2389.01 482.757 2332.02C473.021 2294.5 491.062 2256.7 501.371 2232.08C520.654 2172.7 539.936 2113.33 559.218 2053.95C569.527 2004.7 546.045 1964.61 532.586 1932.25C507.385 1870.39 500.226 1796.8 474.739 1733.79C464.144 1707.16 443.811 1693.42 435.793 1674.52C426.343 1651.89 405.438 1559.11 388.828 1551.09C335.564 1527.04 321.245 1607.22 290.604 1618.1C228.175 1640.44 200.97 1552.52 196.961 1507.28C145.128 1490.09 106.182 1412.2 131.096 1340.32C153.147 1277.61 199.538 1232.36 287.454 1234.08C295.186 1224.34 307.213 1219.48 315.518 1210.6L332.7 1141.87C341.673 1125.26 350.55 1108.56 359.332 1091.75C371.646 1073.71 393.983 1050.8 412.311 1038.78C422.811 1033.62 433.216 1028.37 443.525 1023.03C437.798 1021.69 432.643 1020.07 428.061 1018.16C438.943 1015.01 448.68 1014.15 456.698 1014.15C497.076 1013.86 513.399 1036.77 557.786 1035.34C577.832 1034.48 577.832 1029.61 619.642 1017.87C682.643 1000.12 714.144 991.239 746.217 998.971C783.445 1007.85 777.431 1027.04 841.864 1056.25C875.656 1071.42 899.711 1082.02 925.484 1073.14C950.684 1064.26 968.726 1040.21 975.599 1031.04C985.908 1017.01 991.349 1004.7 993.067 1000.98C993.067 1000.98 996.217 994.103 1003.66 980.644C1015.4 959.739 1037.45 923.943 1074.68 874.401C1114.2 822.568 1204.41 809.109 1267.69 806.531C1285.64 817.795 1303.59 829.059 1321.53 840.323C1379.38 882.992 1437.23 942.843 1477.6 1002.69C1548.05 1107.22 1598.74 1224.34 1630.81 1368.39C1677.78 1579.44 1628.23 1830.3 1540.03 1958.88Z" fill="url(#paint1_linear_717_668)"/>
<path d="M402.861 438.547C404.579 468.616 379.665 549.944 374.797 567.986C373.651 568.272 372.219 568.558 370.501 568.845C366.778 569.131 363.056 568.272 359.906 565.981L359.333 565.695C352.746 518.157 378.52 470.334 402.861 438.547Z" fill="#EC92AD"/>
<path d="M339.574 488.086C332.987 507.559 322.392 530.469 315.805 549.942C315.423 550.514 315.232 551.183 315.232 551.946C304.064 604.638 301.2 731.213 312.369 785.337C325.351 839.938 338.333 894.539 351.315 949.14C358.761 990.664 306.355 1080.3 284.018 1085.17C284.591 1084.31 287.455 1071.42 290.032 1060.82C291.368 1054.91 292.227 1048.99 292.609 1043.07C295.091 1005.46 297.478 967.849 299.769 930.24C300.914 915.921 299.482 901.603 296.046 887.571C287.836 854.543 279.723 821.515 271.704 788.487C257.672 716.036 278.864 597.479 299.769 546.219C308.073 525.887 338.715 488.086 339.574 488.086Z" fill="#EC92AD"/>
<path d="M576.114 529.043C626.228 550.521 648.565 618.104 679.207 660.2C716.148 710.887 757.385 762.434 788.6 817.989C792.895 830.589 828.119 899.318 841.864 921.082C875.083 977.783 907.443 1088.89 907.443 1174.23C906.297 1173.66 816.377 968.047 815.232 968.047C820.386 1070.57 800.054 1107.22 800.054 1106.08C784.59 1036.49 782.013 973.774 760.535 921.082C705.266 785.63 650.57 646.741 576.114 529.043Z" fill="#EC92AD"/>
<path d="M365.346 604.062C379.665 618.667 383.674 682.241 390.261 707.155C400.761 742.092 411.165 776.934 421.475 811.68C441.807 858.358 476.744 885.85 474.739 945.987C473.212 945.987 471.589 945.987 469.871 945.987C386.824 913.914 351.314 728.06 365.346 604.062Z" fill="#EC92AD"/>
<path d="M1042.9 808.249C1042.32 854.927 992.495 949.429 971.876 983.793C968.44 984.366 934.362 971.765 931.212 960.311C928.348 949.142 987.054 802.235 994.786 795.648C1009.1 800.517 1025.71 807.103 1042.9 808.249Z" fill="#EC92AD"/>
<path d="M1320.39 1447.71C1244.21 1448.28 1146.85 1396.45 1093.01 1365.23C1091.01 1364.09 1089.86 1361.51 1090.72 1359.22C1091.29 1356.93 1092.15 1354.64 1092.72 1352.63C1093.58 1350.34 1095.59 1349.2 1097.88 1349.2C1132.82 1350.63 1145.42 1371.25 1169.18 1381.84C1208.42 1399.6 1265.12 1417.64 1316.95 1419.36C1319.81 1419.36 1322.39 1417.07 1322.39 1413.92C1322.96 1338.32 1314.66 1270.73 1293.75 1219.47C1293.56 1219.28 1293.47 1219.09 1293.47 1218.9C1292.04 1212.6 1288.31 1206.59 1286.6 1200.29C1286.6 1199.71 1286.02 1198.85 1285.45 1198.28C1281.44 1193.99 1274.57 1194.27 1270.85 1188.26C1267.12 1182.24 1294.04 1155.33 1297.76 1137.57C1311.51 1071.42 1246.22 968.899 1208.42 935.394C1203.83 936.826 1202.69 937.399 1198.11 938.831C1195.24 956.299 1185.51 962.027 1177.2 974.341C1144.84 1020.73 1128.23 1072.28 1049.77 1072.57C1047.76 1072.57 1046.33 1074.57 1044.9 1076.29C1022.28 1106.64 994.785 1132.99 973.881 1153.89C920.616 1207.44 839.001 1343.47 764.831 1361.51C712.712 1374.4 647.993 1358.07 584.991 1367.81C551.773 1372.97 421.188 1389.29 392.552 1383.56C389.974 1382.99 388.256 1380.41 388.542 1377.83C388.829 1372.97 386.824 1369.53 392.552 1366.67C416.32 1360.94 437.511 1370.68 458.416 1366.38C489.153 1359.51 519.89 1352.73 550.627 1346.05C550.627 1346.05 550.723 1346.05 550.914 1346.05C633.101 1332.3 708.13 1339.17 783.731 1324.86C785.45 1324.57 793.468 1316.55 794.614 1315.12C818.669 1291.92 830.696 1278.46 847.305 1261C871.074 1236.08 896.275 1212.03 917.752 1185.11C946.676 1149.31 968.153 1128.69 1016.55 1075.14C1019.7 1071.71 1021.42 1069.99 1021.13 1067.98C1021.13 1066.27 1021.13 1063.97 1017.69 1062.26C982.472 1044.21 1000.51 990.95 1011.39 960.308C1025.71 920.217 1117.92 849.197 1181.78 863.229C1267.98 882.703 1306.35 937.685 1330.12 1021.02C1335.85 1040.78 1347.02 1070.85 1341.29 1098.91C1341.1 1099.1 1341.01 1099.29 1341.01 1099.48C1336.42 1111.51 1334.42 1128.69 1329.84 1140.43C1329.84 1140.63 1329.84 1140.72 1329.84 1140.72C1323.82 1162.77 1321.25 1178.24 1305.5 1191.69C1303.49 1193.41 1302.92 1196.28 1304.35 1198.28C1335.85 1252.98 1349.31 1322.57 1351.89 1402.18C1353.61 1446.56 1349.88 1510.71 1357.61 1547.94C1357.9 1549.66 1359.33 1551.09 1360.76 1551.66C1426.63 1580.3 1593.87 1723.48 1613.34 1789.92C1613.53 1790.87 1613.53 1791.73 1613.34 1792.5C1608.76 1811.97 1602.17 1830.3 1595.59 1848.05C1595.4 1848.63 1595.01 1849.2 1594.44 1849.77C1549.77 1898.74 1458.99 1955.73 1360.76 1912.49C1304.92 1887.86 1267.41 1854.35 1229.61 1809.68C1203.83 1779.32 1178.63 1744.96 1153.72 1713.17C1112.2 1660.48 1078.98 1602.92 1039.75 1547.36C1022.56 1523.31 1006.53 1495.25 988.199 1471.19C988.199 1471 988.104 1470.81 987.913 1470.62C975.885 1458.21 963.953 1445.8 952.117 1433.39C948.966 1427.66 950.971 1426.23 954.121 1423.37C954.885 1422.79 955.744 1422.41 956.698 1422.22C977.317 1418.79 998.508 1448.85 1008.53 1462.03C1008.53 1462.22 1008.63 1462.31 1008.82 1462.31C1027.43 1481.21 1042.9 1508.13 1060.08 1529.61C1060.27 1529.8 1060.36 1529.9 1060.36 1529.9C1076.4 1554.81 1092.15 1572.57 1108.47 1597.48C1170.62 1685.68 1238.77 1803.67 1330.12 1861.51C1354.46 1876.98 1403.43 1909.05 1445.82 1900.46C1493.07 1891.01 1524.57 1870.1 1557.5 1849.77C1573.25 1839.75 1578.69 1819.13 1569.53 1802.52C1521.13 1716.32 1422.91 1613.8 1332.41 1587.46C1330.12 1586.88 1328.69 1584.88 1328.41 1582.59C1327.45 1539.44 1326.5 1496.2 1325.54 1452.86C1325.54 1450 1323.25 1447.71 1320.39 1447.71Z" fill="#EC92AD"/>
<path d="M562.082 1052.23C664.889 1048.51 591.005 1225.2 519.986 1200.86C472.162 1184.25 501.945 1104.64 521.418 1078.87C531.441 1065.98 547.191 1060.82 562.082 1052.23Z" fill="#EC92AD"/>
<path d="M407.442 1066.27C486.194 1071.13 421.188 1213.46 365.346 1194.56C292.895 1169.93 373.364 1082.59 407.442 1066.27Z" fill="#EC92AD"/>
<path d="M656.011 1106.93C689.516 1129.84 715.575 1222.05 691.807 1266.44C675.484 1270.16 603.319 1289.92 588.714 1271.02C588.714 1268.92 588.714 1266.82 588.714 1264.72C644.842 1243.53 657.729 1182.25 656.011 1106.93Z" fill="#EC92AD"/>
<path d="M491.921 1117.81C489.057 1157.33 478.748 1214.6 474.739 1239.8C471.302 1260.13 481.039 1286.77 473.021 1300.8C463.284 1306.91 453.452 1313.11 443.525 1319.41C407.442 1314.54 398.565 1267.01 398.278 1227.2C424.911 1215.46 484.762 1149.88 491.921 1117.81Z" fill="#EC92AD"/>
<path d="M201.256 1280.47C223.307 1279.9 256.812 1294.79 265.403 1308.53C187.224 1307.96 170.901 1389.29 159.16 1456.87C157.633 1456.3 156.105 1455.82 154.578 1455.44C106.755 1371.25 146.846 1330.87 201.256 1280.47Z" fill="#EC92AD"/>
<path d="M398.279 1311.69C410.307 1315.41 418.612 1316.56 429.78 1324.57C434.076 1327.72 432.644 1330.59 428.062 1335.74C406.584 1354.07 376.229 1365.81 351.315 1363.23C336.71 1361.8 315.805 1360.66 306.355 1366.96C304.064 1368.1 304.35 1370.11 304.637 1371.82C312.082 1413.06 373.938 1518.16 357.329 1551.38C352.461 1551.66 351.029 1551.66 346.447 1551.66C326.401 1522.17 257.672 1407.62 292.037 1352.35C309.505 1324 371.934 1331.73 398.279 1311.69Z" fill="#EC92AD"/>
</g>
<path d="M1717.5 672V497H1775.75C1789.08 497 1800 499.417 1808.5 504.25C1817 509.083 1823.25 515.5 1827.25 523.5C1831.25 531.5 1833.25 540.333 1833.25 550C1833.25 559.667 1831.25 568.5 1827.25 576.5C1823.25 584.5 1817 590.917 1808.5 595.75C1800 600.583 1789.08 603 1775.75 603H1738.5V672H1717.5ZM1738.5 583.75H1775.25C1787.58 583.75 1796.75 580.667 1802.75 574.5C1808.75 568.167 1811.75 560 1811.75 550C1811.75 540 1808.75 531.833 1802.75 525.5C1796.75 519.167 1787.58 516 1775.25 516H1738.5V583.75ZM1852.4 672V654H1884.15V572.25C1884.15 568.083 1882.15 566 1878.15 566H1855.65V548H1885.9C1891.4 548 1895.82 549.5 1899.15 552.5C1902.49 555.5 1904.15 559.917 1904.15 565.75V571H1905.15C1907.15 562.667 1910.9 556.25 1916.4 551.75C1922.07 547.25 1929.9 545 1939.9 545H1962.65V567.25H1936.9C1926.74 567.25 1918.9 570.667 1913.4 577.5C1907.9 584.167 1905.15 592.75 1905.15 603.25V654H1944.15V672H1852.4ZM2038.8 675C2027.14 675 2016.8 672.333 2007.8 667C1998.8 661.667 1991.72 654.167 1986.55 644.5C1981.39 634.667 1978.8 623.167 1978.8 610C1978.8 596.833 1981.39 585.417 1986.55 575.75C1991.72 565.917 1998.8 558.333 2007.8 553C2016.8 547.667 2027.14 545 2038.8 545C2050.47 545 2060.8 547.667 2069.8 553C2078.8 558.333 2085.89 565.917 2091.05 575.75C2096.22 585.417 2098.8 596.833 2098.8 610C2098.8 623.167 2096.22 634.667 2091.05 644.5C2085.89 654.167 2078.8 661.667 2069.8 667C2060.8 672.333 2050.47 675 2038.8 675ZM2038.8 655C2045.97 655 2052.47 653.417 2058.3 650.25C2064.14 647.083 2068.72 642.167 2072.05 635.5C2075.55 628.833 2077.3 620.333 2077.3 610C2077.3 599.667 2075.55 591.167 2072.05 584.5C2068.72 577.833 2064.14 572.917 2058.3 569.75C2052.47 566.583 2045.97 565 2038.8 565C2031.8 565 2025.39 566.583 2019.55 569.75C2013.72 572.917 2009.05 577.833 2005.55 584.5C2002.05 591.167 2000.3 599.667 2000.3 610C2000.3 625.5 2004.05 636.917 2011.55 644.25C2019.05 651.417 2028.14 655 2038.8 655ZM2176.21 526C2171.37 526 2167.21 524.333 2163.71 521C2160.37 517.667 2158.71 513.667 2158.71 509C2158.71 504.167 2160.37 500.167 2163.71 497C2167.21 493.667 2171.37 492 2176.21 492C2181.21 492 2185.37 493.667 2188.71 497C2192.04 500.167 2193.71 504.167 2193.71 509C2193.71 513.667 2192.04 517.667 2188.71 521C2185.37 524.333 2181.21 526 2176.21 526ZM2111.46 727V709H2160.96C2165.12 709 2167.21 706.833 2167.21 702.5V572.25C2167.21 568.083 2165.12 566 2160.96 566H2130.96V548H2165.96C2180.79 548 2188.21 555.417 2188.21 570.25V704.75C2188.21 719.583 2180.79 727 2165.96 727H2111.46ZM2304.86 675C2293.19 675 2282.86 672.333 2273.86 667C2265.03 661.5 2258.03 653.917 2252.86 644.25C2247.69 634.417 2245.11 623 2245.11 610C2245.11 597 2247.61 585.667 2252.61 576C2257.78 566.167 2264.86 558.583 2273.86 553.25C2282.86 547.75 2293.36 545 2305.36 545C2317.36 545 2327.61 547.75 2336.11 553.25C2344.61 558.583 2351.11 565.667 2355.61 574.5C2360.11 583.333 2362.36 592.833 2362.36 603C2362.36 604.833 2362.28 606.667 2362.11 608.5C2362.11 610.333 2362.11 612.417 2362.11 614.75H2265.86C2266.36 623.917 2268.44 631.583 2272.11 637.75C2275.94 643.75 2280.69 648.25 2286.36 651.25C2292.19 654.25 2298.36 655.75 2304.86 655.75C2314.03 655.75 2321.19 653.833 2326.36 650C2331.53 646.167 2335.44 640.833 2338.11 634H2358.86C2356.03 645.5 2350.11 655.25 2341.11 663.25C2332.11 671.083 2320.03 675 2304.86 675ZM2304.86 563.75C2295.19 563.75 2286.69 566.667 2279.36 572.5C2272.19 578.333 2267.78 586.5 2266.11 597H2341.61C2340.94 586.667 2337.19 578.583 2330.36 572.75C2323.69 566.75 2315.19 563.75 2304.86 563.75ZM2438.01 675C2426.85 675 2416.85 672.417 2408.01 667.25C2399.35 662.083 2392.43 654.667 2387.26 645C2382.1 635.167 2379.51 623.5 2379.51 610C2379.51 596.5 2382.1 584.917 2387.26 575.25C2392.43 565.417 2399.43 557.917 2408.26 552.75C2417.26 547.583 2427.18 545 2438.01 545C2453.35 545 2465.6 548.833 2474.76 556.5C2483.93 564.167 2489.76 574.417 2492.26 587.25H2470.76C2468.76 580.417 2464.93 575 2459.26 571C2453.6 566.833 2446.43 564.75 2437.76 564.75C2431.43 564.75 2425.43 566.417 2419.76 569.75C2414.1 573.083 2409.51 578.083 2406.01 584.75C2402.51 591.417 2400.76 599.833 2400.76 610C2400.76 620.167 2402.51 628.667 2406.01 635.5C2409.51 642.167 2414.1 647.167 2419.76 650.5C2425.43 653.833 2431.43 655.5 2437.76 655.5C2446.93 655.5 2454.18 653.417 2459.51 649.25C2465.01 645.083 2468.76 639.583 2470.76 632.75H2492.26C2489.1 645.917 2482.85 656.25 2473.51 663.75C2464.35 671.25 2452.51 675 2438.01 675ZM2581.41 672C2570.08 672 2561.16 669.25 2554.66 663.75C2548.16 658.25 2544.91 648.333 2544.91 634V566H2513.41V548H2532.16C2540.66 548 2545.58 543.833 2546.91 535.5L2550.41 516.25H2565.91V548H2615.41V566H2565.91V634C2565.91 641 2567.5 645.917 2570.66 648.75C2574 651.583 2579.66 653 2587.66 653H2615.41V672H2581.41Z" fill="#8F8992"/>
<defs>
<linearGradient id="paint0_linear_717_668" x1="36.3569" y1="2416.53" x2="36.3569" y2="806.414" gradientUnits="userSpaceOnUse">
<stop stop-color="#F3E2E7"/>
<stop offset="1" stop-color="#F3E2E7"/>
</linearGradient>
<linearGradient id="paint1_linear_717_668" x1="36.3569" y1="2416.53" x2="36.3569" y2="806.414" gradientUnits="userSpaceOnUse">
<stop stop-color="#F3E2E7"/>
<stop offset="1" stop-color="#F3E2E7"/>
</linearGradient>
<clipPath id="clip0_717_668">
<rect width="1500" height="1500" rx="375" fill="white"/>
</clipPath>
</defs>
</svg>
