<svg width="9351" height="1500" viewBox="0 0 9351 1500" fill="none" xmlns="http://www.w3.org/2000/svg">
<g clip-path="url(#clip0_721_641)">
<path d="M443.5 954.5L670 698L1081 928L986.5 1135.5L670 1105.5L443.5 954.5Z" fill="white"/>
<path d="M986.5 728L1035.5 603.5L1122.5 630L1167.5 845L986.5 728Z" fill="white"/>
<path fill-rule="evenodd" clip-rule="evenodd" d="M1540.03 1958.88C1518.27 1990.95 1454.98 2031.91 1419.76 2052.52C1403.15 2062.26 1385.11 2059.4 1360.48 2063.41C1254.24 2080.59 1148.57 2057.97 1062.08 2032.19C1041.18 2025.89 989.344 1986.37 967.008 1994.68C934.934 2009 939.516 2047.66 923.193 2077.44C912.311 2100.35 883.674 2183.68 874.797 2202.3C852.174 2249.83 823.823 2298.8 796.618 2342.9C775.713 2376.98 722.162 2440.55 662.311 2407.05C634.247 2391.3 635.679 2369.53 631.383 2346.91C631.097 2346.05 631.097 2333.74 630.238 2333.74C627.088 2333.74 627.088 2333.74 623.365 2333.74C616.11 2342.52 608.76 2351.3 601.315 2360.08C559.791 2398.17 497.363 2389.01 482.758 2332.02C473.021 2294.51 491.062 2256.71 501.372 2232.08C520.654 2172.7 539.936 2113.33 559.218 2053.96C569.528 2004.7 546.045 1964.61 532.586 1932.25C507.385 1870.39 500.226 1796.8 474.739 1733.8C464.144 1707.16 443.811 1693.42 435.793 1674.52C426.343 1651.89 405.438 1559.11 388.829 1551.09C335.564 1527.04 321.246 1607.22 290.604 1618.1C228.176 1640.44 200.971 1552.52 196.961 1507.28C145.129 1490.1 106.183 1412.2 131.097 1340.32C153.147 1277.61 199.539 1232.36 287.454 1234.08C295.186 1224.35 307.214 1219.48 315.518 1210.6L332.7 1141.87C341.673 1125.26 350.551 1108.56 359.333 1091.76C371.647 1073.72 393.983 1050.81 412.311 1038.78C422.811 1033.62 433.216 1028.37 443.525 1023.03C437.798 1021.69 432.643 1020.07 428.061 1018.16C398.852 1005.27 393.983 980.359 373.365 956.017C371.36 961.172 348.451 999.545 335.85 1010.71C331.65 1008.04 327.45 1005.37 323.25 1002.7C315.805 990.954 315.518 909.053 309.218 884.139C259.104 683.108 276.572 507.563 421.761 407.621C433.216 399.889 441.234 376.407 445.243 370.106C472.735 350.824 500.322 331.542 528.004 312.26C557.786 297.655 598.737 295.364 641.979 289.064C658.588 288.491 675.293 287.918 692.093 287.346C818.955 286.2 964.717 357.22 1037.17 415.353C1053.78 436.735 1070.48 458.117 1087.28 479.499C1121.36 525.032 1159.45 565.983 1190.38 615.525C1219.59 662.489 1281.73 738.377 1280.87 801.378C1249.56 767.396 1218.34 733.509 1187.23 699.717C1195.82 736.086 1215.29 743.531 1229.32 769.305C1233.62 777.323 1239.34 786.773 1245.07 791.928C1252.52 796.701 1260.06 801.569 1267.7 806.533C1285.64 817.797 1303.59 829.06 1321.53 840.324C1379.38 882.993 1437.23 942.844 1477.6 1002.7C1548.05 1107.22 1598.74 1224.35 1630.81 1368.39C1677.78 1579.44 1628.23 1830.3 1540.03 1958.88ZM1048.05 716.899C1071.82 724.345 1106.18 762.146 1133.96 754.414C1133.96 754.414 1103.89 725.204 1090.43 710.599C1080.41 697.14 1079.55 686.258 1067.24 666.212L1059.79 657.048C1055.5 674.803 1040.6 702.294 1048.05 716.899ZM1005.95 984.081C1005.09 982.65 995.358 998.4 994.786 997.541C987.34 987.518 983.044 988.091 971.303 979.786C961.853 968.331 957.558 943.99 948.107 932.535C926.916 935.399 896.275 1010.14 879.379 1027.9C878.424 1027.32 877.374 1026.75 876.229 1026.18C863.056 978.641 766.549 821.138 732.471 801.378C706.507 796.605 680.543 791.928 654.579 787.346C629.665 814.551 618.21 854.643 592.151 880.989C565.518 907.621 530.009 925.09 504.522 952.867V965.181C513.399 978.354 527.718 981.218 542.036 988.663C561.891 998.018 581.651 1007.37 601.315 1016.73C607.328 1018.16 613.628 1018.45 619.642 1017.87C630.524 1017.01 641.12 1014.15 648.279 1012.15C680.066 1003.27 717.58 1011.57 746.79 1018.45C767.122 1023.31 778.577 1037.35 793.468 1046.51C821.532 1063.98 850.742 1069.71 876.229 1088.61C879.474 1092.81 882.624 1097.01 885.679 1101.21C913.743 1112.09 1004.52 1012.43 1005.95 984.081Z" fill="#ED86A8"/>
<path d="M534.877 418.215L635.965 159.91C635.965 159.91 712.712 199.715 801.773 395.305L534.877 418.215Z" fill="#E082A0"/>
<path d="M197.82 483.515C197.82 483.515 265.117 459.174 335.277 475.497C405.724 491.82 279.722 635.863 279.722 635.863C279.722 635.863 184.934 508.143 197.82 483.515Z" fill="#E082A0"/>
<path d="M531.154 378.412C531.154 378.412 528.863 423.086 540.89 424.231L636.251 160.199C636.251 159.913 635.965 159.913 635.965 160.199C513.685 382.708 535.736 351.494 531.154 378.412Z" fill="#FFC2D4"/>
<path d="M789.745 380.419C774.854 371.255 756.813 319.422 755.667 315.413C746.503 282.194 724.453 255.848 678.92 206.593C655.724 181.392 635.106 161.06 635.965 159.915C636.824 159.055 655.438 173.947 666.034 182.824C690.948 203.443 713.857 226.066 742.208 261.575C794.327 326.295 806.354 373.832 816.377 389.296C816.664 389.869 818.096 392.16 817.236 393.019C816.091 394.451 809.505 391.014 801.773 387.005C796.332 384.141 791.177 381.278 789.745 380.419Z" fill="#FFC2D4"/>
<path d="M566.95 414.497C564.373 412.779 576.973 386.719 596.446 356.937C612.483 332.309 614.201 334.313 629.092 309.972C637.397 296.799 644.843 283.626 646.561 284.485C647.706 284.772 646.274 289.067 645.129 295.081C639.115 324.29 646.847 338.895 643.983 359.8C643.983 360.946 643.411 364.382 644.556 364.668C645.702 365.241 648.852 359.8 652.002 355.218C655.152 350.923 660.306 346.341 670.329 337.463C690.089 319.709 692.093 320.281 692.953 320.854C694.671 322 692.666 325.722 692.953 339.468C692.953 340.614 692.953 351.209 697.534 359.8C698.107 360.659 698.966 362.091 700.398 362.95C702.403 364.096 705.266 364.382 712.139 361.232C722.448 356.364 723.88 351.496 727.317 352.355C730.181 353.214 729.608 356.937 734.762 366.387C738.485 373.546 751.085 375.551 749.94 377.841C748.508 380.705 731.612 381.564 729.894 381.851C670.329 391.587 601.887 408.769 582.987 410.488C581.555 410.774 577.832 411.06 573.25 412.492C568.668 413.924 567.523 415.069 566.95 414.497Z" fill="#FFC2D4"/>
<path d="M280.581 628.707C283.158 630.998 281.44 639.589 278.576 640.448C276.572 641.021 272.849 638.73 260.821 618.684C248.221 597.779 242.78 590.906 231.039 568.856C220.443 548.237 214.43 534.205 210.707 529.051C210.707 529.051 200.684 512.441 195.243 494.686C194.384 491.823 194.098 488.672 194.098 488.672C194.098 486.382 193.811 483.804 194.384 482.945C196.388 480.368 233.616 498.695 267.981 522.75C277.431 529.623 298.909 545.374 305.495 546.519C305.781 546.805 306.641 546.805 307.213 547.665C309.504 550.528 300.34 556.828 297.19 566.279C289.745 586.897 289.745 605.225 287.167 610.379C283.731 616.966 281.44 621.261 280.581 621.261C279.722 621.261 279.435 606.656 279.435 606.656C279.435 606.656 268.84 608.947 267.408 606.943C263.971 601.502 285.736 584.892 282.586 579.451C280.295 575.442 265.976 580.883 264.831 578.02C263.112 574.583 281.726 568.283 281.726 559.119C281.726 546.519 245.644 540.792 227.316 521.319C226.743 520.459 225.598 519.314 224.739 519.6C221.303 521.319 244.785 573.724 255.667 595.488C267.408 618.398 269.126 614.961 273.994 622.693C274.567 623.552 275.713 625.557 278.004 627.275C279.435 628.134 280.008 628.134 280.581 628.707Z" fill="#FFC2D4"/>
<path d="M1540.03 1958.88C1518.27 1990.95 1454.98 2031.9 1419.76 2052.52C1403.15 2062.26 1385.11 2059.4 1360.48 2063.4C1254.24 2080.59 1148.57 2057.96 1062.08 2032.19C1041.18 2025.89 989.344 1986.37 967.008 1994.68C934.934 2008.99 939.516 2047.65 923.193 2077.44C912.311 2100.35 883.674 2183.68 874.797 2202.29C852.174 2249.83 823.823 2298.8 796.618 2342.9C775.713 2376.98 722.162 2440.55 662.311 2407.05C634.247 2391.3 635.679 2369.53 631.383 2346.91C631.097 2346.05 631.097 2333.74 630.238 2333.74C627.088 2333.74 627.088 2333.74 623.365 2333.74C616.11 2342.52 608.76 2351.3 601.315 2360.08C559.791 2398.17 497.363 2389.01 482.758 2332.02C473.021 2294.5 491.062 2256.7 501.372 2232.08C520.654 2172.7 539.936 2113.33 559.218 2053.95C569.528 2004.7 546.045 1964.61 532.586 1932.25C507.385 1870.39 500.226 1796.8 474.739 1733.79C464.144 1707.16 443.811 1693.42 435.793 1674.52C426.343 1651.89 405.438 1559.11 388.829 1551.09C335.564 1527.04 321.246 1607.22 290.604 1618.1C228.176 1640.44 200.971 1552.52 196.961 1507.28C145.129 1490.09 106.183 1412.2 131.097 1340.32C153.147 1277.61 199.539 1232.36 287.454 1234.08C295.186 1224.34 307.214 1219.48 315.518 1210.6L332.7 1141.87C341.673 1125.26 350.551 1108.56 359.333 1091.75C371.647 1073.71 393.983 1050.8 412.311 1038.78C422.811 1033.62 433.216 1028.37 443.525 1023.03C437.798 1021.69 432.643 1020.07 428.061 1018.16C438.943 1015.01 448.68 1014.15 456.698 1014.15C497.076 1013.86 513.399 1036.77 557.786 1035.34C577.832 1034.48 577.832 1029.61 619.642 1017.87C682.643 1000.12 714.144 991.239 746.217 998.971C783.445 1007.85 777.431 1027.04 841.865 1056.25C875.656 1071.42 899.711 1082.02 925.484 1073.14C950.685 1064.26 968.726 1040.21 975.599 1031.04C985.908 1017.01 991.349 1004.7 993.067 1000.98C993.067 1000.98 996.217 994.103 1003.66 980.644C1015.4 959.739 1037.45 923.943 1074.68 874.401C1114.2 822.568 1204.41 809.109 1267.7 806.531C1285.64 817.795 1303.59 829.059 1321.53 840.323C1379.38 882.992 1437.23 942.843 1477.6 1002.69C1548.05 1107.22 1598.74 1224.34 1630.81 1368.39C1677.78 1579.44 1628.23 1830.3 1540.03 1958.88Z" fill="url(#paint0_linear_721_641)"/>
<path d="M402.861 438.547C404.579 468.616 379.665 549.944 374.797 567.986C373.651 568.272 372.219 568.558 370.501 568.845C366.778 569.131 363.056 568.272 359.906 565.981L359.333 565.695C352.746 518.157 378.52 470.334 402.861 438.547Z" fill="#FFC2D4"/>
<path d="M339.574 488.086C332.987 507.559 322.392 530.469 315.805 549.942C315.423 550.514 315.232 551.183 315.232 551.946C304.064 604.638 301.2 731.213 312.369 785.337C325.351 839.938 338.333 894.539 351.315 949.14C358.761 990.664 306.355 1080.3 284.018 1085.17C284.591 1084.31 287.455 1071.42 290.032 1060.82C291.368 1054.91 292.227 1048.99 292.609 1043.07C295.091 1005.46 297.478 967.849 299.769 930.24C300.914 915.921 299.482 901.603 296.046 887.571C287.836 854.543 279.723 821.515 271.704 788.487C257.672 716.036 278.864 597.479 299.769 546.219C308.073 525.887 338.715 488.086 339.574 488.086Z" fill="#FFC2D4"/>
<path d="M576.114 529.043C626.228 550.521 648.565 618.104 679.207 660.2C716.148 710.887 757.385 762.434 788.6 817.989C792.895 830.589 828.119 899.318 841.864 921.082C875.083 977.783 907.443 1088.89 907.443 1174.23C906.297 1173.66 816.377 968.047 815.232 968.047C820.386 1070.57 800.054 1107.22 800.054 1106.08C784.59 1036.49 782.013 973.774 760.535 921.082C705.266 785.63 650.57 646.741 576.114 529.043Z" fill="#FFC2D4"/>
<path d="M365.346 604.062C379.665 618.667 383.674 682.241 390.261 707.155C400.761 742.092 411.165 776.934 421.475 811.68C441.807 858.358 476.744 885.85 474.739 945.987C473.212 945.987 471.589 945.987 469.871 945.987C386.824 913.914 351.314 728.06 365.346 604.062Z" fill="#FFC2D4"/>
<path d="M1042.9 808.249C1042.32 854.927 992.495 949.429 971.876 983.793C968.44 984.366 934.362 971.765 931.212 960.311C928.348 949.142 987.054 802.235 994.786 795.648C1009.1 800.517 1025.71 807.103 1042.9 808.249Z" fill="#FFC2D4"/>
<path d="M1320.39 1447.71C1244.21 1448.28 1146.85 1396.45 1093.01 1365.23C1091.01 1364.09 1089.86 1361.51 1090.72 1359.22C1091.29 1356.93 1092.15 1354.64 1092.72 1352.63C1093.58 1350.34 1095.59 1349.2 1097.88 1349.2C1132.82 1350.63 1145.42 1371.25 1169.18 1381.84C1208.42 1399.6 1265.12 1417.64 1316.95 1419.36C1319.81 1419.36 1322.39 1417.07 1322.39 1413.92C1322.96 1338.32 1314.66 1270.73 1293.75 1219.47C1293.56 1219.28 1293.47 1219.09 1293.47 1218.9C1292.04 1212.6 1288.31 1206.59 1286.6 1200.29C1286.6 1199.71 1286.02 1198.85 1285.45 1198.28C1281.44 1193.99 1274.57 1194.27 1270.85 1188.26C1267.12 1182.24 1294.04 1155.33 1297.76 1137.57C1311.51 1071.42 1246.22 968.899 1208.42 935.394C1203.83 936.826 1202.69 937.399 1198.11 938.831C1195.24 956.299 1185.51 962.027 1177.2 974.341C1144.84 1020.73 1128.23 1072.28 1049.77 1072.57C1047.76 1072.57 1046.33 1074.57 1044.9 1076.29C1022.28 1106.64 994.785 1132.99 973.88 1153.89C920.616 1207.44 839.001 1343.47 764.831 1361.51C712.712 1374.4 647.993 1358.07 584.992 1367.81C551.773 1372.97 421.188 1389.29 392.552 1383.56C389.974 1382.99 388.256 1380.41 388.542 1377.83C388.829 1372.97 386.824 1369.53 392.552 1366.67C416.32 1360.94 437.511 1370.68 458.416 1366.38C489.153 1359.51 519.89 1352.73 550.627 1346.05C550.627 1346.05 550.723 1346.05 550.914 1346.05C633.101 1332.3 708.13 1339.17 783.731 1324.86C785.45 1324.57 793.468 1316.55 794.614 1315.12C818.669 1291.92 830.696 1278.46 847.305 1261C871.074 1236.08 896.275 1212.03 917.752 1185.11C946.676 1149.31 968.153 1128.69 1016.55 1075.14C1019.7 1071.71 1021.42 1069.99 1021.13 1067.98C1021.13 1066.27 1021.13 1063.97 1017.69 1062.26C982.472 1044.21 1000.51 990.95 1011.39 960.308C1025.71 920.217 1117.92 849.197 1181.78 863.229C1267.98 882.703 1306.35 937.685 1330.12 1021.02C1335.85 1040.78 1347.02 1070.85 1341.29 1098.91C1341.1 1099.1 1341.01 1099.29 1341.01 1099.48C1336.42 1111.51 1334.42 1128.69 1329.84 1140.43C1329.84 1140.63 1329.84 1140.72 1329.84 1140.72C1323.82 1162.77 1321.25 1178.24 1305.5 1191.69C1303.49 1193.41 1302.92 1196.28 1304.35 1198.28C1335.85 1252.98 1349.31 1322.57 1351.89 1402.18C1353.61 1446.56 1349.88 1510.71 1357.61 1547.94C1357.9 1549.66 1359.33 1551.09 1360.76 1551.66C1426.63 1580.3 1593.87 1723.48 1613.34 1789.92C1613.53 1790.87 1613.53 1791.73 1613.34 1792.5C1608.76 1811.97 1602.17 1830.3 1595.59 1848.05C1595.4 1848.62 1595.01 1849.2 1594.44 1849.77C1549.77 1898.74 1458.99 1955.73 1360.76 1912.49C1304.92 1887.86 1267.41 1854.35 1229.61 1809.68C1203.83 1779.32 1178.63 1744.96 1153.72 1713.17C1112.2 1660.48 1078.98 1602.92 1039.75 1547.36C1022.56 1523.31 1006.53 1495.25 988.199 1471.19C988.199 1471 988.104 1470.81 987.913 1470.62C975.885 1458.21 963.953 1445.8 952.117 1433.39C948.966 1427.66 950.971 1426.23 954.121 1423.37C954.885 1422.79 955.744 1422.41 956.698 1422.22C977.317 1418.79 998.508 1448.85 1008.53 1462.03C1008.53 1462.22 1008.63 1462.31 1008.82 1462.31C1027.43 1481.21 1042.9 1508.13 1060.08 1529.61C1060.27 1529.8 1060.36 1529.9 1060.36 1529.9C1076.4 1554.81 1092.15 1572.57 1108.47 1597.48C1170.62 1685.68 1238.77 1803.67 1330.12 1861.51C1354.46 1876.98 1403.43 1909.05 1445.82 1900.46C1493.07 1891.01 1524.57 1870.1 1557.5 1849.77C1573.25 1839.75 1578.69 1819.13 1569.53 1802.52C1521.13 1716.32 1422.91 1613.8 1332.41 1587.46C1330.12 1586.88 1328.69 1584.88 1328.41 1582.59C1327.45 1539.44 1326.5 1496.2 1325.54 1452.86C1325.54 1450 1323.25 1447.71 1320.39 1447.71Z" fill="#FFC2D4"/>
<path d="M562.082 1052.23C664.889 1048.51 591.005 1225.2 519.986 1200.86C472.162 1184.25 501.945 1104.64 521.418 1078.87C531.441 1065.98 547.191 1060.82 562.082 1052.23Z" fill="#FFC2D4"/>
<path d="M407.443 1066.27C486.194 1071.13 421.188 1213.46 365.346 1194.56C292.895 1169.93 373.365 1082.59 407.443 1066.27Z" fill="#FFC2D4"/>
<path d="M656.011 1106.93C689.516 1129.84 715.576 1222.05 691.807 1266.44C675.484 1270.16 603.319 1289.92 588.714 1271.02C588.714 1268.92 588.714 1266.82 588.714 1264.72C644.842 1243.53 657.729 1182.25 656.011 1106.93Z" fill="#FFC2D4"/>
<path d="M491.921 1117.81C489.058 1157.33 478.748 1214.6 474.739 1239.8C471.303 1260.13 481.039 1286.77 473.021 1300.8C463.284 1306.91 453.452 1313.11 443.525 1319.41C407.442 1314.54 398.565 1267.01 398.279 1227.2C424.911 1215.46 484.762 1149.88 491.921 1117.81Z" fill="#FFC2D4"/>
<path d="M201.256 1280.47C223.307 1279.9 256.812 1294.79 265.403 1308.53C187.224 1307.96 170.901 1389.29 159.16 1456.87C157.633 1456.3 156.106 1455.82 154.578 1455.44C106.755 1371.25 146.846 1330.87 201.256 1280.47Z" fill="#FFC2D4"/>
<path d="M398.279 1311.69C410.307 1315.41 418.611 1316.56 429.78 1324.57C434.075 1327.72 432.644 1330.59 428.062 1335.74C406.584 1354.07 376.229 1365.81 351.315 1363.23C336.71 1361.8 315.805 1360.66 306.355 1366.96C304.064 1368.1 304.35 1370.11 304.637 1371.82C312.082 1413.06 373.938 1518.16 357.329 1551.38C352.46 1551.66 351.028 1551.66 346.446 1551.66C326.401 1522.17 257.672 1407.62 292.036 1352.35C309.505 1324 371.933 1331.73 398.279 1311.69Z" fill="#FFC2D4"/>
</g>
<path d="M2324.22 127.988C2324.22 124.023 2325.66 120.469 2328.53 117.324C2331.53 114.18 2334.88 112.607 2338.58 112.607C2349.38 112.607 2354.84 117.734 2354.98 127.988L2356.42 267.236C2356.55 287.607 2359.36 305.518 2364.83 320.967C2370.29 336.416 2378.91 348.447 2390.67 357.061C2402.56 365.674 2418.08 369.98 2437.22 369.98C2458.41 369.98 2475.36 365.674 2488.08 357.061C2500.79 348.447 2510.02 336.621 2515.76 321.582C2521.51 306.543 2524.38 289.453 2524.38 270.312L2523.97 127.783V127.578C2523.97 123.34 2525.4 119.717 2528.27 116.709C2531.28 113.701 2534.9 112.197 2539.14 112.197C2543.38 112.197 2547 113.701 2550.01 116.709C2553.16 119.717 2554.73 123.34 2554.73 127.578V127.783L2555.14 270.107C2555.14 310.85 2545.43 342.773 2526.02 365.879C2506.74 388.984 2477.41 400.537 2438.04 400.537C2412.88 400.537 2392.03 394.932 2375.49 383.721C2358.95 372.373 2346.57 356.719 2338.37 336.758C2330.17 316.66 2325.93 293.555 2325.66 267.441L2324.22 128.193V127.988ZM2943.95 111.787C2966.37 111.787 2986.33 117.119 3003.83 127.783C3021.33 138.447 3034.05 152.529 3041.98 170.029C3042.93 171.943 3043.41 173.994 3043.41 176.182C3043.41 180.146 3041.98 183.564 3039.11 186.436C3036.23 189.307 3032.82 190.742 3028.85 190.742C3026.25 190.742 3023.59 189.922 3020.85 188.281C3018.26 186.504 3016.41 184.385 3015.32 181.924C3009.71 169.346 3000.48 159.434 2987.63 152.188C2974.92 144.805 2960.36 141.113 2943.95 141.113C2935.2 141.113 2926.11 142.207 2916.67 144.395C2907.38 146.445 2898.7 149.59 2890.63 153.828C2882.7 158.066 2876.27 163.467 2871.35 170.029C2866.43 176.455 2863.97 183.975 2863.97 192.588C2863.97 202.568 2867.25 210.703 2873.81 216.992C2880.38 223.145 2888.72 227.998 2898.83 231.553C2909.09 234.971 2919.75 237.637 2930.82 239.551C2942.04 241.328 2952.22 242.832 2961.38 244.062C2972.32 245.566 2983.19 247.891 2993.99 251.035C3004.93 254.043 3014.84 258.35 3023.73 263.955C3032.61 269.424 3039.72 276.533 3045.05 285.283C3050.52 294.033 3053.26 304.766 3053.26 317.48C3053.26 331.426 3049.91 343.594 3043.21 353.984C3036.51 364.238 3027.69 372.783 3016.75 379.619C3005.95 386.318 2994.13 391.377 2981.27 394.795C2968.56 398.076 2956.12 399.717 2943.95 399.717C2918.66 399.717 2895.89 393.975 2875.66 382.49C2855.42 371.006 2841 355.352 2832.39 335.527C2831.57 333.34 2831.16 331.357 2831.16 329.58C2831.16 325.615 2832.59 322.197 2835.46 319.326C2838.33 316.455 2841.75 315.02 2845.72 315.02C2848.45 315.02 2851.12 315.908 2853.72 317.686C2856.45 319.463 2858.3 321.582 2859.25 324.043C2865.68 338.672 2876.41 350.156 2891.45 358.496C2906.63 366.836 2924.13 371.006 2943.95 371.006C2952.7 371.006 2961.72 369.98 2971.02 367.93C2980.45 365.742 2989.2 362.529 2997.27 358.291C3005.34 353.916 3011.83 348.379 3016.75 341.68C3021.81 334.844 3024.34 326.777 3024.34 317.48C3024.34 306.543 3020.79 298.135 3013.68 292.256C3006.7 286.24 2998.09 281.865 2987.84 279.131C2977.58 276.26 2967.47 274.209 2957.48 272.979C2944.09 271.064 2930.21 268.672 2915.85 265.801C2901.64 262.93 2888.37 258.76 2876.07 253.291C2863.76 247.822 2853.78 240.234 2846.13 230.527C2838.47 220.684 2834.64 207.969 2834.64 192.383C2834.64 179.258 2837.92 167.705 2844.49 157.725C2851.05 147.607 2859.66 139.199 2870.33 132.5C2881.13 125.664 2892.95 120.537 2905.81 117.119C2918.66 113.564 2931.37 111.787 2943.95 111.787ZM3329.48 126.963C3329.48 122.725 3330.98 119.102 3333.99 116.094C3337 113.086 3340.62 111.582 3344.86 111.582L3537.02 111.787H3537.22C3541.46 111.787 3545.09 113.291 3548.09 116.299C3551.1 119.307 3552.61 122.93 3552.61 127.168C3552.61 131.406 3551.1 135.029 3548.09 138.037C3545.09 141.045 3541.46 142.549 3537.22 142.549H3537.02L3360.24 142.344L3360.45 238.73C3360.86 238.73 3361.2 238.73 3361.47 238.73C3361.88 238.594 3362.22 238.525 3362.5 238.525L3520.2 239.551C3524.58 239.551 3528.2 241.055 3531.07 244.062C3534.08 246.934 3535.58 250.898 3535.58 255.957C3535.58 259.785 3534.01 263.135 3530.87 266.006C3527.72 268.877 3524.17 270.312 3520.2 270.312H3520L3362.29 269.287H3360.65L3360.86 364.648L3537.02 364.443H3537.22C3541.46 364.443 3545.09 365.947 3548.09 368.955C3551.1 371.963 3552.61 375.586 3552.61 379.824C3552.61 384.062 3551.1 387.686 3548.09 390.693C3545.09 393.701 3541.46 395.205 3537.22 395.205H3537.02L3345.48 395.41C3341.24 395.41 3337.61 393.906 3334.61 390.898C3331.6 387.891 3330.1 384.268 3330.1 380.029L3329.48 126.963ZM4034.52 385.361C4034.52 389.326 4033.02 392.744 4030.01 395.615C4027.14 398.486 4024.2 399.922 4021.19 399.922C4018.46 399.922 4015.93 399.238 4013.6 397.871C4011.28 396.641 4009.57 395.684 4008.48 395C3996.45 386.387 3985.92 376.338 3976.9 364.854C3968.01 353.369 3960.49 340.996 3954.34 327.734C3948.59 315.156 3942.51 305.244 3936.08 297.998C3929.8 290.615 3922.21 285.352 3913.32 282.207C3904.43 278.926 3893.16 277.217 3879.48 277.08L3855.69 276.875L3855.9 382.08V382.49C3855.9 386.592 3854.33 390.215 3851.18 393.359C3848.17 396.367 3844.62 397.871 3840.52 397.871C3836.28 397.871 3832.66 396.367 3829.65 393.359C3826.64 390.215 3825.14 386.523 3825.14 382.285L3824.52 125.938C3824.52 121.563 3826.03 117.939 3829.03 115.068C3832.04 112.197 3835.6 110.693 3839.7 110.557L3894.25 110.352H3898.97C3922.07 110.352 3942.44 113.359 3960.08 119.375C3977.72 125.391 3991.52 134.688 4001.5 147.266C4011.49 159.707 4016.48 175.703 4016.48 195.254C4016.48 208.926 4013.6 220.957 4007.86 231.348C4002.12 241.602 3994.6 250.215 3985.3 257.188C3976.01 264.16 3965.96 269.355 3955.16 272.773C3961.31 278.926 3967.39 287.812 3973.41 299.434C3981.34 314.609 3989.2 328.281 3996.99 340.449C4004.79 352.617 4015.11 363.35 4027.96 372.646C4032.33 375.791 4034.52 380.029 4034.52 385.361ZM3899.99 141.113H3855.28L3855.69 249.189C3856.38 249.053 3857.27 248.984 3858.36 248.984L3900.4 248.574C3925.56 248.301 3946.13 244.062 3962.13 235.859C3978.13 227.52 3986.12 213.643 3986.12 194.229C3986.12 180.83 3982.23 170.303 3974.43 162.646C3966.64 154.854 3956.18 149.316 3943.06 146.035C3930.07 142.754 3915.71 141.113 3899.99 141.113ZM4647.26 399.307C4643.02 399.307 4639.4 397.803 4636.39 394.795C4633.39 391.787 4631.88 388.164 4631.88 383.926V383.721L4631.68 126.143V125.938C4631.68 121.973 4633.11 118.418 4635.98 115.273C4638.99 112.129 4642.34 110.557 4646.03 110.557C4651.09 110.557 4655.06 112.061 4657.93 115.068C4660.93 117.939 4662.44 121.563 4662.44 125.938V126.143L4662.64 383.721V383.926C4662.64 388.164 4661.14 391.787 4658.13 394.795C4655.12 397.803 4651.5 399.307 4647.26 399.307ZM4938.87 126.143C4938.87 121.768 4940.37 118.145 4943.38 115.273C4946.52 112.266 4950.35 110.762 4954.86 110.762C4959.65 110.762 4963.55 112.812 4966.55 116.914L5130.62 337.578V126.758C5130.62 122.52 5132.12 118.896 5135.13 115.889C5138.14 112.881 5141.76 111.377 5146 111.377C5150.23 111.377 5153.86 112.881 5156.87 115.889C5159.87 118.896 5161.38 122.52 5161.38 126.758V126.963L5161.17 383.721C5161.17 388.096 5159.6 391.787 5156.46 394.795C5153.45 397.666 5149.69 399.102 5145.18 399.102C5140.53 399.102 5136.63 397.051 5133.49 392.949L4969.63 172.49V383.516C4969.63 387.754 4968.13 391.377 4965.12 394.385C4962.11 397.393 4958.49 398.896 4954.25 398.896C4950.01 398.896 4946.39 397.393 4943.38 394.385C4940.37 391.377 4938.87 387.754 4938.87 383.516V126.143ZM5423.25 126.963C5423.25 122.588 5424.75 118.828 5427.76 115.684C5430.9 112.539 5434.59 110.967 5438.83 110.967H5644.11C5648.35 110.967 5651.98 112.402 5654.98 115.273C5657.99 118.008 5659.5 121.494 5659.5 125.732C5659.5 129.971 5657.99 133.73 5654.98 137.012C5651.98 140.156 5648.28 141.729 5643.91 141.729H5556.55V383.105C5556.55 387.344 5554.97 390.967 5551.83 393.975C5548.69 396.982 5544.99 398.486 5540.76 398.486C5536.52 398.486 5532.96 396.982 5530.09 393.975C5527.22 390.967 5525.78 387.344 5525.78 383.105V141.729H5438.63C5434.39 141.729 5430.77 140.361 5427.76 137.627C5424.75 134.756 5423.25 131.201 5423.25 126.963ZM5921.16 126.963C5921.16 122.725 5922.66 119.102 5925.67 116.094C5928.68 113.086 5932.3 111.582 5936.54 111.582L6128.7 111.787H6128.9C6133.14 111.787 6136.76 113.291 6139.77 116.299C6142.78 119.307 6144.28 122.93 6144.28 127.168C6144.28 131.406 6142.78 135.029 6139.77 138.037C6136.76 141.045 6133.14 142.549 6128.9 142.549H6128.7L5951.92 142.344L5952.13 238.73C5952.54 238.73 5952.88 238.73 5953.15 238.73C5953.56 238.594 5953.9 238.525 5954.18 238.525L6111.88 239.551C6116.26 239.551 6119.88 241.055 6122.75 244.062C6125.76 246.934 6127.26 250.898 6127.26 255.957C6127.26 259.785 6125.69 263.135 6122.55 266.006C6119.4 268.877 6115.85 270.312 6111.88 270.312H6111.68L5953.97 269.287H5952.33L5952.54 364.648L6128.7 364.443H6128.9C6133.14 364.443 6136.76 365.947 6139.77 368.955C6142.78 371.963 6144.28 375.586 6144.28 379.824C6144.28 384.062 6142.78 387.686 6139.77 390.693C6136.76 393.701 6133.14 395.205 6128.9 395.205H6128.7L5937.16 395.41C5932.92 395.41 5929.29 393.906 5926.29 390.898C5923.28 387.891 5921.77 384.268 5921.77 380.029L5921.16 126.963ZM6626.2 385.361C6626.2 389.326 6624.7 392.744 6621.69 395.615C6618.82 398.486 6615.88 399.922 6612.87 399.922C6610.14 399.922 6607.61 399.238 6605.28 397.871C6602.96 396.641 6601.25 395.684 6600.16 395C6588.12 386.387 6577.6 376.338 6568.57 364.854C6559.69 353.369 6552.17 340.996 6546.02 327.734C6540.27 315.156 6534.19 305.244 6527.76 297.998C6521.47 290.615 6513.89 285.352 6505 282.207C6496.11 278.926 6484.83 277.217 6471.16 277.08L6447.37 276.875L6447.58 382.08V382.49C6447.58 386.592 6446.01 390.215 6442.86 393.359C6439.85 396.367 6436.3 397.871 6432.2 397.871C6427.96 397.871 6424.34 396.367 6421.33 393.359C6418.32 390.215 6416.82 386.523 6416.82 382.285L6416.2 125.938C6416.2 121.563 6417.71 117.939 6420.71 115.068C6423.72 112.197 6427.28 110.693 6431.38 110.557L6485.93 110.352H6490.64C6513.75 110.352 6534.12 113.359 6551.76 119.375C6569.39 125.391 6583.2 134.688 6593.18 147.266C6603.16 159.707 6608.15 175.703 6608.15 195.254C6608.15 208.926 6605.28 220.957 6599.54 231.348C6593.8 241.602 6586.28 250.215 6576.98 257.188C6567.69 264.16 6557.64 269.355 6546.84 272.773C6552.99 278.926 6559.07 287.812 6565.09 299.434C6573.02 314.609 6580.88 328.281 6588.67 340.449C6596.46 352.617 6606.79 363.35 6619.64 372.646C6624.01 375.791 6626.2 380.029 6626.2 385.361ZM6491.67 141.113H6446.96L6447.37 249.189C6448.06 249.053 6448.95 248.984 6450.04 248.984L6492.08 248.574C6517.24 248.301 6537.81 244.062 6553.81 235.859C6569.8 227.52 6577.8 213.643 6577.8 194.229C6577.8 180.83 6573.91 170.303 6566.11 162.646C6558.32 154.854 6547.86 149.316 6534.74 146.035C6521.75 142.754 6507.39 141.113 6491.67 141.113ZM6894.02 126.553C6894.02 122.314 6895.52 118.691 6898.53 115.684C6901.54 112.676 6905.16 111.172 6909.4 111.172L7076.54 110.967H7076.74C7080.98 110.967 7084.6 112.471 7087.61 115.479C7090.62 118.486 7092.12 122.109 7092.12 126.348C7092.12 130.586 7090.62 134.209 7087.61 137.217C7084.6 140.225 7080.98 141.729 7076.74 141.729H7076.54L6924.78 141.934L6924.98 228.271C6925.67 228.271 6926.21 228.203 6926.62 228.066L7036.96 227.041H7039.21C7042.77 227.041 7045.84 228.682 7048.44 231.963C7051.17 235.244 7052.54 238.32 7052.54 241.191C7052.54 245.84 7051.11 249.805 7048.24 253.086C7045.36 256.23 7041.67 257.803 7037.16 257.803L6927.03 258.828H6925.19L6925.39 381.67V382.08C6925.39 386.318 6923.89 389.941 6920.88 392.949C6917.87 395.957 6914.25 397.461 6910.01 397.461C6905.77 397.461 6902.15 395.957 6899.14 392.949C6896.14 389.941 6894.63 386.318 6894.63 382.08V381.875L6894.02 126.553ZM7353.79 399.717C7350.37 399.717 7347.09 398.213 7343.94 395.205C7340.93 392.197 7339.43 389.053 7339.43 385.771C7339.43 382.49 7339.91 379.893 7340.87 377.979L7453.45 120.605C7454.41 118.555 7456.19 116.504 7458.79 114.453C7461.52 112.402 7464.19 111.377 7466.78 111.377C7474.17 111.377 7479.16 114.453 7481.75 120.605L7594.55 377.568C7595.37 379.346 7595.78 381.328 7595.78 383.516C7595.78 387.344 7594.48 390.967 7591.88 394.385C7589.42 397.666 7586.21 399.307 7582.24 399.307C7574.18 399.307 7568.84 396.162 7566.25 389.873L7525.03 295.742H7411L7368.96 390.283C7366.36 396.572 7361.3 399.717 7353.79 399.717ZM7467.6 165.312L7424.33 264.98H7511.49L7467.6 165.312ZM8101.28 294.717C8104.7 294.717 8107.91 296.221 8110.92 299.229C8114.06 302.236 8115.63 305.381 8115.63 308.662C8115.63 312.08 8115.16 314.746 8114.2 316.66C8107.64 331.426 8098.27 345.098 8086.1 357.676C8074.07 370.254 8059.72 380.371 8043.04 388.027C8026.36 395.684 8007.7 399.512 7987.05 399.512C7966.68 399.512 7948.22 395.752 7931.68 388.232C7915.27 380.713 7901.19 370.322 7889.43 357.061C7877.81 343.662 7868.86 328.213 7862.57 310.713C7856.42 293.076 7853.34 274.141 7853.34 253.906C7853.34 233.945 7856.48 215.352 7862.77 198.125C7869.06 180.762 7878.09 165.586 7889.84 152.598C7901.6 139.473 7915.62 129.219 7931.88 121.836C7948.29 114.453 7966.47 110.762 7986.44 110.762C8006.67 110.762 8025.06 114.316 8041.6 121.426C8058.28 128.535 8072.71 138.037 8084.87 149.932C8097.18 161.826 8106.75 175.02 8113.58 189.512C8114.68 191.699 8115.22 194.023 8115.22 196.484C8115.22 200.449 8113.79 204.004 8110.92 207.148C8108.18 210.156 8105.31 211.66 8102.3 211.66C8094.1 211.66 8088.63 208.652 8085.9 202.637C8077.83 185.547 8065.19 171.123 8047.96 159.365C8030.73 147.471 8010.22 141.523 7986.44 141.523C7965.38 141.523 7947.2 146.582 7931.88 156.699C7916.57 166.816 7904.75 180.42 7896.41 197.51C7888.2 214.463 7884.1 233.467 7884.1 254.521C7884.1 275.576 7888.2 294.785 7896.41 312.148C7904.61 329.375 7916.37 343.115 7931.68 353.369C7947.13 363.486 7965.45 368.545 7986.64 368.545C8002.5 368.545 8016.92 365.605 8029.91 359.727C8043.04 353.711 8054.38 345.781 8063.96 335.938C8073.66 326.094 8081.04 315.498 8086.1 304.15C8088.84 297.861 8093.9 294.717 8101.28 294.717ZM8387.76 126.963C8387.76 122.725 8389.26 119.102 8392.27 116.094C8395.28 113.086 8398.9 111.582 8403.14 111.582L8595.3 111.787H8595.5C8599.74 111.787 8603.36 113.291 8606.37 116.299C8609.38 119.307 8610.88 122.93 8610.88 127.168C8610.88 131.406 8609.38 135.029 8606.37 138.037C8603.36 141.045 8599.74 142.549 8595.5 142.549H8595.3L8418.52 142.344L8418.72 238.73C8419.13 238.73 8419.48 238.73 8419.75 238.73C8420.16 238.594 8420.5 238.525 8420.77 238.525L8578.48 239.551C8582.85 239.551 8586.48 241.055 8589.35 244.062C8592.36 246.934 8593.86 250.898 8593.86 255.957C8593.86 259.785 8592.29 263.135 8589.14 266.006C8586 268.877 8582.44 270.312 8578.48 270.312H8578.27L8420.57 269.287H8418.93L8419.13 364.648L8595.3 364.443H8595.5C8599.74 364.443 8603.36 365.947 8606.37 368.955C8609.38 371.963 8610.88 375.586 8610.88 379.824C8610.88 384.062 8609.38 387.686 8606.37 390.693C8603.36 393.701 8599.74 395.205 8595.5 395.205H8595.3L8403.75 395.41C8399.51 395.41 8395.89 393.906 8392.88 390.898C8389.88 387.891 8388.37 384.268 8388.37 380.029L8387.76 126.963Z" fill="#E3DFE6"/>
<path d="M2144.2 788.7C2142.8 793.367 2141.4 799.2 2140 806.2C2138.6 812.733 2137.67 817.4 2137.2 820.2C2135.33 834.2 2132.77 852.4 2129.5 874.8C2126.23 897.2 2122.5 921.233 2118.3 946.9C2114.57 972.567 2110.6 998.233 2106.4 1023.9C2102.2 1049.1 2098.47 1072.43 2095.2 1093.9C2091.93 1114.9 2089.13 1131.93 2086.8 1145H1983.9C1985.77 1134.27 1988.1 1120.97 1990.9 1105.1C1993.7 1088.77 1996.73 1071.03 2000 1051.9C2003.27 1032.77 2006.3 1013.17 2009.1 993.1C2012.37 973.033 2015.17 953.9 2017.5 935.7C2020.3 917.033 2022.63 900.467 2024.5 886C2026.37 871.533 2027.3 860.1 2027.3 851.7C2016.57 851.7 2002.8 851.7 1986 851.7C1969.2 851.7 1951 851.7 1931.4 851.7C1912.27 851.7 1893.13 851.7 1874 851.7C1854.87 851.7 1837.6 851.7 1822.2 851.7C1806.8 851.7 1794.67 851.7 1785.8 851.7C1771.8 851.7 1758.27 851.933 1745.2 852.4C1732.13 852.867 1719.3 853.567 1706.7 854.5V755.8C1718.37 757.2 1731.43 758.6 1745.9 760C1760.37 760.933 1773.43 761.4 1785.1 761.4C1792.57 761.4 1802.13 761.4 1813.8 761.4C1825.47 761.4 1838.3 761.4 1852.3 761.4C1866.77 761.4 1881.47 761.4 1896.4 761.4C1911.33 761.4 1925.8 761.4 1939.8 761.4C1954.27 761.4 1967.1 761.4 1978.3 761.4C1989.97 761.4 1999.3 761.4 2006.3 761.4C2012.37 761.4 2019.6 760.933 2028 760C2036.87 759.067 2045.27 757.9 2053.2 756.5C2061.13 755.1 2067.2 753.7 2071.4 752.3L2144.2 788.7ZM1629.7 1116.3C1640.9 1117.7 1652.57 1119.1 1664.7 1120.5C1676.83 1121.43 1688.27 1121.9 1699 1121.9H2165.9C2178.5 1121.9 2190.17 1121.2 2200.9 1119.8C2212.1 1118.4 2222.13 1117.23 2231 1116.3V1217.8C2221.2 1216.4 2210 1215.47 2197.4 1215C2184.8 1214.53 2174.3 1214.3 2165.9 1214.3H1699C1688.27 1214.3 1676.83 1214.53 1664.7 1215C1653.03 1215.47 1641.37 1216.4 1629.7 1217.8V1116.3ZM2295.4 918.9C2303.8 919.367 2314.53 920.067 2327.6 921C2340.67 921.467 2354.2 921.933 2368.2 922.4C2382.67 922.867 2395.97 923.1 2408.1 923.1C2419.77 923.1 2434.23 923.1 2451.5 923.1C2468.77 923.1 2487.43 923.1 2507.5 923.1C2528.03 923.1 2549.03 923.1 2570.5 923.1C2592.43 923.1 2614.13 923.1 2635.6 923.1C2657.07 923.1 2677.37 923.1 2696.5 923.1C2715.63 923.1 2732.67 923.1 2747.6 923.1C2763 923.1 2775.13 923.1 2784 923.1C2800.33 923.1 2815.73 922.633 2830.2 921.7C2844.67 920.3 2856.57 919.367 2865.9 918.9V1028.8C2857.97 1028.33 2846.07 1027.63 2830.2 1026.7C2814.33 1025.77 2798.93 1025.3 2784 1025.3C2775.13 1025.3 2763 1025.3 2747.6 1025.3C2732.2 1025.3 2714.93 1025.3 2695.8 1025.3C2676.67 1025.3 2656.37 1025.3 2634.9 1025.3C2613.9 1025.3 2592.43 1025.3 2570.5 1025.3C2548.57 1025.3 2527.33 1025.3 2506.8 1025.3C2486.73 1025.3 2468.07 1025.3 2450.8 1025.3C2434 1025.3 2419.77 1025.3 2408.1 1025.3C2388.03 1025.3 2367.5 1025.77 2346.5 1026.7C2325.5 1027.17 2308.47 1027.87 2295.4 1028.8V918.9ZM3440.23 698.4C3444.89 707.267 3449.33 717.533 3453.53 729.2C3458.19 740.867 3462.63 752.3 3466.83 763.5C3471.03 774.7 3474.53 784.967 3477.33 794.3L3429.03 809.7C3425.76 799.9 3422.03 789.4 3417.83 778.2C3414.09 767 3410.13 755.8 3405.93 744.6C3402.19 733.4 3397.99 723.133 3393.33 713.8L3440.23 698.4ZM3512.33 676C3516.99 685.333 3521.66 695.833 3526.33 707.5C3530.99 718.7 3535.43 729.9 3539.63 741.1C3544.29 752.3 3548.03 762.333 3550.83 771.2L3502.53 786.6C3497.86 771.667 3492.26 755.567 3485.73 738.3C3479.19 721.033 3472.19 705.4 3464.73 691.4L3512.33 676ZM3380.03 944.1C3380.03 987.5 3376.76 1026.93 3370.23 1062.4C3364.16 1097.4 3353.43 1129.37 3338.03 1158.3C3322.63 1186.77 3301.16 1212.67 3273.63 1236C3246.09 1258.87 3211.33 1279.63 3169.33 1298.3L3094.43 1227.6C3128.03 1215.47 3157.19 1202.17 3181.93 1187.7C3206.66 1173.23 3226.73 1155.5 3242.13 1134.5C3257.99 1113.5 3269.66 1088.07 3277.13 1058.2C3285.06 1027.87 3289.03 991 3289.03 947.6V761.4C3289.03 747.4 3288.56 734.8 3287.63 723.6C3286.69 712.4 3285.76 703.3 3284.83 696.3H3384.93C3383.99 703.3 3382.83 712.4 3381.43 723.6C3380.49 734.8 3380.03 747.4 3380.03 761.4V944.1ZM3127.33 702.6C3126.39 709.133 3125.46 718 3124.53 729.2C3123.59 739.933 3123.13 752.3 3123.13 766.3V1016.2C3123.13 1026.47 3123.36 1036.5 3123.83 1046.3C3124.29 1055.63 3124.76 1064.03 3125.23 1071.5C3125.69 1078.97 3125.93 1085.03 3125.93 1089.7H3027.93C3028.86 1085.03 3029.56 1079.2 3030.03 1072.2C3030.49 1064.73 3030.96 1056.1 3031.43 1046.3C3031.89 1036.5 3032.13 1026.47 3032.13 1016.2V765.6C3032.13 755.333 3031.66 745.067 3030.73 734.8C3030.26 724.067 3029.33 713.333 3027.93 702.6H3127.33ZM2897.03 828.6C2901.23 829.533 2907.06 830.467 2914.53 831.4C2921.99 832.333 2930.63 833.267 2940.43 834.2C2950.23 834.667 2960.96 834.9 2972.63 834.9H3431.83C3450.49 834.9 3465.66 834.433 3477.33 833.5C3488.99 832.567 3499.49 831.4 3508.83 830V923.1C3501.36 922.633 3491.33 922.167 3478.73 921.7C3466.13 921.233 3450.73 921 3432.53 921H2972.63C2960.96 921 2950.23 921.233 2940.43 921.7C2931.09 921.7 2922.69 921.933 2915.23 922.4C2908.23 922.867 2902.16 923.333 2897.03 923.8V828.6ZM3583.73 918.9C3592.13 919.367 3602.86 920.067 3615.93 921C3628.99 921.467 3642.53 921.933 3656.53 922.4C3670.99 922.867 3684.29 923.1 3696.43 923.1C3708.09 923.1 3722.56 923.1 3739.83 923.1C3757.09 923.1 3775.76 923.1 3795.83 923.1C3816.36 923.1 3837.36 923.1 3858.83 923.1C3880.76 923.1 3902.46 923.1 3923.93 923.1C3945.39 923.1 3965.69 923.1 3984.83 923.1C4003.96 923.1 4020.99 923.1 4035.93 923.1C4051.33 923.1 4063.46 923.1 4072.33 923.1C4088.66 923.1 4104.06 922.633 4118.53 921.7C4132.99 920.3 4144.89 919.367 4154.23 918.9V1028.8C4146.29 1028.33 4134.39 1027.63 4118.53 1026.7C4102.66 1025.77 4087.26 1025.3 4072.33 1025.3C4063.46 1025.3 4051.33 1025.3 4035.93 1025.3C4020.53 1025.3 4003.26 1025.3 3984.13 1025.3C3964.99 1025.3 3944.69 1025.3 3923.23 1025.3C3902.23 1025.3 3880.76 1025.3 3858.83 1025.3C3836.89 1025.3 3815.66 1025.3 3795.13 1025.3C3775.06 1025.3 3756.39 1025.3 3739.13 1025.3C3722.33 1025.3 3708.09 1025.3 3696.43 1025.3C3676.36 1025.3 3655.83 1025.77 3634.83 1026.7C3613.83 1027.17 3596.79 1027.87 3583.73 1028.8V918.9ZM4213.73 970.7C4276.73 954.367 4333.66 935.467 4384.53 914C4435.86 892.067 4480.89 869.2 4519.63 845.4C4543.89 830.467 4568.16 813.433 4592.43 794.3C4617.16 774.7 4640.26 754.633 4661.73 734.1C4683.66 713.567 4702.09 693.967 4717.03 675.3L4792.63 747.4C4771.16 768.4 4747.59 789.633 4721.93 811.1C4696.73 832.567 4670.36 853.1 4642.83 872.7C4615.29 892.3 4587.99 910.267 4560.93 926.6C4534.33 942 4504.46 957.867 4471.33 974.2C4438.66 990.533 4404.13 1005.93 4367.73 1020.4C4331.33 1034.87 4294.69 1047.7 4257.83 1058.9L4213.73 970.7ZM4504.93 890.2L4604.33 867.1V1182.1C4604.33 1192.37 4604.56 1203.57 4605.03 1215.7C4605.49 1227.83 4606.19 1239.03 4607.13 1249.3C4608.06 1260.03 4609.23 1268.2 4610.63 1273.8H4500.03C4500.96 1268.2 4501.66 1260.03 4502.13 1249.3C4503.06 1239.03 4503.76 1227.83 4504.23 1215.7C4504.69 1203.57 4504.93 1192.37 4504.93 1182.1V890.2ZM4990.03 711C5002.16 719.4 5016.39 729.667 5032.73 741.8C5049.06 753.933 5065.86 767.233 5083.13 781.7C5100.86 795.7 5117.43 809.467 5132.83 823C5148.23 836.533 5160.83 848.667 5170.63 859.4L5099.23 932.2C5090.36 922.4 5078.69 910.733 5064.23 897.2C5049.76 883.667 5034.13 869.667 5017.33 855.2C5000.53 840.733 4983.96 826.967 4967.63 813.9C4951.29 800.833 4936.83 789.867 4924.23 781L4990.03 711ZM4902.53 1177.2C4938.93 1172.07 4973.23 1164.83 5005.43 1155.5C5037.63 1146.17 5067.49 1135.43 5095.03 1123.3C5122.56 1111.17 5147.76 1098.57 5170.63 1085.5C5210.29 1061.7 5246.69 1034.63 5279.83 1004.3C5312.96 973.967 5341.89 942.467 5366.63 909.8C5391.36 876.667 5410.96 844.467 5425.43 813.2L5480.03 911.9C5462.29 943.167 5440.36 974.433 5414.23 1005.7C5388.56 1036.97 5359.39 1066.83 5326.73 1095.3C5294.06 1123.3 5258.83 1148.5 5221.03 1170.9C5197.23 1185.37 5171.56 1199.13 5144.03 1212.2C5116.49 1224.8 5087.33 1236 5056.53 1245.8C5026.19 1256.07 4994.46 1264 4961.33 1269.6L4902.53 1177.2ZM5772.63 915.4C5794.09 927.533 5817.43 942 5842.63 958.8C5868.29 975.133 5894.19 992.167 5920.33 1009.9C5946.46 1027.63 5970.96 1044.9 5993.83 1061.7C6017.16 1078.5 6036.76 1093.43 6052.63 1106.5L5986.13 1185.6C5970.73 1171.6 5951.59 1155.5 5928.73 1137.3C5906.33 1118.63 5882.06 1099.73 5855.93 1080.6C5829.79 1061 5803.89 1042.33 5778.23 1024.6C5753.03 1006.87 5730.39 991.7 5710.33 979.1L5772.63 915.4ZM6101.63 796.4C6097.43 802.933 6093.23 810.633 6089.03 819.5C6084.83 828.367 6081.33 837.233 6078.53 846.1C6071.53 867.567 6061.96 891.6 6049.83 918.2C6038.16 944.333 6024.16 971.167 6007.83 998.7C5991.49 1025.77 5972.83 1052.37 5951.83 1078.5C5918.69 1119.57 5878.79 1158.53 5832.13 1195.4C5785.93 1232.27 5729.23 1263.53 5662.03 1289.2L5580.83 1218.5C5629.83 1203.57 5672.29 1185.83 5708.23 1165.3C5744.16 1144.77 5775.19 1122.83 5801.33 1099.5C5827.93 1076.17 5851.03 1052.83 5870.63 1029.5C5886.49 1011.3 5901.43 991 5915.43 968.6C5929.89 945.733 5942.26 923.1 5952.53 900.7C5963.26 877.833 5970.73 857.533 5974.93 839.8H5738.33L5770.53 760H5969.33C5980.53 760 5991.49 759.3 6002.23 757.9C6013.43 756.5 6022.76 754.633 6030.23 752.3L6101.63 796.4ZM5870.63 688.6C5862.23 700.733 5853.83 713.8 5845.43 727.8C5837.49 741.8 5831.43 752.533 5827.23 760C5811.36 788 5791.29 817.867 5767.03 849.6C5742.76 880.867 5715.46 911.433 5685.13 941.3C5655.26 971.167 5623.53 997.767 5589.93 1021.1L5514.33 963C5555.39 937.333 5590.16 910.5 5618.63 882.5C5647.56 854.033 5671.59 826.733 5690.73 800.6C5709.86 774 5725.26 750.433 5736.93 729.9C5742.53 721.5 5748.36 710.3 5754.43 696.3C5760.96 681.833 5765.86 668.767 5769.13 657.1L5870.63 688.6ZM6187.73 918.9C6196.13 919.367 6206.86 920.067 6219.93 921C6232.99 921.467 6246.53 921.933 6260.53 922.4C6274.99 922.867 6288.29 923.1 6300.43 923.1C6312.09 923.1 6326.56 923.1 6343.83 923.1C6361.09 923.1 6379.76 923.1 6399.83 923.1C6420.36 923.1 6441.36 923.1 6462.83 923.1C6484.76 923.1 6506.46 923.1 6527.93 923.1C6549.39 923.1 6569.69 923.1 6588.83 923.1C6607.96 923.1 6624.99 923.1 6639.93 923.1C6655.33 923.1 6667.46 923.1 6676.33 923.1C6692.66 923.1 6708.06 922.633 6722.53 921.7C6736.99 920.3 6748.89 919.367 6758.23 918.9V1028.8C6750.29 1028.33 6738.39 1027.63 6722.53 1026.7C6706.66 1025.77 6691.26 1025.3 6676.33 1025.3C6667.46 1025.3 6655.33 1025.3 6639.93 1025.3C6624.53 1025.3 6607.26 1025.3 6588.13 1025.3C6568.99 1025.3 6548.69 1025.3 6527.23 1025.3C6506.23 1025.3 6484.76 1025.3 6462.83 1025.3C6440.89 1025.3 6419.66 1025.3 6399.13 1025.3C6379.06 1025.3 6360.39 1025.3 6343.13 1025.3C6326.33 1025.3 6312.09 1025.3 6300.43 1025.3C6280.36 1025.3 6259.83 1025.77 6238.83 1026.7C6217.83 1027.17 6200.79 1027.87 6187.73 1028.8V918.9ZM7354.93 776.8C7351.66 783.333 7348.63 791.267 7345.83 800.6C7343.5 809.467 7341.4 817.867 7339.53 825.8C7335.8 842.6 7330.9 861.733 7324.83 883.2C7318.76 904.667 7311.53 926.833 7303.13 949.7C7294.73 972.567 7284.7 995.2 7273.03 1017.6C7261.83 1040 7249 1061 7234.53 1080.6C7213.53 1108.13 7189.03 1134.27 7161.03 1159C7133.03 1183.27 7101.76 1205.2 7067.23 1224.8C7032.7 1243.93 6994.66 1260.27 6953.13 1273.8L6876.83 1190.5C6923.03 1179.3 6962.93 1165.53 6996.53 1149.2C7030.6 1132.4 7060.23 1113.73 7085.43 1093.2C7110.63 1072.2 7132.56 1049.8 7151.23 1026C7166.63 1006.4 7179.7 985.167 7190.43 962.3C7201.63 939.433 7210.73 916.333 7217.73 893C7225.2 869.667 7230.33 848.2 7233.13 828.6C7226.13 828.6 7214.46 828.6 7198.13 828.6C7182.26 828.6 7163.36 828.6 7141.43 828.6C7119.96 828.6 7097.33 828.6 7073.53 828.6C7050.2 828.6 7027.56 828.6 7005.63 828.6C6983.7 828.6 6963.86 828.6 6946.13 828.6C6928.86 828.6 6915.8 828.6 6906.93 828.6C6891.06 828.6 6875.43 828.833 6860.03 829.3C6845.1 829.767 6832.96 830.467 6823.63 831.4V732.7C6831.1 733.167 6839.73 733.867 6849.53 734.8C6859.33 735.733 6869.6 736.667 6880.33 737.6C6891.06 738.067 6900.16 738.3 6907.63 738.3C6914.63 738.3 6925.13 738.3 6939.13 738.3C6953.13 738.3 6969.23 738.3 6987.43 738.3C7005.63 738.3 7024.53 738.3 7044.13 738.3C7064.2 738.3 7084.03 738.3 7103.63 738.3C7123.23 738.3 7141.66 738.3 7158.93 738.3C7176.2 738.3 7191.13 738.3 7203.73 738.3C7216.8 738.3 7225.9 738.3 7231.03 738.3C7238.03 738.3 7246.66 738.067 7256.93 737.6C7267.2 736.667 7276.76 735.033 7285.63 732.7L7354.93 776.8ZM7521.53 863.6C7529.46 865 7538.8 865.933 7549.53 866.4C7560.26 866.867 7569.36 867.1 7576.83 867.1H7897.43C7905.83 867.1 7914.93 866.867 7924.73 866.4C7934.53 865.933 7943.63 865 7952.03 863.6V951.8C7943.16 950.867 7933.83 950.167 7924.03 949.7C7914.23 949.233 7905.36 949 7897.43 949H7576.83C7569.36 949 7560.26 949.233 7549.53 949.7C7538.8 950.167 7529.46 950.867 7521.53 951.8V863.6ZM7686.03 1222V911.9H7777.73V1222H7686.03ZM7485.83 1170.2C7494.7 1171.13 7504.26 1172.07 7514.53 1173C7524.8 1173.93 7534.36 1174.4 7543.23 1174.4H7930.33C7940.13 1174.4 7949.46 1173.93 7958.33 1173C7967.66 1171.6 7976.06 1170.67 7983.53 1170.2V1261.9C7976.06 1260.5 7966.73 1259.57 7955.53 1259.1C7944.8 1258.63 7936.4 1258.4 7930.33 1258.4H7543.23C7534.83 1258.4 7525.5 1258.63 7515.23 1259.1C7504.96 1259.57 7495.16 1260.5 7485.83 1261.9V1170.2ZM8099.03 918.9C8107.43 919.367 8118.16 920.067 8131.23 921C8144.3 921.467 8157.83 921.933 8171.83 922.4C8186.3 922.867 8199.6 923.1 8211.73 923.1C8223.4 923.1 8237.86 923.1 8255.13 923.1C8272.4 923.1 8291.06 923.1 8311.13 923.1C8331.66 923.1 8352.66 923.1 8374.13 923.1C8396.06 923.1 8417.76 923.1 8439.23 923.1C8460.7 923.1 8481 923.1 8500.13 923.1C8519.26 923.1 8536.3 923.1 8551.23 923.1C8566.63 923.1 8578.76 923.1 8587.63 923.1C8603.96 923.1 8619.36 922.633 8633.83 921.7C8648.3 920.3 8660.2 919.367 8669.53 918.9V1028.8C8661.6 1028.33 8649.7 1027.63 8633.83 1026.7C8617.96 1025.77 8602.56 1025.3 8587.63 1025.3C8578.76 1025.3 8566.63 1025.3 8551.23 1025.3C8535.83 1025.3 8518.56 1025.3 8499.43 1025.3C8480.3 1025.3 8460 1025.3 8438.53 1025.3C8417.53 1025.3 8396.06 1025.3 8374.13 1025.3C8352.2 1025.3 8330.96 1025.3 8310.43 1025.3C8290.36 1025.3 8271.7 1025.3 8254.43 1025.3C8237.63 1025.3 8223.4 1025.3 8211.73 1025.3C8191.66 1025.3 8171.13 1025.77 8150.13 1026.7C8129.13 1027.17 8112.1 1027.87 8099.03 1028.8V918.9ZM9234.57 768.4C9231.77 772.6 9227.57 779.133 9221.97 788C9216.83 796.867 9212.87 805.033 9210.07 812.5C9200.27 834.433 9188.13 858.933 9173.67 886C9159.67 913.067 9143.57 940.367 9125.37 967.9C9107.63 994.967 9088.73 1020.4 9068.67 1044.2C9042.53 1073.6 9013.6 1102.77 8981.87 1131.7C8950.6 1160.17 8917.47 1186.53 8882.47 1210.8C8847.93 1234.6 8812.47 1255.13 8776.07 1272.4L8703.97 1196.8C8741.77 1182.33 8778.4 1164.13 8813.87 1142.2C8849.33 1120.27 8882.23 1096.47 8912.57 1070.8C8942.9 1045.13 8969.03 1020.17 8990.97 995.9C9006.37 978.167 9020.83 959.267 9034.37 939.2C9048.37 919.133 9060.73 899.3 9071.47 879.7C9082.2 859.633 9090.13 841.2 9095.27 824.4C9090.6 824.4 9082.2 824.4 9070.07 824.4C9057.93 824.4 9043.7 824.4 9027.37 824.4C9011.5 824.4 8994.7 824.4 8976.97 824.4C8959.23 824.4 8942.2 824.4 8925.87 824.4C8910 824.4 8896 824.4 8883.87 824.4C8871.73 824.4 8863.1 824.4 8857.97 824.4C8848.17 824.4 8837.9 824.867 8827.17 825.8C8816.43 826.267 8806.17 826.967 8796.37 827.9C8787.03 828.367 8779.8 828.833 8774.67 829.3V729.9C8781.67 730.367 8790.3 731.067 8800.57 732C8810.83 732.933 8821.1 733.633 8831.37 734.1C8842.1 734.567 8850.97 734.8 8857.97 734.8C8864.03 734.8 8873.6 734.8 8886.67 734.8C8899.73 734.8 8914.67 734.8 8931.47 734.8C8948.27 734.8 8965.53 734.8 8983.27 734.8C9001.47 734.8 9018.73 734.8 9035.07 734.8C9051.87 734.8 9066.33 734.8 9078.47 734.8C9090.6 734.8 9099.47 734.8 9105.07 734.8C9120.47 734.8 9134.47 733.867 9147.07 732C9160.13 730.133 9170.17 728.033 9177.17 725.7L9234.57 768.4ZM9077.77 986.1C9095.97 1000.57 9115.33 1017.37 9135.87 1036.5C9156.4 1055.63 9176.7 1075.47 9196.77 1096C9216.83 1116.53 9235.27 1136.37 9252.07 1155.5C9269.33 1174.17 9283.8 1190.5 9295.47 1204.5L9215.67 1273.8C9198.4 1250 9178.57 1225.27 9156.17 1199.6C9134.23 1173.93 9110.9 1148.5 9086.17 1123.3C9061.9 1097.63 9037.17 1073.37 9011.97 1050.5L9077.77 986.1Z" fill="#E3DFE6"/>
<defs>
<linearGradient id="paint0_linear_721_641" x1="36.3572" y1="2416.53" x2="36.3572" y2="806.414" gradientUnits="userSpaceOnUse">
<stop stop-color="#DF658E"/>
<stop offset="1" stop-color="#ED86A8"/>
</linearGradient>
<clipPath id="clip0_721_641">
<rect width="1500" height="1500" rx="375" fill="white"/>
</clipPath>
</defs>
</svg>
