<svg width="11477" height="1500" viewBox="0 0 11477 1500" fill="none" xmlns="http://www.w3.org/2000/svg">
<g clip-path="url(#clip0_721_641)">
<path d="M443.5 954.5L670 698L1081 928L986.5 1135.5L670 1105.5L443.5 954.5Z" fill="white"/>
<path d="M986.5 728L1035.5 603.5L1122.5 630L1167.5 845L986.5 728Z" fill="white"/>
<path fill-rule="evenodd" clip-rule="evenodd" d="M1540.03 1958.88C1518.27 1990.95 1454.98 2031.91 1419.76 2052.52C1403.15 2062.26 1385.11 2059.4 1360.48 2063.41C1254.24 2080.59 1148.57 2057.97 1062.08 2032.19C1041.18 2025.89 989.344 1986.37 967.008 1994.68C934.934 2009 939.516 2047.66 923.193 2077.44C912.311 2100.35 883.674 2183.68 874.797 2202.3C852.174 2249.83 823.823 2298.8 796.618 2342.9C775.713 2376.98 722.162 2440.55 662.311 2407.05C634.247 2391.3 635.679 2369.53 631.383 2346.91C631.097 2346.05 631.097 2333.74 630.238 2333.74C627.088 2333.74 627.088 2333.74 623.365 2333.74C616.11 2342.52 608.76 2351.3 601.315 2360.08C559.791 2398.17 497.363 2389.01 482.758 2332.02C473.021 2294.51 491.062 2256.71 501.372 2232.08C520.654 2172.7 539.936 2113.33 559.218 2053.96C569.528 2004.7 546.045 1964.61 532.586 1932.25C507.386 1870.39 500.226 1796.8 474.739 1733.8C464.144 1707.16 443.811 1693.42 435.793 1674.52C426.343 1651.89 405.438 1559.11 388.829 1551.09C335.564 1527.04 321.246 1607.22 290.604 1618.1C228.176 1640.44 200.971 1552.52 196.961 1507.28C145.129 1490.1 106.183 1412.2 131.097 1340.32C153.147 1277.61 199.539 1232.36 287.454 1234.08C295.186 1224.35 307.214 1219.48 315.518 1210.6L332.7 1141.87C341.673 1125.26 350.551 1108.56 359.333 1091.76C371.647 1073.72 393.983 1050.81 412.311 1038.78C422.811 1033.62 433.216 1028.37 443.525 1023.03C437.798 1021.69 432.643 1020.07 428.061 1018.16C398.852 1005.27 393.983 980.359 373.365 956.017C371.36 961.172 348.451 999.545 335.85 1010.71C331.65 1008.04 327.45 1005.37 323.25 1002.7C315.805 990.954 315.518 909.053 309.218 884.139C259.104 683.108 276.572 507.563 421.761 407.621C433.216 399.889 441.234 376.407 445.243 370.106C472.735 350.824 500.322 331.542 528.004 312.26C557.786 297.655 598.737 295.364 641.979 289.064C658.588 288.491 675.293 287.918 692.093 287.346C818.955 286.2 964.717 357.22 1037.17 415.353C1053.78 436.735 1070.48 458.117 1087.28 479.499C1121.36 525.032 1159.45 565.983 1190.38 615.525C1219.59 662.489 1281.73 738.377 1280.87 801.378C1249.56 767.396 1218.34 733.509 1187.23 699.717C1195.82 736.086 1215.29 743.531 1229.32 769.305C1233.62 777.323 1239.34 786.773 1245.07 791.928C1252.52 796.701 1260.06 801.569 1267.7 806.533C1285.64 817.796 1303.59 829.06 1321.53 840.324C1379.38 882.993 1437.23 942.844 1477.6 1002.7C1548.05 1107.22 1598.74 1224.35 1630.81 1368.39C1677.78 1579.44 1628.23 1830.3 1540.03 1958.88ZM1048.05 716.899C1071.82 724.345 1106.18 762.146 1133.96 754.414C1133.96 754.414 1103.89 725.204 1090.43 710.599C1080.41 697.14 1079.55 686.258 1067.24 666.212L1059.79 657.048C1055.5 674.803 1040.6 702.294 1048.05 716.899ZM1005.95 984.081C1005.09 982.65 995.358 998.4 994.786 997.541C987.34 987.518 983.044 988.091 971.303 979.786C961.853 968.331 957.558 943.99 948.107 932.535C926.916 935.399 896.275 1010.14 879.379 1027.9C878.424 1027.32 877.374 1026.75 876.229 1026.18C863.056 978.64 766.549 821.138 732.472 801.378C706.507 796.605 680.543 791.928 654.579 787.346C629.665 814.551 618.21 854.643 592.151 880.989C565.518 907.621 530.009 925.09 504.522 952.867V965.181C513.399 978.354 527.718 981.218 542.036 988.663C561.891 998.018 581.651 1007.37 601.315 1016.73C607.328 1018.16 613.628 1018.45 619.642 1017.87C630.524 1017.01 641.12 1014.15 648.279 1012.15C680.066 1003.27 717.58 1011.57 746.79 1018.45C767.122 1023.31 778.577 1037.35 793.468 1046.51C821.532 1063.98 850.742 1069.71 876.229 1088.61C879.474 1092.81 882.624 1097.01 885.679 1101.21C913.743 1112.09 1004.52 1012.43 1005.95 984.081Z" fill="#ED86A8"/>
<path d="M534.877 418.215L635.965 159.91C635.965 159.91 712.712 199.715 801.773 395.306L534.877 418.215Z" fill="#E082A0"/>
<path d="M197.82 483.515C197.82 483.515 265.117 459.174 335.277 475.497C405.724 491.82 279.722 635.863 279.722 635.863C279.722 635.863 184.934 508.143 197.82 483.515Z" fill="#E082A0"/>
<path d="M531.154 378.412C531.154 378.412 528.863 423.086 540.89 424.231L636.251 160.199C636.251 159.913 635.965 159.913 635.965 160.199C513.685 382.708 535.736 351.494 531.154 378.412Z" fill="#FFC2D4"/>
<path d="M789.745 380.419C774.854 371.255 756.813 319.422 755.667 315.413C746.503 282.194 724.453 255.848 678.92 206.593C655.724 181.392 635.106 161.06 635.965 159.915C636.824 159.055 655.438 173.947 666.034 182.824C690.948 203.443 713.857 226.066 742.208 261.575C794.327 326.295 806.354 373.832 816.377 389.296C816.664 389.869 818.096 392.16 817.236 393.019C816.091 394.451 809.505 391.014 801.773 387.005C796.332 384.141 791.177 381.278 789.745 380.419Z" fill="#FFC2D4"/>
<path d="M566.95 414.497C564.373 412.779 576.973 386.719 596.446 356.937C612.483 332.309 614.201 334.313 629.092 309.972C637.397 296.799 644.843 283.626 646.561 284.485C647.706 284.772 646.274 289.067 645.129 295.081C639.115 324.29 646.847 338.895 643.983 359.8C643.983 360.946 643.411 364.382 644.556 364.668C645.702 365.241 648.852 359.8 652.002 355.218C655.152 350.923 660.306 346.341 670.329 337.463C690.089 319.709 692.093 320.281 692.953 320.854C694.671 322 692.666 325.722 692.953 339.468C692.953 340.614 692.953 351.209 697.534 359.8C698.107 360.659 698.966 362.091 700.398 362.95C702.403 364.096 705.266 364.382 712.139 361.232C722.448 356.364 723.88 351.496 727.317 352.355C730.181 353.214 729.608 356.937 734.762 366.387C738.485 373.546 751.085 375.551 749.94 377.841C748.508 380.705 731.612 381.564 729.894 381.851C670.329 391.587 601.887 408.769 582.987 410.488C581.555 410.774 577.832 411.06 573.25 412.492C568.668 413.924 567.523 415.069 566.95 414.497Z" fill="#FFC2D4"/>
<path d="M280.581 628.707C283.158 630.998 281.44 639.589 278.576 640.448C276.572 641.021 272.849 638.73 260.821 618.684C248.221 597.779 242.78 590.906 231.039 568.856C220.443 548.237 214.43 534.205 210.707 529.051C210.707 529.051 200.684 512.441 195.243 494.686C194.384 491.823 194.098 488.672 194.098 488.672C194.098 486.382 193.811 483.804 194.384 482.945C196.388 480.368 233.616 498.695 267.981 522.75C277.431 529.623 298.909 545.374 305.495 546.519C305.781 546.805 306.641 546.805 307.213 547.665C309.504 550.528 300.34 556.828 297.19 566.279C289.745 586.897 289.745 605.225 287.167 610.379C283.731 616.966 281.44 621.261 280.581 621.261C279.722 621.261 279.435 606.656 279.435 606.656C279.435 606.656 268.84 608.947 267.408 606.943C263.971 601.502 285.736 584.892 282.586 579.451C280.295 575.442 265.976 580.883 264.831 578.02C263.112 574.583 281.726 568.283 281.726 559.119C281.726 546.519 245.644 540.792 227.316 521.319C226.744 520.459 225.598 519.314 224.739 519.6C221.303 521.319 244.785 573.724 255.667 595.488C267.408 618.398 269.126 614.961 273.994 622.693C274.567 623.552 275.713 625.557 278.004 627.275C279.435 628.134 280.008 628.134 280.581 628.707Z" fill="#FFC2D4"/>
<path d="M1540.03 1958.88C1518.27 1990.95 1454.98 2031.9 1419.76 2052.52C1403.15 2062.26 1385.11 2059.4 1360.48 2063.4C1254.24 2080.59 1148.57 2057.96 1062.08 2032.19C1041.18 2025.89 989.344 1986.37 967.008 1994.68C934.934 2008.99 939.516 2047.65 923.193 2077.44C912.311 2100.35 883.674 2183.68 874.797 2202.29C852.174 2249.83 823.823 2298.8 796.618 2342.9C775.713 2376.98 722.162 2440.55 662.311 2407.05C634.247 2391.3 635.679 2369.53 631.383 2346.91C631.097 2346.05 631.097 2333.74 630.238 2333.74C627.088 2333.74 627.088 2333.74 623.365 2333.74C616.11 2342.52 608.76 2351.3 601.315 2360.08C559.791 2398.17 497.363 2389.01 482.758 2332.02C473.021 2294.5 491.062 2256.7 501.372 2232.08C520.654 2172.7 539.936 2113.33 559.218 2053.95C569.528 2004.7 546.045 1964.61 532.586 1932.25C507.386 1870.39 500.226 1796.8 474.739 1733.79C464.144 1707.16 443.811 1693.42 435.793 1674.52C426.343 1651.89 405.438 1559.11 388.829 1551.09C335.564 1527.04 321.246 1607.22 290.604 1618.1C228.176 1640.44 200.971 1552.52 196.961 1507.28C145.129 1490.09 106.183 1412.2 131.097 1340.32C153.147 1277.61 199.539 1232.36 287.454 1234.08C295.186 1224.34 307.214 1219.48 315.518 1210.6L332.7 1141.87C341.673 1125.26 350.551 1108.56 359.333 1091.75C371.647 1073.71 393.983 1050.8 412.311 1038.78C422.811 1033.62 433.216 1028.37 443.525 1023.03C437.798 1021.69 432.643 1020.07 428.061 1018.16C438.943 1015.01 448.68 1014.15 456.698 1014.15C497.076 1013.86 513.399 1036.77 557.786 1035.34C577.832 1034.48 577.832 1029.61 619.642 1017.87C682.643 1000.12 714.144 991.239 746.217 998.971C783.445 1007.85 777.431 1027.04 841.865 1056.25C875.656 1071.42 899.711 1082.02 925.484 1073.14C950.685 1064.26 968.726 1040.21 975.599 1031.04C985.908 1017.01 991.349 1004.7 993.067 1000.98C993.067 1000.98 996.217 994.103 1003.66 980.644C1015.4 959.739 1037.45 923.943 1074.68 874.401C1114.2 822.568 1204.41 809.109 1267.7 806.531C1285.64 817.795 1303.59 829.059 1321.53 840.323C1379.38 882.992 1437.23 942.843 1477.6 1002.69C1548.05 1107.22 1598.74 1224.34 1630.81 1368.39C1677.78 1579.44 1628.23 1830.3 1540.03 1958.88Z" fill="url(#paint0_linear_721_641)"/>
<path d="M402.861 438.547C404.579 468.616 379.665 549.944 374.797 567.986C373.651 568.272 372.219 568.558 370.501 568.845C366.778 569.131 363.056 568.272 359.906 565.981L359.333 565.695C352.746 518.157 378.52 470.334 402.861 438.547Z" fill="#FFC2D4"/>
<path d="M339.574 488.086C332.987 507.559 322.392 530.469 315.805 549.942C315.423 550.514 315.232 551.183 315.232 551.946C304.064 604.638 301.2 731.213 312.369 785.337C325.351 839.938 338.333 894.539 351.315 949.14C358.761 990.664 306.355 1080.3 284.018 1085.17C284.591 1084.31 287.455 1071.42 290.032 1060.82C291.368 1054.91 292.227 1048.99 292.609 1043.07C295.091 1005.46 297.478 967.849 299.769 930.24C300.914 915.921 299.482 901.603 296.046 887.571C287.836 854.543 279.723 821.515 271.704 788.487C257.672 716.036 278.864 597.479 299.769 546.219C308.073 525.887 338.715 488.086 339.574 488.086Z" fill="#FFC2D4"/>
<path d="M576.114 529.043C626.228 550.521 648.565 618.104 679.207 660.2C716.148 710.887 757.385 762.434 788.6 817.989C792.895 830.589 828.119 899.318 841.864 921.082C875.083 977.783 907.443 1088.89 907.443 1174.23C906.297 1173.66 816.377 968.047 815.232 968.047C820.386 1070.57 800.054 1107.22 800.054 1106.08C784.59 1036.49 782.013 973.774 760.535 921.082C705.266 785.63 650.57 646.741 576.114 529.043Z" fill="#FFC2D4"/>
<path d="M365.346 604.062C379.665 618.667 383.674 682.241 390.261 707.155C400.761 742.092 411.165 776.934 421.475 811.68C441.807 858.358 476.744 885.85 474.739 945.987C473.212 945.987 471.589 945.987 469.871 945.987C386.824 913.914 351.314 728.06 365.346 604.062Z" fill="#FFC2D4"/>
<path d="M1042.9 808.249C1042.32 854.927 992.495 949.429 971.876 983.793C968.44 984.366 934.362 971.765 931.212 960.311C928.348 949.142 987.054 802.235 994.786 795.648C1009.1 800.517 1025.71 807.103 1042.9 808.249Z" fill="#FFC2D4"/>
<path d="M1320.39 1447.71C1244.21 1448.28 1146.85 1396.45 1093.01 1365.23C1091.01 1364.09 1089.86 1361.51 1090.72 1359.22C1091.29 1356.93 1092.15 1354.64 1092.72 1352.63C1093.58 1350.34 1095.59 1349.2 1097.88 1349.2C1132.82 1350.63 1145.42 1371.25 1169.18 1381.84C1208.42 1399.6 1265.12 1417.64 1316.95 1419.36C1319.81 1419.36 1322.39 1417.07 1322.39 1413.92C1322.96 1338.32 1314.66 1270.73 1293.75 1219.47C1293.56 1219.28 1293.47 1219.09 1293.47 1218.9C1292.04 1212.6 1288.31 1206.59 1286.6 1200.29C1286.6 1199.71 1286.02 1198.85 1285.45 1198.28C1281.44 1193.99 1274.57 1194.27 1270.85 1188.26C1267.12 1182.24 1294.04 1155.33 1297.76 1137.57C1311.51 1071.42 1246.22 968.899 1208.42 935.394C1203.83 936.826 1202.69 937.399 1198.11 938.831C1195.24 956.299 1185.51 962.027 1177.2 974.341C1144.84 1020.73 1128.23 1072.28 1049.77 1072.57C1047.76 1072.57 1046.33 1074.57 1044.9 1076.29C1022.28 1106.64 994.785 1132.99 973.881 1153.89C920.616 1207.44 839.001 1343.47 764.831 1361.51C712.712 1374.4 647.993 1358.07 584.991 1367.81C551.773 1372.97 421.188 1389.29 392.552 1383.56C389.974 1382.99 388.256 1380.41 388.542 1377.83C388.829 1372.97 386.824 1369.53 392.552 1366.67C416.32 1360.94 437.511 1370.68 458.416 1366.38C489.153 1359.51 519.89 1352.73 550.627 1346.05C550.627 1346.05 550.723 1346.05 550.914 1346.05C633.101 1332.3 708.13 1339.17 783.731 1324.86C785.45 1324.57 793.468 1316.55 794.614 1315.12C818.669 1291.92 830.696 1278.46 847.305 1261C871.074 1236.08 896.275 1212.03 917.752 1185.11C946.676 1149.31 968.153 1128.69 1016.55 1075.14C1019.7 1071.71 1021.42 1069.99 1021.13 1067.98C1021.13 1066.27 1021.13 1063.97 1017.69 1062.26C982.472 1044.21 1000.51 990.95 1011.39 960.308C1025.71 920.217 1117.92 849.197 1181.78 863.229C1267.98 882.703 1306.35 937.685 1330.12 1021.02C1335.85 1040.78 1347.02 1070.85 1341.29 1098.91C1341.1 1099.1 1341.01 1099.29 1341.01 1099.48C1336.42 1111.51 1334.42 1128.69 1329.84 1140.43C1329.84 1140.63 1329.84 1140.72 1329.84 1140.72C1323.82 1162.77 1321.25 1178.24 1305.5 1191.69C1303.49 1193.41 1302.92 1196.28 1304.35 1198.28C1335.85 1252.98 1349.31 1322.57 1351.89 1402.18C1353.61 1446.56 1349.88 1510.71 1357.61 1547.94C1357.9 1549.66 1359.33 1551.09 1360.76 1551.66C1426.63 1580.3 1593.87 1723.48 1613.34 1789.92C1613.53 1790.87 1613.53 1791.73 1613.34 1792.5C1608.76 1811.97 1602.17 1830.3 1595.59 1848.05C1595.4 1848.63 1595.01 1849.2 1594.44 1849.77C1549.77 1898.74 1458.99 1955.73 1360.76 1912.49C1304.92 1887.86 1267.41 1854.35 1229.61 1809.68C1203.83 1779.32 1178.63 1744.96 1153.72 1713.17C1112.2 1660.48 1078.98 1602.92 1039.75 1547.36C1022.56 1523.31 1006.53 1495.25 988.199 1471.19C988.199 1471 988.104 1470.81 987.913 1470.62C975.885 1458.21 963.953 1445.8 952.117 1433.39C948.966 1427.66 950.971 1426.23 954.121 1423.37C954.885 1422.79 955.744 1422.41 956.698 1422.22C977.317 1418.79 998.508 1448.85 1008.53 1462.03C1008.53 1462.22 1008.63 1462.31 1008.82 1462.31C1027.43 1481.21 1042.9 1508.13 1060.08 1529.61C1060.27 1529.8 1060.36 1529.9 1060.36 1529.9C1076.4 1554.81 1092.15 1572.57 1108.47 1597.48C1170.62 1685.68 1238.77 1803.67 1330.12 1861.51C1354.46 1876.98 1403.43 1909.05 1445.82 1900.46C1493.07 1891.01 1524.57 1870.1 1557.5 1849.77C1573.25 1839.75 1578.69 1819.13 1569.53 1802.52C1521.13 1716.32 1422.91 1613.8 1332.41 1587.46C1330.12 1586.88 1328.69 1584.88 1328.41 1582.59C1327.45 1539.44 1326.5 1496.2 1325.54 1452.86C1325.54 1450 1323.25 1447.71 1320.39 1447.71Z" fill="#FFC2D4"/>
<path d="M562.082 1052.23C664.889 1048.51 591.005 1225.2 519.986 1200.86C472.162 1184.25 501.945 1104.64 521.418 1078.87C531.441 1065.98 547.191 1060.82 562.082 1052.23Z" fill="#FFC2D4"/>
<path d="M407.443 1066.27C486.194 1071.13 421.188 1213.46 365.346 1194.56C292.895 1169.93 373.365 1082.59 407.443 1066.27Z" fill="#FFC2D4"/>
<path d="M656.011 1106.93C689.516 1129.84 715.576 1222.05 691.807 1266.44C675.484 1270.16 603.319 1289.92 588.714 1271.02C588.714 1268.92 588.714 1266.82 588.714 1264.72C644.842 1243.53 657.729 1182.25 656.011 1106.93Z" fill="#FFC2D4"/>
<path d="M491.921 1117.81C489.058 1157.33 478.748 1214.6 474.739 1239.8C471.303 1260.13 481.039 1286.77 473.021 1300.8C463.284 1306.91 453.452 1313.11 443.525 1319.41C407.442 1314.54 398.565 1267.01 398.279 1227.2C424.911 1215.46 484.762 1149.88 491.921 1117.81Z" fill="#FFC2D4"/>
<path d="M201.256 1280.47C223.307 1279.9 256.812 1294.79 265.403 1308.53C187.224 1307.96 170.901 1389.29 159.16 1456.87C157.633 1456.3 156.106 1455.82 154.578 1455.44C106.755 1371.25 146.846 1330.87 201.256 1280.47Z" fill="#FFC2D4"/>
<path d="M398.279 1311.69C410.307 1315.41 418.611 1316.56 429.78 1324.57C434.075 1327.72 432.644 1330.59 428.062 1335.74C406.584 1354.07 376.229 1365.81 351.315 1363.23C336.71 1361.8 315.805 1360.66 306.355 1366.96C304.064 1368.1 304.35 1370.11 304.637 1371.82C312.082 1413.06 373.938 1518.16 357.329 1551.38C352.46 1551.66 351.028 1551.66 346.446 1551.66C326.401 1522.17 257.672 1407.62 292.036 1352.35C309.505 1324 371.933 1331.73 398.279 1311.69Z" fill="#FFC2D4"/>
</g>
<path d="M1753.1 452.107C1748.05 452.107 1743.74 450.317 1740.16 446.736C1736.58 443.156 1734.79 438.842 1734.79 433.797V433.553L1734.3 129.109C1734.3 125.854 1735.92 122.029 1739.18 117.635C1742.43 113.24 1746.83 110.962 1752.36 110.799L1829.27 110.311C1852.54 110.311 1873.38 114.054 1891.77 121.541C1910.16 129.028 1924.73 140.421 1935.47 155.721C1946.21 170.857 1951.58 190.063 1951.58 213.338C1951.58 240.193 1945.97 261.84 1934.74 278.279C1923.51 294.555 1907.88 306.518 1887.86 314.168C1868 321.655 1844.97 325.805 1818.77 326.619L1771.16 327.596L1771.41 433.553V433.797C1771.41 438.842 1769.62 443.156 1766.04 446.736C1762.45 450.317 1758.14 452.107 1753.1 452.107ZM1914.96 213.582C1914.96 189.656 1906.9 172.648 1890.79 162.557C1874.68 152.303 1853.6 147.176 1827.56 147.176H1770.92L1771.16 290.975L1818.04 289.998C1837.57 289.51 1854.58 286.987 1869.06 282.43C1883.55 277.872 1894.78 270.141 1902.75 259.236C1910.89 248.169 1914.96 232.951 1914.96 213.582ZM2114.09 221.639C2114.09 226.033 2112.63 230.102 2109.7 233.846C2106.77 237.589 2103.59 239.461 2100.18 239.461C2095.13 239.461 2090.33 238.322 2085.77 236.043C2081.38 233.602 2076.01 232.381 2069.66 232.381C2053.71 232.381 2041.18 235.799 2032.06 242.635C2022.95 249.471 2016.44 258.26 2012.53 269.002C2008.79 279.581 2006.91 290.812 2006.91 302.693V435.75C2006.91 440.796 2005.37 445.109 2002.28 448.689C1999.35 452.433 1994.79 454.305 1988.6 454.305C1982.58 454.305 1978.02 452.433 1974.93 448.689C1971.84 445.109 1970.29 440.796 1970.29 435.75V219.197C1970.29 213.175 1972.25 208.292 1976.15 204.549C1980.22 200.805 1984.53 198.934 1989.09 198.934C1993.81 198.934 1997.64 200.805 2000.57 204.549C2003.66 208.13 2005.21 213.012 2005.21 219.197L2007.4 246.053C2009.68 238.566 2013.91 231.16 2020.1 223.836C2026.45 216.512 2033.85 210.408 2042.31 205.525C2050.94 200.48 2059.65 197.957 2068.44 197.957C2080.97 197.957 2091.71 199.666 2100.66 203.084C2109.62 206.339 2114.09 212.524 2114.09 221.639ZM2215.81 197.957C2232.9 197.957 2248.85 201.375 2263.66 208.211C2278.47 215.047 2291.41 224.487 2302.48 236.531C2313.71 248.413 2322.42 262.003 2328.6 277.303C2334.95 292.602 2338.12 308.797 2338.12 325.887C2338.12 348.51 2332.75 369.507 2322.01 388.875C2311.27 408.243 2296.7 423.95 2278.31 435.994C2260.08 447.876 2239.57 453.898 2216.79 454.061C2193.68 454.061 2172.84 448.12 2154.29 436.238C2135.73 424.357 2121 408.732 2110.1 389.363C2099.36 369.832 2093.98 348.673 2093.98 325.887C2093.98 308.96 2097.08 292.846 2103.26 277.547C2109.61 262.085 2118.32 248.413 2129.38 236.531C2140.45 224.487 2153.31 215.047 2167.96 208.211C2182.77 201.375 2198.72 197.957 2215.81 197.957ZM2215.81 234.578C2199.86 234.578 2185.46 238.81 2172.6 247.273C2159.74 255.737 2149.49 266.886 2141.84 280.721C2134.35 294.393 2130.61 309.285 2130.61 325.398C2130.61 341.674 2134.35 356.811 2141.84 370.809C2149.32 384.806 2159.58 396.118 2172.6 404.744C2185.62 413.208 2200.27 417.439 2216.54 417.439C2232.66 417.277 2247.06 412.964 2259.76 404.5C2272.61 395.874 2282.79 384.643 2290.27 370.809C2297.76 356.974 2301.5 342 2301.5 325.887C2301.5 309.773 2297.68 294.799 2290.03 280.965C2282.54 266.967 2272.29 255.737 2259.27 247.273C2246.41 238.81 2231.92 234.578 2215.81 234.578ZM2384.18 161.092C2377.18 161.092 2371 158.569 2365.62 153.523C2360.42 148.478 2357.81 142.374 2357.81 135.213C2357.81 128.051 2360.42 121.948 2365.62 116.902C2371 111.857 2377.18 109.334 2384.18 109.334C2391.34 109.334 2397.53 111.857 2402.73 116.902C2407.94 121.948 2410.55 128.051 2410.55 135.213C2410.55 142.374 2407.94 148.478 2402.73 153.523C2397.53 158.569 2391.34 161.092 2384.18 161.092ZM2382.47 198.445C2387.19 198.445 2391.59 199.747 2395.65 202.352C2399.72 204.956 2401.76 208.455 2401.76 212.85L2402.73 440.145C2402.9 471.232 2401.03 495.483 2397.12 512.898C2393.21 530.314 2385.64 542.439 2374.41 549.275C2363.35 556.274 2347.07 559.773 2325.59 559.773C2314.84 559.773 2304.26 557.658 2293.85 553.426C2286.69 550.496 2283.11 544.555 2283.11 535.604C2283.11 532.186 2284.81 528.768 2288.23 525.35C2291.65 522.094 2295.07 520.467 2298.49 520.467C2302.07 520.467 2304.92 520.955 2307.03 521.932C2313.54 524.699 2320.05 526.082 2326.56 526.082C2341.21 526.082 2351.38 522.827 2357.08 516.316C2362.94 509.806 2366.36 499.796 2367.33 486.287C2368.31 472.941 2368.72 456.095 2368.55 435.75L2367.58 212.117C2367.58 209.35 2369.37 206.421 2372.95 203.328C2376.53 200.073 2379.7 198.445 2382.47 198.445ZM2550.84 453.328C2527.24 453.328 2505.84 447.469 2486.63 435.75C2467.59 424.031 2452.45 408.406 2441.22 388.875C2429.99 369.181 2424.38 347.615 2424.38 324.178C2424.38 301.88 2429.66 281.29 2440.24 262.41C2450.99 243.367 2465.47 228.068 2483.7 216.512C2501.93 204.956 2522.28 199.178 2544.74 199.178C2565.41 199.178 2584.37 204.305 2601.62 214.559C2619.04 224.812 2632.95 238.647 2643.37 256.062C2653.95 273.315 2659.24 292.521 2659.24 313.68C2659.24 321.167 2657.85 327.596 2655.09 332.967C2652.48 338.338 2647.6 341.023 2640.44 341.023H2462.71C2465.31 354.533 2470.6 367.065 2478.57 378.621C2486.71 390.014 2496.88 399.21 2509.09 406.209C2521.46 413.208 2535.21 416.707 2550.35 416.707C2563.21 416.707 2575.82 413.859 2588.19 408.162C2600.56 402.465 2610.74 394.653 2618.71 384.725C2622.29 380.005 2627.09 377.645 2633.12 377.645C2638.16 377.645 2642.47 379.435 2646.05 383.016C2649.64 386.596 2651.43 390.91 2651.43 395.955C2651.43 400.35 2649.96 404.337 2647.03 407.918C2635.31 422.241 2620.91 433.39 2603.82 441.365C2586.89 449.34 2569.23 453.328 2550.84 453.328ZM2621.88 304.891C2620.42 292.195 2616.11 280.639 2608.95 270.223C2601.78 259.643 2592.67 251.261 2581.6 245.076C2570.53 238.891 2558.33 235.799 2544.98 235.799C2531.15 235.799 2518.53 238.973 2507.14 245.32C2495.75 251.668 2486.22 260.05 2478.57 270.467C2471.09 280.883 2465.96 292.358 2463.19 304.891H2621.88ZM2673.07 325.643C2673.07 303.019 2678.44 282.186 2689.18 263.143C2699.92 243.937 2714.41 228.475 2732.64 216.756C2750.87 205.037 2771.21 199.178 2793.67 199.178C2810.27 199.178 2825.41 202.27 2839.08 208.455C2852.75 214.64 2864.55 222.778 2874.48 232.869C2884.41 242.96 2892.06 254.028 2897.43 266.072C2898.73 268.676 2899.38 271.281 2899.38 273.885C2899.38 278.93 2897.59 283.243 2894.01 286.824C2890.43 290.242 2886.12 291.951 2881.07 291.951C2877.82 291.951 2874.56 290.975 2871.31 289.021C2868.05 286.906 2865.77 284.301 2864.47 281.209C2858.94 269.002 2849.99 258.341 2837.62 249.227C2825.25 240.112 2810.6 235.555 2793.67 235.555C2777.88 235.555 2763.64 239.786 2750.95 248.25C2738.25 256.551 2728.16 267.618 2720.67 281.453C2713.19 295.125 2709.44 309.936 2709.44 325.887C2709.44 341.837 2713.11 356.73 2720.43 370.564C2727.92 384.236 2738.01 395.304 2750.7 403.768C2763.56 412.068 2777.88 416.219 2793.67 416.219C2810.6 416.219 2825.25 411.743 2837.62 402.791C2850.15 393.676 2859.18 383.016 2864.72 370.809C2866.02 367.716 2868.3 365.112 2871.55 362.996C2874.81 360.88 2878.06 359.822 2881.32 359.822C2886.36 359.822 2890.68 361.613 2894.26 365.193C2897.84 368.774 2899.63 373.087 2899.63 378.133C2899.63 380.9 2899.06 383.423 2897.92 385.701C2892.55 397.583 2884.82 408.65 2874.73 418.904C2864.8 428.995 2852.92 437.133 2839.08 443.318C2825.41 449.503 2810.27 452.596 2793.67 452.596C2771.05 452.596 2750.62 446.736 2732.39 435.018C2714.16 423.299 2699.68 407.837 2688.94 388.631C2678.36 369.262 2673.07 348.266 2673.07 325.643ZM2956.18 147.176C2956.18 142.13 2957.97 137.817 2961.55 134.236C2965.13 130.656 2969.45 128.865 2974.49 128.865C2979.54 128.865 2983.85 130.656 2987.43 134.236C2991.01 137.817 2992.8 142.13 2992.8 147.176L2992.56 201.863L3040.17 202.107C3044.89 202.107 3048.87 203.816 3052.13 207.234C3055.55 210.49 3057.26 214.477 3057.26 219.197C3057.26 223.917 3055.55 227.986 3052.13 231.404C3048.87 234.66 3044.89 236.287 3040.17 236.287L2992.56 236.043L2992.31 388.387C2992.31 397.013 2993.62 404.012 2996.22 409.383C2998.82 414.591 3004.11 417.195 3012.09 417.195C3019.25 417.195 3025.11 415.893 3029.67 413.289C3034.39 410.522 3039.76 409.139 3045.78 409.139C3050.83 409.139 3055.14 410.929 3058.72 414.51C3062.3 418.09 3064.09 422.404 3064.09 427.449C3064.09 434.285 3061.16 439.656 3055.3 443.562C3049.44 447.469 3042.53 450.154 3034.55 451.619C3026.74 453.247 3019.74 454.061 3013.55 454.061C2994.35 454.061 2979.86 447.957 2970.1 435.75C2960.49 423.38 2955.69 407.43 2955.69 387.898L2955.94 236.287H2918.34C2913.62 236.287 2909.55 234.66 2906.13 231.404C2902.88 227.986 2901.25 223.917 2901.25 219.197C2901.25 214.477 2902.88 210.49 2906.13 207.234C2909.55 203.816 2913.62 202.107 2918.34 202.107H2955.94L2956.18 147.176Z" fill="#BFB3C8"/>
<path d="M2164 1344.39H2066V1085.39H1831V1344.39H1732V740.387L1819 653.387H2164V1344.39ZM2128 740.387H1831V1073.39L1906 998.387H2066V802.387L2128 740.387ZM2391.05 1344.39H2292.05V653.387H2391.05V1344.39ZM2950.92 1344.39H2851.92L2853.92 1274.39L2655.92 1075.39L2722.92 998.387H2851.92V740.387H2617.92V1344.39H2518.92V825.387L2605.92 740.387H2506.92V653.387H2863.92L2950.92 740.387V986.387L2863.92 1073.39H2782.92V1086.39L2950.92 1252.39V1344.39ZM3151.44 1344.39H3052.44V653.387H3151.44V1344.39Z" fill="#E3DFE6"/>
<path d="M4450.22 127.988C4450.22 124.023 4451.66 120.469 4454.53 117.324C4457.53 114.18 4460.88 112.607 4464.58 112.607C4475.38 112.607 4480.84 117.734 4480.98 127.988L4482.42 267.236C4482.55 287.607 4485.36 305.518 4490.83 320.967C4496.29 336.416 4504.91 348.447 4516.67 357.061C4528.56 365.674 4544.08 369.98 4563.22 369.98C4584.41 369.98 4601.36 365.674 4614.08 357.061C4626.79 348.447 4636.02 336.621 4641.76 321.582C4647.51 306.543 4650.38 289.453 4650.38 270.312L4649.97 127.783V127.578C4649.97 123.34 4651.4 119.717 4654.27 116.709C4657.28 113.701 4660.9 112.197 4665.14 112.197C4669.38 112.197 4673 113.701 4676.01 116.709C4679.16 119.717 4680.73 123.34 4680.73 127.578V127.783L4681.14 270.107C4681.14 310.85 4671.43 342.773 4652.02 365.879C4632.74 388.984 4603.41 400.537 4564.04 400.537C4538.88 400.537 4518.03 394.932 4501.49 383.721C4484.95 372.373 4472.57 356.719 4464.37 336.758C4456.17 316.66 4451.93 293.555 4451.66 267.441L4450.22 128.193V127.988ZM5069.95 111.787C5092.37 111.787 5112.33 117.119 5129.83 127.783C5147.33 138.447 5160.05 152.529 5167.98 170.029C5168.93 171.943 5169.41 173.994 5169.41 176.182C5169.41 180.146 5167.98 183.564 5165.11 186.436C5162.23 189.307 5158.82 190.742 5154.85 190.742C5152.25 190.742 5149.59 189.922 5146.85 188.281C5144.26 186.504 5142.41 184.385 5141.32 181.924C5135.71 169.346 5126.48 159.434 5113.63 152.188C5100.92 144.805 5086.36 141.113 5069.95 141.113C5061.2 141.113 5052.11 142.207 5042.67 144.395C5033.38 146.445 5024.7 149.59 5016.63 153.828C5008.7 158.066 5002.27 163.467 4997.35 170.029C4992.43 176.455 4989.97 183.975 4989.97 192.588C4989.97 202.568 4993.25 210.703 4999.81 216.992C5006.38 223.145 5014.72 227.998 5024.83 231.553C5035.09 234.971 5045.75 237.637 5056.82 239.551C5068.04 241.328 5078.22 242.832 5087.38 244.062C5098.32 245.566 5109.19 247.891 5119.99 251.035C5130.93 254.043 5140.84 258.35 5149.73 263.955C5158.61 269.424 5165.72 276.533 5171.05 285.283C5176.52 294.033 5179.26 304.766 5179.26 317.48C5179.26 331.426 5175.91 343.594 5169.21 353.984C5162.51 364.238 5153.69 372.783 5142.75 379.619C5131.95 386.318 5120.13 391.377 5107.27 394.795C5094.56 398.076 5082.12 399.717 5069.95 399.717C5044.66 399.717 5021.89 393.975 5001.66 382.49C4981.42 371.006 4967 355.352 4958.39 335.527C4957.57 333.34 4957.16 331.357 4957.16 329.58C4957.16 325.615 4958.59 322.197 4961.46 319.326C4964.33 316.455 4967.75 315.02 4971.72 315.02C4974.45 315.02 4977.12 315.908 4979.72 317.686C4982.45 319.463 4984.3 321.582 4985.25 324.043C4991.68 338.672 5002.41 350.156 5017.45 358.496C5032.63 366.836 5050.13 371.006 5069.95 371.006C5078.7 371.006 5087.72 369.98 5097.02 367.93C5106.45 365.742 5115.2 362.529 5123.27 358.291C5131.34 353.916 5137.83 348.379 5142.75 341.68C5147.81 334.844 5150.34 326.777 5150.34 317.48C5150.34 306.543 5146.79 298.135 5139.68 292.256C5132.7 286.24 5124.09 281.865 5113.84 279.131C5103.58 276.26 5093.47 274.209 5083.48 272.979C5070.09 271.064 5056.21 268.672 5041.85 265.801C5027.64 262.93 5014.37 258.76 5002.07 253.291C4989.76 247.822 4979.78 240.234 4972.13 230.527C4964.47 220.684 4960.64 207.969 4960.64 192.383C4960.64 179.258 4963.92 167.705 4970.49 157.725C4977.05 147.607 4985.66 139.199 4996.33 132.5C5007.13 125.664 5018.95 120.537 5031.81 117.119C5044.66 113.564 5057.37 111.787 5069.95 111.787ZM5455.48 126.963C5455.48 122.725 5456.98 119.102 5459.99 116.094C5463 113.086 5466.62 111.582 5470.86 111.582L5663.02 111.787H5663.22C5667.46 111.787 5671.09 113.291 5674.09 116.299C5677.1 119.307 5678.61 122.93 5678.61 127.168C5678.61 131.406 5677.1 135.029 5674.09 138.037C5671.09 141.045 5667.46 142.549 5663.22 142.549H5663.02L5486.24 142.344L5486.45 238.73C5486.86 238.73 5487.2 238.73 5487.47 238.73C5487.88 238.594 5488.22 238.525 5488.5 238.525L5646.2 239.551C5650.58 239.551 5654.2 241.055 5657.07 244.062C5660.08 246.934 5661.58 250.898 5661.58 255.957C5661.58 259.785 5660.01 263.135 5656.87 266.006C5653.72 268.877 5650.17 270.312 5646.2 270.312H5646L5488.29 269.287H5486.65L5486.86 364.648L5663.02 364.443H5663.22C5667.46 364.443 5671.09 365.947 5674.09 368.955C5677.1 371.963 5678.61 375.586 5678.61 379.824C5678.61 384.062 5677.1 387.686 5674.09 390.693C5671.09 393.701 5667.46 395.205 5663.22 395.205H5663.02L5471.48 395.41C5467.24 395.41 5463.61 393.906 5460.61 390.898C5457.6 387.891 5456.1 384.268 5456.1 380.029L5455.48 126.963ZM6160.52 385.361C6160.52 389.326 6159.02 392.744 6156.01 395.615C6153.14 398.486 6150.2 399.922 6147.19 399.922C6144.46 399.922 6141.93 399.238 6139.6 397.871C6137.28 396.641 6135.57 395.684 6134.48 395C6122.45 386.387 6111.92 376.338 6102.9 364.854C6094.01 353.369 6086.49 340.996 6080.34 327.734C6074.59 315.156 6068.51 305.244 6062.08 297.998C6055.8 290.615 6048.21 285.352 6039.32 282.207C6030.43 278.926 6019.16 277.217 6005.48 277.08L5981.69 276.875L5981.9 382.08V382.49C5981.9 386.592 5980.33 390.215 5977.18 393.359C5974.17 396.367 5970.62 397.871 5966.52 397.871C5962.28 397.871 5958.66 396.367 5955.65 393.359C5952.64 390.215 5951.14 386.523 5951.14 382.285L5950.52 125.938C5950.52 121.563 5952.03 117.939 5955.03 115.068C5958.04 112.197 5961.6 110.693 5965.7 110.557L6020.25 110.352H6024.97C6048.07 110.352 6068.44 113.359 6086.08 119.375C6103.72 125.391 6117.52 134.688 6127.5 147.266C6137.49 159.707 6142.48 175.703 6142.48 195.254C6142.48 208.926 6139.6 220.957 6133.86 231.348C6128.12 241.602 6120.6 250.215 6111.3 257.188C6102.01 264.16 6091.96 269.355 6081.16 272.773C6087.31 278.926 6093.39 287.812 6099.41 299.434C6107.34 314.609 6115.2 328.281 6122.99 340.449C6130.79 352.617 6141.11 363.35 6153.96 372.646C6158.33 375.791 6160.52 380.029 6160.52 385.361ZM6025.99 141.113H5981.28L5981.69 249.189C5982.38 249.053 5983.27 248.984 5984.36 248.984L6026.4 248.574C6051.56 248.301 6072.13 244.062 6088.13 235.859C6104.13 227.52 6112.12 213.643 6112.12 194.229C6112.12 180.83 6108.23 170.303 6100.43 162.646C6092.64 154.854 6082.18 149.316 6069.06 146.035C6056.07 142.754 6041.71 141.113 6025.99 141.113ZM6773.26 399.307C6769.02 399.307 6765.4 397.803 6762.39 394.795C6759.39 391.787 6757.88 388.164 6757.88 383.926V383.721L6757.68 126.143V125.938C6757.68 121.973 6759.11 118.418 6761.98 115.273C6764.99 112.129 6768.34 110.557 6772.03 110.557C6777.09 110.557 6781.06 112.061 6783.93 115.068C6786.93 117.939 6788.44 121.563 6788.44 125.938V126.143L6788.64 383.721V383.926C6788.64 388.164 6787.14 391.787 6784.13 394.795C6781.12 397.803 6777.5 399.307 6773.26 399.307ZM7064.87 126.143C7064.87 121.768 7066.37 118.145 7069.38 115.273C7072.52 112.266 7076.35 110.762 7080.86 110.762C7085.65 110.762 7089.55 112.812 7092.55 116.914L7256.62 337.578V126.758C7256.62 122.52 7258.12 118.896 7261.13 115.889C7264.14 112.881 7267.76 111.377 7272 111.377C7276.23 111.377 7279.86 112.881 7282.87 115.889C7285.87 118.896 7287.38 122.52 7287.38 126.758V126.963L7287.17 383.721C7287.17 388.096 7285.6 391.787 7282.46 394.795C7279.45 397.666 7275.69 399.102 7271.18 399.102C7266.53 399.102 7262.63 397.051 7259.49 392.949L7095.63 172.49V383.516C7095.63 387.754 7094.13 391.377 7091.12 394.385C7088.11 397.393 7084.49 398.896 7080.25 398.896C7076.01 398.896 7072.39 397.393 7069.38 394.385C7066.37 391.377 7064.87 387.754 7064.87 383.516V126.143ZM7549.25 126.963C7549.25 122.588 7550.75 118.828 7553.76 115.684C7556.9 112.539 7560.59 110.967 7564.83 110.967H7770.11C7774.35 110.967 7777.98 112.402 7780.98 115.273C7783.99 118.008 7785.5 121.494 7785.5 125.732C7785.5 129.971 7783.99 133.73 7780.98 137.012C7777.98 140.156 7774.28 141.729 7769.91 141.729H7682.55V383.105C7682.55 387.344 7680.97 390.967 7677.83 393.975C7674.69 396.982 7670.99 398.486 7666.76 398.486C7662.52 398.486 7658.96 396.982 7656.09 393.975C7653.22 390.967 7651.78 387.344 7651.78 383.105V141.729H7564.63C7560.39 141.729 7556.77 140.361 7553.76 137.627C7550.75 134.756 7549.25 131.201 7549.25 126.963ZM8047.16 126.963C8047.16 122.725 8048.66 119.102 8051.67 116.094C8054.68 113.086 8058.3 111.582 8062.54 111.582L8254.7 111.787H8254.9C8259.14 111.787 8262.76 113.291 8265.77 116.299C8268.78 119.307 8270.28 122.93 8270.28 127.168C8270.28 131.406 8268.78 135.029 8265.77 138.037C8262.76 141.045 8259.14 142.549 8254.9 142.549H8254.7L8077.92 142.344L8078.13 238.73C8078.54 238.73 8078.88 238.73 8079.15 238.73C8079.56 238.594 8079.9 238.525 8080.18 238.525L8237.88 239.551C8242.26 239.551 8245.88 241.055 8248.75 244.062C8251.76 246.934 8253.26 250.898 8253.26 255.957C8253.26 259.785 8251.69 263.135 8248.55 266.006C8245.4 268.877 8241.85 270.312 8237.88 270.312H8237.68L8079.97 269.287H8078.33L8078.54 364.648L8254.7 364.443H8254.9C8259.14 364.443 8262.76 365.947 8265.77 368.955C8268.78 371.963 8270.28 375.586 8270.28 379.824C8270.28 384.062 8268.78 387.686 8265.77 390.693C8262.76 393.701 8259.14 395.205 8254.9 395.205H8254.7L8063.16 395.41C8058.92 395.41 8055.29 393.906 8052.29 390.898C8049.28 387.891 8047.77 384.268 8047.77 380.029L8047.16 126.963ZM8752.2 385.361C8752.2 389.326 8750.7 392.744 8747.69 395.615C8744.82 398.486 8741.88 399.922 8738.87 399.922C8736.14 399.922 8733.61 399.238 8731.28 397.871C8728.96 396.641 8727.25 395.684 8726.16 395C8714.12 386.387 8703.6 376.338 8694.57 364.854C8685.69 353.369 8678.17 340.996 8672.02 327.734C8666.27 315.156 8660.19 305.244 8653.76 297.998C8647.47 290.615 8639.89 285.352 8631 282.207C8622.11 278.926 8610.83 277.217 8597.16 277.08L8573.37 276.875L8573.58 382.08V382.49C8573.58 386.592 8572.01 390.215 8568.86 393.359C8565.85 396.367 8562.3 397.871 8558.2 397.871C8553.96 397.871 8550.34 396.367 8547.33 393.359C8544.32 390.215 8542.82 386.523 8542.82 382.285L8542.2 125.938C8542.2 121.563 8543.71 117.939 8546.71 115.068C8549.72 112.197 8553.28 110.693 8557.38 110.557L8611.93 110.352H8616.64C8639.75 110.352 8660.12 113.359 8677.76 119.375C8695.39 125.391 8709.2 134.688 8719.18 147.266C8729.16 159.707 8734.15 175.703 8734.15 195.254C8734.15 208.926 8731.28 220.957 8725.54 231.348C8719.8 241.602 8712.28 250.215 8702.98 257.188C8693.69 264.16 8683.64 269.355 8672.84 272.773C8678.99 278.926 8685.07 287.812 8691.09 299.434C8699.02 314.609 8706.88 328.281 8714.67 340.449C8722.46 352.617 8732.79 363.35 8745.64 372.646C8750.01 375.791 8752.2 380.029 8752.2 385.361ZM8617.67 141.113H8572.96L8573.37 249.189C8574.06 249.053 8574.95 248.984 8576.04 248.984L8618.08 248.574C8643.24 248.301 8663.81 244.062 8679.81 235.859C8695.8 227.52 8703.8 213.643 8703.8 194.229C8703.8 180.83 8699.91 170.303 8692.11 162.646C8684.32 154.854 8673.86 149.316 8660.74 146.035C8647.75 142.754 8633.39 141.113 8617.67 141.113ZM9020.02 126.553C9020.02 122.314 9021.52 118.691 9024.53 115.684C9027.54 112.676 9031.16 111.172 9035.4 111.172L9202.54 110.967H9202.74C9206.98 110.967 9210.6 112.471 9213.61 115.479C9216.62 118.486 9218.12 122.109 9218.12 126.348C9218.12 130.586 9216.62 134.209 9213.61 137.217C9210.6 140.225 9206.98 141.729 9202.74 141.729H9202.54L9050.78 141.934L9050.98 228.271C9051.67 228.271 9052.21 228.203 9052.62 228.066L9162.96 227.041H9165.21C9168.77 227.041 9171.84 228.682 9174.44 231.963C9177.17 235.244 9178.54 238.32 9178.54 241.191C9178.54 245.84 9177.11 249.805 9174.24 253.086C9171.36 256.23 9167.67 257.803 9163.16 257.803L9053.03 258.828H9051.19L9051.39 381.67V382.08C9051.39 386.318 9049.89 389.941 9046.88 392.949C9043.87 395.957 9040.25 397.461 9036.01 397.461C9031.77 397.461 9028.15 395.957 9025.14 392.949C9022.14 389.941 9020.63 386.318 9020.63 382.08V381.875L9020.02 126.553ZM9479.79 399.717C9476.37 399.717 9473.09 398.213 9469.94 395.205C9466.93 392.197 9465.43 389.053 9465.43 385.771C9465.43 382.49 9465.91 379.893 9466.87 377.979L9579.45 120.605C9580.41 118.555 9582.19 116.504 9584.79 114.453C9587.52 112.402 9590.19 111.377 9592.78 111.377C9600.17 111.377 9605.16 114.453 9607.75 120.605L9720.55 377.568C9721.37 379.346 9721.78 381.328 9721.78 383.516C9721.78 387.344 9720.48 390.967 9717.88 394.385C9715.42 397.666 9712.21 399.307 9708.24 399.307C9700.18 399.307 9694.84 396.162 9692.25 389.873L9651.03 295.742H9537L9494.96 390.283C9492.36 396.572 9487.3 399.717 9479.79 399.717ZM9593.6 165.312L9550.33 264.98H9637.49L9593.6 165.312ZM10227.3 294.717C10230.7 294.717 10233.9 296.221 10236.9 299.229C10240.1 302.236 10241.6 305.381 10241.6 308.662C10241.6 312.08 10241.2 314.746 10240.2 316.66C10233.6 331.426 10224.3 345.098 10212.1 357.676C10200.1 370.254 10185.7 380.371 10169 388.027C10152.4 395.684 10133.7 399.512 10113.1 399.512C10092.7 399.512 10074.2 395.752 10057.7 388.232C10041.3 380.713 10027.2 370.322 10015.4 357.061C10003.8 343.662 9994.86 328.213 9988.57 310.713C9982.42 293.076 9979.34 274.141 9979.34 253.906C9979.34 233.945 9982.48 215.352 9988.77 198.125C9995.06 180.762 10004.1 165.586 10015.8 152.598C10027.6 139.473 10041.6 129.219 10057.9 121.836C10074.3 114.453 10092.5 110.762 10112.4 110.762C10132.7 110.762 10151.1 114.316 10167.6 121.426C10184.3 128.535 10198.7 138.037 10210.9 149.932C10223.2 161.826 10232.7 175.02 10239.6 189.512C10240.7 191.699 10241.2 194.023 10241.2 196.484C10241.2 200.449 10239.8 204.004 10236.9 207.148C10234.2 210.156 10231.3 211.66 10228.3 211.66C10220.1 211.66 10214.6 208.652 10211.9 202.637C10203.8 185.547 10191.2 171.123 10174 159.365C10156.7 147.471 10136.2 141.523 10112.4 141.523C10091.4 141.523 10073.2 146.582 10057.9 156.699C10042.6 166.816 10030.7 180.42 10022.4 197.51C10014.2 214.463 10010.1 233.467 10010.1 254.521C10010.1 275.576 10014.2 294.785 10022.4 312.148C10030.6 329.375 10042.4 343.115 10057.7 353.369C10073.1 363.486 10091.4 368.545 10112.6 368.545C10128.5 368.545 10142.9 365.605 10155.9 359.727C10169 353.711 10180.4 345.781 10190 335.938C10199.7 326.094 10207 315.498 10212.1 304.15C10214.8 297.861 10219.9 294.717 10227.3 294.717ZM10513.8 126.963C10513.8 122.725 10515.3 119.102 10518.3 116.094C10521.3 113.086 10524.9 111.582 10529.1 111.582L10721.3 111.787H10721.5C10725.7 111.787 10729.4 113.291 10732.4 116.299C10735.4 119.307 10736.9 122.93 10736.9 127.168C10736.9 131.406 10735.4 135.029 10732.4 138.037C10729.4 141.045 10725.7 142.549 10721.5 142.549H10721.3L10544.5 142.344L10544.7 238.73C10545.1 238.73 10545.5 238.73 10545.7 238.73C10546.2 238.594 10546.5 238.525 10546.8 238.525L10704.5 239.551C10708.9 239.551 10712.5 241.055 10715.3 244.062C10718.4 246.934 10719.9 250.898 10719.9 255.957C10719.9 259.785 10718.3 263.135 10715.1 266.006C10712 268.877 10708.4 270.312 10704.5 270.312H10704.3L10546.6 269.287H10544.9L10545.1 364.648L10721.3 364.443H10721.5C10725.7 364.443 10729.4 365.947 10732.4 368.955C10735.4 371.963 10736.9 375.586 10736.9 379.824C10736.9 384.062 10735.4 387.686 10732.4 390.693C10729.4 393.701 10725.7 395.205 10721.5 395.205H10721.3L10529.8 395.41C10525.5 395.41 10521.9 393.906 10518.9 390.898C10515.9 387.891 10514.4 384.268 10514.4 380.029L10513.8 126.963Z" fill="#E3DFE6"/>
<path d="M4270.2 788.7C4268.8 793.367 4267.4 799.2 4266 806.2C4264.6 812.733 4263.67 817.4 4263.2 820.2C4261.33 834.2 4258.77 852.4 4255.5 874.8C4252.23 897.2 4248.5 921.233 4244.3 946.9C4240.57 972.567 4236.6 998.233 4232.4 1023.9C4228.2 1049.1 4224.47 1072.43 4221.2 1093.9C4217.93 1114.9 4215.13 1131.93 4212.8 1145H4109.9C4111.77 1134.27 4114.1 1120.97 4116.9 1105.1C4119.7 1088.77 4122.73 1071.03 4126 1051.9C4129.27 1032.77 4132.3 1013.17 4135.1 993.1C4138.37 973.033 4141.17 953.9 4143.5 935.7C4146.3 917.033 4148.63 900.467 4150.5 886C4152.37 871.533 4153.3 860.1 4153.3 851.7C4142.57 851.7 4128.8 851.7 4112 851.7C4095.2 851.7 4077 851.7 4057.4 851.7C4038.27 851.7 4019.13 851.7 4000 851.7C3980.87 851.7 3963.6 851.7 3948.2 851.7C3932.8 851.7 3920.67 851.7 3911.8 851.7C3897.8 851.7 3884.27 851.933 3871.2 852.4C3858.13 852.867 3845.3 853.567 3832.7 854.5V755.8C3844.37 757.2 3857.43 758.6 3871.9 760C3886.37 760.933 3899.43 761.4 3911.1 761.4C3918.57 761.4 3928.13 761.4 3939.8 761.4C3951.47 761.4 3964.3 761.4 3978.3 761.4C3992.77 761.4 4007.47 761.4 4022.4 761.4C4037.33 761.4 4051.8 761.4 4065.8 761.4C4080.27 761.4 4093.1 761.4 4104.3 761.4C4115.97 761.4 4125.3 761.4 4132.3 761.4C4138.37 761.4 4145.6 760.933 4154 760C4162.87 759.067 4171.27 757.9 4179.2 756.5C4187.13 755.1 4193.2 753.7 4197.4 752.3L4270.2 788.7ZM3755.7 1116.3C3766.9 1117.7 3778.57 1119.1 3790.7 1120.5C3802.83 1121.43 3814.27 1121.9 3825 1121.9H4291.9C4304.5 1121.9 4316.17 1121.2 4326.9 1119.8C4338.1 1118.4 4348.13 1117.23 4357 1116.3V1217.8C4347.2 1216.4 4336 1215.47 4323.4 1215C4310.8 1214.53 4300.3 1214.3 4291.9 1214.3H3825C3814.27 1214.3 3802.83 1214.53 3790.7 1215C3779.03 1215.47 3767.37 1216.4 3755.7 1217.8V1116.3ZM4421.4 918.9C4429.8 919.367 4440.53 920.067 4453.6 921C4466.67 921.467 4480.2 921.933 4494.2 922.4C4508.67 922.867 4521.97 923.1 4534.1 923.1C4545.77 923.1 4560.23 923.1 4577.5 923.1C4594.77 923.1 4613.43 923.1 4633.5 923.1C4654.03 923.1 4675.03 923.1 4696.5 923.1C4718.43 923.1 4740.13 923.1 4761.6 923.1C4783.07 923.1 4803.37 923.1 4822.5 923.1C4841.63 923.1 4858.67 923.1 4873.6 923.1C4889 923.1 4901.13 923.1 4910 923.1C4926.33 923.1 4941.73 922.633 4956.2 921.7C4970.67 920.3 4982.57 919.367 4991.9 918.9V1028.8C4983.97 1028.33 4972.07 1027.63 4956.2 1026.7C4940.33 1025.77 4924.93 1025.3 4910 1025.3C4901.13 1025.3 4889 1025.3 4873.6 1025.3C4858.2 1025.3 4840.93 1025.3 4821.8 1025.3C4802.67 1025.3 4782.37 1025.3 4760.9 1025.3C4739.9 1025.3 4718.43 1025.3 4696.5 1025.3C4674.57 1025.3 4653.33 1025.3 4632.8 1025.3C4612.73 1025.3 4594.07 1025.3 4576.8 1025.3C4560 1025.3 4545.77 1025.3 4534.1 1025.3C4514.03 1025.3 4493.5 1025.77 4472.5 1026.7C4451.5 1027.17 4434.47 1027.87 4421.4 1028.8V918.9ZM5566.23 698.4C5570.89 707.267 5575.33 717.533 5579.53 729.2C5584.19 740.867 5588.63 752.3 5592.83 763.5C5597.03 774.7 5600.53 784.967 5603.33 794.3L5555.03 809.7C5551.76 799.9 5548.03 789.4 5543.83 778.2C5540.09 767 5536.13 755.8 5531.93 744.6C5528.19 733.4 5523.99 723.133 5519.33 713.8L5566.23 698.4ZM5638.33 676C5642.99 685.333 5647.66 695.833 5652.33 707.5C5656.99 718.7 5661.43 729.9 5665.63 741.1C5670.29 752.3 5674.03 762.333 5676.83 771.2L5628.53 786.6C5623.86 771.667 5618.26 755.567 5611.73 738.3C5605.19 721.033 5598.19 705.4 5590.73 691.4L5638.33 676ZM5506.03 944.1C5506.03 987.5 5502.76 1026.93 5496.23 1062.4C5490.16 1097.4 5479.43 1129.37 5464.03 1158.3C5448.63 1186.77 5427.16 1212.67 5399.63 1236C5372.09 1258.87 5337.33 1279.63 5295.33 1298.3L5220.43 1227.6C5254.03 1215.47 5283.19 1202.17 5307.93 1187.7C5332.66 1173.23 5352.73 1155.5 5368.13 1134.5C5383.99 1113.5 5395.66 1088.07 5403.13 1058.2C5411.06 1027.87 5415.03 991 5415.03 947.6V761.4C5415.03 747.4 5414.56 734.8 5413.63 723.6C5412.69 712.4 5411.76 703.3 5410.83 696.3H5510.93C5509.99 703.3 5508.83 712.4 5507.43 723.6C5506.49 734.8 5506.03 747.4 5506.03 761.4V944.1ZM5253.33 702.6C5252.39 709.133 5251.46 718 5250.53 729.2C5249.59 739.933 5249.13 752.3 5249.13 766.3V1016.2C5249.13 1026.47 5249.36 1036.5 5249.83 1046.3C5250.29 1055.63 5250.76 1064.03 5251.23 1071.5C5251.69 1078.97 5251.93 1085.03 5251.93 1089.7H5153.93C5154.86 1085.03 5155.56 1079.2 5156.03 1072.2C5156.49 1064.73 5156.96 1056.1 5157.43 1046.3C5157.89 1036.5 5158.13 1026.47 5158.13 1016.2V765.6C5158.13 755.333 5157.66 745.067 5156.73 734.8C5156.26 724.067 5155.33 713.333 5153.93 702.6H5253.33ZM5023.03 828.6C5027.23 829.533 5033.06 830.467 5040.53 831.4C5047.99 832.333 5056.63 833.267 5066.43 834.2C5076.23 834.667 5086.96 834.9 5098.63 834.9H5557.83C5576.49 834.9 5591.66 834.433 5603.33 833.5C5614.99 832.567 5625.49 831.4 5634.83 830V923.1C5627.36 922.633 5617.33 922.167 5604.73 921.7C5592.13 921.233 5576.73 921 5558.53 921H5098.63C5086.96 921 5076.23 921.233 5066.43 921.7C5057.09 921.7 5048.69 921.933 5041.23 922.4C5034.23 922.867 5028.16 923.333 5023.03 923.8V828.6ZM5709.73 918.9C5718.13 919.367 5728.86 920.067 5741.93 921C5754.99 921.467 5768.53 921.933 5782.53 922.4C5796.99 922.867 5810.29 923.1 5822.43 923.1C5834.09 923.1 5848.56 923.1 5865.83 923.1C5883.09 923.1 5901.76 923.1 5921.83 923.1C5942.36 923.1 5963.36 923.1 5984.83 923.1C6006.76 923.1 6028.46 923.1 6049.93 923.1C6071.39 923.1 6091.69 923.1 6110.83 923.1C6129.96 923.1 6146.99 923.1 6161.93 923.1C6177.33 923.1 6189.46 923.1 6198.33 923.1C6214.66 923.1 6230.06 922.633 6244.53 921.7C6258.99 920.3 6270.89 919.367 6280.23 918.9V1028.8C6272.29 1028.33 6260.39 1027.63 6244.53 1026.7C6228.66 1025.77 6213.26 1025.3 6198.33 1025.3C6189.46 1025.3 6177.33 1025.3 6161.93 1025.3C6146.53 1025.3 6129.26 1025.3 6110.13 1025.3C6090.99 1025.3 6070.69 1025.3 6049.23 1025.3C6028.23 1025.3 6006.76 1025.3 5984.83 1025.3C5962.89 1025.3 5941.66 1025.3 5921.13 1025.3C5901.06 1025.3 5882.39 1025.3 5865.13 1025.3C5848.33 1025.3 5834.09 1025.3 5822.43 1025.3C5802.36 1025.3 5781.83 1025.77 5760.83 1026.7C5739.83 1027.17 5722.79 1027.87 5709.73 1028.8V918.9ZM6339.73 970.7C6402.73 954.367 6459.66 935.467 6510.53 914C6561.86 892.067 6606.89 869.2 6645.63 845.4C6669.89 830.467 6694.16 813.433 6718.43 794.3C6743.16 774.7 6766.26 754.633 6787.73 734.1C6809.66 713.567 6828.09 693.967 6843.03 675.3L6918.63 747.4C6897.16 768.4 6873.59 789.633 6847.93 811.1C6822.73 832.567 6796.36 853.1 6768.83 872.7C6741.29 892.3 6713.99 910.267 6686.93 926.6C6660.33 942 6630.46 957.867 6597.33 974.2C6564.66 990.533 6530.13 1005.93 6493.73 1020.4C6457.33 1034.87 6420.69 1047.7 6383.83 1058.9L6339.73 970.7ZM6630.93 890.2L6730.33 867.1V1182.1C6730.33 1192.37 6730.56 1203.57 6731.03 1215.7C6731.49 1227.83 6732.19 1239.03 6733.13 1249.3C6734.06 1260.03 6735.23 1268.2 6736.63 1273.8H6626.03C6626.96 1268.2 6627.66 1260.03 6628.13 1249.3C6629.06 1239.03 6629.76 1227.83 6630.23 1215.7C6630.69 1203.57 6630.93 1192.37 6630.93 1182.1V890.2ZM7116.03 711C7128.16 719.4 7142.39 729.667 7158.73 741.8C7175.06 753.933 7191.86 767.233 7209.13 781.7C7226.86 795.7 7243.43 809.467 7258.83 823C7274.23 836.533 7286.83 848.667 7296.63 859.4L7225.23 932.2C7216.36 922.4 7204.69 910.733 7190.23 897.2C7175.76 883.667 7160.13 869.667 7143.33 855.2C7126.53 840.733 7109.96 826.967 7093.63 813.9C7077.29 800.833 7062.83 789.867 7050.23 781L7116.03 711ZM7028.53 1177.2C7064.93 1172.07 7099.23 1164.83 7131.43 1155.5C7163.63 1146.17 7193.49 1135.43 7221.03 1123.3C7248.56 1111.17 7273.76 1098.57 7296.63 1085.5C7336.29 1061.7 7372.69 1034.63 7405.83 1004.3C7438.96 973.967 7467.89 942.467 7492.63 909.8C7517.36 876.667 7536.96 844.467 7551.43 813.2L7606.03 911.9C7588.29 943.167 7566.36 974.433 7540.23 1005.7C7514.56 1036.97 7485.39 1066.83 7452.73 1095.3C7420.06 1123.3 7384.83 1148.5 7347.03 1170.9C7323.23 1185.37 7297.56 1199.13 7270.03 1212.2C7242.49 1224.8 7213.33 1236 7182.53 1245.8C7152.19 1256.07 7120.46 1264 7087.33 1269.6L7028.53 1177.2ZM7898.63 915.4C7920.09 927.533 7943.43 942 7968.63 958.8C7994.29 975.133 8020.19 992.167 8046.33 1009.9C8072.46 1027.63 8096.96 1044.9 8119.83 1061.7C8143.16 1078.5 8162.76 1093.43 8178.63 1106.5L8112.13 1185.6C8096.73 1171.6 8077.59 1155.5 8054.73 1137.3C8032.33 1118.63 8008.06 1099.73 7981.93 1080.6C7955.79 1061 7929.89 1042.33 7904.23 1024.6C7879.03 1006.87 7856.39 991.7 7836.33 979.1L7898.63 915.4ZM8227.63 796.4C8223.43 802.933 8219.23 810.633 8215.03 819.5C8210.83 828.367 8207.33 837.233 8204.53 846.1C8197.53 867.567 8187.96 891.6 8175.83 918.2C8164.16 944.333 8150.16 971.167 8133.83 998.7C8117.49 1025.77 8098.83 1052.37 8077.83 1078.5C8044.69 1119.57 8004.79 1158.53 7958.13 1195.4C7911.93 1232.27 7855.23 1263.53 7788.03 1289.2L7706.83 1218.5C7755.83 1203.57 7798.29 1185.83 7834.23 1165.3C7870.16 1144.77 7901.19 1122.83 7927.33 1099.5C7953.93 1076.17 7977.03 1052.83 7996.63 1029.5C8012.49 1011.3 8027.43 991 8041.43 968.6C8055.89 945.733 8068.26 923.1 8078.53 900.7C8089.26 877.833 8096.73 857.533 8100.93 839.8H7864.33L7896.53 760H8095.33C8106.53 760 8117.49 759.3 8128.23 757.9C8139.43 756.5 8148.76 754.633 8156.23 752.3L8227.63 796.4ZM7996.63 688.6C7988.23 700.733 7979.83 713.8 7971.43 727.8C7963.49 741.8 7957.43 752.533 7953.23 760C7937.36 788 7917.29 817.867 7893.03 849.6C7868.76 880.867 7841.46 911.433 7811.13 941.3C7781.26 971.167 7749.53 997.767 7715.93 1021.1L7640.33 963C7681.39 937.333 7716.16 910.5 7744.63 882.5C7773.56 854.033 7797.59 826.733 7816.73 800.6C7835.86 774 7851.26 750.433 7862.93 729.9C7868.53 721.5 7874.36 710.3 7880.43 696.3C7886.96 681.833 7891.86 668.767 7895.13 657.1L7996.63 688.6ZM8313.73 918.9C8322.13 919.367 8332.86 920.067 8345.93 921C8358.99 921.467 8372.53 921.933 8386.53 922.4C8400.99 922.867 8414.29 923.1 8426.43 923.1C8438.09 923.1 8452.56 923.1 8469.83 923.1C8487.09 923.1 8505.76 923.1 8525.83 923.1C8546.36 923.1 8567.36 923.1 8588.83 923.1C8610.76 923.1 8632.46 923.1 8653.93 923.1C8675.39 923.1 8695.69 923.1 8714.83 923.1C8733.96 923.1 8750.99 923.1 8765.93 923.1C8781.33 923.1 8793.46 923.1 8802.33 923.1C8818.66 923.1 8834.06 922.633 8848.53 921.7C8862.99 920.3 8874.89 919.367 8884.23 918.9V1028.8C8876.29 1028.33 8864.39 1027.63 8848.53 1026.7C8832.66 1025.77 8817.26 1025.3 8802.33 1025.3C8793.46 1025.3 8781.33 1025.3 8765.93 1025.3C8750.53 1025.3 8733.26 1025.3 8714.13 1025.3C8694.99 1025.3 8674.69 1025.3 8653.23 1025.3C8632.23 1025.3 8610.76 1025.3 8588.83 1025.3C8566.89 1025.3 8545.66 1025.3 8525.13 1025.3C8505.06 1025.3 8486.39 1025.3 8469.13 1025.3C8452.33 1025.3 8438.09 1025.3 8426.43 1025.3C8406.36 1025.3 8385.83 1025.77 8364.83 1026.7C8343.83 1027.17 8326.79 1027.87 8313.73 1028.8V918.9ZM9480.93 776.8C9477.66 783.333 9474.63 791.267 9471.83 800.6C9469.5 809.467 9467.4 817.867 9465.53 825.8C9461.8 842.6 9456.9 861.733 9450.83 883.2C9444.76 904.667 9437.53 926.833 9429.13 949.7C9420.73 972.567 9410.7 995.2 9399.03 1017.6C9387.83 1040 9375 1061 9360.53 1080.6C9339.53 1108.13 9315.03 1134.27 9287.03 1159C9259.03 1183.27 9227.76 1205.2 9193.23 1224.8C9158.7 1243.93 9120.66 1260.27 9079.13 1273.8L9002.83 1190.5C9049.03 1179.3 9088.93 1165.53 9122.53 1149.2C9156.6 1132.4 9186.23 1113.73 9211.43 1093.2C9236.63 1072.2 9258.56 1049.8 9277.23 1026C9292.63 1006.4 9305.7 985.167 9316.43 962.3C9327.63 939.433 9336.73 916.333 9343.73 893C9351.2 869.667 9356.33 848.2 9359.13 828.6C9352.13 828.6 9340.46 828.6 9324.13 828.6C9308.26 828.6 9289.36 828.6 9267.43 828.6C9245.96 828.6 9223.33 828.6 9199.53 828.6C9176.2 828.6 9153.56 828.6 9131.63 828.6C9109.7 828.6 9089.86 828.6 9072.13 828.6C9054.86 828.6 9041.8 828.6 9032.93 828.6C9017.06 828.6 9001.43 828.833 8986.03 829.3C8971.1 829.767 8958.96 830.467 8949.63 831.4V732.7C8957.1 733.167 8965.73 733.867 8975.53 734.8C8985.33 735.733 8995.6 736.667 9006.33 737.6C9017.06 738.067 9026.16 738.3 9033.63 738.3C9040.63 738.3 9051.13 738.3 9065.13 738.3C9079.13 738.3 9095.23 738.3 9113.43 738.3C9131.63 738.3 9150.53 738.3 9170.13 738.3C9190.2 738.3 9210.03 738.3 9229.63 738.3C9249.23 738.3 9267.66 738.3 9284.93 738.3C9302.2 738.3 9317.13 738.3 9329.73 738.3C9342.8 738.3 9351.9 738.3 9357.03 738.3C9364.03 738.3 9372.66 738.067 9382.93 737.6C9393.2 736.667 9402.76 735.033 9411.63 732.7L9480.93 776.8ZM9647.53 863.6C9655.46 865 9664.8 865.933 9675.53 866.4C9686.26 866.867 9695.36 867.1 9702.83 867.1H10023.4C10031.8 867.1 10040.9 866.867 10050.7 866.4C10060.5 865.933 10069.6 865 10078 863.6V951.8C10069.2 950.867 10059.8 950.167 10050 949.7C10040.2 949.233 10031.4 949 10023.4 949H9702.83C9695.36 949 9686.26 949.233 9675.53 949.7C9664.8 950.167 9655.46 950.867 9647.53 951.8V863.6ZM9812.03 1222V911.9H9903.73V1222H9812.03ZM9611.83 1170.2C9620.7 1171.13 9630.26 1172.07 9640.53 1173C9650.8 1173.93 9660.36 1174.4 9669.23 1174.4H10056.3C10066.1 1174.4 10075.5 1173.93 10084.3 1173C10093.7 1171.6 10102.1 1170.67 10109.5 1170.2V1261.9C10102.1 1260.5 10092.7 1259.57 10081.5 1259.1C10070.8 1258.63 10062.4 1258.4 10056.3 1258.4H9669.23C9660.83 1258.4 9651.5 1258.63 9641.23 1259.1C9630.96 1259.57 9621.16 1260.5 9611.83 1261.9V1170.2ZM10225 918.9C10233.4 919.367 10244.2 920.067 10257.2 921C10270.3 921.467 10283.8 921.933 10297.8 922.4C10312.3 922.867 10325.6 923.1 10337.7 923.1C10349.4 923.1 10363.9 923.1 10381.1 923.1C10398.4 923.1 10417.1 923.1 10437.1 923.1C10457.7 923.1 10478.7 923.1 10500.1 923.1C10522.1 923.1 10543.8 923.1 10565.2 923.1C10586.7 923.1 10607 923.1 10626.1 923.1C10645.3 923.1 10662.3 923.1 10677.2 923.1C10692.6 923.1 10704.8 923.1 10713.6 923.1C10730 923.1 10745.4 922.633 10759.8 921.7C10774.3 920.3 10786.2 919.367 10795.5 918.9V1028.8C10787.6 1028.33 10775.7 1027.63 10759.8 1026.7C10744 1025.77 10728.6 1025.3 10713.6 1025.3C10704.8 1025.3 10692.6 1025.3 10677.2 1025.3C10661.8 1025.3 10644.6 1025.3 10625.4 1025.3C10606.3 1025.3 10586 1025.3 10564.5 1025.3C10543.5 1025.3 10522.1 1025.3 10500.1 1025.3C10478.2 1025.3 10457 1025.3 10436.4 1025.3C10416.4 1025.3 10397.7 1025.3 10380.4 1025.3C10363.6 1025.3 10349.4 1025.3 10337.7 1025.3C10317.7 1025.3 10297.1 1025.77 10276.1 1026.7C10255.1 1027.17 10238.1 1027.87 10225 1028.8V918.9ZM11360.6 768.4C11357.8 772.6 11353.6 779.133 11348 788C11342.8 796.867 11338.9 805.033 11336.1 812.5C11326.3 834.433 11314.1 858.933 11299.7 886C11285.7 913.067 11269.6 940.367 11251.4 967.9C11233.6 994.967 11214.7 1020.4 11194.7 1044.2C11168.5 1073.6 11139.6 1102.77 11107.9 1131.7C11076.6 1160.17 11043.5 1186.53 11008.5 1210.8C10973.9 1234.6 10938.5 1255.13 10902.1 1272.4L10830 1196.8C10867.8 1182.33 10904.4 1164.13 10939.9 1142.2C10975.3 1120.27 11008.2 1096.47 11038.6 1070.8C11068.9 1045.13 11095 1020.17 11117 995.9C11132.4 978.167 11146.8 959.267 11160.4 939.2C11174.4 919.133 11186.7 899.3 11197.5 879.7C11208.2 859.633 11216.1 841.2 11221.3 824.4C11216.6 824.4 11208.2 824.4 11196.1 824.4C11183.9 824.4 11169.7 824.4 11153.4 824.4C11137.5 824.4 11120.7 824.4 11103 824.4C11085.2 824.4 11068.2 824.4 11051.9 824.4C11036 824.4 11022 824.4 11009.9 824.4C10997.7 824.4 10989.1 824.4 10984 824.4C10974.2 824.4 10963.9 824.867 10953.2 825.8C10942.4 826.267 10932.2 826.967 10922.4 827.9C10913 828.367 10905.8 828.833 10900.7 829.3V729.9C10907.7 730.367 10916.3 731.067 10926.6 732C10936.8 732.933 10947.1 733.633 10957.4 734.1C10968.1 734.567 10977 734.8 10984 734.8C10990 734.8 10999.6 734.8 11012.7 734.8C11025.7 734.8 11040.7 734.8 11057.5 734.8C11074.3 734.8 11091.5 734.8 11109.3 734.8C11127.5 734.8 11144.7 734.8 11161.1 734.8C11177.9 734.8 11192.3 734.8 11204.5 734.8C11216.6 734.8 11225.5 734.8 11231.1 734.8C11246.5 734.8 11260.5 733.867 11273.1 732C11286.1 730.133 11296.2 728.033 11303.2 725.7L11360.6 768.4ZM11203.8 986.1C11222 1000.57 11241.3 1017.37 11261.9 1036.5C11282.4 1055.63 11302.7 1075.47 11322.8 1096C11342.8 1116.53 11361.3 1136.37 11378.1 1155.5C11395.3 1174.17 11409.8 1190.5 11421.5 1204.5L11341.7 1273.8C11324.4 1250 11304.6 1225.27 11282.2 1199.6C11260.2 1173.93 11236.9 1148.5 11212.2 1123.3C11187.9 1097.63 11163.2 1073.37 11138 1050.5L11203.8 986.1Z" fill="#E3DFE6"/>
<defs>
<linearGradient id="paint0_linear_721_641" x1="36.3572" y1="2416.53" x2="36.3572" y2="806.414" gradientUnits="userSpaceOnUse">
<stop stop-color="#DF658E"/>
<stop offset="1" stop-color="#ED86A8"/>
</linearGradient>
<clipPath id="clip0_721_641">
<rect width="1500" height="1500" rx="375" fill="white"/>
</clipPath>
</defs>
</svg>
