<svg width="1500" height="1500" viewBox="0 0 1500 1500" fill="none" xmlns="http://www.w3.org/2000/svg">
<g clip-path="url(#clip0_537_704)">
<rect width="1500" height="1500" fill="#FAF9FB"/>
<path d="M581.4 587H522.6V431.6H381.6V587H322.2V224.6L374.4 172.4H581.4V587ZM559.8 224.6H381.6V424.4L426.6 379.4H522.6V261.8L559.8 224.6ZM717.628 587H658.228V172.4H717.628V587ZM1053.55 587H994.153L995.353 545L876.553 425.6L916.753 379.4H994.153V224.6H853.753V587H794.353V275.6L846.553 224.6H787.153V172.4H1001.35L1053.55 224.6V372.2L1001.35 424.4H952.753V432.2L1053.55 531.8V587ZM1173.86 587H1114.46V172.4H1173.86V587Z" fill="#E3DFE6"/>
<path d="M712.16 1185.04L505.412 1050.61L656.131 808.279L1023.68 1018.77L988.945 1216.88L712.16 1185.04Z" fill="#FFF4F4"/>
<path d="M1002.39 871.957V735.168H1081.39L1141.91 925.611L1002.39 871.957Z" fill="#FFF4F4"/>
<g clip-path="url(#clip1_537_704)">
<path fill-rule="evenodd" clip-rule="evenodd" d="M1453.63 1972.8C1434.47 2002.51 1378.76 2040.44 1347.75 2059.54C1333.13 2068.56 1317.25 2065.91 1295.57 2069.63C1202.05 2085.54 1109.03 2064.58 1032.9 2040.71C1014.49 2034.87 968.865 1998.27 949.202 2005.96C920.969 2019.22 925.002 2055.04 910.633 2082.62C901.054 2103.85 875.845 2181.04 868.031 2198.28C848.116 2242.32 823.159 2287.68 799.211 2328.53C780.809 2360.1 733.669 2418.99 680.982 2387.96C656.278 2373.37 657.538 2353.2 653.757 2332.25C653.505 2331.45 653.505 2320.05 652.749 2320.05C649.976 2320.05 649.976 2320.05 646.699 2320.05C640.312 2328.18 633.842 2336.32 627.288 2344.45C590.736 2379.73 535.781 2371.24 522.924 2318.45C514.353 2283.7 530.235 2248.69 539.31 2225.87C556.284 2170.87 573.257 2115.87 590.231 2060.87C599.306 2015.24 578.635 1978.11 566.787 1948.13C544.604 1890.83 538.301 1822.65 515.866 1764.29C506.539 1739.62 488.64 1726.89 481.582 1709.38C473.263 1688.42 454.861 1602.48 440.24 1595.05C393.352 1572.76 380.747 1647.04 353.774 1657.12C298.819 1677.81 274.871 1596.37 271.342 1554.46C225.714 1538.54 191.43 1466.39 213.362 1399.81C232.773 1341.71 273.611 1299.8 351.001 1301.39C357.808 1292.37 368.395 1287.86 375.706 1279.64L390.831 1215.97C398.73 1200.58 406.544 1185.11 414.275 1169.55C425.115 1152.83 444.777 1131.61 460.911 1120.47C470.154 1115.7 479.313 1110.83 488.388 1105.88C483.347 1104.64 478.809 1103.14 474.776 1101.37C449.063 1089.43 444.777 1066.35 426.627 1043.81C424.863 1048.58 404.696 1084.13 393.604 1094.47C389.907 1092 386.209 1089.52 382.512 1087.05C375.958 1076.17 375.706 1000.3 370.16 977.221C326.045 790.998 341.422 628.384 469.23 535.803C479.313 528.641 486.372 506.888 489.901 501.052C514.101 483.19 538.385 465.329 562.754 447.467C588.971 433.938 625.019 431.815 663.084 425.979C677.705 425.449 692.41 424.918 707.199 424.388C818.874 423.327 947.186 489.115 1010.96 542.966C1025.58 562.773 1040.29 582.58 1055.08 602.387C1085.08 644.566 1118.6 682.501 1145.83 728.393C1171.54 771.898 1226.25 842.196 1225.49 900.557C1197.93 869.078 1170.45 837.687 1143.06 806.384C1150.62 840.074 1167.76 846.971 1180.11 870.846C1183.9 878.274 1188.94 887.028 1193.98 891.803C1200.53 896.224 1207.17 900.734 1213.89 905.332C1229.69 915.766 1245.49 926.2 1261.29 936.634C1312.21 976.16 1363.13 1031.6 1398.67 1087.05C1460.69 1183.87 1505.31 1292.37 1533.54 1425.8C1574.88 1621.31 1531.27 1853.69 1453.63 1972.8ZM1020.54 822.301C1041.47 829.198 1071.72 864.214 1096.17 857.052C1096.17 857.052 1069.7 829.994 1057.85 816.465C1049.03 803.997 1048.27 793.916 1037.43 775.347L1030.88 766.858C1027.1 783.305 1013.99 808.772 1020.54 822.301ZM983.486 1069.8C982.73 1068.48 974.159 1083.07 973.655 1082.27C967.101 1072.99 963.319 1073.52 952.984 1065.82C944.665 1055.21 940.884 1032.66 932.565 1022.05C913.91 1024.71 886.937 1093.94 872.064 1110.39C871.224 1109.86 870.299 1109.33 869.291 1108.8C857.695 1064.76 772.742 918.861 742.744 900.557C719.888 896.136 697.032 891.803 674.176 887.558C652.245 912.76 642.161 949.898 619.221 974.303C595.777 998.974 564.518 1015.16 542.083 1040.89V1052.29C549.897 1064.5 562.502 1067.15 575.106 1074.05C592.584 1082.71 609.978 1091.38 627.288 1100.04C632.582 1101.37 638.128 1101.64 643.421 1101.11C653.001 1100.31 662.328 1097.66 668.63 1095.8C696.612 1087.58 729.635 1095.27 755.348 1101.64C773.246 1106.15 783.33 1119.14 796.438 1127.63C821.142 1143.81 846.855 1149.12 869.291 1166.63C872.148 1170.52 874.921 1174.41 877.61 1178.3C902.314 1188.38 982.226 1096.06 983.486 1069.8Z" fill="#F3E2E7"/>
<path d="M396.882 610.34C391.084 628.379 381.756 649.601 375.958 667.639C375.622 668.17 375.454 668.789 375.454 669.496C365.623 718.307 363.102 835.559 372.933 885.696C384.361 936.275 395.789 986.854 407.217 1037.43C413.771 1075.9 367.64 1158.93 347.977 1163.44C348.481 1162.64 351.002 1150.71 353.271 1140.89C354.447 1135.41 355.203 1129.93 355.539 1124.44C357.724 1089.6 359.825 1054.76 361.842 1019.92C362.85 1006.66 361.589 993.397 358.564 980.399C351.338 949.804 344.195 919.209 337.137 888.614C324.785 821.499 343.439 711.675 361.842 664.191C369.152 645.356 396.125 610.34 396.882 610.34Z" fill="#EC92AD"/>
<path d="M568.804 545.614L657.79 306.336C657.79 306.336 725.349 343.209 803.748 524.392L568.804 545.614Z" fill="#EC92AD"/>
<path d="M272.098 606.103C272.098 606.103 331.338 583.555 393.1 598.676C455.113 613.796 344.195 747.23 344.195 747.23C344.195 747.23 260.754 628.917 272.098 606.103Z" fill="#EC92AD"/>
<path d="M565.527 508.741C565.527 508.741 563.51 550.124 574.097 551.185L658.042 306.601C658.042 306.336 657.79 306.336 657.79 306.601C550.149 512.72 569.56 483.805 565.527 508.741Z" fill="#F3E2E7"/>
<path d="M793.161 510.602C780.052 502.113 764.171 454.098 763.162 450.384C755.096 419.612 735.685 395.207 695.603 349.58C675.184 326.235 657.034 307.401 657.79 306.34C658.547 305.544 674.932 319.338 684.259 327.562C706.191 346.661 726.358 367.618 751.314 400.512C797.194 460.465 807.782 504.5 816.605 518.825C816.857 519.356 818.117 521.478 817.361 522.274C816.353 523.6 810.555 520.417 803.748 516.703C798.959 514.05 794.421 511.397 793.161 510.602Z" fill="#F3E2E7"/>
<path d="M597.038 542.169C594.769 540.578 605.861 516.437 623.003 488.849C637.119 466.035 638.632 467.892 651.74 445.344C659.051 433.141 665.605 420.938 667.118 421.734C668.126 421.999 666.866 425.979 665.857 431.549C660.563 458.607 667.37 472.137 664.849 491.502C664.849 492.563 664.345 495.746 665.353 496.011C666.361 496.542 669.134 491.502 671.907 487.257C674.68 483.278 679.218 479.034 688.041 470.81C705.435 454.363 707.2 454.894 707.956 455.424C709.468 456.485 707.704 459.934 707.956 472.667C707.956 473.728 707.956 483.543 711.989 491.502C712.493 492.297 713.25 493.624 714.51 494.42C716.275 495.481 718.795 495.746 724.845 492.828C733.921 488.318 735.181 483.809 738.206 484.604C740.727 485.4 740.223 488.849 744.76 497.603C748.037 504.235 759.129 506.092 758.121 508.214C756.86 510.867 741.987 511.662 740.475 511.928C688.041 520.947 627.792 536.864 611.155 538.455C609.894 538.721 606.617 538.986 602.584 540.312C598.55 541.639 597.542 542.7 597.038 542.169Z" fill="#F3E2E7"/>
<path d="M341.795 743.464C341.554 746.869 341.554 746.869 340.759 749.789C338.994 750.319 338.145 749.884 327.557 731.314C316.465 711.949 311.676 705.583 301.34 685.156C292.013 666.057 286.719 653.058 283.442 648.283C283.442 648.283 274.619 632.897 269.829 616.45C269.073 613.797 268.821 610.879 268.821 610.879C268.821 608.757 268.569 606.37 269.073 605.574C270.837 603.186 303.609 620.164 333.859 642.447C342.178 648.814 361.084 663.404 366.882 664.465C367.135 664.73 367.891 664.73 368.395 665.526C370.412 668.179 362.345 674.015 359.572 682.769C353.018 701.869 353.018 718.846 350.749 723.621C347.724 729.723 345.707 733.702 344.951 733.702C344.195 733.702 343.943 720.173 343.943 720.173C343.943 720.173 334.615 722.295 333.355 720.438C330.33 715.398 349.489 700.012 346.716 694.971C344.699 691.258 332.095 696.298 331.086 693.645C329.574 690.462 345.959 684.626 345.959 676.137C345.959 664.465 314.196 659.159 298.063 641.121C297.559 640.325 296.55 639.264 295.794 639.529C292.769 641.121 313.44 689.666 323.019 709.827C333.355 731.049 334.032 727.057 338.318 734.22C338.822 735.015 339.396 736.166 340.167 738.598C340.708 740.305 341.554 742.004 341.795 743.464Z" fill="#F3E2E7"/>
<path d="M1453.63 1972.8C1434.47 2002.51 1378.76 2040.44 1347.75 2059.54C1333.13 2068.56 1317.25 2065.91 1295.57 2069.62C1202.05 2085.54 1109.03 2064.58 1032.9 2040.71C1014.49 2034.87 968.865 1998.26 949.202 2005.96C920.969 2019.22 925.002 2055.03 910.633 2082.62C901.054 2103.84 875.845 2181.04 868.031 2198.28C848.116 2242.32 823.159 2287.68 799.211 2328.53C780.809 2360.1 733.669 2418.99 680.982 2387.95C656.278 2373.36 657.538 2353.2 653.757 2332.24C653.505 2331.45 653.505 2320.04 652.749 2320.04C649.976 2320.04 649.976 2320.04 646.699 2320.04C640.312 2328.18 633.842 2336.31 627.288 2344.45C590.736 2379.73 535.781 2371.24 522.924 2318.45C514.353 2283.7 530.235 2248.68 539.31 2225.87C556.284 2170.87 573.257 2115.87 590.231 2060.87C599.306 2015.24 578.635 1978.1 566.787 1948.13C544.604 1890.83 538.301 1822.65 515.866 1764.29C506.539 1739.62 488.64 1726.89 481.582 1709.38C473.263 1688.42 454.861 1602.47 440.24 1595.04C393.352 1572.76 380.747 1647.04 353.774 1657.12C298.819 1677.81 274.871 1596.37 271.342 1554.46C225.714 1538.54 191.43 1466.39 213.362 1399.8C232.773 1341.71 273.611 1299.79 351.001 1301.38C357.808 1292.36 368.395 1287.86 375.706 1279.63L390.831 1215.97C398.73 1200.58 406.544 1185.11 414.275 1169.54C425.115 1152.83 444.777 1131.61 460.911 1120.47C470.154 1115.69 479.313 1110.83 488.388 1105.88C483.347 1104.64 478.809 1103.14 474.776 1101.37C484.355 1098.45 492.926 1097.65 499.984 1097.65C535.529 1097.39 549.897 1118.61 588.971 1117.28C606.617 1116.49 606.617 1111.98 643.421 1101.1C698.881 1084.65 726.61 1076.43 754.844 1083.59C787.615 1091.82 782.321 1109.59 839.041 1136.65C868.787 1150.71 889.962 1160.52 912.65 1152.3C934.833 1144.08 950.715 1121.79 956.765 1113.3C965.84 1100.31 970.63 1088.9 972.142 1085.45C972.142 1085.45 974.915 1079.08 981.47 1066.62C991.805 1047.25 1011.22 1014.09 1043.99 968.198C1078.77 920.184 1158.18 907.716 1213.89 905.328C1229.69 915.762 1245.49 926.197 1261.29 936.631C1312.21 976.157 1363.13 1031.6 1398.67 1087.04C1460.69 1183.87 1505.31 1292.36 1533.54 1425.8C1574.88 1621.31 1531.27 1853.69 1453.63 1972.8Z" fill="url(#paint0_linear_537_704)"/>
<path d="M452.592 564.451C454.104 592.305 432.173 667.643 427.887 684.356C426.879 684.621 425.619 684.886 424.106 685.151C420.829 685.417 417.552 684.621 414.779 682.499L414.275 682.233C408.477 638.198 431.164 593.897 452.592 564.451Z" fill="#EC92AD"/>
<path d="M605.104 648.279C649.22 668.175 668.882 730.78 695.856 769.775C728.375 816.729 764.675 864.479 792.153 915.942C795.934 927.614 826.941 991.28 839.041 1011.44C868.283 1063.97 896.768 1166.89 896.768 1245.94C895.76 1245.41 816.605 1054.95 815.597 1054.95C820.134 1149.91 802.236 1183.87 802.236 1182.81C788.623 1118.35 786.355 1060.25 767.448 1011.44C718.796 885.966 670.647 757.307 605.104 648.279Z" fill="#EC92AD"/>
<path d="M419.568 717.775C432.173 731.304 435.702 790.196 441.5 813.275C450.743 845.638 459.902 877.913 468.977 910.1C486.875 953.34 517.63 978.806 515.865 1034.51C514.521 1034.51 513.093 1034.51 511.58 1034.51C438.475 1004.8 407.216 832.64 419.568 717.775Z" fill="#EC92AD"/>
<path d="M1016.01 906.918C1015.5 950.158 971.638 1037.7 953.488 1069.53C950.463 1070.06 920.465 1058.39 917.692 1047.78C915.171 1037.43 966.849 901.347 973.655 895.246C986.259 899.756 1000.88 905.857 1016.01 906.918Z" fill="#EC92AD"/>
<path d="M1260.28 1499.28C1193.22 1499.81 1107.51 1451.79 1060.12 1422.88C1058.36 1421.82 1057.35 1419.43 1058.1 1417.31C1058.61 1415.18 1059.36 1413.06 1059.87 1411.21C1060.62 1409.08 1062.39 1408.02 1064.41 1408.02C1095.16 1409.35 1106.25 1428.45 1127.18 1438.26C1161.71 1454.71 1211.62 1471.42 1257.25 1473.01C1259.77 1473.01 1262.04 1470.89 1262.04 1467.97C1262.55 1397.94 1255.24 1335.34 1236.83 1287.85C1236.67 1287.68 1236.58 1287.5 1236.58 1287.32C1235.32 1281.49 1232.04 1275.92 1230.53 1270.08C1230.53 1269.55 1230.03 1268.75 1229.52 1268.22C1225.99 1264.24 1219.94 1264.51 1216.67 1258.94C1213.39 1253.37 1237.09 1228.43 1240.36 1211.98C1252.46 1150.71 1194.99 1055.74 1161.71 1024.7C1157.68 1026.03 1156.67 1026.56 1152.64 1027.88C1150.12 1044.06 1141.54 1049.37 1134.23 1060.78C1105.75 1103.75 1091.13 1151.5 1022.06 1151.77C1020.29 1151.77 1019.03 1153.62 1017.77 1155.21C997.855 1183.33 973.655 1207.74 955.253 1227.1C908.365 1276.71 836.52 1402.72 771.23 1419.43C725.35 1431.37 668.378 1416.25 612.919 1425.27C583.677 1430.04 468.726 1445.16 443.517 1439.86C441.248 1439.32 439.736 1436.94 439.988 1434.55C440.24 1430.04 438.475 1426.86 443.517 1424.2C464.44 1418.9 483.095 1427.92 501.497 1423.94C528.554 1417.57 555.612 1411.29 582.669 1405.1C582.669 1405.1 582.753 1405.1 582.921 1405.1C655.27 1392.37 721.316 1398.74 787.867 1385.47C789.38 1385.21 796.438 1377.78 797.447 1376.45C818.622 1354.97 829.209 1342.5 843.83 1326.32C864.754 1303.24 886.937 1280.96 905.844 1256.02C931.304 1222.86 950.211 1203.76 992.814 1154.15C995.587 1150.97 997.099 1149.38 996.847 1147.52C996.847 1145.93 996.847 1143.81 993.822 1142.22C962.815 1125.5 978.697 1076.16 988.276 1047.78C1000.88 1010.64 1082.05 944.852 1138.27 957.85C1214.15 975.889 1247.93 1026.82 1268.85 1104.02C1273.89 1122.32 1283.72 1150.17 1278.68 1176.17C1278.51 1176.35 1278.43 1176.53 1278.43 1176.7C1274.39 1187.84 1272.63 1203.76 1268.6 1214.64C1268.6 1214.81 1268.6 1214.9 1268.6 1214.9C1263.3 1235.33 1261.03 1249.65 1247.17 1262.12C1245.4 1263.71 1244.9 1266.37 1246.16 1268.22C1273.89 1318.89 1285.74 1383.35 1288.01 1457.1C1289.52 1498.22 1286.24 1557.64 1293.05 1592.12C1293.3 1593.71 1294.56 1595.04 1295.82 1595.57C1353.8 1622.1 1501.02 1754.74 1518.16 1816.28C1518.33 1817.17 1518.33 1817.96 1518.16 1818.67C1514.13 1836.71 1508.33 1853.68 1502.53 1870.13C1502.36 1870.66 1502.03 1871.19 1501.52 1871.72C1462.2 1917.09 1382.29 1969.88 1295.82 1929.82C1246.66 1907.01 1213.64 1875.97 1180.37 1834.59C1157.68 1806.47 1135.49 1774.63 1113.56 1745.19C1077.01 1696.38 1047.77 1643.06 1013.23 1591.59C998.107 1569.31 983.99 1543.31 967.857 1521.03C967.857 1520.85 967.773 1520.68 967.605 1520.5C957.017 1509 946.514 1497.51 936.094 1486.01C933.321 1480.71 935.086 1479.38 937.859 1476.73C938.531 1476.2 939.287 1475.84 940.127 1475.67C958.278 1472.48 976.932 1500.34 985.755 1512.54C985.755 1512.72 985.839 1512.81 986.007 1512.81C1002.39 1530.31 1016.01 1555.25 1031.13 1575.15C1031.3 1575.32 1031.38 1575.41 1031.38 1575.41C1045.5 1598.49 1059.36 1614.94 1073.73 1638.02C1128.44 1719.72 1188.43 1829.01 1268.85 1882.6C1290.28 1896.92 1333.38 1926.64 1370.69 1918.68C1412.29 1909.92 1440.01 1890.56 1469 1871.72C1482.87 1862.44 1487.66 1843.34 1479.59 1827.95C1436.99 1748.11 1350.52 1653.14 1270.86 1628.73C1268.85 1628.2 1267.59 1626.34 1267.34 1624.22C1266.5 1584.25 1265.66 1544.2 1264.81 1504.05C1264.81 1501.4 1262.8 1499.28 1260.28 1499.28Z" fill="#EC92AD"/>
<path d="M592.752 1132.93C683.251 1129.48 618.212 1293.16 555.695 1270.61C513.597 1255.22 539.814 1181.48 556.955 1157.6C565.778 1145.67 579.643 1140.89 592.752 1132.93Z" fill="#EC92AD"/>
<path d="M456.625 1145.93C525.949 1150.44 468.725 1282.29 419.568 1264.78C355.79 1241.96 426.627 1161.05 456.625 1145.93Z" fill="#EC92AD"/>
<path d="M675.436 1183.61C704.93 1204.83 727.87 1290.25 706.946 1331.36C692.578 1334.81 629.052 1353.12 616.195 1335.61C616.195 1333.66 616.195 1331.72 616.195 1329.77C665.604 1310.14 676.948 1253.37 675.436 1183.61Z" fill="#EC92AD"/>
<path d="M530.991 1193.68C528.47 1230.29 519.395 1283.34 515.866 1306.69C512.841 1325.52 521.412 1350.19 514.353 1363.19C505.782 1368.85 497.127 1374.6 488.388 1380.43C456.625 1375.92 448.811 1331.89 448.559 1295.01C472.003 1284.14 524.689 1223.39 530.991 1193.68Z" fill="#EC92AD"/>
<path d="M275.122 1344.36C294.533 1343.83 324.027 1357.62 331.59 1370.36C262.77 1369.83 248.401 1445.16 238.066 1507.77C236.721 1507.24 235.377 1506.8 234.032 1506.44C191.934 1428.45 227.226 1391.05 275.122 1344.36Z" fill="#EC92AD"/>
<path d="M448.559 1373.28C459.147 1376.73 466.457 1377.79 476.289 1385.21C480.07 1388.13 478.809 1390.79 474.776 1395.56C455.87 1412.54 429.148 1423.41 407.217 1421.03C394.36 1419.7 375.958 1418.64 367.639 1424.48C365.623 1425.54 365.875 1427.39 366.127 1428.99C372.681 1467.18 427.132 1564.54 412.511 1595.31C408.225 1595.58 406.965 1595.58 402.931 1595.58C385.285 1568.25 324.785 1462.14 355.035 1410.95C370.412 1384.68 425.367 1391.85 448.559 1373.28Z" fill="#EC92AD"/>
</g>
</g>
<defs>
<linearGradient id="paint0_linear_537_704" x1="129.964" y1="2396.73" x2="129.964" y2="905.219" gradientUnits="userSpaceOnUse">
<stop stop-color="#F3E2E7"/>
<stop offset="1" stop-color="#F3E2E7"/>
</linearGradient>
<clipPath id="clip0_537_704">
<rect width="1500" height="1500" fill="white"/>
</clipPath>
<clipPath id="clip1_537_704">
<rect width="1682" height="1770" fill="white" transform="translate(23 -197)"/>
</clipPath>
</defs>
</svg>
