<svg width="1500" height="1500" viewBox="0 0 1500 1500" fill="none" xmlns="http://www.w3.org/2000/svg">
<path d="M1148.44 0H351.562C157.4 0 0 157.4 0 351.562V1148.44C0 1342.6 157.4 1500 351.562 1500H1148.44C1342.6 1500 1500 1342.6 1500 1148.44V351.562C1500 157.4 1342.6 0 1148.44 0Z" fill="#65636D"/>
<path d="M581.4 587H522.6V431.6H381.6V587H322.2V224.6L374.4 172.4H581.4V587ZM559.8 224.6H381.6V424.4L426.6 379.4H522.6V261.8L559.8 224.6ZM717.628 587H658.228V172.4H717.628V587ZM1053.55 587H994.153L995.353 545L876.553 425.6L916.753 379.4H994.153V224.6H853.753V587H794.353V275.6L846.553 224.6H787.153V172.4H1001.35L1053.55 224.6V372.2L1001.35 424.4H952.753V432.2L1053.55 531.8V587ZM1173.86 587H1114.46V172.4H1173.86V587Z" fill="#C3BEC6"/>
<path d="M703.293 1218.3L479.705 1080.15L642.7 831.11L1040.19 1047.43L1002.62 1251.02L703.293 1218.3Z" fill="#FFEBEB"/>
<path d="M1017.16 896.55V755.975H1102.6L1168.04 951.69L1017.16 896.55Z" fill="#FFEBEB"/>
<path fill-rule="evenodd" clip-rule="evenodd" d="M1496.06 1201.28C1480.64 1172.32 1463.87 1144.52 1445.72 1117.59C1407.28 1060.61 1352.21 1003.64 1297.14 963.017L1245.89 930.848C1238.62 926.122 1231.44 921.488 1224.36 916.944C1218.9 912.037 1213.45 903.04 1209.36 895.407C1204.39 886.278 1198.7 879.564 1193.1 872.949C1183.64 861.785 1174.42 850.901 1169.29 829.161C1198.91 861.33 1228.63 893.59 1258.43 925.94C1259.09 877.789 1221.09 821.73 1191.69 778.36C1184.47 767.71 1177.77 757.825 1172.28 749.011C1153.25 718.521 1131.37 691.45 1109.51 664.409C1097.56 649.62 1085.61 634.841 1074.14 619.517C1058.15 599.161 1042.25 578.806 1026.43 558.45C957.461 503.108 818.698 435.499 697.928 436.589C681.934 437.134 666.031 437.68 650.219 438.225C641.452 439.502 632.783 440.607 624.296 441.688C592.93 445.683 564.031 449.365 541.717 460.307C515.364 478.663 489.102 497.02 462.93 515.376C461.899 516.997 460.589 519.812 459.01 523.203C454.749 532.361 448.533 545.718 440.575 551.089C302.357 646.233 285.728 813.349 333.436 1004.73C336.154 1015.48 337.696 1037.36 339.23 1059.13C341.08 1085.39 342.918 1111.48 346.794 1117.59L358.79 1125.23C370.785 1114.59 392.594 1078.06 394.503 1073.15C401.095 1080.94 405.995 1088.78 410.651 1096.23C419.858 1110.97 428.104 1124.17 446.573 1132.31C450.935 1134.13 455.842 1135.68 461.294 1136.95C451.48 1142.04 441.575 1147.03 431.579 1151.94C414.131 1163.39 392.867 1185.2 381.144 1202.38C372.784 1218.37 364.333 1234.27 355.791 1250.08L339.434 1315.51C335.824 1319.37 331.476 1322.43 327.116 1325.51C321.925 1329.16 316.717 1332.83 312.717 1337.87C229.023 1336.23 184.859 1379.31 163.867 1439.01C163.221 1440.87 162.621 1442.74 162.064 1444.61C216.749 1479.67 281.781 1500 351.563 1500H1148.44C1324.64 1500 1470.57 1370.37 1496.06 1201.28ZM1064.51 861.118C1054.47 854.417 1044.97 848.08 1036.79 845.518C1031.74 835.597 1037.5 819.43 1042.71 804.842C1044.8 798.985 1046.8 793.382 1047.97 788.541L1055.06 797.264C1060.7 806.453 1063.82 813.62 1066.6 820.011C1069.59 826.893 1072.19 832.877 1077.14 839.52C1089.95 853.424 1118.58 881.231 1118.58 881.231C1101.69 885.931 1082.25 872.956 1064.51 861.118ZM990.448 1107.27C993.181 1103.43 996.262 1099.11 996.718 1099.87C995.355 1126.86 908.935 1221.73 882.218 1211.37C879.31 1207.37 876.312 1203.38 873.222 1199.38C859.954 1189.54 845.627 1183.45 830.997 1177.23C818.873 1172.08 806.542 1166.84 794.435 1159.3C789.907 1156.52 785.712 1153.26 781.469 1149.96C772.43 1142.93 763.171 1135.74 749.998 1132.59C722.191 1126.04 686.478 1118.14 656.217 1126.59C649.401 1128.5 639.315 1131.22 628.955 1132.04C623.23 1132.59 617.233 1132.31 611.508 1130.95C592.788 1122.04 573.977 1113.14 555.075 1104.23C551.456 1102.35 547.837 1100.78 544.315 1099.24C534.572 1095.01 525.57 1091.09 519.362 1081.88V1070.16C532.216 1056.15 547.748 1044.89 563.283 1033.63C577.072 1023.64 590.862 1013.65 602.784 1001.73C615.658 988.713 624.787 972.174 633.907 955.654C642.36 940.339 650.805 925.041 662.215 912.582C686.932 916.944 711.65 921.397 736.367 925.94C768.809 944.751 860.681 1094.69 873.222 1139.95C874.312 1140.49 875.312 1141.04 876.221 1141.58C882.203 1135.3 889.995 1121.5 898.462 1106.52C912.759 1081.22 928.979 1052.51 941.649 1050.8C946.147 1056.25 949.419 1064.77 952.69 1073.29C955.962 1081.81 959.233 1090.33 963.731 1095.78C967.581 1098.5 970.59 1100.23 973.17 1101.7C978.081 1104.51 981.439 1106.43 986.086 1112.68C986.327 1113.05 988.278 1110.31 990.448 1107.27Z" fill="#F1D0DB"/>
<path d="M577.829 554.53L686.621 296.032C686.621 296.032 769.218 335.867 865.066 531.603L577.829 554.53Z" fill="#F1D0DB"/>
<path d="M215.084 619.876C215.084 619.876 287.509 595.517 363.017 611.852C438.833 628.187 303.227 772.338 303.227 772.338C303.227 772.338 201.215 644.522 215.084 619.876Z" fill="#F1D0DB"/>
<path d="M573.822 514.695C573.822 514.695 571.356 559.402 584.3 560.548L686.929 296.319C686.929 296.033 686.621 296.033 686.621 296.319C555.022 518.994 578.753 487.756 573.822 514.695Z" fill="#EC92AD"/>
<path d="M852.121 516.704C836.095 507.533 816.679 455.662 815.446 451.65C805.584 418.406 781.853 392.041 732.85 342.749C707.886 317.529 685.696 297.182 686.621 296.036C687.545 295.176 707.578 310.078 718.981 318.962C745.794 339.596 770.45 362.236 800.961 397.772C857.052 462.54 869.996 510.113 880.783 525.588C881.091 526.161 882.632 528.454 881.708 529.314C880.475 530.746 873.387 527.307 865.065 523.295C859.21 520.43 853.662 517.564 852.121 516.704Z" fill="#EC92AD"/>
<path d="M612.347 550.807C609.573 549.087 623.133 523.008 644.091 493.204C661.349 468.558 663.198 470.564 679.225 446.204C688.162 433.021 696.175 419.839 698.025 420.698C699.257 420.985 697.716 425.284 696.484 431.302C690.012 460.533 698.333 475.149 695.251 496.069C695.251 497.216 694.634 500.655 695.867 500.941C697.1 501.514 700.49 496.069 703.88 491.484C707.27 487.185 712.818 482.6 723.605 473.716C744.87 455.948 747.028 456.521 747.952 457.094C749.801 458.241 747.644 461.966 747.952 475.722C747.952 476.868 747.952 487.472 752.883 496.069C753.5 496.929 754.424 498.362 755.965 499.222C758.122 500.368 761.204 500.655 768.601 497.502C779.696 492.63 781.237 487.759 784.935 488.618C788.017 489.478 787.401 493.204 792.948 502.661C796.955 509.825 810.515 511.831 809.283 514.124C807.742 516.99 789.558 517.85 787.709 518.136C723.605 527.88 649.946 545.075 629.605 546.794C628.064 547.081 624.058 547.368 619.127 548.801C614.196 550.233 612.963 551.38 612.347 550.807Z" fill="#EC92AD"/>
<path d="M304.152 765.175C306.925 767.468 305.076 776.065 301.994 776.925C299.837 777.498 295.83 775.206 282.886 755.145C269.326 734.224 263.47 727.346 250.834 705.28C239.431 684.646 232.959 670.603 228.952 665.445C228.952 665.445 218.166 648.823 212.31 631.055C211.385 628.189 211.077 625.037 211.077 625.037C211.077 622.744 210.769 620.165 211.385 619.305C213.543 616.726 253.608 635.067 290.591 659.14C300.762 666.018 323.876 681.78 330.965 682.926C331.273 683.213 332.197 683.213 332.814 684.073C335.279 686.938 325.417 693.243 322.027 702.7C314.014 723.334 314.014 741.675 311.24 746.834C307.542 753.425 305.076 757.724 304.152 757.724C303.227 757.724 302.919 743.108 302.919 743.108C302.919 743.108 291.516 745.401 289.975 743.395C286.276 737.95 309.699 721.328 306.309 715.883C303.844 711.871 288.434 717.316 287.201 714.45C285.352 711.011 305.384 704.706 305.384 695.536C305.384 682.926 266.552 677.194 246.828 657.707C246.211 656.847 244.978 655.701 244.054 655.987C240.355 657.707 265.627 710.151 277.339 731.932C289.975 754.858 291.824 751.419 297.063 759.157C297.68 760.017 298.912 762.023 301.378 763.742C302.919 764.602 303.535 764.602 304.152 765.175Z" fill="#EC92AD"/>
<path d="M422.582 580.531C424.217 609.156 400.499 686.58 395.865 703.755C394.774 704.028 393.411 704.3 391.776 704.573C388.232 704.846 384.688 704.028 381.689 701.847L381.144 701.574C374.873 656.319 399.409 610.792 422.582 580.531Z" fill="#EC92AD"/>
<path d="M362.334 627.689C356.064 646.228 345.977 668.037 339.707 686.575C339.343 687.12 339.161 687.757 339.161 688.484C328.529 738.645 325.803 859.143 336.435 910.668C348.794 962.647 361.153 1014.63 373.511 1066.61C380.6 1106.14 330.71 1191.47 309.446 1196.1C309.991 1195.28 312.717 1183.01 315.171 1172.93C316.443 1167.29 317.261 1161.66 317.625 1156.03C319.987 1120.22 322.259 1084.42 324.44 1048.61C325.531 1034.98 324.167 1021.35 320.896 1007.99C313.081 976.551 305.357 945.109 297.723 913.667C284.365 844.694 304.539 731.83 324.44 683.031C332.346 663.675 361.516 627.689 362.334 627.689Z" fill="#EC92AD"/>
<path d="M587.517 666.68C635.225 687.126 656.489 751.464 685.659 791.539C720.827 839.793 760.084 888.864 789.8 941.752C793.889 953.747 827.421 1019.18 840.507 1039.9C872.131 1093.87 902.937 1199.65 902.937 1280.89C901.846 1280.35 816.244 1084.6 815.153 1084.6C820.061 1182.2 800.705 1217.1 800.705 1216.01C785.983 1149.76 783.53 1090.06 763.083 1039.9C710.468 910.946 658.398 778.726 587.517 666.68Z" fill="#EC92AD"/>
<path d="M386.869 738.098C400.499 752.001 404.316 812.523 410.586 836.241C420.582 869.5 430.487 902.669 440.302 935.747C459.658 980.183 492.917 1006.35 491.009 1063.6C489.555 1063.6 488.01 1063.6 486.374 1063.6C407.315 1033.07 373.51 856.142 386.869 738.098Z" fill="#EC92AD"/>
<path d="M1031.89 932.48C1031.34 976.917 983.905 1066.88 964.276 1099.6C961.005 1100.14 928.563 1088.15 925.564 1077.24C922.838 1066.61 978.725 926.755 986.086 920.484C999.717 925.119 1015.53 931.389 1031.89 932.48Z" fill="#EC92AD"/>
<path d="M574.158 1164.75C672.029 1161.21 601.693 1329.41 534.083 1306.24C488.556 1290.43 516.908 1214.64 535.446 1190.1C544.988 1177.84 559.982 1172.93 574.158 1164.75Z" fill="#EC92AD"/>
<path d="M1496.06 1201.28C1480.64 1172.32 1463.87 1144.52 1445.72 1117.59C1407.28 1060.61 1352.21 1003.64 1297.14 963.015L1245.89 930.846C1185.64 933.299 1099.77 946.112 1062.15 995.456C1026.71 1042.62 1005.71 1076.7 994.537 1096.6C987.449 1109.41 984.45 1115.95 984.45 1115.95C984.368 1116.13 984.276 1116.33 984.175 1116.55C982.279 1120.69 977.139 1131.9 967.821 1144.58C961.278 1153.3 944.103 1176.2 920.112 1184.65C895.577 1193.11 872.677 1183.02 840.508 1168.57C808.924 1154.25 795.121 1142.46 784.323 1133.24C774.15 1124.56 766.645 1118.15 749.453 1114.05C718.92 1106.69 688.932 1115.14 628.957 1132.04L628.955 1132.04C611.932 1136.82 602.19 1140.4 595.121 1143C585.662 1146.48 580.991 1148.2 570.069 1148.67C548.106 1149.38 533.361 1143.83 518.866 1138.37C505.473 1133.33 492.295 1128.36 473.835 1128.49C466.202 1128.49 456.932 1129.31 446.573 1132.31C450.935 1134.13 455.842 1135.67 461.294 1136.95C451.48 1142.03 441.575 1147.03 431.579 1151.94C414.131 1163.39 392.867 1185.2 381.144 1202.37C372.784 1218.37 364.333 1234.27 355.791 1250.08L339.434 1315.51C335.824 1319.37 331.476 1322.43 327.116 1325.5C321.925 1329.16 316.717 1332.83 312.717 1337.87C229.023 1336.23 184.859 1379.3 163.867 1439.01C163.221 1440.87 162.621 1442.74 162.064 1444.61C216.748 1479.67 281.781 1500 351.563 1500H1148.44C1324.64 1500 1470.57 1370.37 1496.06 1201.28Z" fill="#F1D0DB"/>
<path d="M426.944 1178.11C501.915 1182.75 440.03 1318.24 386.869 1300.24C317.897 1276.8 394.503 1193.65 426.944 1178.11Z" fill="#EC92AD"/>
<path d="M663.577 1216.83C695.474 1238.64 720.282 1326.42 697.655 1368.68C682.115 1372.22 613.415 1391.03 599.512 1373.04C599.512 1371.04 599.512 1369.04 599.512 1367.04C652.945 1346.87 665.213 1288.52 663.577 1216.83Z" fill="#EC92AD"/>
<path d="M507.366 1227.18C504.64 1264.8 494.826 1319.33 491.009 1343.32C487.738 1362.67 497.007 1388.02 489.373 1401.38C480.104 1407.2 470.744 1413.11 461.294 1419.1C426.944 1414.47 418.492 1369.21 418.22 1331.32C443.573 1320.14 500.551 1257.71 507.366 1227.18Z" fill="#EC92AD"/>
<path d="M230.658 1382.03C251.65 1381.48 283.546 1395.66 291.725 1408.75C247.829 1408.42 224.419 1435.23 210.305 1470.47C197.375 1464.79 184.852 1458.35 172.792 1451.22C183.466 1426.48 205.447 1405.38 230.658 1382.03Z" fill="#EC92AD"/>
<path d="M418.22 1411.75C429.67 1415.29 437.577 1416.38 448.209 1424.01C452.298 1427.01 450.935 1429.74 446.573 1434.65C426.127 1452.09 397.229 1463.27 373.511 1460.82C359.608 1459.45 339.706 1458.36 330.71 1464.36C328.529 1465.45 328.801 1467.36 329.074 1469C330.53 1477.06 334.175 1487.7 338.908 1499.77C328.687 1499.41 318.577 1498.62 308.596 1497.4C306.932 1479.71 309.045 1463.38 317.079 1450.46C333.709 1423.47 393.14 1430.83 418.22 1411.75Z" fill="#EC92AD"/>
<path d="M1084.23 1447.46C1106.22 1448.36 1118.92 1457.25 1131.54 1466.08C1138 1470.61 1144.45 1475.12 1152.11 1478.54C1165.78 1484.72 1181.67 1490.94 1198.75 1496.42C1182.77 1498.71 1166.45 1499.93 1149.85 1500C1122.87 1487.22 1098.43 1473.65 1079.59 1462.72C1077.69 1461.63 1076.6 1459.18 1077.41 1457C1077.74 1455.7 1078.16 1454.4 1078.56 1453.15C1078.84 1452.31 1079.1 1451.5 1079.32 1450.73C1080.14 1448.55 1082.05 1447.46 1084.23 1447.46ZM1001.9 1077.24C1015.53 1039.07 1103.31 971.464 1164.11 984.822C1246.16 1003.36 1282.7 1055.7 1305.32 1135.04C1306 1137.37 1306.75 1139.85 1307.55 1142.46C1313.16 1160.91 1320.73 1185.78 1315.95 1209.19C1315.77 1209.37 1315.68 1209.55 1315.68 1209.73C1313.52 1215.41 1311.96 1222.29 1310.41 1229.15C1308.83 1236.13 1307.25 1243.08 1305.05 1248.72V1248.99C1304.42 1251.3 1303.83 1253.54 1303.26 1255.7C1298.63 1273.2 1295.22 1286.11 1281.88 1297.52C1279.97 1299.15 1279.42 1301.88 1280.79 1303.79C1304.77 1345.42 1317.76 1396.12 1323.26 1453.52C1314.81 1458.37 1306.13 1462.89 1297.25 1467.04C1294.88 1412.09 1286.64 1363.04 1270.7 1323.96C1270.52 1323.78 1270.43 1323.6 1270.43 1323.42C1269.7 1320.23 1268.36 1317.12 1267.02 1314C1265.84 1311.25 1264.65 1308.5 1263.88 1305.69C1263.88 1305.15 1263.34 1304.33 1262.79 1303.79C1261.15 1302.02 1258.99 1301.07 1256.79 1300.09C1253.89 1298.81 1250.9 1297.5 1248.89 1294.25C1247.16 1291.44 1252.41 1283.88 1258.64 1274.9C1265.14 1265.53 1272.71 1254.62 1274.52 1245.99C1287.6 1183.02 1225.45 1085.42 1189.46 1053.52C1187.28 1054.2 1185.92 1054.68 1184.55 1055.16C1183.19 1055.64 1181.83 1056.11 1179.65 1056.79C1177.72 1068.54 1172.53 1074.71 1166.87 1081.44C1164.51 1084.25 1162.07 1087.15 1159.74 1090.6C1154.57 1098.02 1149.82 1105.57 1145.14 1113.01C1121.97 1149.87 1100.58 1183.88 1038.43 1184.11C1036.7 1184.11 1035.42 1185.67 1034.19 1187.18C1034.06 1187.34 1033.92 1187.49 1033.79 1187.65C1014.65 1213.34 991.847 1236.01 973.039 1254.7C970.687 1257.04 968.397 1259.32 966.184 1261.53C950.968 1276.83 933.321 1299.2 914.165 1323.48C869.485 1380.11 816.593 1447.16 767.173 1459.18C741.14 1465.62 711.805 1464.4 681.138 1463.12C653.354 1461.97 624.476 1460.77 595.968 1465.18C564.344 1470.08 440.029 1485.62 412.767 1480.17C410.314 1479.63 408.679 1477.17 408.951 1474.72C409.015 1473.63 408.958 1472.61 408.905 1471.66C408.733 1468.57 408.599 1466.17 412.767 1464.09C424.745 1461.2 436.036 1462.44 446.962 1463.64C456.676 1464.7 466.104 1465.74 475.471 1463.81C504.732 1457.27 533.993 1450.82 563.254 1444.46H563.526C601.818 1438.05 638.477 1436.35 674.366 1434.68C711.81 1432.94 748.417 1431.24 785.166 1424.28C786.802 1424.01 794.434 1416.38 795.525 1415.02C813.379 1397.8 824.272 1386.22 835.699 1374.07C838.929 1370.63 842.203 1367.16 845.687 1363.49C851.533 1357.36 857.469 1351.29 863.412 1345.21C880.473 1327.76 897.587 1310.25 912.751 1291.25C930.54 1269.23 945.371 1253.24 966.065 1230.94C977.402 1218.72 990.498 1204.6 1006.8 1186.56C1006.99 1186.36 1007.17 1186.17 1007.34 1185.98C1010 1183.09 1011.42 1181.54 1011.17 1179.75C1011.17 1178.11 1011.17 1175.93 1007.9 1174.29C974.363 1157.12 991.538 1106.41 1001.9 1077.24Z" fill="#EC92AD"/>
</svg>
