<svg width="1500" height="1500" viewBox="0 0 1500 1500" fill="none" xmlns="http://www.w3.org/2000/svg">
<g clip-path="url(#clip0_537_594)">
<rect width="1500" height="1500" rx="375" fill="#65636D"/>
<path d="M581.4 587H522.6V431.6H381.6V587H322.2V224.6L374.4 172.4H581.4V587ZM559.8 224.6H381.6V424.4L426.6 379.4H522.6V261.8L559.8 224.6ZM717.628 587H658.228V172.4H717.628V587ZM1053.55 587H994.153L995.353 545L876.553 425.6L916.753 379.4H994.153V224.6H853.753V587H794.353V275.6L846.553 224.6H787.153V172.4H1001.35L1053.55 224.6V372.2L1001.35 424.4H952.753V432.2L1053.55 531.8V587ZM1173.86 587H1114.46V172.4H1173.86V587Z" fill="#8E8C99"/>
<path d="M703.293 1218.3L479.705 1080.15L642.7 831.11L1040.19 1047.43L1002.62 1251.02L703.293 1218.3Z" fill="#FFF4F4"/>
<path d="M1017.16 896.55V755.975H1102.6L1168.04 951.69L1017.16 896.55Z" fill="#FFF4F4"/>
<g clip-path="url(#clip1_537_594)">
<path fill-rule="evenodd" clip-rule="evenodd" d="M1505.15 2027.87C1484.43 2058.4 1424.18 2097.38 1390.65 2117.01C1374.84 2126.28 1357.67 2123.56 1334.22 2127.37C1233.08 2143.73 1132.48 2122.19 1050.15 2097.66C1030.25 2091.66 980.906 2054.04 959.642 2061.94C929.108 2075.58 933.47 2112.38 917.931 2140.73C907.571 2162.54 880.31 2241.87 871.858 2259.59C850.321 2304.85 823.332 2351.47 797.433 2393.45C777.532 2425.89 726.552 2486.41 669.575 2454.52C642.858 2439.52 644.221 2418.8 640.132 2397.27C639.859 2396.45 639.859 2384.73 639.042 2384.73C636.043 2384.73 636.043 2384.73 632.499 2384.73C625.592 2393.09 618.595 2401.45 611.507 2409.81C571.977 2446.06 512.546 2437.34 498.643 2383.09C489.374 2347.38 506.549 2311.39 516.363 2287.95C534.719 2231.42 553.076 2174.9 571.432 2118.38C581.246 2071.49 558.892 2033.32 546.079 2002.51C522.088 1943.63 515.273 1873.56 491.009 1813.59C480.923 1788.23 461.566 1775.15 453.933 1757.16C444.937 1735.62 425.036 1647.29 409.224 1639.66C358.517 1616.76 344.886 1693.09 315.715 1703.45C256.284 1724.71 230.386 1641.02 226.569 1597.95C177.225 1581.59 140.149 1507.44 163.867 1439.01C184.858 1379.31 229.022 1336.23 312.716 1337.87C320.077 1328.6 331.527 1323.96 339.433 1315.51L355.79 1250.08C364.332 1234.27 372.784 1218.37 381.144 1202.38C392.867 1185.2 414.131 1163.39 431.579 1151.94C441.575 1147.03 451.48 1142.04 461.294 1136.95C455.842 1135.68 450.934 1134.13 446.573 1132.31C418.765 1120.05 414.131 1096.33 394.502 1073.15C392.594 1078.06 370.784 1114.59 358.789 1125.23C354.791 1122.68 350.792 1120.14 346.794 1117.59C339.706 1106.41 339.433 1028.45 333.436 1004.73C285.727 813.349 302.357 646.233 440.575 551.089C451.48 543.728 459.113 521.374 462.93 515.376C489.101 497.02 515.363 478.663 541.717 460.307C570.069 446.404 609.053 444.223 650.219 438.225C666.031 437.68 681.934 437.134 697.927 436.589C818.698 435.499 957.461 503.108 1026.43 558.45C1042.25 578.806 1058.15 599.161 1074.14 619.517C1106.58 662.863 1142.84 701.848 1172.28 749.011C1200.09 793.72 1259.25 865.964 1258.43 925.94C1228.63 893.59 1198.91 861.33 1169.29 829.161C1177.46 863.783 1196 870.871 1209.36 895.407C1213.45 903.04 1218.9 912.037 1224.35 916.944C1231.44 921.488 1238.62 926.122 1245.89 930.848C1262.98 941.571 1280.06 952.294 1297.14 963.017C1352.21 1003.64 1407.28 1060.61 1445.72 1117.59C1512.79 1217.1 1561.04 1328.6 1591.57 1465.73C1636.28 1666.65 1589.12 1905.46 1505.15 2027.87ZM1036.79 845.518C1059.42 852.606 1092.13 888.592 1118.58 881.231C1118.58 881.231 1089.95 853.424 1077.14 839.52C1067.6 826.707 1066.78 816.348 1055.06 797.264L1047.97 788.541C1043.88 805.443 1029.7 831.614 1036.79 845.518ZM996.718 1099.87C995.9 1098.51 986.631 1113.5 986.086 1112.68C978.998 1103.14 974.908 1103.69 963.731 1095.78C954.734 1084.88 950.645 1061.7 941.649 1050.8C921.475 1053.53 892.305 1124.68 876.22 1141.58C875.312 1141.04 874.312 1140.49 873.221 1139.95C860.681 1094.69 768.808 944.751 736.367 925.94C711.649 921.397 686.932 916.944 662.214 912.582C638.496 938.481 627.592 976.648 602.783 1001.73C577.43 1027.08 543.625 1043.71 519.362 1070.16V1081.88C527.813 1094.42 541.444 1097.15 555.075 1104.23C573.977 1113.14 592.787 1122.04 611.507 1130.95C617.232 1132.31 623.23 1132.59 628.955 1132.04C639.314 1131.22 649.401 1128.5 656.217 1126.59C686.477 1118.14 722.19 1126.04 749.998 1132.59C769.354 1137.22 780.258 1150.58 794.434 1159.3C821.151 1175.93 848.958 1181.38 873.221 1199.38C876.311 1203.38 879.31 1207.37 882.218 1211.37C908.935 1221.73 995.355 1126.86 996.718 1099.87Z" fill="#ED86A8"/>
<path d="M548.259 561.172L644.494 315.27C644.494 315.27 717.556 353.164 802.34 539.362L548.259 561.172Z" fill="#E082A0"/>
<path d="M227.386 623.336C227.386 623.336 291.452 600.164 358.244 615.703C425.308 631.242 305.355 768.37 305.355 768.37C305.355 768.37 215.119 646.781 227.386 623.336Z" fill="#E082A0"/>
<path d="M544.715 523.28C544.715 523.28 542.534 565.809 553.984 566.899L644.766 315.544C644.766 315.272 644.493 315.272 644.493 315.544C528.085 527.369 549.077 497.654 544.715 523.28Z" fill="#EAC6DB"/>
<path d="M790.89 525.191C776.714 516.467 759.539 467.123 758.448 463.306C749.724 431.683 728.733 406.602 685.386 359.711C663.304 335.721 643.676 316.365 644.493 315.274C645.311 314.456 663.032 328.632 673.118 337.084C696.836 356.712 718.646 378.249 745.635 412.054C795.252 473.666 806.702 518.921 816.243 533.642C816.516 534.187 817.879 536.368 817.061 537.186C815.971 538.549 809.701 535.278 802.34 531.461C797.16 528.735 792.253 526.009 790.89 525.191Z" fill="#EAC6DB"/>
<path d="M578.793 557.633C576.339 555.998 588.334 531.189 606.872 502.837C622.139 479.392 623.775 481.3 637.951 458.127C645.857 445.587 652.945 433.046 654.581 433.864C655.671 434.137 654.308 438.226 653.218 443.951C647.493 471.758 654.853 485.662 652.127 505.563C652.127 506.653 651.582 509.925 652.672 510.197C653.763 510.743 656.762 505.563 659.76 501.201C662.759 497.112 667.666 492.75 677.208 484.299C696.019 467.396 697.927 467.942 698.745 468.487C700.381 469.577 698.472 473.121 698.745 486.207C698.745 487.297 698.745 497.384 703.107 505.563C703.652 506.381 704.47 507.744 705.833 508.562C707.741 509.652 710.467 509.925 717.01 506.926C726.825 502.292 728.188 497.657 731.459 498.475C734.185 499.293 733.64 502.837 738.547 511.833C742.091 518.649 754.087 520.557 752.996 522.738C751.633 525.464 735.548 526.282 733.913 526.555C677.208 535.824 612.052 552.181 594.059 553.816C592.696 554.089 589.152 554.362 584.79 555.725C580.428 557.088 579.338 558.178 578.793 557.633Z" fill="#EAC6DB"/>
<path d="M306.173 761.556C308.627 763.737 306.991 771.915 304.265 772.733C302.357 773.279 298.813 771.098 287.363 752.014C275.367 732.113 270.188 725.57 259.01 704.579C248.923 684.95 243.198 671.592 239.654 666.685C239.654 666.685 230.113 650.873 224.933 633.97C224.115 631.244 223.842 628.245 223.842 628.245C223.842 626.064 223.57 623.611 224.115 622.793C226.023 620.339 261.464 637.787 294.178 660.687C303.174 667.23 323.621 682.224 329.891 683.314C330.164 683.587 330.982 683.587 331.527 684.405C333.708 687.131 324.984 693.129 321.985 702.125C314.897 721.754 314.897 739.201 312.444 744.108C309.172 750.379 306.991 754.468 306.173 754.468C305.355 754.468 305.083 740.564 305.083 740.564C305.083 740.564 294.996 742.745 293.633 740.837C290.361 735.657 311.08 719.845 308.082 714.665C305.901 710.849 292.27 716.029 291.179 713.302C289.544 710.031 307.264 704.033 307.264 695.31C307.264 683.314 272.914 677.862 255.466 659.324C254.921 658.506 253.83 657.415 253.013 657.688C249.741 659.324 272.096 709.213 282.455 729.932C293.633 751.742 295.269 748.47 299.903 755.831C300.448 756.649 301.539 758.557 303.72 760.193C305.083 761.011 305.628 761.011 306.173 761.556Z" fill="#EAC6DB"/>
<path d="M1505.15 2027.86C1484.43 2058.4 1424.18 2097.38 1390.65 2117.01C1374.84 2126.28 1357.67 2123.55 1334.22 2127.37C1233.08 2143.73 1132.48 2122.19 1050.15 2097.66C1030.25 2091.66 980.906 2054.04 959.642 2061.94C929.108 2075.57 933.47 2112.38 917.931 2140.73C907.571 2162.54 880.31 2241.87 871.858 2259.59C850.321 2304.85 823.332 2351.46 797.433 2393.45C777.532 2425.89 726.552 2486.41 669.575 2454.51C642.858 2439.52 644.221 2418.8 640.132 2397.26C639.859 2396.45 639.859 2384.72 639.042 2384.72C636.043 2384.72 636.043 2384.72 632.499 2384.72C625.592 2393.08 618.595 2401.44 611.507 2409.8C571.977 2446.06 512.546 2437.34 498.643 2383.09C489.374 2347.37 506.549 2311.39 516.363 2287.94C534.719 2231.42 553.076 2174.9 571.432 2118.37C581.246 2071.48 558.892 2033.32 546.079 2002.51C522.088 1943.63 515.273 1873.56 491.009 1813.59C480.923 1788.23 461.566 1775.15 453.933 1757.15C444.937 1735.62 425.036 1647.29 409.224 1639.66C358.517 1616.76 344.886 1693.09 315.715 1703.45C256.284 1724.71 230.386 1641.02 226.569 1597.94C177.225 1581.59 140.149 1507.44 163.867 1439.01C184.858 1379.3 229.022 1336.23 312.716 1337.87C320.077 1328.6 331.527 1323.96 339.433 1315.51L355.79 1250.08C364.332 1234.27 372.784 1218.37 381.144 1202.37C392.867 1185.2 414.131 1163.39 431.579 1151.94C441.575 1147.03 451.48 1142.03 461.294 1136.95C455.842 1135.67 450.934 1134.13 446.573 1132.31C456.932 1129.31 466.201 1128.49 473.834 1128.49C512.274 1128.22 527.813 1150.03 570.069 1148.67C589.152 1147.85 589.152 1143.22 628.955 1132.04C688.931 1115.14 718.919 1106.69 749.452 1114.05C784.893 1122.5 779.168 1140.76 840.507 1168.57C872.676 1183.02 895.576 1193.11 920.112 1184.65C944.102 1176.2 961.277 1153.3 967.82 1144.58C977.634 1131.22 982.814 1119.5 984.45 1115.95C984.45 1115.95 987.449 1109.41 994.537 1096.6C1005.71 1076.7 1026.71 1042.62 1062.15 995.456C1099.77 946.112 1185.64 933.299 1245.89 930.846C1262.98 941.569 1280.06 952.292 1297.14 963.015C1352.21 1003.64 1407.28 1060.61 1445.72 1117.59C1512.79 1217.1 1561.04 1328.6 1591.57 1465.72C1636.28 1666.64 1589.12 1905.46 1505.15 2027.86Z" fill="url(#paint0_linear_537_594)"/>
<path d="M422.582 580.531C424.218 609.156 400.5 686.58 395.865 703.755C394.775 704.028 393.412 704.3 391.776 704.573C388.232 704.846 384.688 704.028 381.689 701.847L381.144 701.574C374.874 656.319 399.409 610.792 422.582 580.531Z" fill="#FFC2D4"/>
<path d="M362.334 627.689C356.063 646.228 345.976 668.037 339.706 686.575C339.343 687.12 339.161 687.757 339.161 688.484C328.529 738.645 325.803 859.143 336.435 910.668C348.793 962.647 361.152 1014.63 373.511 1066.61C380.599 1106.14 330.71 1191.47 309.445 1196.1C309.991 1195.28 312.717 1183.01 315.171 1172.93C316.443 1167.29 317.261 1161.66 317.624 1156.03C319.987 1120.22 322.259 1084.42 324.44 1048.61C325.53 1034.98 324.167 1021.35 320.895 1007.99C313.08 976.551 305.356 945.109 297.723 913.667C284.364 844.694 304.538 731.83 324.44 683.031C332.345 663.675 361.516 627.689 362.334 627.689Z" fill="#FFC2D4"/>
<path d="M587.517 666.68C635.225 687.126 656.489 751.464 685.659 791.539C720.827 839.793 760.084 888.864 789.8 941.752C793.889 953.747 827.421 1019.18 840.507 1039.9C872.131 1093.87 902.937 1199.65 902.937 1280.89C901.846 1280.35 816.244 1084.6 815.153 1084.6C820.061 1182.2 800.705 1217.1 800.705 1216.01C785.983 1149.76 783.53 1090.06 763.083 1039.9C710.468 910.946 658.398 778.726 587.517 666.68Z" fill="#FFC2D4"/>
<path d="M386.869 738.1C400.5 752.003 404.317 812.525 410.587 836.243C420.583 869.502 430.488 902.671 440.302 935.748C459.658 980.185 492.918 1006.36 491.01 1063.61C489.556 1063.61 488.011 1063.61 486.375 1063.61C407.315 1033.07 373.511 856.144 386.869 738.1Z" fill="#FFC2D4"/>
<path d="M1031.89 932.48C1031.34 976.917 983.905 1066.88 964.276 1099.6C961.005 1100.14 928.563 1088.15 925.565 1077.24C922.838 1066.61 978.725 926.755 986.086 920.484C999.717 925.119 1015.53 931.389 1031.89 932.48Z" fill="#FFC2D4"/>
<path d="M1296.05 1541.24C1223.54 1541.78 1130.85 1492.44 1079.59 1462.72C1077.69 1461.63 1076.6 1459.18 1077.41 1457C1077.96 1454.82 1078.78 1452.64 1079.32 1450.73C1080.14 1448.55 1082.05 1447.46 1084.23 1447.46C1117.49 1448.82 1129.48 1468.45 1152.11 1478.54C1189.46 1495.44 1243.44 1512.61 1292.78 1514.25C1295.51 1514.25 1297.96 1512.07 1297.96 1509.07C1298.51 1437.1 1290.6 1372.76 1270.7 1323.96C1270.52 1323.78 1270.43 1323.6 1270.43 1323.42C1269.06 1317.42 1265.52 1311.69 1263.88 1305.69C1263.88 1305.15 1263.34 1304.33 1262.79 1303.79C1258.98 1299.7 1252.43 1299.97 1248.89 1294.25C1245.35 1288.52 1270.97 1262.89 1274.52 1245.99C1287.6 1183.02 1225.45 1085.42 1189.46 1053.52C1185.1 1054.89 1184.01 1055.43 1179.65 1056.79C1176.92 1073.42 1167.65 1078.88 1159.74 1090.6C1128.94 1134.76 1113.13 1183.83 1038.43 1184.11C1036.52 1184.11 1035.16 1186.02 1033.79 1187.65C1012.26 1216.55 986.086 1241.63 966.185 1261.53C915.478 1312.51 837.781 1442 767.173 1459.18C717.556 1471.45 655.944 1455.91 595.968 1465.18C564.344 1470.08 440.03 1485.62 412.768 1480.17C410.314 1479.63 408.679 1477.17 408.951 1474.72C409.224 1470.08 407.316 1466.81 412.768 1464.09C435.395 1458.63 455.569 1467.9 475.47 1463.81C504.731 1457.27 533.993 1450.82 563.254 1444.46C563.254 1444.46 563.345 1444.46 563.526 1444.46C641.768 1431.37 713.194 1437.92 785.166 1424.28C786.801 1424.01 794.435 1416.38 795.525 1415.02C818.425 1392.93 829.875 1380.12 845.687 1363.49C868.314 1339.77 892.305 1316.87 912.751 1291.25C940.286 1257.17 960.732 1237.54 1006.8 1186.56C1009.8 1183.29 1011.44 1181.65 1011.17 1179.75C1011.17 1178.11 1011.17 1175.93 1007.9 1174.29C974.363 1157.12 991.538 1106.41 1001.9 1077.24C1015.53 1039.07 1103.31 971.464 1164.11 984.822C1246.16 1003.36 1282.7 1055.7 1305.32 1135.04C1310.78 1153.85 1321.41 1182.47 1315.95 1209.19C1315.77 1209.37 1315.68 1209.55 1315.68 1209.73C1311.32 1221.18 1309.41 1237.54 1305.05 1248.72C1305.05 1248.9 1305.05 1248.99 1305.05 1248.99C1299.33 1269.98 1296.87 1284.7 1281.88 1297.52C1279.97 1299.15 1279.42 1301.88 1280.79 1303.79C1310.78 1355.86 1323.59 1422.1 1326.04 1497.89C1327.68 1540.15 1324.13 1601.21 1331.49 1636.65C1331.77 1638.29 1333.13 1639.65 1334.49 1640.2C1397.2 1667.46 1556.4 1803.77 1574.94 1867.02C1575.12 1867.93 1575.12 1868.74 1574.94 1869.47C1570.58 1888.01 1564.31 1905.46 1558.04 1922.36C1557.86 1922.9 1557.5 1923.45 1556.95 1924C1514.42 1970.61 1428 2024.86 1334.49 1983.7C1281.33 1960.25 1245.62 1928.36 1209.63 1885.83C1185.1 1856.93 1161.11 1824.22 1137.39 1793.96C1097.86 1743.79 1066.24 1689 1028.89 1636.11C1012.53 1613.21 997.263 1586.49 979.816 1563.59C979.816 1563.41 979.725 1563.23 979.543 1563.05C968.093 1551.23 956.734 1539.42 945.466 1527.61C942.467 1522.15 944.375 1520.79 947.374 1518.07C948.101 1517.52 948.919 1517.16 949.828 1516.97C969.456 1513.7 989.63 1542.33 999.172 1554.87C999.172 1555.05 999.263 1555.14 999.444 1555.14C1017.16 1573.13 1031.89 1598.76 1048.24 1619.21C1048.42 1619.39 1048.52 1619.48 1048.52 1619.48C1063.78 1643.2 1078.78 1660.1 1094.32 1683.82C1153.47 1767.78 1218.36 1880.1 1305.32 1935.17C1328.5 1949.89 1375.11 1980.43 1415.46 1972.25C1460.44 1963.25 1490.43 1943.35 1521.78 1924C1536.78 1914.45 1541.96 1894.82 1533.23 1879.01C1487.16 1796.95 1393.65 1699.36 1307.5 1674.28C1305.32 1673.73 1303.96 1671.82 1303.69 1669.64C1302.78 1628.57 1301.87 1587.4 1300.96 1546.14C1300.96 1543.42 1298.78 1541.24 1296.05 1541.24Z" fill="#FFC2D4"/>
<path d="M574.158 1164.75C672.029 1161.21 601.693 1329.41 534.083 1306.24C488.556 1290.43 516.908 1214.64 535.446 1190.1C544.988 1177.84 559.982 1172.93 574.158 1164.75Z" fill="#FFC2D4"/>
<path d="M426.944 1178.11C501.914 1182.75 440.029 1318.24 386.869 1300.24C317.896 1276.8 394.502 1193.65 426.944 1178.11Z" fill="#FFC2D4"/>
<path d="M663.577 1216.83C695.474 1238.64 720.282 1326.42 697.655 1368.68C682.115 1372.22 613.415 1391.03 599.512 1373.04C599.512 1371.04 599.512 1369.04 599.512 1367.04C652.945 1346.87 665.213 1288.52 663.577 1216.83Z" fill="#FFC2D4"/>
<path d="M507.366 1227.18C504.64 1264.8 494.826 1319.33 491.009 1343.32C487.738 1362.67 497.007 1388.02 489.373 1401.38C480.104 1407.2 470.744 1413.11 461.294 1419.1C426.944 1414.47 418.492 1369.21 418.22 1331.32C443.573 1320.14 500.551 1257.71 507.366 1227.18Z" fill="#FFC2D4"/>
<path d="M230.658 1382.03C251.649 1381.48 283.546 1395.66 291.724 1408.75C217.299 1408.2 201.76 1485.62 190.583 1549.96C189.129 1549.42 187.675 1548.96 186.221 1548.6C140.693 1468.45 178.86 1430.01 230.658 1382.03Z" fill="#FFC2D4"/>
<path d="M418.22 1411.75C429.67 1415.29 437.576 1416.38 448.209 1424.01C452.298 1427.01 450.935 1429.74 446.573 1434.65C426.127 1452.09 397.229 1463.27 373.511 1460.82C359.607 1459.45 339.706 1458.36 330.71 1464.36C328.529 1465.45 328.801 1467.36 329.074 1469C336.162 1508.25 395.048 1608.3 379.236 1639.93C374.601 1640.2 373.238 1640.2 368.876 1640.2C349.793 1612.12 284.365 1503.07 317.079 1450.46C333.709 1423.47 393.14 1430.83 418.22 1411.75Z" fill="#FFC2D4"/>
</g>
</g>
<defs>
<linearGradient id="paint0_linear_537_594" x1="73.676" y1="2463.54" x2="73.676" y2="930.734" gradientUnits="userSpaceOnUse">
<stop stop-color="#DF658E"/>
<stop offset="1" stop-color="#ED86A8"/>
</linearGradient>
<clipPath id="clip0_537_594">
<rect width="1500" height="1500" rx="375" fill="white"/>
</clipPath>
<clipPath id="clip1_537_594">
<rect width="1819" height="1819" fill="white" transform="translate(-42 -202)"/>
</clipPath>
</defs>
</svg>
