<svg xmlns="http://www.w3.org/2000/svg" width="1500" height="1500" fill="none"><style>.primary{fill:#f3e2e7}.accent{fill:#ec92ad}@media (prefers-color-scheme:dark){.primary{fill:#ed86a8}.accent{fill:#ffc2d4}}</style><g clip-path="url(#a)"><path fill="#EACACA" d="M442.5 953.5 669 697l411 230-94.5 207.5-316.5-30zm543-226.5 49-124.5 87 26.5 45 215z"/><path fill-rule="evenodd" d="M1540.03 1958.88c-21.76 32.07-85.05 73.03-120.27 93.64-16.61 9.74-34.65 6.88-59.28 10.89-106.24 17.18-211.91-5.44-298.4-31.22-20.9-6.3-72.735-45.82-95.072-37.51-32.073 14.32-27.491 52.98-43.815 82.76-10.882 22.91-39.518 106.24-48.396 124.86-22.623 47.53-50.974 96.5-78.179 140.6-20.905 34.08-74.456 97.65-134.307 64.15-28.064-15.75-26.632-37.52-30.927-60.14-.287-.86-.287-13.17-1.146-13.17h-6.873a2700 2700 0 0 1-22.05 26.34c-41.524 38.09-103.952 28.93-118.557-28.06-9.737-37.51 8.305-75.31 18.614-99.94 19.282-59.38 38.564-118.75 57.847-178.12 10.309-49.26-13.173-89.35-26.633-121.71-25.2-61.86-32.359-135.45-57.846-198.45-10.596-26.64-30.928-40.38-38.947-59.28-9.45-22.63-30.355-115.41-46.964-123.43-53.265-24.05-67.583 56.13-98.225 67.01-62.428 22.34-89.633-65.58-93.642-110.82-51.833-17.18-90.779-95.08-65.865-166.96 22.05-62.71 68.442-107.96 156.357-106.24 7.732-9.73 19.76-14.6 28.064-23.48l17.183-68.73c8.973-16.61 17.85-33.31 26.632-50.11 12.314-18.04 34.651-40.95 52.978-52.98q15.75-7.74 31.214-15.75c-5.727-1.34-10.882-2.96-15.463-4.87-29.21-12.89-34.078-37.801-54.697-62.143-2.005 5.155-24.914 43.528-37.514 54.693l-12.601-8.01c-7.445-11.746-7.732-93.647-14.032-118.561-50.114-201.031-32.646-376.576 112.543-476.518 11.455-7.732 19.474-31.214 23.483-37.515a31058 31058 0 0 1 82.76-57.846c29.783-14.605 70.733-16.896 113.975-23.196q24.913-.86 50.115-1.718c126.861-1.146 272.623 69.874 345.076 128.007 16.61 21.382 33.31 42.764 50.11 64.146 34.08 45.533 72.17 86.484 103.1 136.026 29.21 46.964 91.35 122.852 90.49 185.853-31.31-33.982-62.53-67.869-93.64-101.661 8.59 36.369 28.06 43.814 42.09 69.588 4.3 8.018 10.03 17.468 15.75 22.623 7.45 4.773 14.99 9.641 22.63 14.605 17.94 11.264 35.89 22.527 53.83 33.791 57.85 42.669 115.7 102.52 156.07 162.376 70.45 104.52 121.14 221.65 153.21 365.69 46.97 211.05-2.58 461.91-90.78 590.49M1048.05 716.899c23.77 7.446 58.13 45.247 85.91 37.515 0 0-30.07-29.21-43.53-43.815-10.02-13.459-10.88-24.341-23.19-44.387l-7.45-9.164c-4.29 17.755-19.19 45.246-11.74 59.851m-42.1 267.182c-.85-1.431-10.591 14.319-11.164 13.46-7.446-10.023-11.741-9.45-23.483-17.755-9.45-11.455-13.745-35.796-23.195-47.251-21.192 2.864-51.833 77.605-68.729 95.365a43 43 0 0 0-3.15-1.72c-13.173-47.54-109.679-205.042-143.757-224.802a11108 11108 0 0 0-77.893-14.032c-24.914 27.205-36.368 67.297-62.428 93.643-26.632 26.632-62.142 44.101-87.629 71.878v12.314c8.877 13.173 23.196 16.037 37.514 23.482a16624 16624 0 0 1 59.279 28.067c6.014 1.43 12.314 1.72 18.327 1.14 10.882-.86 21.478-3.72 28.637-5.72 31.787-8.88 69.302-.58 98.511 6.3 20.332 4.86 31.787 18.9 46.678 28.06 28.064 17.47 57.274 23.2 82.761 42.1q4.869 6.3 9.45 12.6c28.064 10.88 118.841-88.78 120.271-117.129" class="primary" clip-rule="evenodd"/><path d="m534.876 418.211 101.088-258.305s76.747 39.806 165.808 235.396zm-337.057 65.3s67.297-24.341 137.458-8.018c70.446 16.323-55.556 160.367-55.556 160.367s-94.788-127.721-81.902-152.349" class="primary"/><path d="M531.153 378.408s-2.291 44.674 9.736 45.819l95.361-264.032c0-.286-.286-.286-.286 0-122.28 222.509-100.229 191.295-104.811 218.213" class="accent"/><path d="M789.745 380.415c-14.892-9.164-32.933-60.997-34.078-65.006-9.164-33.219-31.215-59.565-76.747-108.82-23.196-25.201-43.815-45.533-42.956-46.678.86-.86 19.473 14.032 30.069 22.909 24.914 20.619 47.824 43.242 76.174 78.752 52.119 64.719 64.147 112.256 74.17 127.72.286.573 1.718 2.864.859 3.723-1.146 1.432-7.732-2.005-15.464-6.014-5.441-2.863-10.596-5.727-12.027-6.586M566.95 414.493c-2.578-1.718 10.023-27.778 29.496-57.56 16.036-24.628 17.754-22.623 32.646-46.965 8.304-13.173 15.75-26.346 17.468-25.487 1.146.287-.286 4.582-1.432 10.596-6.013 29.21 1.719 43.814-1.145 64.719 0 1.146-.573 4.582.573 4.869 1.145.572 4.295-4.869 7.445-9.451 3.15-4.295 8.305-8.877 18.328-17.754 19.759-17.755 21.764-17.183 22.623-16.61 1.718 1.146-.286 4.868 0 18.614 0 1.146 0 11.741 4.582 20.332.573.859 1.432 2.291 2.864 3.15 2.004 1.146 4.868 1.432 11.741-1.718 10.309-4.868 11.741-9.736 15.177-8.877 2.864.859 2.291 4.582 7.446 14.032 3.723 7.159 16.323 9.164 15.177 11.455-1.431 2.863-18.327 3.722-20.045 4.009-59.565 9.736-128.007 26.918-146.908 28.637-1.432.286-5.154.572-9.736 2.004s-5.728 2.578-6.3 2.005m-286.37 214.21c2.578 2.291.86 10.882-2.004 11.741-2.005.573-5.728-1.718-17.755-21.764-12.6-20.905-18.041-27.778-29.782-49.828-10.596-20.619-16.61-34.651-20.333-39.805 0 0-10.023-16.61-15.464-34.365-.859-2.863-1.145-6.013-1.145-6.013 0-2.291-.286-4.869.286-5.728 2.005-2.577 39.233 15.75 73.597 39.805 9.45 6.873 30.928 22.624 37.515 23.769.286.286 1.145.287 1.718 1.146 2.291 2.863-6.873 9.163-10.023 18.614-7.446 20.618-7.446 38.946-10.023 44.1-3.436 6.587-5.727 10.882-6.587 10.882s-1.145-14.604-1.145-14.604-10.596 2.291-12.028.286c-3.436-5.441 18.328-22.05 15.178-27.492-2.291-4.009-16.609 1.432-17.755-1.431-1.718-3.437 16.896-9.737 16.896-18.901 0-12.6-36.083-18.327-54.41-37.8-.573-.859-1.718-2.005-2.578-1.719-3.436 1.719 20.046 54.124 30.928 75.888 11.741 22.91 13.46 19.473 18.328 27.205.573.859 1.718 2.864 4.009 4.582 1.432.859 2.005.859 2.577 1.432" class="accent"/><path d="M1540.03 1958.88c-21.76 32.07-85.05 73.02-120.27 93.64-16.61 9.74-34.65 6.88-59.28 10.88-106.24 17.19-211.91-5.44-298.4-31.21-20.9-6.3-72.735-45.82-95.072-37.51-32.073 14.31-27.491 52.97-43.815 82.76-10.882 22.91-39.518 106.24-48.396 124.85-22.623 47.54-50.974 96.51-78.179 140.61-20.905 34.08-74.456 97.65-134.307 64.15-28.064-15.75-26.632-37.52-30.927-60.14-.287-.86-.287-13.17-1.146-13.17h-6.873a2700 2700 0 0 1-22.05 26.34c-41.524 38.09-103.952 28.93-118.557-28.06-9.737-37.52 8.305-75.32 18.614-99.94 19.282-59.38 38.564-118.75 57.847-178.13 10.309-49.25-13.173-89.34-26.633-121.7-25.2-61.86-32.359-135.45-57.846-198.46-10.596-26.63-30.928-40.37-38.947-59.27-9.45-22.63-30.355-115.41-46.964-123.43-53.265-24.05-67.583 56.13-98.225 67.01-62.428 22.34-89.633-65.58-93.642-110.82-51.833-17.19-90.779-95.08-65.865-166.96 22.05-62.71 68.442-107.96 156.357-106.24 7.732-9.74 19.76-14.6 28.064-23.48l17.183-68.73c8.973-16.61 17.85-33.31 26.632-50.12 12.314-18.04 34.651-40.95 52.978-52.97q15.75-7.74 31.214-15.75c-5.727-1.34-10.882-2.96-15.463-4.87 10.882-3.15 20.618-4.01 28.636-4.01 40.378-.29 56.701 22.62 101.089 21.19 20.045-.86 20.045-5.73 61.855-17.47 63.001-17.75 94.502-26.631 126.575-18.899 37.228 8.879 31.215 28.069 95.648 57.279 33.791 15.17 57.846 25.77 83.619 16.89 25.201-8.88 43.242-32.93 50.115-42.1 10.309-14.03 15.75-26.34 17.469-30.06 0 0 3.15-6.877 10.592-20.336 11.74-20.905 33.79-56.701 71.02-106.243 39.52-51.833 129.73-65.292 193.02-67.87 17.94 11.264 35.89 22.528 53.83 33.792 57.85 42.669 115.7 102.52 156.07 162.367 70.45 104.53 121.14 221.65 153.21 365.7 46.97 211.05-2.58 461.91-90.78 590.49" class="primary"/><path d="M402.86 438.547c1.719 30.069-23.195 111.397-28.064 129.439q-1.718.429-4.295.859c-3.723.286-7.446-.573-10.596-2.864l-.573-.286c-6.586-47.538 19.187-95.361 43.528-127.148m-63.286 49.539c-6.587 19.473-17.182 42.383-23.769 61.856q-.573.859-.573 2.004c-11.168 52.692-14.032 179.267-2.863 233.391l38.946 163.803c7.446 41.524-44.96 131.16-67.297 136.03.573-.86 3.437-13.75 6.014-24.35a113.6 113.6 0 0 0 2.577-17.75 22359 22359 0 0 0 7.16-112.83c1.145-14.319-.287-28.637-3.723-42.669a18708 18708 0 0 1-24.342-99.084c-14.032-72.451 7.16-191.008 28.065-242.268 8.304-20.332 38.946-58.133 39.805-58.133m236.54 40.957c50.115 21.478 72.452 89.061 103.093 131.157 36.942 50.687 78.179 102.234 109.393 157.789 4.296 12.6 39.519 81.329 53.265 103.093 33.219 56.701 65.578 167.808 65.578 253.148-1.145-.57-91.065-206.183-92.211-206.183 5.155 102.523-15.177 139.173-15.177 138.033-15.464-69.59-18.041-132.306-39.519-184.998C705.267 785.63 650.57 646.741 576.114 529.043m-210.768 75.019c14.318 14.605 18.328 78.179 24.914 103.093a30902 30902 0 0 1 31.214 104.525c20.332 46.678 55.269 74.17 53.265 134.307h-4.868c-83.047-32.073-118.557-217.927-104.525-341.925M1042.9 808.249c-.58 46.678-50.405 141.18-71.024 175.544-3.436.573-37.514-12.028-40.664-23.482-2.864-11.169 55.842-158.076 63.574-164.663 14.314 4.869 30.924 11.455 48.114 12.601" class="accent"/><path d="M1320.39 1447.71c-76.18.57-173.54-51.26-227.38-82.48-2.01-1.14-3.15-3.72-2.29-6.01.57-2.29 1.43-4.58 2-6.59.86-2.29 2.87-3.43 5.16-3.43 34.93 1.43 47.54 22.05 71.3 32.64 39.24 17.76 95.94 35.8 147.77 37.52 2.86 0 5.44-2.29 5.44-5.44.57-75.6-7.73-143.19-28.64-194.45-.19-.19-.28-.38-.28-.57-1.43-6.3-5.16-12.31-6.88-18.61 0-.58-.57-1.44-1.14-2.01-4.01-4.29-10.88-4.01-14.61-10.02-3.72-6.02 23.2-32.93 26.92-50.69 13.75-66.15-51.54-168.671-89.34-202.176-4.59 1.432-5.73 2.005-10.31 3.437-2.87 17.468-12.6 23.196-20.91 35.51-32.36 46.389-48.97 97.939-127.43 98.229-2.01 0-3.44 2-4.87 3.72-22.62 30.35-50.115 56.7-71.02 77.6-53.265 53.55-134.88 189.58-209.049 207.62-52.119 12.89-116.839-3.44-179.84 6.3-33.219 5.16-163.803 21.48-192.44 15.75-2.577-.57-4.296-3.15-4.009-5.73.286-4.86-1.718-8.3 4.009-11.16 23.769-5.73 44.96 4.01 65.865-.29 30.737-6.87 61.474-13.65 92.211-20.33h.286c82.188-13.75 157.217-6.88 232.818-21.19 1.718-.29 9.737-8.31 10.882-9.74 24.055-23.2 36.083-36.66 52.692-54.12 23.769-24.92 48.969-48.97 70.447-75.89 28.923-35.8 50.401-56.42 98.798-109.97 3.15-3.43 4.87-5.15 4.58-7.16 0-1.71 0-4.01-3.44-5.72-35.219-18.05-17.18-71.31-6.3-101.952 14.32-40.091 106.53-111.111 170.39-97.079 86.2 19.474 124.57 74.456 148.34 157.791 5.73 19.76 16.9 49.83 11.17 77.89-.19.19-.28.38-.28.57-4.59 12.03-6.59 29.21-11.17 40.95v.29c-6.02 22.05-8.59 37.52-24.34 50.97-2.01 1.72-2.58 4.59-1.15 6.59 31.5 54.7 44.96 124.29 47.54 203.9 1.72 44.38-2.01 108.53 5.72 145.76.29 1.72 1.72 3.15 3.15 3.72 65.87 28.64 233.11 171.82 252.58 238.26q.285 1.425 0 2.58c-4.58 19.47-11.17 37.8-17.75 55.55-.19.58-.58 1.15-1.15 1.72-44.67 48.97-135.45 105.96-233.68 62.72-55.84-24.63-93.35-58.14-131.15-102.81-25.78-30.36-50.98-64.72-75.89-96.51-41.52-52.69-74.74-110.25-113.98-165.81-17.18-24.05-33.21-52.11-51.542-76.17q0-.285-.286-.57a6492 6492 0 0 1-35.796-37.23c-3.15-5.73-1.146-7.16 2.005-10.02a6.2 6.2 0 0 1 2.577-1.15c20.618-3.43 41.81 26.63 51.832 39.81 0 .19.1.28.29.28 18.61 18.9 34.07 45.82 51.26 67.3.19.19.28.29.28.29 16.04 24.91 31.79 42.67 48.11 67.58 62.15 88.2 130.3 206.19 221.65 264.03 24.34 15.47 73.31 47.54 115.7 38.95 47.25-9.45 78.75-30.36 111.68-50.69 15.75-10.02 21.19-30.64 12.03-47.25-48.4-86.2-146.62-188.72-237.12-215.06-2.29-.58-3.72-2.58-4.01-4.87-.95-43.15-1.9-86.39-2.86-129.73a5.13 5.13 0 0 0-5.15-5.15m-758.308-395.48c102.806-3.72 28.923 172.97-42.097 148.63-47.823-16.61-18.041-96.22 1.432-121.99 10.023-12.89 25.774-18.05 40.665-26.64m-154.64 14.04c78.752 4.86 13.746 147.19-42.096 128.29-72.451-24.63 8.018-111.97 42.096-128.29" class="accent"/><path d="M656.011 1106.93c33.505 22.91 59.564 115.12 35.796 159.51-16.323 3.72-88.488 23.48-103.093 4.58v-6.3c56.128-21.19 69.015-82.47 67.297-157.79m-164.09 10.88c-2.864 39.52-13.173 96.79-17.182 121.99-3.437 20.33 6.3 46.97-1.718 61a6836 6836 0 0 0-29.496 18.61c-36.083-4.87-44.96-52.4-45.247-92.21 26.633-11.74 86.484-77.32 93.643-109.39m-290.665 162.66c22.051-.57 55.556 14.32 64.147 28.06-78.179-.57-94.502 80.76-106.243 148.34a42 42 0 0 0-4.582-1.43c-47.823-84.19-7.732-124.57 46.678-174.97m197.023 31.22c12.028 3.72 20.333 4.87 31.501 12.88 4.296 3.15 2.864 6.02-1.718 11.17-21.478 18.33-51.833 30.07-76.747 27.49-14.605-1.43-35.51-2.57-44.96 3.73-2.291 1.14-2.005 3.15-1.718 4.86 7.445 41.24 69.301 146.34 52.692 179.56-4.868.28-6.3.28-10.882.28-20.046-29.49-88.775-144.04-54.41-199.31 17.468-28.35 79.897-20.62 106.242-40.66" class="accent"/><path fill="#FFF4F4" d="M442.5 953.5 669 697l411 230-94.5 207.5-316.5-30zm543-226.5 49-124.5 87 26.5 45 215z"/><path fill-rule="evenodd" d="M1540.03 1958.88c-21.76 32.07-85.05 73.03-120.27 93.64-16.61 9.74-34.65 6.88-59.28 10.89-106.24 17.18-211.91-5.44-298.4-31.22-20.9-6.3-72.735-45.82-95.072-37.51-32.073 14.32-27.491 52.98-43.815 82.76-10.882 22.91-39.518 106.24-48.396 124.86-22.623 47.53-50.974 96.5-78.179 140.6-20.905 34.08-74.456 97.65-134.307 64.15-28.064-15.75-26.632-37.52-30.927-60.14-.287-.86-.287-13.17-1.146-13.17h-6.873a2700 2700 0 0 1-22.05 26.34c-41.524 38.09-103.952 28.93-118.557-28.06-9.737-37.51 8.305-75.31 18.614-99.94 19.282-59.38 38.564-118.75 57.847-178.12 10.309-49.26-13.173-89.35-26.633-121.71-25.2-61.86-32.359-135.45-57.846-198.45-10.596-26.64-30.928-40.38-38.947-59.28-9.45-22.63-30.355-115.41-46.964-123.43-53.265-24.05-67.583 56.13-98.225 67.01-62.428 22.34-89.633-65.58-93.642-110.82-51.833-17.18-90.779-95.08-65.865-166.96 22.05-62.71 68.442-107.96 156.357-106.24 7.732-9.73 19.76-14.6 28.064-23.48l17.183-68.73c8.973-16.61 17.85-33.31 26.632-50.11 12.314-18.04 34.651-40.95 52.978-52.98q15.75-7.74 31.214-15.75c-5.727-1.34-10.882-2.96-15.463-4.87-29.21-12.89-34.078-37.801-54.697-62.143-2.005 5.155-24.914 43.528-37.514 54.693l-12.601-8.01c-7.445-11.746-7.732-93.647-14.032-118.561-50.114-201.031-32.646-376.576 112.543-476.518 11.455-7.732 19.474-31.214 23.483-37.515a31058 31058 0 0 1 82.76-57.846c29.783-14.605 70.733-16.896 113.975-23.196q24.913-.86 50.115-1.718c126.861-1.146 272.623 69.874 345.076 128.007 16.61 21.382 33.31 42.764 50.11 64.146 34.08 45.533 72.17 86.484 103.1 136.026 29.21 46.964 91.35 122.852 90.49 185.853-31.31-33.982-62.53-67.869-93.64-101.661 8.59 36.369 28.06 43.814 42.09 69.588 4.3 8.018 10.03 17.468 15.75 22.623 7.45 4.773 14.99 9.641 22.63 14.605 17.94 11.264 35.89 22.527 53.83 33.791 57.85 42.669 115.7 102.52 156.07 162.376 70.45 104.52 121.14 221.65 153.21 365.69 46.97 211.05-2.58 461.91-90.78 590.49M1048.05 716.899c23.77 7.446 58.13 45.247 85.91 37.515 0 0-30.07-29.21-43.53-43.815-10.02-13.459-10.88-24.341-23.19-44.387l-7.45-9.164c-4.29 17.755-19.19 45.246-11.74 59.851m-42.1 267.182c-.85-1.431-10.591 14.319-11.164 13.46-7.446-10.023-11.741-9.45-23.483-17.755-9.45-11.455-13.745-35.796-23.195-47.251-21.192 2.864-51.833 77.605-68.729 95.365a43 43 0 0 0-3.15-1.72c-13.173-47.54-109.679-205.042-143.757-224.802a11108 11108 0 0 0-77.893-14.032c-24.914 27.205-36.368 67.297-62.428 93.643-26.632 26.632-62.142 44.101-87.629 71.878v12.314c8.877 13.173 23.196 16.037 37.514 23.482a16624 16624 0 0 1 59.279 28.067c6.014 1.43 12.314 1.72 18.327 1.14 10.882-.86 21.478-3.72 28.637-5.72 31.787-8.88 69.302-.58 98.511 6.3 20.332 4.86 31.787 18.9 46.678 28.06 28.064 17.47 57.274 23.2 82.761 42.1q4.869 6.3 9.45 12.6c28.064 10.88 118.841-88.78 120.271-117.129" class="primary" clip-rule="evenodd"/><path d="M534.877 418.215 635.965 159.91s76.747 39.805 165.808 235.396zm-337.057 65.3s67.297-24.341 137.458-8.018c70.446 16.323-55.556 160.366-55.556 160.366s-94.788-127.72-81.902-152.348" class="primary"/><path d="M531.155 378.412s-2.291 44.674 9.736 45.819l95.361-264.032c0-.286-.286-.286-.286 0-122.28 222.509-100.229 191.295-104.811 218.213" class="accent"/><path d="M789.746 380.419c-14.892-9.164-32.933-60.997-34.078-65.006-9.164-33.219-31.215-59.565-76.747-108.82-23.196-25.201-43.815-45.533-42.956-46.678.859-.86 19.473 14.032 30.069 22.909 24.914 20.619 47.824 43.242 76.174 78.751 52.119 64.72 64.147 112.257 74.17 127.721.286.573 1.718 2.864.859 3.723-1.146 1.432-7.732-2.005-15.464-6.014-5.441-2.864-10.596-5.727-12.027-6.586m-222.795 34.078c-2.578-1.718 10.023-27.778 29.496-57.56 16.036-24.628 17.754-22.624 32.646-46.965 8.304-13.173 15.75-26.346 17.468-25.487 1.146.287-.286 4.582-1.432 10.596-6.013 29.209 1.719 43.814-1.145 64.719 0 1.146-.573 4.582.573 4.868 1.145.573 4.295-4.868 7.445-9.45 3.15-4.295 8.305-8.877 18.328-17.755 19.759-17.754 21.764-17.182 22.623-16.609 1.718 1.146-.286 4.868 0 18.614 0 1.146 0 11.741 4.582 20.332.573.859 1.432 2.291 2.864 3.15 2.004 1.146 4.868 1.432 11.741-1.718 10.309-4.868 11.741-9.736 15.177-8.877 2.864.859 2.291 4.582 7.446 14.032 3.723 7.159 16.323 9.164 15.177 11.454-1.431 2.864-18.327 3.723-20.045 4.01-59.565 9.736-128.007 26.918-146.908 28.637-1.432.286-5.154.572-9.736 2.004s-5.728 2.577-6.3 2.005m-286.37 214.21c2.578 2.291.86 10.882-2.004 11.741-2.005.573-5.728-1.718-17.755-21.764-12.6-20.905-18.041-27.778-29.782-49.828-10.596-20.619-16.61-34.651-20.333-39.805 0 0-10.023-16.61-15.464-34.365-.859-2.863-1.145-6.014-1.145-6.014 0-2.29-.286-4.868.286-5.727 2.005-2.577 39.233 15.75 73.597 39.805 9.45 6.873 30.928 22.624 37.515 23.769.286.286 1.145.286 1.718 1.146 2.291 2.863-6.873 9.163-10.023 18.614-7.446 20.618-7.446 38.946-10.023 44.1-3.437 6.587-5.728 10.882-6.587 10.882s-1.145-14.605-1.145-14.605-10.596 2.291-12.028.287c-3.436-5.441 18.328-22.051 15.178-27.492-2.291-4.009-16.609 1.432-17.755-1.431-1.718-3.437 16.896-9.737 16.896-18.901 0-12.6-36.083-18.327-54.41-37.8-.573-.86-1.718-2.005-2.578-1.719-3.436 1.719 20.046 54.124 30.928 75.888 11.741 22.91 13.46 19.473 18.328 27.205.573.859 1.718 2.864 4.009 4.582 1.432.859 2.005.859 2.577 1.432" class="accent"/><path d="M1540.03 1958.88c-21.76 32.07-85.05 73.02-120.27 93.64-16.61 9.74-34.65 6.88-59.28 10.88-106.24 17.19-211.91-5.44-298.4-31.21-20.9-6.3-72.735-45.82-95.072-37.51-32.073 14.31-27.491 52.97-43.815 82.76-10.882 22.91-39.518 106.24-48.396 124.85-22.623 47.54-50.974 96.51-78.179 140.61-20.905 34.08-74.456 97.65-134.307 64.15-28.064-15.75-26.632-37.52-30.927-60.14-.287-.86-.287-13.17-1.146-13.17h-6.873a2700 2700 0 0 1-22.05 26.34c-41.524 38.09-103.952 28.93-118.557-28.06-9.737-37.52 8.305-75.32 18.614-99.94 19.282-59.38 38.564-118.75 57.847-178.13 10.309-49.25-13.173-89.34-26.633-121.7-25.2-61.86-32.359-135.45-57.846-198.46-10.596-26.63-30.928-40.37-38.947-59.27-9.45-22.63-30.355-115.41-46.964-123.43-53.265-24.05-67.583 56.13-98.225 67.01-62.428 22.34-89.633-65.58-93.642-110.82-51.833-17.19-90.779-95.08-65.865-166.96 22.05-62.71 68.442-107.96 156.357-106.24 7.732-9.74 19.76-14.6 28.064-23.48l17.183-68.73c8.973-16.61 17.85-33.31 26.632-50.12 12.314-18.04 34.651-40.95 52.978-52.97q15.75-7.74 31.214-15.75c-5.727-1.34-10.882-2.96-15.463-4.87 10.882-3.15 20.618-4.01 28.636-4.01 40.378-.29 56.701 22.62 101.089 21.19 20.045-.86 20.045-5.73 61.855-17.47 63.001-17.75 94.502-26.631 126.575-18.899 37.228 8.879 31.215 28.069 95.648 57.279 33.791 15.17 57.846 25.77 83.619 16.89 25.201-8.88 43.242-32.93 50.115-42.1 10.309-14.03 15.75-26.34 17.469-30.06 0 0 3.15-6.877 10.592-20.336 11.74-20.905 33.79-56.701 71.02-106.243 39.52-51.833 129.73-65.292 193.02-67.87 17.94 11.264 35.89 22.528 53.83 33.792 57.85 42.669 115.7 102.52 156.07 162.367 70.45 104.53 121.14 221.65 153.21 365.7 46.97 211.05-2.58 461.91-90.78 590.49" class="primary"/><path d="M402.86 438.547c1.719 30.069-23.195 111.397-28.064 129.439q-1.718.429-4.295.859c-3.723.286-7.446-.573-10.596-2.864l-.573-.286c-6.586-47.538 19.187-95.361 43.528-127.148m-63.286 49.539c-6.587 19.473-17.182 42.383-23.769 61.856q-.573.859-.573 2.004c-11.168 52.692-14.032 179.267-2.863 233.391l38.946 163.803c7.446 41.524-44.96 131.16-67.297 136.03.573-.86 3.437-13.75 6.014-24.35a113.6 113.6 0 0 0 2.577-17.75 22359 22359 0 0 0 7.16-112.83c1.145-14.319-.287-28.637-3.723-42.669a18708 18708 0 0 1-24.342-99.084c-14.032-72.451 7.16-191.008 28.065-242.268 8.304-20.332 38.946-58.133 39.805-58.133m236.54 40.957c50.115 21.478 72.452 89.061 103.093 131.157 36.942 50.687 78.179 102.234 109.393 157.789 4.296 12.6 39.519 81.329 53.265 103.093 33.219 56.701 65.578 167.808 65.578 253.148-1.145-.57-91.065-206.183-92.211-206.183 5.155 102.523-15.177 139.173-15.177 138.033-15.464-69.59-18.041-132.306-39.519-184.998C705.267 785.63 650.57 646.741 576.114 529.043m-210.768 75.019c14.318 14.605 18.328 78.179 24.914 103.093a30902 30902 0 0 1 31.214 104.525c20.332 46.678 55.269 74.17 53.265 134.307h-4.868c-83.047-32.073-118.557-217.927-104.525-341.925M1042.9 808.249c-.58 46.678-50.405 141.18-71.024 175.544-3.436.573-37.514-12.028-40.664-23.482-2.864-11.169 55.842-158.076 63.574-164.663 14.314 4.869 30.924 11.455 48.114 12.601" class="accent"/><path d="M1320.39 1447.71c-76.18.57-173.54-51.26-227.38-82.48-2.01-1.14-3.15-3.72-2.29-6.01.57-2.29 1.43-4.58 2-6.59.86-2.29 2.87-3.43 5.16-3.43 34.93 1.43 47.54 22.05 71.3 32.64 39.24 17.76 95.94 35.8 147.77 37.52 2.86 0 5.44-2.29 5.44-5.44.57-75.6-7.73-143.19-28.64-194.45-.19-.19-.28-.38-.28-.57-1.43-6.3-5.16-12.31-6.88-18.61 0-.58-.57-1.44-1.14-2.01-4.01-4.29-10.88-4.01-14.61-10.02-3.72-6.02 23.2-32.93 26.92-50.69 13.75-66.15-51.54-168.671-89.34-202.176-4.59 1.432-5.73 2.005-10.31 3.437-2.87 17.468-12.6 23.196-20.91 35.51-32.36 46.389-48.97 97.939-127.43 98.229-2.01 0-3.44 2-4.87 3.72-22.62 30.35-50.115 56.7-71.02 77.6-53.265 53.55-134.88 189.58-209.049 207.62-52.119 12.89-116.839-3.44-179.84 6.3-33.219 5.16-163.803 21.48-192.44 15.75-2.577-.57-4.296-3.15-4.009-5.73.286-4.86-1.718-8.3 4.009-11.16 23.769-5.73 44.96 4.01 65.865-.29 30.737-6.87 61.474-13.65 92.211-20.33h.286c82.188-13.75 157.217-6.88 232.818-21.19 1.718-.29 9.737-8.31 10.882-9.74 24.055-23.2 36.083-36.66 52.692-54.12 23.769-24.92 48.969-48.97 70.447-75.89 28.923-35.8 50.401-56.42 98.798-109.97 3.15-3.43 4.87-5.15 4.58-7.16 0-1.71 0-4.01-3.44-5.72-35.219-18.05-17.18-71.31-6.3-101.952 14.32-40.091 106.53-111.111 170.39-97.079 86.2 19.474 124.57 74.456 148.34 157.791 5.73 19.76 16.9 49.83 11.17 77.89-.19.19-.28.38-.28.57-4.59 12.03-6.59 29.21-11.17 40.95v.29c-6.02 22.05-8.59 37.52-24.34 50.97-2.01 1.72-2.58 4.59-1.15 6.59 31.5 54.7 44.96 124.29 47.54 203.9 1.72 44.38-2.01 108.53 5.72 145.76.29 1.72 1.72 3.15 3.15 3.72 65.87 28.64 233.11 171.82 252.58 238.26q.285 1.425 0 2.58c-4.58 19.47-11.17 37.8-17.75 55.55-.19.58-.58 1.15-1.15 1.72-44.67 48.97-135.45 105.96-233.68 62.72-55.84-24.63-93.35-58.14-131.15-102.81-25.78-30.36-50.98-64.72-75.89-96.51-41.52-52.69-74.74-110.25-113.98-165.81-17.18-24.05-33.21-52.11-51.542-76.17q0-.285-.286-.57a6492 6492 0 0 1-35.796-37.23c-3.15-5.73-1.146-7.16 2.005-10.02a6.2 6.2 0 0 1 2.577-1.15c20.618-3.43 41.81 26.63 51.832 39.81 0 .19.1.28.29.28 18.61 18.9 34.07 45.82 51.26 67.3.19.19.28.29.28.29 16.04 24.91 31.79 42.67 48.11 67.58 62.15 88.2 130.3 206.19 221.65 264.03 24.34 15.47 73.31 47.54 115.7 38.95 47.25-9.45 78.75-30.36 111.68-50.69 15.75-10.02 21.19-30.64 12.03-47.25-48.4-86.2-146.62-188.72-237.12-215.06-2.29-.58-3.72-2.58-4.01-4.87-.95-43.15-1.9-86.39-2.86-129.73a5.13 5.13 0 0 0-5.15-5.15m-758.308-395.48c102.806-3.72 28.923 172.97-42.097 148.63-47.823-16.61-18.041-96.22 1.432-121.99 10.023-12.89 25.774-18.05 40.665-26.64m-154.64 14.04c78.752 4.86 13.746 147.19-42.096 128.29-72.451-24.63 8.018-111.97 42.096-128.29" class="accent"/><path d="M656.011 1106.93c33.505 22.91 59.564 115.12 35.796 159.51-16.323 3.72-88.488 23.48-103.093 4.58v-6.3c56.128-21.19 69.015-82.47 67.297-157.79m-164.09 10.88c-2.864 39.52-13.173 96.79-17.182 121.99-3.437 20.33 6.3 46.97-1.718 61a6836 6836 0 0 0-29.496 18.61c-36.083-4.87-44.96-52.4-45.247-92.21 26.633-11.74 86.484-77.32 93.643-109.39m-290.665 162.66c22.051-.57 55.556 14.32 64.147 28.06-78.179-.57-94.502 80.76-106.243 148.34a42 42 0 0 0-4.582-1.43c-47.823-84.19-7.732-124.57 46.678-174.97m197.023 31.22c12.028 3.72 20.333 4.87 31.501 12.88 4.296 3.15 2.864 6.02-1.718 11.17-21.478 18.33-51.833 30.07-76.747 27.49-14.605-1.43-35.51-2.57-44.96 3.73-2.291 1.14-2.005 3.15-1.718 4.86 7.445 41.24 69.301 146.34 52.692 179.56-4.868.28-6.3.28-10.882.28-20.046-29.49-88.775-144.04-54.41-199.31 17.468-28.35 79.897-20.62 106.242-40.66" class="accent"/></g><defs><clipPath id="a"><rect width="1500" height="1500" fill="#fff" rx="250"/></clipPath></defs></svg>